%TF.GenerationSoftware,KiCad,Pcbnew,(5.1.10)-1*%
%TF.CreationDate,2021-11-03T13:15:42+05:30*%
%TF.ProjectId,Modbus_IO_Board,4d6f6462-7573-45f4-994f-5f426f617264,rev?*%
%TF.SameCoordinates,Original*%
%TF.FileFunction,Soldermask,Top*%
%TF.FilePolarity,Negative*%
%FSLAX46Y46*%
G04 Gerber Fmt 4.6, Leading zero omitted, Abs format (unit mm)*
G04 Created by KiCad (PCBNEW (5.1.10)-1) date 2021-11-03 13:15:42*
%MOMM*%
%LPD*%
G01*
G04 APERTURE LIST*
%ADD10R,0.600000X0.450000*%
%ADD11O,3.000000X5.000000*%
%ADD12C,2.800000*%
%ADD13R,1.650000X2.250000*%
%ADD14R,0.650000X1.595000*%
%ADD15C,1.000000*%
%ADD16R,2.500000X1.800000*%
%ADD17R,1.800000X1.200000*%
%ADD18R,1.200000X1.800000*%
%ADD19R,1.525000X0.650000*%
%ADD20R,1.150000X1.470000*%
%ADD21R,1.050000X0.850000*%
%ADD22C,0.800000*%
%ADD23R,1.200000X0.600000*%
%ADD24R,0.850000X1.050000*%
%ADD25R,1.500000X0.600000*%
%ADD26R,0.600000X1.500000*%
%ADD27R,1.900000X1.300000*%
%ADD28R,0.840000X0.840000*%
%ADD29R,0.450000X0.600000*%
%ADD30R,3.200000X1.750000*%
%ADD31R,0.950000X1.750000*%
%ADD32R,2.100000X5.600000*%
%ADD33R,1.150000X1.650000*%
%ADD34R,1.200000X0.750000*%
%ADD35C,3.100000*%
%ADD36R,1.650000X1.650000*%
%ADD37C,1.650000*%
%ADD38O,1.700000X4.000000*%
G04 APERTURE END LIST*
D10*
%TO.C,D11*%
X207000000Y-115050000D03*
X209100000Y-115050000D03*
%TD*%
%TO.C,D10*%
X201600000Y-115075000D03*
X203700000Y-115075000D03*
%TD*%
D11*
%TO.C,12V*%
X216590000Y-110980000D03*
%TD*%
%TO.C,12V*%
X175220000Y-110250000D03*
%TD*%
%TO.C,GND*%
X170220000Y-110240000D03*
%TD*%
%TO.C,GND*%
X221590000Y-110980000D03*
%TD*%
D12*
%TO.C,B*%
X179900000Y-101400000D03*
%TD*%
%TO.C,A*%
X178220000Y-105250000D03*
%TD*%
D11*
%TO.C,Z1*%
X226590000Y-122140000D03*
%TD*%
%TO.C,Z2*%
X214580000Y-121970000D03*
%TD*%
D13*
%TO.C,C8*%
X190800000Y-99230000D03*
X187700000Y-99230000D03*
%TD*%
D14*
%TO.C,IC5*%
X219585000Y-101652000D03*
X218315000Y-101652000D03*
X217045000Y-101652000D03*
X215775000Y-101652000D03*
X215775000Y-96148000D03*
X217045000Y-96148000D03*
X218315000Y-96148000D03*
X219585000Y-96148000D03*
%TD*%
D15*
%TO.C,GND*%
X216350000Y-91080000D03*
%TD*%
D16*
%TO.C,D4*%
X188160000Y-112460000D03*
X192160000Y-112460000D03*
%TD*%
D17*
%TO.C,FB1*%
X190350000Y-106810000D03*
X190350000Y-109710000D03*
%TD*%
D12*
%TO.C,A*%
X213590000Y-105940000D03*
%TD*%
D18*
%TO.C,FB2*%
X206800000Y-100230000D03*
X203900000Y-100230000D03*
%TD*%
D19*
%TO.C,IC3*%
X204682000Y-102385000D03*
X204682000Y-103655000D03*
X204682000Y-104925000D03*
X204682000Y-106195000D03*
X199258000Y-106195000D03*
X199258000Y-104925000D03*
X199258000Y-103655000D03*
X199258000Y-102385000D03*
%TD*%
%TO.C,C9*%
G36*
G01*
X190980001Y-102550000D02*
X189679999Y-102550000D01*
G75*
G02*
X189430000Y-102300001I0J249999D01*
G01*
X189430000Y-101649999D01*
G75*
G02*
X189679999Y-101400000I249999J0D01*
G01*
X190980001Y-101400000D01*
G75*
G02*
X191230000Y-101649999I0J-249999D01*
G01*
X191230000Y-102300001D01*
G75*
G02*
X190980001Y-102550000I-249999J0D01*
G01*
G37*
G36*
G01*
X190980001Y-105500000D02*
X189679999Y-105500000D01*
G75*
G02*
X189430000Y-105250001I0J249999D01*
G01*
X189430000Y-104599999D01*
G75*
G02*
X189679999Y-104350000I249999J0D01*
G01*
X190980001Y-104350000D01*
G75*
G02*
X191230000Y-104599999I0J-249999D01*
G01*
X191230000Y-105250001D01*
G75*
G02*
X190980001Y-105500000I-249999J0D01*
G01*
G37*
%TD*%
D20*
%TO.C,RT1*%
X180590000Y-109440000D03*
X178830000Y-109440000D03*
%TD*%
D12*
%TO.C,B*%
X212090000Y-101940000D03*
%TD*%
D21*
%TO.C,D3*%
X178650000Y-111850000D03*
X182250000Y-111850000D03*
%TD*%
D22*
%TO.C,TP1*%
X200610000Y-99020000D03*
%TD*%
%TO.C,C12*%
G36*
G01*
X208259999Y-99670000D02*
X209560001Y-99670000D01*
G75*
G02*
X209810000Y-99919999I0J-249999D01*
G01*
X209810000Y-100570001D01*
G75*
G02*
X209560001Y-100820000I-249999J0D01*
G01*
X208259999Y-100820000D01*
G75*
G02*
X208010000Y-100570001I0J249999D01*
G01*
X208010000Y-99919999D01*
G75*
G02*
X208259999Y-99670000I249999J0D01*
G01*
G37*
G36*
G01*
X208259999Y-102620000D02*
X209560001Y-102620000D01*
G75*
G02*
X209810000Y-102869999I0J-249999D01*
G01*
X209810000Y-103520001D01*
G75*
G02*
X209560001Y-103770000I-249999J0D01*
G01*
X208259999Y-103770000D01*
G75*
G02*
X208010000Y-103520001I0J249999D01*
G01*
X208010000Y-102869999D01*
G75*
G02*
X208259999Y-102620000I249999J0D01*
G01*
G37*
%TD*%
D23*
%TO.C,IC4*%
X185150000Y-91150000D03*
X185150000Y-92100000D03*
X185150000Y-93050000D03*
X182650000Y-93050000D03*
X182650000Y-92100000D03*
X182650000Y-91150000D03*
%TD*%
D24*
%TO.C,D8*%
X176100000Y-93100000D03*
X176100000Y-96700000D03*
%TD*%
D25*
%TO.C,IC1*%
X203670000Y-95690000D03*
X203670000Y-94890000D03*
X203670000Y-94090000D03*
X203670000Y-93290000D03*
X203670000Y-92490000D03*
X203670000Y-91690000D03*
X203670000Y-90890000D03*
X203670000Y-90090000D03*
D26*
X202220000Y-88640000D03*
X201420000Y-88640000D03*
X200620000Y-88640000D03*
X199820000Y-88640000D03*
X199020000Y-88640000D03*
X198220000Y-88640000D03*
X197420000Y-88640000D03*
X196620000Y-88640000D03*
D25*
X195170000Y-90090000D03*
X195170000Y-90890000D03*
X195170000Y-91690000D03*
X195170000Y-92490000D03*
X195170000Y-93290000D03*
X195170000Y-94090000D03*
X195170000Y-94890000D03*
X195170000Y-95690000D03*
D26*
X196620000Y-97140000D03*
X197420000Y-97140000D03*
X198220000Y-97140000D03*
X199020000Y-97140000D03*
X199820000Y-97140000D03*
X200620000Y-97140000D03*
X201420000Y-97140000D03*
X202220000Y-97140000D03*
%TD*%
%TO.C,R6*%
G36*
G01*
X182560000Y-89415000D02*
X182560000Y-89785000D01*
G75*
G02*
X182425000Y-89920000I-135000J0D01*
G01*
X182155000Y-89920000D01*
G75*
G02*
X182020000Y-89785000I0J135000D01*
G01*
X182020000Y-89415000D01*
G75*
G02*
X182155000Y-89280000I135000J0D01*
G01*
X182425000Y-89280000D01*
G75*
G02*
X182560000Y-89415000I0J-135000D01*
G01*
G37*
G36*
G01*
X183580000Y-89415000D02*
X183580000Y-89785000D01*
G75*
G02*
X183445000Y-89920000I-135000J0D01*
G01*
X183175000Y-89920000D01*
G75*
G02*
X183040000Y-89785000I0J135000D01*
G01*
X183040000Y-89415000D01*
G75*
G02*
X183175000Y-89280000I135000J0D01*
G01*
X183445000Y-89280000D01*
G75*
G02*
X183580000Y-89415000I0J-135000D01*
G01*
G37*
%TD*%
%TO.C,R5*%
G36*
G01*
X218090000Y-94665000D02*
X218090000Y-94295000D01*
G75*
G02*
X218225000Y-94160000I135000J0D01*
G01*
X218495000Y-94160000D01*
G75*
G02*
X218630000Y-94295000I0J-135000D01*
G01*
X218630000Y-94665000D01*
G75*
G02*
X218495000Y-94800000I-135000J0D01*
G01*
X218225000Y-94800000D01*
G75*
G02*
X218090000Y-94665000I0J135000D01*
G01*
G37*
G36*
G01*
X217070000Y-94665000D02*
X217070000Y-94295000D01*
G75*
G02*
X217205000Y-94160000I135000J0D01*
G01*
X217475000Y-94160000D01*
G75*
G02*
X217610000Y-94295000I0J-135000D01*
G01*
X217610000Y-94665000D01*
G75*
G02*
X217475000Y-94800000I-135000J0D01*
G01*
X217205000Y-94800000D01*
G75*
G02*
X217070000Y-94665000I0J135000D01*
G01*
G37*
%TD*%
%TO.C,C4*%
G36*
G01*
X192450000Y-92630000D02*
X192450000Y-92290000D01*
G75*
G02*
X192590000Y-92150000I140000J0D01*
G01*
X192870000Y-92150000D01*
G75*
G02*
X193010000Y-92290000I0J-140000D01*
G01*
X193010000Y-92630000D01*
G75*
G02*
X192870000Y-92770000I-140000J0D01*
G01*
X192590000Y-92770000D01*
G75*
G02*
X192450000Y-92630000I0J140000D01*
G01*
G37*
G36*
G01*
X191490000Y-92630000D02*
X191490000Y-92290000D01*
G75*
G02*
X191630000Y-92150000I140000J0D01*
G01*
X191910000Y-92150000D01*
G75*
G02*
X192050000Y-92290000I0J-140000D01*
G01*
X192050000Y-92630000D01*
G75*
G02*
X191910000Y-92770000I-140000J0D01*
G01*
X191630000Y-92770000D01*
G75*
G02*
X191490000Y-92630000I0J140000D01*
G01*
G37*
%TD*%
%TO.C,R4*%
G36*
G01*
X215530000Y-94675000D02*
X215530000Y-94305000D01*
G75*
G02*
X215665000Y-94170000I135000J0D01*
G01*
X215935000Y-94170000D01*
G75*
G02*
X216070000Y-94305000I0J-135000D01*
G01*
X216070000Y-94675000D01*
G75*
G02*
X215935000Y-94810000I-135000J0D01*
G01*
X215665000Y-94810000D01*
G75*
G02*
X215530000Y-94675000I0J135000D01*
G01*
G37*
G36*
G01*
X214510000Y-94675000D02*
X214510000Y-94305000D01*
G75*
G02*
X214645000Y-94170000I135000J0D01*
G01*
X214915000Y-94170000D01*
G75*
G02*
X215050000Y-94305000I0J-135000D01*
G01*
X215050000Y-94675000D01*
G75*
G02*
X214915000Y-94810000I-135000J0D01*
G01*
X214645000Y-94810000D01*
G75*
G02*
X214510000Y-94675000I0J135000D01*
G01*
G37*
%TD*%
%TO.C,C10*%
G36*
G01*
X185100000Y-101150001D02*
X185100000Y-99849999D01*
G75*
G02*
X185349999Y-99600000I249999J0D01*
G01*
X186000001Y-99600000D01*
G75*
G02*
X186250000Y-99849999I0J-249999D01*
G01*
X186250000Y-101150001D01*
G75*
G02*
X186000001Y-101400000I-249999J0D01*
G01*
X185349999Y-101400000D01*
G75*
G02*
X185100000Y-101150001I0J249999D01*
G01*
G37*
G36*
G01*
X182150000Y-101150001D02*
X182150000Y-99849999D01*
G75*
G02*
X182399999Y-99600000I249999J0D01*
G01*
X183050001Y-99600000D01*
G75*
G02*
X183300000Y-99849999I0J-249999D01*
G01*
X183300000Y-101150001D01*
G75*
G02*
X183050001Y-101400000I-249999J0D01*
G01*
X182399999Y-101400000D01*
G75*
G02*
X182150000Y-101150001I0J249999D01*
G01*
G37*
%TD*%
%TO.C,R2*%
G36*
G01*
X198440000Y-100995000D02*
X198440000Y-100625000D01*
G75*
G02*
X198575000Y-100490000I135000J0D01*
G01*
X198845000Y-100490000D01*
G75*
G02*
X198980000Y-100625000I0J-135000D01*
G01*
X198980000Y-100995000D01*
G75*
G02*
X198845000Y-101130000I-135000J0D01*
G01*
X198575000Y-101130000D01*
G75*
G02*
X198440000Y-100995000I0J135000D01*
G01*
G37*
G36*
G01*
X199460000Y-100995000D02*
X199460000Y-100625000D01*
G75*
G02*
X199595000Y-100490000I135000J0D01*
G01*
X199865000Y-100490000D01*
G75*
G02*
X200000000Y-100625000I0J-135000D01*
G01*
X200000000Y-100995000D01*
G75*
G02*
X199865000Y-101130000I-135000J0D01*
G01*
X199595000Y-101130000D01*
G75*
G02*
X199460000Y-100995000I0J135000D01*
G01*
G37*
%TD*%
%TO.C,C2*%
G36*
G01*
X205590000Y-96860000D02*
X205590000Y-97200000D01*
G75*
G02*
X205450000Y-97340000I-140000J0D01*
G01*
X205170000Y-97340000D01*
G75*
G02*
X205030000Y-97200000I0J140000D01*
G01*
X205030000Y-96860000D01*
G75*
G02*
X205170000Y-96720000I140000J0D01*
G01*
X205450000Y-96720000D01*
G75*
G02*
X205590000Y-96860000I0J-140000D01*
G01*
G37*
G36*
G01*
X206550000Y-96860000D02*
X206550000Y-97200000D01*
G75*
G02*
X206410000Y-97340000I-140000J0D01*
G01*
X206130000Y-97340000D01*
G75*
G02*
X205990000Y-97200000I0J140000D01*
G01*
X205990000Y-96860000D01*
G75*
G02*
X206130000Y-96720000I140000J0D01*
G01*
X206410000Y-96720000D01*
G75*
G02*
X206550000Y-96860000I0J-140000D01*
G01*
G37*
%TD*%
D27*
%TO.C,RV1*%
X185040000Y-114750000D03*
X185040000Y-111850000D03*
%TD*%
%TO.C,L1*%
G36*
G01*
X192180000Y-89500001D02*
X192180000Y-88099999D01*
G75*
G02*
X192429999Y-87850000I249999J0D01*
G01*
X192980001Y-87850000D01*
G75*
G02*
X193230000Y-88099999I0J-249999D01*
G01*
X193230000Y-89500001D01*
G75*
G02*
X192980001Y-89750000I-249999J0D01*
G01*
X192429999Y-89750000D01*
G75*
G02*
X192180000Y-89500001I0J249999D01*
G01*
G37*
G36*
G01*
X189030000Y-89500001D02*
X189030000Y-88099999D01*
G75*
G02*
X189279999Y-87850000I249999J0D01*
G01*
X189830001Y-87850000D01*
G75*
G02*
X190080000Y-88099999I0J-249999D01*
G01*
X190080000Y-89500001D01*
G75*
G02*
X189830001Y-89750000I-249999J0D01*
G01*
X189279999Y-89750000D01*
G75*
G02*
X189030000Y-89500001I0J249999D01*
G01*
G37*
%TD*%
%TO.C,R3*%
G36*
G01*
X191835000Y-94130000D02*
X191465000Y-94130000D01*
G75*
G02*
X191330000Y-93995000I0J135000D01*
G01*
X191330000Y-93725000D01*
G75*
G02*
X191465000Y-93590000I135000J0D01*
G01*
X191835000Y-93590000D01*
G75*
G02*
X191970000Y-93725000I0J-135000D01*
G01*
X191970000Y-93995000D01*
G75*
G02*
X191835000Y-94130000I-135000J0D01*
G01*
G37*
G36*
G01*
X191835000Y-95150000D02*
X191465000Y-95150000D01*
G75*
G02*
X191330000Y-95015000I0J135000D01*
G01*
X191330000Y-94745000D01*
G75*
G02*
X191465000Y-94610000I135000J0D01*
G01*
X191835000Y-94610000D01*
G75*
G02*
X191970000Y-94745000I0J-135000D01*
G01*
X191970000Y-95015000D01*
G75*
G02*
X191835000Y-95150000I-135000J0D01*
G01*
G37*
%TD*%
D28*
%TO.C,U1*%
X208350000Y-105940000D03*
X210355000Y-105000000D03*
X210355000Y-106880000D03*
%TD*%
%TO.C,R7*%
G36*
G01*
X192635000Y-94610000D02*
X193005000Y-94610000D01*
G75*
G02*
X193140000Y-94745000I0J-135000D01*
G01*
X193140000Y-95015000D01*
G75*
G02*
X193005000Y-95150000I-135000J0D01*
G01*
X192635000Y-95150000D01*
G75*
G02*
X192500000Y-95015000I0J135000D01*
G01*
X192500000Y-94745000D01*
G75*
G02*
X192635000Y-94610000I135000J0D01*
G01*
G37*
G36*
G01*
X192635000Y-93590000D02*
X193005000Y-93590000D01*
G75*
G02*
X193140000Y-93725000I0J-135000D01*
G01*
X193140000Y-93995000D01*
G75*
G02*
X193005000Y-94130000I-135000J0D01*
G01*
X192635000Y-94130000D01*
G75*
G02*
X192500000Y-93995000I0J135000D01*
G01*
X192500000Y-93725000D01*
G75*
G02*
X192635000Y-93590000I135000J0D01*
G01*
G37*
%TD*%
D29*
%TO.C,D5*%
X206740000Y-106380000D03*
X206740000Y-104280000D03*
%TD*%
%TO.C,R1*%
G36*
G01*
X197605000Y-102150000D02*
X197235000Y-102150000D01*
G75*
G02*
X197100000Y-102015000I0J135000D01*
G01*
X197100000Y-101745000D01*
G75*
G02*
X197235000Y-101610000I135000J0D01*
G01*
X197605000Y-101610000D01*
G75*
G02*
X197740000Y-101745000I0J-135000D01*
G01*
X197740000Y-102015000D01*
G75*
G02*
X197605000Y-102150000I-135000J0D01*
G01*
G37*
G36*
G01*
X197605000Y-103170000D02*
X197235000Y-103170000D01*
G75*
G02*
X197100000Y-103035000I0J135000D01*
G01*
X197100000Y-102765000D01*
G75*
G02*
X197235000Y-102630000I135000J0D01*
G01*
X197605000Y-102630000D01*
G75*
G02*
X197740000Y-102765000I0J-135000D01*
G01*
X197740000Y-103035000D01*
G75*
G02*
X197605000Y-103170000I-135000J0D01*
G01*
G37*
%TD*%
D30*
%TO.C,IC2*%
X185500000Y-109250000D03*
D31*
X183200000Y-102950000D03*
X185500000Y-102950000D03*
X187800000Y-102950000D03*
%TD*%
%TO.C,R8*%
G36*
G01*
X182760000Y-94315000D02*
X182760000Y-94685000D01*
G75*
G02*
X182625000Y-94820000I-135000J0D01*
G01*
X182355000Y-94820000D01*
G75*
G02*
X182220000Y-94685000I0J135000D01*
G01*
X182220000Y-94315000D01*
G75*
G02*
X182355000Y-94180000I135000J0D01*
G01*
X182625000Y-94180000D01*
G75*
G02*
X182760000Y-94315000I0J-135000D01*
G01*
G37*
G36*
G01*
X183780000Y-94315000D02*
X183780000Y-94685000D01*
G75*
G02*
X183645000Y-94820000I-135000J0D01*
G01*
X183375000Y-94820000D01*
G75*
G02*
X183240000Y-94685000I0J135000D01*
G01*
X183240000Y-94315000D01*
G75*
G02*
X183375000Y-94180000I135000J0D01*
G01*
X183645000Y-94180000D01*
G75*
G02*
X183780000Y-94315000I0J-135000D01*
G01*
G37*
%TD*%
D29*
%TO.C,D7*%
X179525000Y-89025000D03*
X179525000Y-91125000D03*
%TD*%
%TO.C,C5*%
G36*
G01*
X192020000Y-90710000D02*
X192020000Y-91050000D01*
G75*
G02*
X191880000Y-91190000I-140000J0D01*
G01*
X191600000Y-91190000D01*
G75*
G02*
X191460000Y-91050000I0J140000D01*
G01*
X191460000Y-90710000D01*
G75*
G02*
X191600000Y-90570000I140000J0D01*
G01*
X191880000Y-90570000D01*
G75*
G02*
X192020000Y-90710000I0J-140000D01*
G01*
G37*
G36*
G01*
X192980000Y-90710000D02*
X192980000Y-91050000D01*
G75*
G02*
X192840000Y-91190000I-140000J0D01*
G01*
X192560000Y-91190000D01*
G75*
G02*
X192420000Y-91050000I0J140000D01*
G01*
X192420000Y-90710000D01*
G75*
G02*
X192560000Y-90570000I140000J0D01*
G01*
X192840000Y-90570000D01*
G75*
G02*
X192980000Y-90710000I0J-140000D01*
G01*
G37*
%TD*%
D32*
%TO.C,Y1*%
X209980000Y-86040000D03*
X209980000Y-95540000D03*
%TD*%
D22*
%TO.C,TP2*%
X202249200Y-99040000D03*
%TD*%
%TO.C,C3*%
G36*
G01*
X206295001Y-93220000D02*
X205444999Y-93220000D01*
G75*
G02*
X205195000Y-92970001I0J249999D01*
G01*
X205195000Y-92069999D01*
G75*
G02*
X205444999Y-91820000I249999J0D01*
G01*
X206295001Y-91820000D01*
G75*
G02*
X206545000Y-92069999I0J-249999D01*
G01*
X206545000Y-92970001D01*
G75*
G02*
X206295001Y-93220000I-249999J0D01*
G01*
G37*
G36*
G01*
X206295001Y-95920000D02*
X205444999Y-95920000D01*
G75*
G02*
X205195000Y-95670001I0J249999D01*
G01*
X205195000Y-94769999D01*
G75*
G02*
X205444999Y-94520000I249999J0D01*
G01*
X206295001Y-94520000D01*
G75*
G02*
X206545000Y-94769999I0J-249999D01*
G01*
X206545000Y-95670001D01*
G75*
G02*
X206295001Y-95920000I-249999J0D01*
G01*
G37*
%TD*%
%TO.C,C13*%
G36*
G01*
X181270000Y-90400000D02*
X180930000Y-90400000D01*
G75*
G02*
X180790000Y-90260000I0J140000D01*
G01*
X180790000Y-89980000D01*
G75*
G02*
X180930000Y-89840000I140000J0D01*
G01*
X181270000Y-89840000D01*
G75*
G02*
X181410000Y-89980000I0J-140000D01*
G01*
X181410000Y-90260000D01*
G75*
G02*
X181270000Y-90400000I-140000J0D01*
G01*
G37*
G36*
G01*
X181270000Y-91360000D02*
X180930000Y-91360000D01*
G75*
G02*
X180790000Y-91220000I0J140000D01*
G01*
X180790000Y-90940000D01*
G75*
G02*
X180930000Y-90800000I140000J0D01*
G01*
X181270000Y-90800000D01*
G75*
G02*
X181410000Y-90940000I0J-140000D01*
G01*
X181410000Y-91220000D01*
G75*
G02*
X181270000Y-91360000I-140000J0D01*
G01*
G37*
%TD*%
%TO.C,C16*%
G36*
G01*
X187100000Y-92430000D02*
X187100000Y-92770000D01*
G75*
G02*
X186960000Y-92910000I-140000J0D01*
G01*
X186680000Y-92910000D01*
G75*
G02*
X186540000Y-92770000I0J140000D01*
G01*
X186540000Y-92430000D01*
G75*
G02*
X186680000Y-92290000I140000J0D01*
G01*
X186960000Y-92290000D01*
G75*
G02*
X187100000Y-92430000I0J-140000D01*
G01*
G37*
G36*
G01*
X188060000Y-92430000D02*
X188060000Y-92770000D01*
G75*
G02*
X187920000Y-92910000I-140000J0D01*
G01*
X187640000Y-92910000D01*
G75*
G02*
X187500000Y-92770000I0J140000D01*
G01*
X187500000Y-92430000D01*
G75*
G02*
X187640000Y-92290000I140000J0D01*
G01*
X187920000Y-92290000D01*
G75*
G02*
X188060000Y-92430000I0J-140000D01*
G01*
G37*
%TD*%
D33*
%TO.C,D1*%
X196070000Y-102540000D03*
X192770000Y-102540000D03*
%TD*%
D34*
%TO.C,D2*%
X192750000Y-100350000D03*
X196150000Y-100350000D03*
%TD*%
%TO.C,C1*%
G36*
G01*
X197690000Y-100140000D02*
X197350000Y-100140000D01*
G75*
G02*
X197210000Y-100000000I0J140000D01*
G01*
X197210000Y-99720000D01*
G75*
G02*
X197350000Y-99580000I140000J0D01*
G01*
X197690000Y-99580000D01*
G75*
G02*
X197830000Y-99720000I0J-140000D01*
G01*
X197830000Y-100000000D01*
G75*
G02*
X197690000Y-100140000I-140000J0D01*
G01*
G37*
G36*
G01*
X197690000Y-101100000D02*
X197350000Y-101100000D01*
G75*
G02*
X197210000Y-100960000I0J140000D01*
G01*
X197210000Y-100680000D01*
G75*
G02*
X197350000Y-100540000I140000J0D01*
G01*
X197690000Y-100540000D01*
G75*
G02*
X197830000Y-100680000I0J-140000D01*
G01*
X197830000Y-100960000D01*
G75*
G02*
X197690000Y-101100000I-140000J0D01*
G01*
G37*
%TD*%
D22*
%TO.C,TP3*%
X198200000Y-98820000D03*
%TD*%
%TO.C,C11*%
G36*
G01*
X205970000Y-102560000D02*
X205970000Y-102220000D01*
G75*
G02*
X206110000Y-102080000I140000J0D01*
G01*
X206390000Y-102080000D01*
G75*
G02*
X206530000Y-102220000I0J-140000D01*
G01*
X206530000Y-102560000D01*
G75*
G02*
X206390000Y-102700000I-140000J0D01*
G01*
X206110000Y-102700000D01*
G75*
G02*
X205970000Y-102560000I0J140000D01*
G01*
G37*
G36*
G01*
X206930000Y-102560000D02*
X206930000Y-102220000D01*
G75*
G02*
X207070000Y-102080000I140000J0D01*
G01*
X207350000Y-102080000D01*
G75*
G02*
X207490000Y-102220000I0J-140000D01*
G01*
X207490000Y-102560000D01*
G75*
G02*
X207350000Y-102700000I-140000J0D01*
G01*
X207070000Y-102700000D01*
G75*
G02*
X206930000Y-102560000I0J140000D01*
G01*
G37*
%TD*%
%TO.C,C15*%
G36*
G01*
X187100000Y-91330000D02*
X187100000Y-91670000D01*
G75*
G02*
X186960000Y-91810000I-140000J0D01*
G01*
X186680000Y-91810000D01*
G75*
G02*
X186540000Y-91670000I0J140000D01*
G01*
X186540000Y-91330000D01*
G75*
G02*
X186680000Y-91190000I140000J0D01*
G01*
X186960000Y-91190000D01*
G75*
G02*
X187100000Y-91330000I0J-140000D01*
G01*
G37*
G36*
G01*
X188060000Y-91330000D02*
X188060000Y-91670000D01*
G75*
G02*
X187920000Y-91810000I-140000J0D01*
G01*
X187640000Y-91810000D01*
G75*
G02*
X187500000Y-91670000I0J140000D01*
G01*
X187500000Y-91330000D01*
G75*
G02*
X187640000Y-91190000I140000J0D01*
G01*
X187920000Y-91190000D01*
G75*
G02*
X188060000Y-91330000I0J-140000D01*
G01*
G37*
%TD*%
D24*
%TO.C,D6*%
X173000000Y-93100000D03*
X173000000Y-96700000D03*
%TD*%
D29*
%TO.C,D9*%
X179500000Y-95150000D03*
X179500000Y-93050000D03*
%TD*%
%TO.C,C7*%
G36*
G01*
X213400000Y-88270000D02*
X213740000Y-88270000D01*
G75*
G02*
X213880000Y-88410000I0J-140000D01*
G01*
X213880000Y-88690000D01*
G75*
G02*
X213740000Y-88830000I-140000J0D01*
G01*
X213400000Y-88830000D01*
G75*
G02*
X213260000Y-88690000I0J140000D01*
G01*
X213260000Y-88410000D01*
G75*
G02*
X213400000Y-88270000I140000J0D01*
G01*
G37*
G36*
G01*
X213400000Y-87310000D02*
X213740000Y-87310000D01*
G75*
G02*
X213880000Y-87450000I0J-140000D01*
G01*
X213880000Y-87730000D01*
G75*
G02*
X213740000Y-87870000I-140000J0D01*
G01*
X213400000Y-87870000D01*
G75*
G02*
X213260000Y-87730000I0J140000D01*
G01*
X213260000Y-87450000D01*
G75*
G02*
X213400000Y-87310000I140000J0D01*
G01*
G37*
%TD*%
%TO.C,C14*%
G36*
G01*
X180930000Y-93800000D02*
X181270000Y-93800000D01*
G75*
G02*
X181410000Y-93940000I0J-140000D01*
G01*
X181410000Y-94220000D01*
G75*
G02*
X181270000Y-94360000I-140000J0D01*
G01*
X180930000Y-94360000D01*
G75*
G02*
X180790000Y-94220000I0J140000D01*
G01*
X180790000Y-93940000D01*
G75*
G02*
X180930000Y-93800000I140000J0D01*
G01*
G37*
G36*
G01*
X180930000Y-92840000D02*
X181270000Y-92840000D01*
G75*
G02*
X181410000Y-92980000I0J-140000D01*
G01*
X181410000Y-93260000D01*
G75*
G02*
X181270000Y-93400000I-140000J0D01*
G01*
X180930000Y-93400000D01*
G75*
G02*
X180790000Y-93260000I0J140000D01*
G01*
X180790000Y-92980000D01*
G75*
G02*
X180930000Y-92840000I140000J0D01*
G01*
G37*
%TD*%
%TO.C,C6*%
G36*
G01*
X213770000Y-93260000D02*
X213430000Y-93260000D01*
G75*
G02*
X213290000Y-93120000I0J140000D01*
G01*
X213290000Y-92840000D01*
G75*
G02*
X213430000Y-92700000I140000J0D01*
G01*
X213770000Y-92700000D01*
G75*
G02*
X213910000Y-92840000I0J-140000D01*
G01*
X213910000Y-93120000D01*
G75*
G02*
X213770000Y-93260000I-140000J0D01*
G01*
G37*
G36*
G01*
X213770000Y-94220000D02*
X213430000Y-94220000D01*
G75*
G02*
X213290000Y-94080000I0J140000D01*
G01*
X213290000Y-93800000D01*
G75*
G02*
X213430000Y-93660000I140000J0D01*
G01*
X213770000Y-93660000D01*
G75*
G02*
X213910000Y-93800000I0J-140000D01*
G01*
X213910000Y-94080000D01*
G75*
G02*
X213770000Y-94220000I-140000J0D01*
G01*
G37*
%TD*%
D35*
%TO.C,H1*%
X174010000Y-85760000D03*
%TD*%
%TO.C,H4*%
X224770000Y-114780000D03*
%TD*%
%TO.C,H3*%
X166760000Y-114780000D03*
%TD*%
%TO.C,H2*%
X217520000Y-85760000D03*
%TD*%
D12*
%TO.C,GND*%
X221550000Y-105770000D03*
%TD*%
%TO.C,GND*%
X170200000Y-105010000D03*
%TD*%
D36*
%TO.C,J3*%
X209490000Y-120500000D03*
D37*
X206950000Y-120500000D03*
X204410000Y-120500000D03*
X201870000Y-120500000D03*
X199330000Y-120500000D03*
%TD*%
D36*
%TO.C,J2*%
X182040000Y-120490000D03*
D37*
X184580000Y-120490000D03*
X187120000Y-120490000D03*
X189660000Y-120490000D03*
X192200000Y-120490000D03*
%TD*%
D11*
%TO.C,Z1*%
X176710000Y-122010000D03*
%TD*%
%TO.C,Z2*%
X164710000Y-122010000D03*
%TD*%
D38*
%TO.C,J1*%
X201980000Y-82430000D03*
X199440000Y-82430000D03*
X196900000Y-82430000D03*
X194360000Y-82430000D03*
X191820000Y-82430000D03*
X189280000Y-82430000D03*
%TD*%
M02*
