%TF.GenerationSoftware,KiCad,Pcbnew,(5.1.10)-1*%
%TF.CreationDate,2021-11-03T13:15:42+05:30*%
%TF.ProjectId,Modbus_IO_Board,4d6f6462-7573-45f4-994f-5f426f617264,rev?*%
%TF.SameCoordinates,Original*%
%TF.FileFunction,Other,Fab,Top*%
%FSLAX46Y46*%
G04 Gerber Fmt 4.6, Leading zero omitted, Abs format (unit mm)*
G04 Created by KiCad (PCBNEW (5.1.10)-1) date 2021-11-03 13:15:42*
%MOMM*%
%LPD*%
G01*
G04 APERTURE LIST*
%ADD10C,0.100000*%
%ADD11C,0.127000*%
%ADD12C,0.200000*%
%ADD13C,0.150000*%
%ADD14C,0.254000*%
%ADD15C,0.120000*%
%ADD16C,0.098425*%
%ADD17C,0.040000*%
G04 APERTURE END LIST*
D10*
%TO.C,D11*%
X208950000Y-115750000D02*
X207150000Y-115750000D01*
X207150000Y-115750000D02*
X207150000Y-114350000D01*
X207150000Y-114350000D02*
X208950000Y-114350000D01*
X208950000Y-114350000D02*
X208950000Y-115750000D01*
X208350000Y-115400000D02*
X208350000Y-114700000D01*
X208350000Y-115050000D02*
X208550000Y-115050000D01*
X208350000Y-115050000D02*
X207850000Y-115400000D01*
X207850000Y-115400000D02*
X207850000Y-114700000D01*
X207850000Y-114700000D02*
X208350000Y-115050000D01*
X207850000Y-115050000D02*
X207600000Y-115050000D01*
%TO.C,D10*%
X203550000Y-115775000D02*
X201750000Y-115775000D01*
X201750000Y-115775000D02*
X201750000Y-114375000D01*
X201750000Y-114375000D02*
X203550000Y-114375000D01*
X203550000Y-114375000D02*
X203550000Y-115775000D01*
X202950000Y-115425000D02*
X202950000Y-114725000D01*
X202950000Y-115075000D02*
X203150000Y-115075000D01*
X202950000Y-115075000D02*
X202450000Y-115425000D01*
X202450000Y-115425000D02*
X202450000Y-114725000D01*
X202450000Y-114725000D02*
X202950000Y-115075000D01*
X202450000Y-115075000D02*
X202200000Y-115075000D01*
%TO.C,Z1*%
X228744066Y-122140000D02*
G75*
G03*
X228744066Y-122140000I-2154066J0D01*
G01*
%TO.C,Z2*%
X216734066Y-121970000D02*
G75*
G03*
X216734066Y-121970000I-2154066J0D01*
G01*
%TO.C,C8*%
X187500000Y-97830000D02*
X191000000Y-97830000D01*
X191000000Y-97830000D02*
X191000000Y-100630000D01*
X191000000Y-100630000D02*
X187500000Y-100630000D01*
X187500000Y-100630000D02*
X187500000Y-97830000D01*
X187500000Y-98655000D02*
X188325000Y-97830000D01*
%TO.C,IC5*%
X220600000Y-96945000D02*
X220600000Y-100855000D01*
X220600000Y-100855000D02*
X214760000Y-100855000D01*
X214760000Y-100855000D02*
X214760000Y-96945000D01*
X214760000Y-96945000D02*
X220600000Y-96945000D01*
X219330000Y-96945000D02*
X220600000Y-98215000D01*
%TO.C,D4*%
X192460000Y-113960000D02*
X187860000Y-113960000D01*
X187860000Y-113960000D02*
X187860000Y-110960000D01*
X192460000Y-110960000D02*
X192460000Y-113960000D01*
X192460000Y-110960000D02*
X187860000Y-110960000D01*
X189510560Y-112461020D02*
X188608860Y-112461020D01*
X190661180Y-112461020D02*
X191659400Y-112461020D01*
X189510560Y-111660920D02*
X189510560Y-113261120D01*
X190661180Y-113210320D02*
X190661180Y-111660920D01*
X189510560Y-112461020D02*
X190661180Y-113210320D01*
X189510560Y-112461020D02*
X190661180Y-111660920D01*
%TO.C,FB1*%
X189550000Y-109860000D02*
X189550000Y-106660000D01*
X189550000Y-106660000D02*
X191150000Y-106660000D01*
X191150000Y-106660000D02*
X191150000Y-109860000D01*
X191150000Y-109860000D02*
X189550000Y-109860000D01*
%TO.C,FB2*%
X206950000Y-99430000D02*
X206950000Y-101030000D01*
X203750000Y-99430000D02*
X206950000Y-99430000D01*
X203750000Y-101030000D02*
X203750000Y-99430000D01*
X206950000Y-101030000D02*
X203750000Y-101030000D01*
%TO.C,IC3*%
X200020000Y-101840000D02*
X203920000Y-101840000D01*
X203920000Y-101840000D02*
X203920000Y-106740000D01*
X203920000Y-106740000D02*
X200020000Y-106740000D01*
X200020000Y-106740000D02*
X200020000Y-101840000D01*
X200020000Y-103110000D02*
X201290000Y-101840000D01*
%TO.C,C9*%
X191130000Y-105050000D02*
X189530000Y-105050000D01*
X189530000Y-105050000D02*
X189530000Y-101850000D01*
X189530000Y-101850000D02*
X191130000Y-101850000D01*
X191130000Y-101850000D02*
X191130000Y-105050000D01*
D11*
%TO.C,RT1*%
X180810000Y-110160000D02*
X178610000Y-110160000D01*
X180810000Y-108720000D02*
X178610000Y-108720000D01*
X180810000Y-110160000D02*
X180810000Y-108720000D01*
X178610000Y-110160000D02*
X178610000Y-108720000D01*
D10*
%TO.C,D3*%
X181800000Y-112650000D02*
X179100000Y-112650000D01*
X179100000Y-112650000D02*
X179100000Y-111050000D01*
X179100000Y-111050000D02*
X181800000Y-111050000D01*
X181800000Y-111050000D02*
X181800000Y-112650000D01*
X181800000Y-112125000D02*
X181275000Y-112650000D01*
%TO.C,C12*%
X208110000Y-100120000D02*
X209710000Y-100120000D01*
X209710000Y-100120000D02*
X209710000Y-103320000D01*
X209710000Y-103320000D02*
X208110000Y-103320000D01*
X208110000Y-103320000D02*
X208110000Y-100120000D01*
%TO.C,IC4*%
X183100000Y-91600000D02*
X184050000Y-90650000D01*
X183100000Y-93550000D02*
X183100000Y-90650000D01*
X184700000Y-93550000D02*
X183100000Y-93550000D01*
X184700000Y-90650000D02*
X184700000Y-93550000D01*
X183100000Y-90650000D02*
X184700000Y-90650000D01*
%TO.C,D8*%
X175825000Y-96250000D02*
X175300000Y-95725000D01*
X176900000Y-96250000D02*
X175300000Y-96250000D01*
X176900000Y-93550000D02*
X176900000Y-96250000D01*
X175300000Y-93550000D02*
X176900000Y-93550000D01*
X175300000Y-96250000D02*
X175300000Y-93550000D01*
%TO.C,IC1*%
X202920000Y-95590000D02*
X202120000Y-96390000D01*
X202920000Y-89390000D02*
X202920000Y-96390000D01*
X195920000Y-89390000D02*
X202920000Y-89390000D01*
X195920000Y-96390000D02*
X195920000Y-89390000D01*
X202920000Y-96390000D02*
X195920000Y-96390000D01*
%TO.C,R6*%
X183325000Y-89330000D02*
X183325000Y-89870000D01*
X183325000Y-89870000D02*
X182275000Y-89870000D01*
X182275000Y-89870000D02*
X182275000Y-89330000D01*
X182275000Y-89330000D02*
X183325000Y-89330000D01*
%TO.C,R5*%
X217325000Y-94750000D02*
X217325000Y-94210000D01*
X217325000Y-94210000D02*
X218375000Y-94210000D01*
X218375000Y-94210000D02*
X218375000Y-94750000D01*
X218375000Y-94750000D02*
X217325000Y-94750000D01*
%TO.C,C4*%
X191750000Y-92710000D02*
X191750000Y-92210000D01*
X191750000Y-92210000D02*
X192750000Y-92210000D01*
X192750000Y-92210000D02*
X192750000Y-92710000D01*
X192750000Y-92710000D02*
X191750000Y-92710000D01*
%TO.C,R4*%
X214765000Y-94760000D02*
X214765000Y-94220000D01*
X214765000Y-94220000D02*
X215815000Y-94220000D01*
X215815000Y-94220000D02*
X215815000Y-94760000D01*
X215815000Y-94760000D02*
X214765000Y-94760000D01*
%TO.C,C10*%
X182600000Y-101300000D02*
X182600000Y-99700000D01*
X182600000Y-99700000D02*
X185800000Y-99700000D01*
X185800000Y-99700000D02*
X185800000Y-101300000D01*
X185800000Y-101300000D02*
X182600000Y-101300000D01*
%TO.C,R2*%
X199745000Y-101080000D02*
X198695000Y-101080000D01*
X199745000Y-100540000D02*
X199745000Y-101080000D01*
X198695000Y-100540000D02*
X199745000Y-100540000D01*
X198695000Y-101080000D02*
X198695000Y-100540000D01*
%TO.C,C2*%
X206290000Y-96780000D02*
X206290000Y-97280000D01*
X206290000Y-97280000D02*
X205290000Y-97280000D01*
X205290000Y-97280000D02*
X205290000Y-96780000D01*
X205290000Y-96780000D02*
X206290000Y-96780000D01*
%TO.C,RV1*%
X185840000Y-111700000D02*
X185840000Y-114900000D01*
X185840000Y-114900000D02*
X184240000Y-114900000D01*
X184240000Y-114900000D02*
X184240000Y-111700000D01*
X184240000Y-111700000D02*
X185840000Y-111700000D01*
%TO.C,L1*%
X189530000Y-89600000D02*
X189530000Y-88000000D01*
X189530000Y-88000000D02*
X192730000Y-88000000D01*
X192730000Y-88000000D02*
X192730000Y-89600000D01*
X192730000Y-89600000D02*
X189530000Y-89600000D01*
%TO.C,R3*%
X191920000Y-94895000D02*
X191380000Y-94895000D01*
X191380000Y-94895000D02*
X191380000Y-93845000D01*
X191380000Y-93845000D02*
X191920000Y-93845000D01*
X191920000Y-93845000D02*
X191920000Y-94895000D01*
%TO.C,U1*%
X210002000Y-107400000D02*
X210002000Y-104480000D01*
X210002000Y-104480000D02*
X208702000Y-104480000D01*
X208702000Y-104480000D02*
X208702000Y-107400000D01*
X208702000Y-107400000D02*
X210002000Y-107400000D01*
%TO.C,R7*%
X192550000Y-93845000D02*
X193090000Y-93845000D01*
X193090000Y-93845000D02*
X193090000Y-94895000D01*
X193090000Y-94895000D02*
X192550000Y-94895000D01*
X192550000Y-94895000D02*
X192550000Y-93845000D01*
%TO.C,D5*%
X206740000Y-105530000D02*
X206740000Y-105780000D01*
X206390000Y-105530000D02*
X206740000Y-105030000D01*
X207090000Y-105530000D02*
X206390000Y-105530000D01*
X206740000Y-105030000D02*
X207090000Y-105530000D01*
X206740000Y-105030000D02*
X206740000Y-104830000D01*
X207090000Y-105030000D02*
X206390000Y-105030000D01*
X206040000Y-104430000D02*
X207440000Y-104430000D01*
X206040000Y-106230000D02*
X206040000Y-104430000D01*
X207440000Y-106230000D02*
X206040000Y-106230000D01*
X207440000Y-104430000D02*
X207440000Y-106230000D01*
%TO.C,R1*%
X197690000Y-102915000D02*
X197150000Y-102915000D01*
X197150000Y-102915000D02*
X197150000Y-101865000D01*
X197150000Y-101865000D02*
X197690000Y-101865000D01*
X197690000Y-101865000D02*
X197690000Y-102915000D01*
%TO.C,IC2*%
X188750000Y-104350000D02*
X188750000Y-107850000D01*
X188750000Y-107850000D02*
X182250000Y-107850000D01*
X182250000Y-107850000D02*
X182250000Y-104350000D01*
X182250000Y-104350000D02*
X188750000Y-104350000D01*
X186450000Y-104350000D02*
X188750000Y-106650000D01*
%TO.C,R8*%
X183525000Y-94230000D02*
X183525000Y-94770000D01*
X183525000Y-94770000D02*
X182475000Y-94770000D01*
X182475000Y-94770000D02*
X182475000Y-94230000D01*
X182475000Y-94230000D02*
X183525000Y-94230000D01*
%TO.C,D7*%
X178825000Y-90975000D02*
X178825000Y-89175000D01*
X178825000Y-89175000D02*
X180225000Y-89175000D01*
X180225000Y-89175000D02*
X180225000Y-90975000D01*
X180225000Y-90975000D02*
X178825000Y-90975000D01*
X179175000Y-90375000D02*
X179875000Y-90375000D01*
X179525000Y-90375000D02*
X179525000Y-90575000D01*
X179525000Y-90375000D02*
X179175000Y-89875000D01*
X179175000Y-89875000D02*
X179875000Y-89875000D01*
X179875000Y-89875000D02*
X179525000Y-90375000D01*
X179525000Y-89875000D02*
X179525000Y-89625000D01*
%TO.C,C5*%
X192720000Y-90630000D02*
X192720000Y-91130000D01*
X192720000Y-91130000D02*
X191720000Y-91130000D01*
X191720000Y-91130000D02*
X191720000Y-90630000D01*
X191720000Y-90630000D02*
X192720000Y-90630000D01*
D12*
%TO.C,Y1*%
X212330000Y-96490000D02*
X212330000Y-85090000D01*
X212330000Y-85090000D02*
X207630000Y-85090000D01*
X207630000Y-85090000D02*
X207630000Y-96490000D01*
X207630000Y-96490000D02*
X212330000Y-96490000D01*
D10*
%TO.C,C3*%
X205070000Y-92270000D02*
X205070000Y-95070000D01*
X205070000Y-95070000D02*
X205470000Y-95470000D01*
X205470000Y-95470000D02*
X206670000Y-95470000D01*
X206670000Y-95470000D02*
X206670000Y-92270000D01*
X206670000Y-92270000D02*
X205070000Y-92270000D01*
%TO.C,C13*%
X181350000Y-91100000D02*
X180850000Y-91100000D01*
X180850000Y-91100000D02*
X180850000Y-90100000D01*
X180850000Y-90100000D02*
X181350000Y-90100000D01*
X181350000Y-90100000D02*
X181350000Y-91100000D01*
%TO.C,C16*%
X186800000Y-92350000D02*
X187800000Y-92350000D01*
X186800000Y-92850000D02*
X186800000Y-92350000D01*
X187800000Y-92850000D02*
X186800000Y-92850000D01*
X187800000Y-92350000D02*
X187800000Y-92850000D01*
D12*
%TO.C,D1*%
X192720000Y-101840000D02*
X196120000Y-101840000D01*
X196120000Y-101840000D02*
X196120000Y-103240000D01*
X196120000Y-103240000D02*
X192720000Y-103240000D01*
X192720000Y-103240000D02*
X192720000Y-101840000D01*
D10*
%TO.C,D2*%
X195800000Y-101125000D02*
X193100000Y-101125000D01*
X193100000Y-101125000D02*
X193100000Y-99575000D01*
X193100000Y-99575000D02*
X195800000Y-99575000D01*
X195800000Y-99575000D02*
X195800000Y-101125000D01*
X195800000Y-100525000D02*
X195200000Y-101125000D01*
%TO.C,C1*%
X197770000Y-100840000D02*
X197270000Y-100840000D01*
X197270000Y-100840000D02*
X197270000Y-99840000D01*
X197270000Y-99840000D02*
X197770000Y-99840000D01*
X197770000Y-99840000D02*
X197770000Y-100840000D01*
%TO.C,C11*%
X207230000Y-102640000D02*
X206230000Y-102640000D01*
X207230000Y-102140000D02*
X207230000Y-102640000D01*
X206230000Y-102140000D02*
X207230000Y-102140000D01*
X206230000Y-102640000D02*
X206230000Y-102140000D01*
%TO.C,C15*%
X186800000Y-91250000D02*
X187800000Y-91250000D01*
X186800000Y-91750000D02*
X186800000Y-91250000D01*
X187800000Y-91750000D02*
X186800000Y-91750000D01*
X187800000Y-91250000D02*
X187800000Y-91750000D01*
%TO.C,D6*%
X172725000Y-96250000D02*
X172200000Y-95725000D01*
X173800000Y-96250000D02*
X172200000Y-96250000D01*
X173800000Y-93550000D02*
X173800000Y-96250000D01*
X172200000Y-93550000D02*
X173800000Y-93550000D01*
X172200000Y-96250000D02*
X172200000Y-93550000D01*
%TO.C,D9*%
X180200000Y-93200000D02*
X180200000Y-95000000D01*
X180200000Y-95000000D02*
X178800000Y-95000000D01*
X178800000Y-95000000D02*
X178800000Y-93200000D01*
X178800000Y-93200000D02*
X180200000Y-93200000D01*
X179850000Y-93800000D02*
X179150000Y-93800000D01*
X179500000Y-93800000D02*
X179500000Y-93600000D01*
X179500000Y-93800000D02*
X179850000Y-94300000D01*
X179850000Y-94300000D02*
X179150000Y-94300000D01*
X179150000Y-94300000D02*
X179500000Y-93800000D01*
X179500000Y-94300000D02*
X179500000Y-94550000D01*
%TO.C,C7*%
X213320000Y-87570000D02*
X213820000Y-87570000D01*
X213820000Y-87570000D02*
X213820000Y-88570000D01*
X213820000Y-88570000D02*
X213320000Y-88570000D01*
X213320000Y-88570000D02*
X213320000Y-87570000D01*
%TO.C,C14*%
X180850000Y-93100000D02*
X181350000Y-93100000D01*
X181350000Y-93100000D02*
X181350000Y-94100000D01*
X181350000Y-94100000D02*
X180850000Y-94100000D01*
X180850000Y-94100000D02*
X180850000Y-93100000D01*
%TO.C,C6*%
X213850000Y-93960000D02*
X213350000Y-93960000D01*
X213350000Y-93960000D02*
X213350000Y-92960000D01*
X213350000Y-92960000D02*
X213850000Y-92960000D01*
X213850000Y-92960000D02*
X213850000Y-93960000D01*
D12*
%TO.C,J3*%
X210990000Y-123750000D02*
X210990000Y-117250000D01*
X197830000Y-123750000D02*
X210990000Y-123750000D01*
X197830000Y-117250000D02*
X197830000Y-123750000D01*
X210990000Y-117250000D02*
X197830000Y-117250000D01*
%TO.C,J2*%
X180540000Y-117240000D02*
X180540000Y-123740000D01*
X193700000Y-117240000D02*
X180540000Y-117240000D01*
X193700000Y-123740000D02*
X193700000Y-117240000D01*
X180540000Y-123740000D02*
X193700000Y-123740000D01*
D10*
%TO.C,Z1*%
X178864066Y-122010000D02*
G75*
G03*
X178864066Y-122010000I-2154066J0D01*
G01*
%TO.C,Z2*%
X166864066Y-122010000D02*
G75*
G03*
X166864066Y-122010000I-2154066J0D01*
G01*
%TD*%
%TO.C,D11*%
D13*
X206021428Y-113602380D02*
X206021428Y-112602380D01*
X206259523Y-112602380D01*
X206402380Y-112650000D01*
X206497619Y-112745238D01*
X206545238Y-112840476D01*
X206592857Y-113030952D01*
X206592857Y-113173809D01*
X206545238Y-113364285D01*
X206497619Y-113459523D01*
X206402380Y-113554761D01*
X206259523Y-113602380D01*
X206021428Y-113602380D01*
X206783333Y-113697619D02*
X207545238Y-113697619D01*
X207640476Y-112602380D02*
X208211904Y-112602380D01*
X207926190Y-113602380D02*
X207926190Y-112602380D01*
X208402380Y-112602380D02*
X208735714Y-113602380D01*
X209069047Y-112602380D01*
X209354761Y-113554761D02*
X209497619Y-113602380D01*
X209735714Y-113602380D01*
X209830952Y-113554761D01*
X209878571Y-113507142D01*
X209926190Y-113411904D01*
X209926190Y-113316666D01*
X209878571Y-113221428D01*
X209830952Y-113173809D01*
X209735714Y-113126190D01*
X209545238Y-113078571D01*
X209450000Y-113030952D01*
X209402380Y-112983333D01*
X209354761Y-112888095D01*
X209354761Y-112792857D01*
X209402380Y-112697619D01*
X209450000Y-112650000D01*
X209545238Y-112602380D01*
X209783333Y-112602380D01*
X209926190Y-112650000D01*
X206835714Y-117352380D02*
X206835714Y-116352380D01*
X207073809Y-116352380D01*
X207216666Y-116400000D01*
X207311904Y-116495238D01*
X207359523Y-116590476D01*
X207407142Y-116780952D01*
X207407142Y-116923809D01*
X207359523Y-117114285D01*
X207311904Y-117209523D01*
X207216666Y-117304761D01*
X207073809Y-117352380D01*
X206835714Y-117352380D01*
X208359523Y-117352380D02*
X207788095Y-117352380D01*
X208073809Y-117352380D02*
X208073809Y-116352380D01*
X207978571Y-116495238D01*
X207883333Y-116590476D01*
X207788095Y-116638095D01*
X209311904Y-117352380D02*
X208740476Y-117352380D01*
X209026190Y-117352380D02*
X209026190Y-116352380D01*
X208930952Y-116495238D01*
X208835714Y-116590476D01*
X208740476Y-116638095D01*
%TO.C,D10*%
X200621428Y-113627380D02*
X200621428Y-112627380D01*
X200859523Y-112627380D01*
X201002380Y-112675000D01*
X201097619Y-112770238D01*
X201145238Y-112865476D01*
X201192857Y-113055952D01*
X201192857Y-113198809D01*
X201145238Y-113389285D01*
X201097619Y-113484523D01*
X201002380Y-113579761D01*
X200859523Y-113627380D01*
X200621428Y-113627380D01*
X201383333Y-113722619D02*
X202145238Y-113722619D01*
X202240476Y-112627380D02*
X202811904Y-112627380D01*
X202526190Y-113627380D02*
X202526190Y-112627380D01*
X203002380Y-112627380D02*
X203335714Y-113627380D01*
X203669047Y-112627380D01*
X203954761Y-113579761D02*
X204097619Y-113627380D01*
X204335714Y-113627380D01*
X204430952Y-113579761D01*
X204478571Y-113532142D01*
X204526190Y-113436904D01*
X204526190Y-113341666D01*
X204478571Y-113246428D01*
X204430952Y-113198809D01*
X204335714Y-113151190D01*
X204145238Y-113103571D01*
X204050000Y-113055952D01*
X204002380Y-113008333D01*
X203954761Y-112913095D01*
X203954761Y-112817857D01*
X204002380Y-112722619D01*
X204050000Y-112675000D01*
X204145238Y-112627380D01*
X204383333Y-112627380D01*
X204526190Y-112675000D01*
X201435714Y-117377380D02*
X201435714Y-116377380D01*
X201673809Y-116377380D01*
X201816666Y-116425000D01*
X201911904Y-116520238D01*
X201959523Y-116615476D01*
X202007142Y-116805952D01*
X202007142Y-116948809D01*
X201959523Y-117139285D01*
X201911904Y-117234523D01*
X201816666Y-117329761D01*
X201673809Y-117377380D01*
X201435714Y-117377380D01*
X202959523Y-117377380D02*
X202388095Y-117377380D01*
X202673809Y-117377380D02*
X202673809Y-116377380D01*
X202578571Y-116520238D01*
X202483333Y-116615476D01*
X202388095Y-116663095D01*
X203578571Y-116377380D02*
X203673809Y-116377380D01*
X203769047Y-116425000D01*
X203816666Y-116472619D01*
X203864285Y-116567857D01*
X203911904Y-116758333D01*
X203911904Y-116996428D01*
X203864285Y-117186904D01*
X203816666Y-117282142D01*
X203769047Y-117329761D01*
X203673809Y-117377380D01*
X203578571Y-117377380D01*
X203483333Y-117329761D01*
X203435714Y-117282142D01*
X203388095Y-117186904D01*
X203340476Y-116996428D01*
X203340476Y-116758333D01*
X203388095Y-116567857D01*
X203435714Y-116472619D01*
X203483333Y-116425000D01*
X203578571Y-116377380D01*
%TO.C,12V*%
X213256666Y-111942380D02*
X213828095Y-111942380D01*
X213542380Y-112942380D02*
X213542380Y-111942380D01*
X214542380Y-112894761D02*
X214447142Y-112942380D01*
X214256666Y-112942380D01*
X214161428Y-112894761D01*
X214113809Y-112799523D01*
X214113809Y-112418571D01*
X214161428Y-112323333D01*
X214256666Y-112275714D01*
X214447142Y-112275714D01*
X214542380Y-112323333D01*
X214590000Y-112418571D01*
X214590000Y-112513809D01*
X214113809Y-112609047D01*
X214970952Y-112894761D02*
X215066190Y-112942380D01*
X215256666Y-112942380D01*
X215351904Y-112894761D01*
X215399523Y-112799523D01*
X215399523Y-112751904D01*
X215351904Y-112656666D01*
X215256666Y-112609047D01*
X215113809Y-112609047D01*
X215018571Y-112561428D01*
X214970952Y-112466190D01*
X214970952Y-112418571D01*
X215018571Y-112323333D01*
X215113809Y-112275714D01*
X215256666Y-112275714D01*
X215351904Y-112323333D01*
X215685238Y-112275714D02*
X216066190Y-112275714D01*
X215828095Y-111942380D02*
X215828095Y-112799523D01*
X215875714Y-112894761D01*
X215970952Y-112942380D01*
X216066190Y-112942380D01*
X216399523Y-112942380D02*
X216399523Y-111942380D01*
X216780476Y-111942380D01*
X216875714Y-111990000D01*
X216923333Y-112037619D01*
X216970952Y-112132857D01*
X216970952Y-112275714D01*
X216923333Y-112370952D01*
X216875714Y-112418571D01*
X216780476Y-112466190D01*
X216399523Y-112466190D01*
X217542380Y-112942380D02*
X217447142Y-112894761D01*
X217399523Y-112847142D01*
X217351904Y-112751904D01*
X217351904Y-112466190D01*
X217399523Y-112370952D01*
X217447142Y-112323333D01*
X217542380Y-112275714D01*
X217685238Y-112275714D01*
X217780476Y-112323333D01*
X217828095Y-112370952D01*
X217875714Y-112466190D01*
X217875714Y-112751904D01*
X217828095Y-112847142D01*
X217780476Y-112894761D01*
X217685238Y-112942380D01*
X217542380Y-112942380D01*
X218304285Y-112942380D02*
X218304285Y-112275714D01*
X218304285Y-111942380D02*
X218256666Y-111990000D01*
X218304285Y-112037619D01*
X218351904Y-111990000D01*
X218304285Y-111942380D01*
X218304285Y-112037619D01*
X218780476Y-112275714D02*
X218780476Y-112942380D01*
X218780476Y-112370952D02*
X218828095Y-112323333D01*
X218923333Y-112275714D01*
X219066190Y-112275714D01*
X219161428Y-112323333D01*
X219209047Y-112418571D01*
X219209047Y-112942380D01*
X219542380Y-112275714D02*
X219923333Y-112275714D01*
X219685238Y-111942380D02*
X219685238Y-112799523D01*
X219732857Y-112894761D01*
X219828095Y-112942380D01*
X219923333Y-112942380D01*
X215970952Y-109942380D02*
X215399523Y-109942380D01*
X215685238Y-109942380D02*
X215685238Y-108942380D01*
X215590000Y-109085238D01*
X215494761Y-109180476D01*
X215399523Y-109228095D01*
X216351904Y-109037619D02*
X216399523Y-108990000D01*
X216494761Y-108942380D01*
X216732857Y-108942380D01*
X216828095Y-108990000D01*
X216875714Y-109037619D01*
X216923333Y-109132857D01*
X216923333Y-109228095D01*
X216875714Y-109370952D01*
X216304285Y-109942380D01*
X216923333Y-109942380D01*
X217209047Y-108942380D02*
X217542380Y-109942380D01*
X217875714Y-108942380D01*
X171886666Y-110252380D02*
X172458095Y-110252380D01*
X172172380Y-111252380D02*
X172172380Y-110252380D01*
X173172380Y-111204761D02*
X173077142Y-111252380D01*
X172886666Y-111252380D01*
X172791428Y-111204761D01*
X172743809Y-111109523D01*
X172743809Y-110728571D01*
X172791428Y-110633333D01*
X172886666Y-110585714D01*
X173077142Y-110585714D01*
X173172380Y-110633333D01*
X173220000Y-110728571D01*
X173220000Y-110823809D01*
X172743809Y-110919047D01*
X173600952Y-111204761D02*
X173696190Y-111252380D01*
X173886666Y-111252380D01*
X173981904Y-111204761D01*
X174029523Y-111109523D01*
X174029523Y-111061904D01*
X173981904Y-110966666D01*
X173886666Y-110919047D01*
X173743809Y-110919047D01*
X173648571Y-110871428D01*
X173600952Y-110776190D01*
X173600952Y-110728571D01*
X173648571Y-110633333D01*
X173743809Y-110585714D01*
X173886666Y-110585714D01*
X173981904Y-110633333D01*
X174315238Y-110585714D02*
X174696190Y-110585714D01*
X174458095Y-110252380D02*
X174458095Y-111109523D01*
X174505714Y-111204761D01*
X174600952Y-111252380D01*
X174696190Y-111252380D01*
X175029523Y-111252380D02*
X175029523Y-110252380D01*
X175410476Y-110252380D01*
X175505714Y-110300000D01*
X175553333Y-110347619D01*
X175600952Y-110442857D01*
X175600952Y-110585714D01*
X175553333Y-110680952D01*
X175505714Y-110728571D01*
X175410476Y-110776190D01*
X175029523Y-110776190D01*
X176172380Y-111252380D02*
X176077142Y-111204761D01*
X176029523Y-111157142D01*
X175981904Y-111061904D01*
X175981904Y-110776190D01*
X176029523Y-110680952D01*
X176077142Y-110633333D01*
X176172380Y-110585714D01*
X176315238Y-110585714D01*
X176410476Y-110633333D01*
X176458095Y-110680952D01*
X176505714Y-110776190D01*
X176505714Y-111061904D01*
X176458095Y-111157142D01*
X176410476Y-111204761D01*
X176315238Y-111252380D01*
X176172380Y-111252380D01*
X176934285Y-111252380D02*
X176934285Y-110585714D01*
X176934285Y-110252380D02*
X176886666Y-110300000D01*
X176934285Y-110347619D01*
X176981904Y-110300000D01*
X176934285Y-110252380D01*
X176934285Y-110347619D01*
X177410476Y-110585714D02*
X177410476Y-111252380D01*
X177410476Y-110680952D02*
X177458095Y-110633333D01*
X177553333Y-110585714D01*
X177696190Y-110585714D01*
X177791428Y-110633333D01*
X177839047Y-110728571D01*
X177839047Y-111252380D01*
X178172380Y-110585714D02*
X178553333Y-110585714D01*
X178315238Y-110252380D02*
X178315238Y-111109523D01*
X178362857Y-111204761D01*
X178458095Y-111252380D01*
X178553333Y-111252380D01*
X174600952Y-108252380D02*
X174029523Y-108252380D01*
X174315238Y-108252380D02*
X174315238Y-107252380D01*
X174220000Y-107395238D01*
X174124761Y-107490476D01*
X174029523Y-107538095D01*
X174981904Y-107347619D02*
X175029523Y-107300000D01*
X175124761Y-107252380D01*
X175362857Y-107252380D01*
X175458095Y-107300000D01*
X175505714Y-107347619D01*
X175553333Y-107442857D01*
X175553333Y-107538095D01*
X175505714Y-107680952D01*
X174934285Y-108252380D01*
X175553333Y-108252380D01*
X175839047Y-107252380D02*
X176172380Y-108252380D01*
X176505714Y-107252380D01*
%TO.C,GND*%
X166886666Y-108142380D02*
X167458095Y-108142380D01*
X167172380Y-109142380D02*
X167172380Y-108142380D01*
X168172380Y-109094761D02*
X168077142Y-109142380D01*
X167886666Y-109142380D01*
X167791428Y-109094761D01*
X167743809Y-108999523D01*
X167743809Y-108618571D01*
X167791428Y-108523333D01*
X167886666Y-108475714D01*
X168077142Y-108475714D01*
X168172380Y-108523333D01*
X168220000Y-108618571D01*
X168220000Y-108713809D01*
X167743809Y-108809047D01*
X168600952Y-109094761D02*
X168696190Y-109142380D01*
X168886666Y-109142380D01*
X168981904Y-109094761D01*
X169029523Y-108999523D01*
X169029523Y-108951904D01*
X168981904Y-108856666D01*
X168886666Y-108809047D01*
X168743809Y-108809047D01*
X168648571Y-108761428D01*
X168600952Y-108666190D01*
X168600952Y-108618571D01*
X168648571Y-108523333D01*
X168743809Y-108475714D01*
X168886666Y-108475714D01*
X168981904Y-108523333D01*
X169315238Y-108475714D02*
X169696190Y-108475714D01*
X169458095Y-108142380D02*
X169458095Y-108999523D01*
X169505714Y-109094761D01*
X169600952Y-109142380D01*
X169696190Y-109142380D01*
X170029523Y-109142380D02*
X170029523Y-108142380D01*
X170410476Y-108142380D01*
X170505714Y-108190000D01*
X170553333Y-108237619D01*
X170600952Y-108332857D01*
X170600952Y-108475714D01*
X170553333Y-108570952D01*
X170505714Y-108618571D01*
X170410476Y-108666190D01*
X170029523Y-108666190D01*
X171172380Y-109142380D02*
X171077142Y-109094761D01*
X171029523Y-109047142D01*
X170981904Y-108951904D01*
X170981904Y-108666190D01*
X171029523Y-108570952D01*
X171077142Y-108523333D01*
X171172380Y-108475714D01*
X171315238Y-108475714D01*
X171410476Y-108523333D01*
X171458095Y-108570952D01*
X171505714Y-108666190D01*
X171505714Y-108951904D01*
X171458095Y-109047142D01*
X171410476Y-109094761D01*
X171315238Y-109142380D01*
X171172380Y-109142380D01*
X171934285Y-109142380D02*
X171934285Y-108475714D01*
X171934285Y-108142380D02*
X171886666Y-108190000D01*
X171934285Y-108237619D01*
X171981904Y-108190000D01*
X171934285Y-108142380D01*
X171934285Y-108237619D01*
X172410476Y-108475714D02*
X172410476Y-109142380D01*
X172410476Y-108570952D02*
X172458095Y-108523333D01*
X172553333Y-108475714D01*
X172696190Y-108475714D01*
X172791428Y-108523333D01*
X172839047Y-108618571D01*
X172839047Y-109142380D01*
X173172380Y-108475714D02*
X173553333Y-108475714D01*
X173315238Y-108142380D02*
X173315238Y-108999523D01*
X173362857Y-109094761D01*
X173458095Y-109142380D01*
X173553333Y-109142380D01*
X169458095Y-111190000D02*
X169362857Y-111142380D01*
X169220000Y-111142380D01*
X169077142Y-111190000D01*
X168981904Y-111285238D01*
X168934285Y-111380476D01*
X168886666Y-111570952D01*
X168886666Y-111713809D01*
X168934285Y-111904285D01*
X168981904Y-111999523D01*
X169077142Y-112094761D01*
X169220000Y-112142380D01*
X169315238Y-112142380D01*
X169458095Y-112094761D01*
X169505714Y-112047142D01*
X169505714Y-111713809D01*
X169315238Y-111713809D01*
X169934285Y-112142380D02*
X169934285Y-111142380D01*
X170505714Y-112142380D01*
X170505714Y-111142380D01*
X170981904Y-112142380D02*
X170981904Y-111142380D01*
X171220000Y-111142380D01*
X171362857Y-111190000D01*
X171458095Y-111285238D01*
X171505714Y-111380476D01*
X171553333Y-111570952D01*
X171553333Y-111713809D01*
X171505714Y-111904285D01*
X171458095Y-111999523D01*
X171362857Y-112094761D01*
X171220000Y-112142380D01*
X170981904Y-112142380D01*
X218256666Y-111982380D02*
X218828095Y-111982380D01*
X218542380Y-112982380D02*
X218542380Y-111982380D01*
X219542380Y-112934761D02*
X219447142Y-112982380D01*
X219256666Y-112982380D01*
X219161428Y-112934761D01*
X219113809Y-112839523D01*
X219113809Y-112458571D01*
X219161428Y-112363333D01*
X219256666Y-112315714D01*
X219447142Y-112315714D01*
X219542380Y-112363333D01*
X219590000Y-112458571D01*
X219590000Y-112553809D01*
X219113809Y-112649047D01*
X219970952Y-112934761D02*
X220066190Y-112982380D01*
X220256666Y-112982380D01*
X220351904Y-112934761D01*
X220399523Y-112839523D01*
X220399523Y-112791904D01*
X220351904Y-112696666D01*
X220256666Y-112649047D01*
X220113809Y-112649047D01*
X220018571Y-112601428D01*
X219970952Y-112506190D01*
X219970952Y-112458571D01*
X220018571Y-112363333D01*
X220113809Y-112315714D01*
X220256666Y-112315714D01*
X220351904Y-112363333D01*
X220685238Y-112315714D02*
X221066190Y-112315714D01*
X220828095Y-111982380D02*
X220828095Y-112839523D01*
X220875714Y-112934761D01*
X220970952Y-112982380D01*
X221066190Y-112982380D01*
X221399523Y-112982380D02*
X221399523Y-111982380D01*
X221780476Y-111982380D01*
X221875714Y-112030000D01*
X221923333Y-112077619D01*
X221970952Y-112172857D01*
X221970952Y-112315714D01*
X221923333Y-112410952D01*
X221875714Y-112458571D01*
X221780476Y-112506190D01*
X221399523Y-112506190D01*
X222542380Y-112982380D02*
X222447142Y-112934761D01*
X222399523Y-112887142D01*
X222351904Y-112791904D01*
X222351904Y-112506190D01*
X222399523Y-112410952D01*
X222447142Y-112363333D01*
X222542380Y-112315714D01*
X222685238Y-112315714D01*
X222780476Y-112363333D01*
X222828095Y-112410952D01*
X222875714Y-112506190D01*
X222875714Y-112791904D01*
X222828095Y-112887142D01*
X222780476Y-112934761D01*
X222685238Y-112982380D01*
X222542380Y-112982380D01*
X223304285Y-112982380D02*
X223304285Y-112315714D01*
X223304285Y-111982380D02*
X223256666Y-112030000D01*
X223304285Y-112077619D01*
X223351904Y-112030000D01*
X223304285Y-111982380D01*
X223304285Y-112077619D01*
X223780476Y-112315714D02*
X223780476Y-112982380D01*
X223780476Y-112410952D02*
X223828095Y-112363333D01*
X223923333Y-112315714D01*
X224066190Y-112315714D01*
X224161428Y-112363333D01*
X224209047Y-112458571D01*
X224209047Y-112982380D01*
X224542380Y-112315714D02*
X224923333Y-112315714D01*
X224685238Y-111982380D02*
X224685238Y-112839523D01*
X224732857Y-112934761D01*
X224828095Y-112982380D01*
X224923333Y-112982380D01*
X220828095Y-109030000D02*
X220732857Y-108982380D01*
X220590000Y-108982380D01*
X220447142Y-109030000D01*
X220351904Y-109125238D01*
X220304285Y-109220476D01*
X220256666Y-109410952D01*
X220256666Y-109553809D01*
X220304285Y-109744285D01*
X220351904Y-109839523D01*
X220447142Y-109934761D01*
X220590000Y-109982380D01*
X220685238Y-109982380D01*
X220828095Y-109934761D01*
X220875714Y-109887142D01*
X220875714Y-109553809D01*
X220685238Y-109553809D01*
X221304285Y-109982380D02*
X221304285Y-108982380D01*
X221875714Y-109982380D01*
X221875714Y-108982380D01*
X222351904Y-109982380D02*
X222351904Y-108982380D01*
X222590000Y-108982380D01*
X222732857Y-109030000D01*
X222828095Y-109125238D01*
X222875714Y-109220476D01*
X222923333Y-109410952D01*
X222923333Y-109553809D01*
X222875714Y-109744285D01*
X222828095Y-109839523D01*
X222732857Y-109934761D01*
X222590000Y-109982380D01*
X222351904Y-109982380D01*
%TO.C,B*%
X176566666Y-102402380D02*
X177138095Y-102402380D01*
X176852380Y-103402380D02*
X176852380Y-102402380D01*
X177852380Y-103354761D02*
X177757142Y-103402380D01*
X177566666Y-103402380D01*
X177471428Y-103354761D01*
X177423809Y-103259523D01*
X177423809Y-102878571D01*
X177471428Y-102783333D01*
X177566666Y-102735714D01*
X177757142Y-102735714D01*
X177852380Y-102783333D01*
X177900000Y-102878571D01*
X177900000Y-102973809D01*
X177423809Y-103069047D01*
X178280952Y-103354761D02*
X178376190Y-103402380D01*
X178566666Y-103402380D01*
X178661904Y-103354761D01*
X178709523Y-103259523D01*
X178709523Y-103211904D01*
X178661904Y-103116666D01*
X178566666Y-103069047D01*
X178423809Y-103069047D01*
X178328571Y-103021428D01*
X178280952Y-102926190D01*
X178280952Y-102878571D01*
X178328571Y-102783333D01*
X178423809Y-102735714D01*
X178566666Y-102735714D01*
X178661904Y-102783333D01*
X178995238Y-102735714D02*
X179376190Y-102735714D01*
X179138095Y-102402380D02*
X179138095Y-103259523D01*
X179185714Y-103354761D01*
X179280952Y-103402380D01*
X179376190Y-103402380D01*
X179709523Y-103402380D02*
X179709523Y-102402380D01*
X180090476Y-102402380D01*
X180185714Y-102450000D01*
X180233333Y-102497619D01*
X180280952Y-102592857D01*
X180280952Y-102735714D01*
X180233333Y-102830952D01*
X180185714Y-102878571D01*
X180090476Y-102926190D01*
X179709523Y-102926190D01*
X180852380Y-103402380D02*
X180757142Y-103354761D01*
X180709523Y-103307142D01*
X180661904Y-103211904D01*
X180661904Y-102926190D01*
X180709523Y-102830952D01*
X180757142Y-102783333D01*
X180852380Y-102735714D01*
X180995238Y-102735714D01*
X181090476Y-102783333D01*
X181138095Y-102830952D01*
X181185714Y-102926190D01*
X181185714Y-103211904D01*
X181138095Y-103307142D01*
X181090476Y-103354761D01*
X180995238Y-103402380D01*
X180852380Y-103402380D01*
X181614285Y-103402380D02*
X181614285Y-102735714D01*
X181614285Y-102402380D02*
X181566666Y-102450000D01*
X181614285Y-102497619D01*
X181661904Y-102450000D01*
X181614285Y-102402380D01*
X181614285Y-102497619D01*
X182090476Y-102735714D02*
X182090476Y-103402380D01*
X182090476Y-102830952D02*
X182138095Y-102783333D01*
X182233333Y-102735714D01*
X182376190Y-102735714D01*
X182471428Y-102783333D01*
X182519047Y-102878571D01*
X182519047Y-103402380D01*
X182852380Y-102735714D02*
X183233333Y-102735714D01*
X182995238Y-102402380D02*
X182995238Y-103259523D01*
X183042857Y-103354761D01*
X183138095Y-103402380D01*
X183233333Y-103402380D01*
X179971428Y-99878571D02*
X180114285Y-99926190D01*
X180161904Y-99973809D01*
X180209523Y-100069047D01*
X180209523Y-100211904D01*
X180161904Y-100307142D01*
X180114285Y-100354761D01*
X180019047Y-100402380D01*
X179638095Y-100402380D01*
X179638095Y-99402380D01*
X179971428Y-99402380D01*
X180066666Y-99450000D01*
X180114285Y-99497619D01*
X180161904Y-99592857D01*
X180161904Y-99688095D01*
X180114285Y-99783333D01*
X180066666Y-99830952D01*
X179971428Y-99878571D01*
X179638095Y-99878571D01*
%TO.C,A*%
X174886666Y-106252380D02*
X175458095Y-106252380D01*
X175172380Y-107252380D02*
X175172380Y-106252380D01*
X176172380Y-107204761D02*
X176077142Y-107252380D01*
X175886666Y-107252380D01*
X175791428Y-107204761D01*
X175743809Y-107109523D01*
X175743809Y-106728571D01*
X175791428Y-106633333D01*
X175886666Y-106585714D01*
X176077142Y-106585714D01*
X176172380Y-106633333D01*
X176220000Y-106728571D01*
X176220000Y-106823809D01*
X175743809Y-106919047D01*
X176600952Y-107204761D02*
X176696190Y-107252380D01*
X176886666Y-107252380D01*
X176981904Y-107204761D01*
X177029523Y-107109523D01*
X177029523Y-107061904D01*
X176981904Y-106966666D01*
X176886666Y-106919047D01*
X176743809Y-106919047D01*
X176648571Y-106871428D01*
X176600952Y-106776190D01*
X176600952Y-106728571D01*
X176648571Y-106633333D01*
X176743809Y-106585714D01*
X176886666Y-106585714D01*
X176981904Y-106633333D01*
X177315238Y-106585714D02*
X177696190Y-106585714D01*
X177458095Y-106252380D02*
X177458095Y-107109523D01*
X177505714Y-107204761D01*
X177600952Y-107252380D01*
X177696190Y-107252380D01*
X178029523Y-107252380D02*
X178029523Y-106252380D01*
X178410476Y-106252380D01*
X178505714Y-106300000D01*
X178553333Y-106347619D01*
X178600952Y-106442857D01*
X178600952Y-106585714D01*
X178553333Y-106680952D01*
X178505714Y-106728571D01*
X178410476Y-106776190D01*
X178029523Y-106776190D01*
X179172380Y-107252380D02*
X179077142Y-107204761D01*
X179029523Y-107157142D01*
X178981904Y-107061904D01*
X178981904Y-106776190D01*
X179029523Y-106680952D01*
X179077142Y-106633333D01*
X179172380Y-106585714D01*
X179315238Y-106585714D01*
X179410476Y-106633333D01*
X179458095Y-106680952D01*
X179505714Y-106776190D01*
X179505714Y-107061904D01*
X179458095Y-107157142D01*
X179410476Y-107204761D01*
X179315238Y-107252380D01*
X179172380Y-107252380D01*
X179934285Y-107252380D02*
X179934285Y-106585714D01*
X179934285Y-106252380D02*
X179886666Y-106300000D01*
X179934285Y-106347619D01*
X179981904Y-106300000D01*
X179934285Y-106252380D01*
X179934285Y-106347619D01*
X180410476Y-106585714D02*
X180410476Y-107252380D01*
X180410476Y-106680952D02*
X180458095Y-106633333D01*
X180553333Y-106585714D01*
X180696190Y-106585714D01*
X180791428Y-106633333D01*
X180839047Y-106728571D01*
X180839047Y-107252380D01*
X181172380Y-106585714D02*
X181553333Y-106585714D01*
X181315238Y-106252380D02*
X181315238Y-107109523D01*
X181362857Y-107204761D01*
X181458095Y-107252380D01*
X181553333Y-107252380D01*
X174381904Y-104646666D02*
X174858095Y-104646666D01*
X174286666Y-104932380D02*
X174620000Y-103932380D01*
X174953333Y-104932380D01*
%TO.C,Z1*%
X229155190Y-121557142D02*
X229107571Y-121604761D01*
X228964714Y-121652380D01*
X228869476Y-121652380D01*
X228726619Y-121604761D01*
X228631380Y-121509523D01*
X228583761Y-121414285D01*
X228536142Y-121223809D01*
X228536142Y-121080952D01*
X228583761Y-120890476D01*
X228631380Y-120795238D01*
X228726619Y-120700000D01*
X228869476Y-120652380D01*
X228964714Y-120652380D01*
X229107571Y-120700000D01*
X229155190Y-120747619D01*
X229774238Y-120652380D02*
X229964714Y-120652380D01*
X230059952Y-120700000D01*
X230155190Y-120795238D01*
X230202809Y-120985714D01*
X230202809Y-121319047D01*
X230155190Y-121509523D01*
X230059952Y-121604761D01*
X229964714Y-121652380D01*
X229774238Y-121652380D01*
X229679000Y-121604761D01*
X229583761Y-121509523D01*
X229536142Y-121319047D01*
X229536142Y-120985714D01*
X229583761Y-120795238D01*
X229679000Y-120700000D01*
X229774238Y-120652380D01*
X230631380Y-121652380D02*
X230631380Y-120652380D01*
X231202809Y-121652380D01*
X231202809Y-120652380D01*
X231679000Y-121652380D02*
X231679000Y-120652380D01*
X232250428Y-121652380D01*
X232250428Y-120652380D01*
X232488523Y-121747619D02*
X233250428Y-121747619D01*
X233679000Y-120652380D02*
X233774238Y-120652380D01*
X233869476Y-120700000D01*
X233917095Y-120747619D01*
X233964714Y-120842857D01*
X234012333Y-121033333D01*
X234012333Y-121271428D01*
X233964714Y-121461904D01*
X233917095Y-121557142D01*
X233869476Y-121604761D01*
X233774238Y-121652380D01*
X233679000Y-121652380D01*
X233583761Y-121604761D01*
X233536142Y-121557142D01*
X233488523Y-121461904D01*
X233440904Y-121271428D01*
X233440904Y-121033333D01*
X233488523Y-120842857D01*
X233536142Y-120747619D01*
X233583761Y-120700000D01*
X233679000Y-120652380D01*
X234964714Y-121652380D02*
X234393285Y-121652380D01*
X234679000Y-121652380D02*
X234679000Y-120652380D01*
X234583761Y-120795238D01*
X234488523Y-120890476D01*
X234393285Y-120938095D01*
X235298047Y-120652380D02*
X235964714Y-121652380D01*
X235964714Y-120652380D02*
X235298047Y-121652380D01*
X236536142Y-120652380D02*
X236631380Y-120652380D01*
X236726619Y-120700000D01*
X236774238Y-120747619D01*
X236821857Y-120842857D01*
X236869476Y-121033333D01*
X236869476Y-121271428D01*
X236821857Y-121461904D01*
X236774238Y-121557142D01*
X236726619Y-121604761D01*
X236631380Y-121652380D01*
X236536142Y-121652380D01*
X236440904Y-121604761D01*
X236393285Y-121557142D01*
X236345666Y-121461904D01*
X236298047Y-121271428D01*
X236298047Y-121033333D01*
X236345666Y-120842857D01*
X236393285Y-120747619D01*
X236440904Y-120700000D01*
X236536142Y-120652380D01*
X237821857Y-121652380D02*
X237250428Y-121652380D01*
X237536142Y-121652380D02*
X237536142Y-120652380D01*
X237440904Y-120795238D01*
X237345666Y-120890476D01*
X237250428Y-120938095D01*
%TO.C,Z2*%
X205086190Y-117860142D02*
X205038571Y-117907761D01*
X204895714Y-117955380D01*
X204800476Y-117955380D01*
X204657619Y-117907761D01*
X204562380Y-117812523D01*
X204514761Y-117717285D01*
X204467142Y-117526809D01*
X204467142Y-117383952D01*
X204514761Y-117193476D01*
X204562380Y-117098238D01*
X204657619Y-117003000D01*
X204800476Y-116955380D01*
X204895714Y-116955380D01*
X205038571Y-117003000D01*
X205086190Y-117050619D01*
X205705238Y-116955380D02*
X205895714Y-116955380D01*
X205990952Y-117003000D01*
X206086190Y-117098238D01*
X206133809Y-117288714D01*
X206133809Y-117622047D01*
X206086190Y-117812523D01*
X205990952Y-117907761D01*
X205895714Y-117955380D01*
X205705238Y-117955380D01*
X205610000Y-117907761D01*
X205514761Y-117812523D01*
X205467142Y-117622047D01*
X205467142Y-117288714D01*
X205514761Y-117098238D01*
X205610000Y-117003000D01*
X205705238Y-116955380D01*
X206562380Y-117955380D02*
X206562380Y-116955380D01*
X207133809Y-117955380D01*
X207133809Y-116955380D01*
X207610000Y-117955380D02*
X207610000Y-116955380D01*
X208181428Y-117955380D01*
X208181428Y-116955380D01*
X208419523Y-118050619D02*
X209181428Y-118050619D01*
X209610000Y-116955380D02*
X209705238Y-116955380D01*
X209800476Y-117003000D01*
X209848095Y-117050619D01*
X209895714Y-117145857D01*
X209943333Y-117336333D01*
X209943333Y-117574428D01*
X209895714Y-117764904D01*
X209848095Y-117860142D01*
X209800476Y-117907761D01*
X209705238Y-117955380D01*
X209610000Y-117955380D01*
X209514761Y-117907761D01*
X209467142Y-117860142D01*
X209419523Y-117764904D01*
X209371904Y-117574428D01*
X209371904Y-117336333D01*
X209419523Y-117145857D01*
X209467142Y-117050619D01*
X209514761Y-117003000D01*
X209610000Y-116955380D01*
X210895714Y-117955380D02*
X210324285Y-117955380D01*
X210610000Y-117955380D02*
X210610000Y-116955380D01*
X210514761Y-117098238D01*
X210419523Y-117193476D01*
X210324285Y-117241095D01*
X211229047Y-116955380D02*
X211895714Y-117955380D01*
X211895714Y-116955380D02*
X211229047Y-117955380D01*
X212467142Y-116955380D02*
X212562380Y-116955380D01*
X212657619Y-117003000D01*
X212705238Y-117050619D01*
X212752857Y-117145857D01*
X212800476Y-117336333D01*
X212800476Y-117574428D01*
X212752857Y-117764904D01*
X212705238Y-117860142D01*
X212657619Y-117907761D01*
X212562380Y-117955380D01*
X212467142Y-117955380D01*
X212371904Y-117907761D01*
X212324285Y-117860142D01*
X212276666Y-117764904D01*
X212229047Y-117574428D01*
X212229047Y-117336333D01*
X212276666Y-117145857D01*
X212324285Y-117050619D01*
X212371904Y-117003000D01*
X212467142Y-116955380D01*
X213752857Y-117955380D02*
X213181428Y-117955380D01*
X213467142Y-117955380D02*
X213467142Y-116955380D01*
X213371904Y-117098238D01*
X213276666Y-117193476D01*
X213181428Y-117241095D01*
%TO.C,C8*%
D14*
X189038333Y-99683571D02*
X188977857Y-99744047D01*
X188796428Y-99804523D01*
X188675476Y-99804523D01*
X188494047Y-99744047D01*
X188373095Y-99623095D01*
X188312619Y-99502142D01*
X188252142Y-99260238D01*
X188252142Y-99078809D01*
X188312619Y-98836904D01*
X188373095Y-98715952D01*
X188494047Y-98595000D01*
X188675476Y-98534523D01*
X188796428Y-98534523D01*
X188977857Y-98595000D01*
X189038333Y-98655476D01*
X189764047Y-99078809D02*
X189643095Y-99018333D01*
X189582619Y-98957857D01*
X189522142Y-98836904D01*
X189522142Y-98776428D01*
X189582619Y-98655476D01*
X189643095Y-98595000D01*
X189764047Y-98534523D01*
X190005952Y-98534523D01*
X190126904Y-98595000D01*
X190187380Y-98655476D01*
X190247857Y-98776428D01*
X190247857Y-98836904D01*
X190187380Y-98957857D01*
X190126904Y-99018333D01*
X190005952Y-99078809D01*
X189764047Y-99078809D01*
X189643095Y-99139285D01*
X189582619Y-99199761D01*
X189522142Y-99320714D01*
X189522142Y-99562619D01*
X189582619Y-99683571D01*
X189643095Y-99744047D01*
X189764047Y-99804523D01*
X190005952Y-99804523D01*
X190126904Y-99744047D01*
X190187380Y-99683571D01*
X190247857Y-99562619D01*
X190247857Y-99320714D01*
X190187380Y-99199761D01*
X190126904Y-99139285D01*
X190005952Y-99078809D01*
%TO.C,IC5*%
X218254523Y-100139761D02*
X216984523Y-100139761D01*
X218133571Y-98809285D02*
X218194047Y-98869761D01*
X218254523Y-99051190D01*
X218254523Y-99172142D01*
X218194047Y-99353571D01*
X218073095Y-99474523D01*
X217952142Y-99535000D01*
X217710238Y-99595476D01*
X217528809Y-99595476D01*
X217286904Y-99535000D01*
X217165952Y-99474523D01*
X217045000Y-99353571D01*
X216984523Y-99172142D01*
X216984523Y-99051190D01*
X217045000Y-98869761D01*
X217105476Y-98809285D01*
X216984523Y-97660238D02*
X216984523Y-98265000D01*
X217589285Y-98325476D01*
X217528809Y-98265000D01*
X217468333Y-98144047D01*
X217468333Y-97841666D01*
X217528809Y-97720714D01*
X217589285Y-97660238D01*
X217710238Y-97599761D01*
X218012619Y-97599761D01*
X218133571Y-97660238D01*
X218194047Y-97720714D01*
X218254523Y-97841666D01*
X218254523Y-98144047D01*
X218194047Y-98265000D01*
X218133571Y-98325476D01*
%TO.C,GND*%
D13*
X213016666Y-92082380D02*
X213588095Y-92082380D01*
X213302380Y-93082380D02*
X213302380Y-92082380D01*
X214302380Y-93034761D02*
X214207142Y-93082380D01*
X214016666Y-93082380D01*
X213921428Y-93034761D01*
X213873809Y-92939523D01*
X213873809Y-92558571D01*
X213921428Y-92463333D01*
X214016666Y-92415714D01*
X214207142Y-92415714D01*
X214302380Y-92463333D01*
X214350000Y-92558571D01*
X214350000Y-92653809D01*
X213873809Y-92749047D01*
X214730952Y-93034761D02*
X214826190Y-93082380D01*
X215016666Y-93082380D01*
X215111904Y-93034761D01*
X215159523Y-92939523D01*
X215159523Y-92891904D01*
X215111904Y-92796666D01*
X215016666Y-92749047D01*
X214873809Y-92749047D01*
X214778571Y-92701428D01*
X214730952Y-92606190D01*
X214730952Y-92558571D01*
X214778571Y-92463333D01*
X214873809Y-92415714D01*
X215016666Y-92415714D01*
X215111904Y-92463333D01*
X215445238Y-92415714D02*
X215826190Y-92415714D01*
X215588095Y-92082380D02*
X215588095Y-92939523D01*
X215635714Y-93034761D01*
X215730952Y-93082380D01*
X215826190Y-93082380D01*
X216159523Y-93082380D02*
X216159523Y-92082380D01*
X216540476Y-92082380D01*
X216635714Y-92130000D01*
X216683333Y-92177619D01*
X216730952Y-92272857D01*
X216730952Y-92415714D01*
X216683333Y-92510952D01*
X216635714Y-92558571D01*
X216540476Y-92606190D01*
X216159523Y-92606190D01*
X217302380Y-93082380D02*
X217207142Y-93034761D01*
X217159523Y-92987142D01*
X217111904Y-92891904D01*
X217111904Y-92606190D01*
X217159523Y-92510952D01*
X217207142Y-92463333D01*
X217302380Y-92415714D01*
X217445238Y-92415714D01*
X217540476Y-92463333D01*
X217588095Y-92510952D01*
X217635714Y-92606190D01*
X217635714Y-92891904D01*
X217588095Y-92987142D01*
X217540476Y-93034761D01*
X217445238Y-93082380D01*
X217302380Y-93082380D01*
X218064285Y-93082380D02*
X218064285Y-92415714D01*
X218064285Y-92082380D02*
X218016666Y-92130000D01*
X218064285Y-92177619D01*
X218111904Y-92130000D01*
X218064285Y-92082380D01*
X218064285Y-92177619D01*
X218540476Y-92415714D02*
X218540476Y-93082380D01*
X218540476Y-92510952D02*
X218588095Y-92463333D01*
X218683333Y-92415714D01*
X218826190Y-92415714D01*
X218921428Y-92463333D01*
X218969047Y-92558571D01*
X218969047Y-93082380D01*
X219302380Y-92415714D02*
X219683333Y-92415714D01*
X219445238Y-92082380D02*
X219445238Y-92939523D01*
X219492857Y-93034761D01*
X219588095Y-93082380D01*
X219683333Y-93082380D01*
X215588095Y-89130000D02*
X215492857Y-89082380D01*
X215350000Y-89082380D01*
X215207142Y-89130000D01*
X215111904Y-89225238D01*
X215064285Y-89320476D01*
X215016666Y-89510952D01*
X215016666Y-89653809D01*
X215064285Y-89844285D01*
X215111904Y-89939523D01*
X215207142Y-90034761D01*
X215350000Y-90082380D01*
X215445238Y-90082380D01*
X215588095Y-90034761D01*
X215635714Y-89987142D01*
X215635714Y-89653809D01*
X215445238Y-89653809D01*
X216064285Y-90082380D02*
X216064285Y-89082380D01*
X216635714Y-90082380D01*
X216635714Y-89082380D01*
X217111904Y-90082380D02*
X217111904Y-89082380D01*
X217350000Y-89082380D01*
X217492857Y-89130000D01*
X217588095Y-89225238D01*
X217635714Y-89320476D01*
X217683333Y-89510952D01*
X217683333Y-89653809D01*
X217635714Y-89844285D01*
X217588095Y-89939523D01*
X217492857Y-90034761D01*
X217350000Y-90082380D01*
X217111904Y-90082380D01*
%TO.C,D4*%
X188231428Y-115512380D02*
X188231428Y-114512380D01*
X188469523Y-114512380D01*
X188612380Y-114560000D01*
X188707619Y-114655238D01*
X188755238Y-114750476D01*
X188802857Y-114940952D01*
X188802857Y-115083809D01*
X188755238Y-115274285D01*
X188707619Y-115369523D01*
X188612380Y-115464761D01*
X188469523Y-115512380D01*
X188231428Y-115512380D01*
X188993333Y-115607619D02*
X189755238Y-115607619D01*
X189850476Y-114512380D02*
X190421904Y-114512380D01*
X190136190Y-115512380D02*
X190136190Y-114512380D01*
X190612380Y-114512380D02*
X190945714Y-115512380D01*
X191279047Y-114512380D01*
X191564761Y-115464761D02*
X191707619Y-115512380D01*
X191945714Y-115512380D01*
X192040952Y-115464761D01*
X192088571Y-115417142D01*
X192136190Y-115321904D01*
X192136190Y-115226666D01*
X192088571Y-115131428D01*
X192040952Y-115083809D01*
X191945714Y-115036190D01*
X191755238Y-114988571D01*
X191660000Y-114940952D01*
X191612380Y-114893333D01*
X191564761Y-114798095D01*
X191564761Y-114702857D01*
X191612380Y-114607619D01*
X191660000Y-114560000D01*
X191755238Y-114512380D01*
X191993333Y-114512380D01*
X192136190Y-114560000D01*
X189421904Y-110412380D02*
X189421904Y-109412380D01*
X189660000Y-109412380D01*
X189802857Y-109460000D01*
X189898095Y-109555238D01*
X189945714Y-109650476D01*
X189993333Y-109840952D01*
X189993333Y-109983809D01*
X189945714Y-110174285D01*
X189898095Y-110269523D01*
X189802857Y-110364761D01*
X189660000Y-110412380D01*
X189421904Y-110412380D01*
X190850476Y-109745714D02*
X190850476Y-110412380D01*
X190612380Y-109364761D02*
X190374285Y-110079047D01*
X190993333Y-110079047D01*
%TO.C,FB1*%
D14*
X190259285Y-109318333D02*
X190259285Y-109741666D01*
X190924523Y-109741666D02*
X189654523Y-109741666D01*
X189654523Y-109136904D01*
X190259285Y-108229761D02*
X190319761Y-108048333D01*
X190380238Y-107987857D01*
X190501190Y-107927380D01*
X190682619Y-107927380D01*
X190803571Y-107987857D01*
X190864047Y-108048333D01*
X190924523Y-108169285D01*
X190924523Y-108653095D01*
X189654523Y-108653095D01*
X189654523Y-108229761D01*
X189715000Y-108108809D01*
X189775476Y-108048333D01*
X189896428Y-107987857D01*
X190017380Y-107987857D01*
X190138333Y-108048333D01*
X190198809Y-108108809D01*
X190259285Y-108229761D01*
X190259285Y-108653095D01*
X190924523Y-106717857D02*
X190924523Y-107443571D01*
X190924523Y-107080714D02*
X189654523Y-107080714D01*
X189835952Y-107201666D01*
X189956904Y-107322619D01*
X190017380Y-107443571D01*
%TO.C,A*%
D13*
X210256666Y-106942380D02*
X210828095Y-106942380D01*
X210542380Y-107942380D02*
X210542380Y-106942380D01*
X211542380Y-107894761D02*
X211447142Y-107942380D01*
X211256666Y-107942380D01*
X211161428Y-107894761D01*
X211113809Y-107799523D01*
X211113809Y-107418571D01*
X211161428Y-107323333D01*
X211256666Y-107275714D01*
X211447142Y-107275714D01*
X211542380Y-107323333D01*
X211590000Y-107418571D01*
X211590000Y-107513809D01*
X211113809Y-107609047D01*
X211970952Y-107894761D02*
X212066190Y-107942380D01*
X212256666Y-107942380D01*
X212351904Y-107894761D01*
X212399523Y-107799523D01*
X212399523Y-107751904D01*
X212351904Y-107656666D01*
X212256666Y-107609047D01*
X212113809Y-107609047D01*
X212018571Y-107561428D01*
X211970952Y-107466190D01*
X211970952Y-107418571D01*
X212018571Y-107323333D01*
X212113809Y-107275714D01*
X212256666Y-107275714D01*
X212351904Y-107323333D01*
X212685238Y-107275714D02*
X213066190Y-107275714D01*
X212828095Y-106942380D02*
X212828095Y-107799523D01*
X212875714Y-107894761D01*
X212970952Y-107942380D01*
X213066190Y-107942380D01*
X213399523Y-107942380D02*
X213399523Y-106942380D01*
X213780476Y-106942380D01*
X213875714Y-106990000D01*
X213923333Y-107037619D01*
X213970952Y-107132857D01*
X213970952Y-107275714D01*
X213923333Y-107370952D01*
X213875714Y-107418571D01*
X213780476Y-107466190D01*
X213399523Y-107466190D01*
X214542380Y-107942380D02*
X214447142Y-107894761D01*
X214399523Y-107847142D01*
X214351904Y-107751904D01*
X214351904Y-107466190D01*
X214399523Y-107370952D01*
X214447142Y-107323333D01*
X214542380Y-107275714D01*
X214685238Y-107275714D01*
X214780476Y-107323333D01*
X214828095Y-107370952D01*
X214875714Y-107466190D01*
X214875714Y-107751904D01*
X214828095Y-107847142D01*
X214780476Y-107894761D01*
X214685238Y-107942380D01*
X214542380Y-107942380D01*
X215304285Y-107942380D02*
X215304285Y-107275714D01*
X215304285Y-106942380D02*
X215256666Y-106990000D01*
X215304285Y-107037619D01*
X215351904Y-106990000D01*
X215304285Y-106942380D01*
X215304285Y-107037619D01*
X215780476Y-107275714D02*
X215780476Y-107942380D01*
X215780476Y-107370952D02*
X215828095Y-107323333D01*
X215923333Y-107275714D01*
X216066190Y-107275714D01*
X216161428Y-107323333D01*
X216209047Y-107418571D01*
X216209047Y-107942380D01*
X216542380Y-107275714D02*
X216923333Y-107275714D01*
X216685238Y-106942380D02*
X216685238Y-107799523D01*
X216732857Y-107894761D01*
X216828095Y-107942380D01*
X216923333Y-107942380D01*
X213351904Y-104656666D02*
X213828095Y-104656666D01*
X213256666Y-104942380D02*
X213590000Y-103942380D01*
X213923333Y-104942380D01*
%TO.C,FB2*%
D14*
X204291666Y-100139285D02*
X203868333Y-100139285D01*
X203868333Y-100804523D02*
X203868333Y-99534523D01*
X204473095Y-99534523D01*
X205380238Y-100139285D02*
X205561666Y-100199761D01*
X205622142Y-100260238D01*
X205682619Y-100381190D01*
X205682619Y-100562619D01*
X205622142Y-100683571D01*
X205561666Y-100744047D01*
X205440714Y-100804523D01*
X204956904Y-100804523D01*
X204956904Y-99534523D01*
X205380238Y-99534523D01*
X205501190Y-99595000D01*
X205561666Y-99655476D01*
X205622142Y-99776428D01*
X205622142Y-99897380D01*
X205561666Y-100018333D01*
X205501190Y-100078809D01*
X205380238Y-100139285D01*
X204956904Y-100139285D01*
X206166428Y-99655476D02*
X206226904Y-99595000D01*
X206347857Y-99534523D01*
X206650238Y-99534523D01*
X206771190Y-99595000D01*
X206831666Y-99655476D01*
X206892142Y-99776428D01*
X206892142Y-99897380D01*
X206831666Y-100078809D01*
X206105952Y-100804523D01*
X206892142Y-100804523D01*
%TO.C,IC3*%
X200730238Y-104864523D02*
X200730238Y-103594523D01*
X202060714Y-104743571D02*
X202000238Y-104804047D01*
X201818809Y-104864523D01*
X201697857Y-104864523D01*
X201516428Y-104804047D01*
X201395476Y-104683095D01*
X201335000Y-104562142D01*
X201274523Y-104320238D01*
X201274523Y-104138809D01*
X201335000Y-103896904D01*
X201395476Y-103775952D01*
X201516428Y-103655000D01*
X201697857Y-103594523D01*
X201818809Y-103594523D01*
X202000238Y-103655000D01*
X202060714Y-103715476D01*
X202484047Y-103594523D02*
X203270238Y-103594523D01*
X202846904Y-104078333D01*
X203028333Y-104078333D01*
X203149285Y-104138809D01*
X203209761Y-104199285D01*
X203270238Y-104320238D01*
X203270238Y-104622619D01*
X203209761Y-104743571D01*
X203149285Y-104804047D01*
X203028333Y-104864523D01*
X202665476Y-104864523D01*
X202544523Y-104804047D01*
X202484047Y-104743571D01*
%TO.C,C9*%
D13*
X191632380Y-106473809D02*
X191632380Y-106378571D01*
X191680000Y-106283333D01*
X191727619Y-106235714D01*
X191822857Y-106188095D01*
X192013333Y-106140476D01*
X192251428Y-106140476D01*
X192441904Y-106188095D01*
X192537142Y-106235714D01*
X192584761Y-106283333D01*
X192632380Y-106378571D01*
X192632380Y-106473809D01*
X192584761Y-106569047D01*
X192537142Y-106616666D01*
X192441904Y-106664285D01*
X192251428Y-106711904D01*
X192013333Y-106711904D01*
X191822857Y-106664285D01*
X191727619Y-106616666D01*
X191680000Y-106569047D01*
X191632380Y-106473809D01*
X192537142Y-105711904D02*
X192584761Y-105664285D01*
X192632380Y-105711904D01*
X192584761Y-105759523D01*
X192537142Y-105711904D01*
X192632380Y-105711904D01*
X192632380Y-104711904D02*
X192632380Y-105283333D01*
X192632380Y-104997619D02*
X191632380Y-104997619D01*
X191775238Y-105092857D01*
X191870476Y-105188095D01*
X191918095Y-105283333D01*
X191965714Y-103854761D02*
X192632380Y-103854761D01*
X191965714Y-104283333D02*
X192489523Y-104283333D01*
X192584761Y-104235714D01*
X192632380Y-104140476D01*
X192632380Y-103997619D01*
X192584761Y-103902380D01*
X192537142Y-103854761D01*
X192108571Y-103045238D02*
X192108571Y-103378571D01*
X192632380Y-103378571D02*
X191632380Y-103378571D01*
X191632380Y-102902380D01*
X191632380Y-102616666D02*
X191632380Y-101997619D01*
X192013333Y-102330952D01*
X192013333Y-102188095D01*
X192060952Y-102092857D01*
X192108571Y-102045238D01*
X192203809Y-101997619D01*
X192441904Y-101997619D01*
X192537142Y-102045238D01*
X192584761Y-102092857D01*
X192632380Y-102188095D01*
X192632380Y-102473809D01*
X192584761Y-102569047D01*
X192537142Y-102616666D01*
X191632380Y-101092857D02*
X191632380Y-101569047D01*
X192108571Y-101616666D01*
X192060952Y-101569047D01*
X192013333Y-101473809D01*
X192013333Y-101235714D01*
X192060952Y-101140476D01*
X192108571Y-101092857D01*
X192203809Y-101045238D01*
X192441904Y-101045238D01*
X192537142Y-101092857D01*
X192584761Y-101140476D01*
X192632380Y-101235714D01*
X192632380Y-101473809D01*
X192584761Y-101569047D01*
X192537142Y-101616666D01*
X191632380Y-100759523D02*
X192632380Y-100426190D01*
X191632380Y-100092857D01*
D15*
X190615714Y-103583333D02*
X190653809Y-103621428D01*
X190691904Y-103735714D01*
X190691904Y-103811904D01*
X190653809Y-103926190D01*
X190577619Y-104002380D01*
X190501428Y-104040476D01*
X190349047Y-104078571D01*
X190234761Y-104078571D01*
X190082380Y-104040476D01*
X190006190Y-104002380D01*
X189930000Y-103926190D01*
X189891904Y-103811904D01*
X189891904Y-103735714D01*
X189930000Y-103621428D01*
X189968095Y-103583333D01*
X190691904Y-103202380D02*
X190691904Y-103050000D01*
X190653809Y-102973809D01*
X190615714Y-102935714D01*
X190501428Y-102859523D01*
X190349047Y-102821428D01*
X190044285Y-102821428D01*
X189968095Y-102859523D01*
X189930000Y-102897619D01*
X189891904Y-102973809D01*
X189891904Y-103126190D01*
X189930000Y-103202380D01*
X189968095Y-103240476D01*
X190044285Y-103278571D01*
X190234761Y-103278571D01*
X190310952Y-103240476D01*
X190349047Y-103202380D01*
X190387142Y-103126190D01*
X190387142Y-102973809D01*
X190349047Y-102897619D01*
X190310952Y-102859523D01*
X190234761Y-102821428D01*
%TO.C,RT1*%
D16*
X178659728Y-110938102D02*
X178659728Y-110544401D01*
X178809709Y-110544401D01*
X178847205Y-110563149D01*
X178865952Y-110581897D01*
X178884700Y-110619392D01*
X178884700Y-110675635D01*
X178865952Y-110713130D01*
X178847205Y-110731878D01*
X178809709Y-110750626D01*
X178659728Y-110750626D01*
X179278401Y-110938102D02*
X179147167Y-110750626D01*
X179053429Y-110938102D02*
X179053429Y-110544401D01*
X179203410Y-110544401D01*
X179240906Y-110563149D01*
X179259653Y-110581897D01*
X179278401Y-110619392D01*
X179278401Y-110675635D01*
X179259653Y-110713130D01*
X179240906Y-110731878D01*
X179203410Y-110750626D01*
X179053429Y-110750626D01*
X179653354Y-110563149D02*
X179615859Y-110544401D01*
X179559616Y-110544401D01*
X179503373Y-110563149D01*
X179465878Y-110600644D01*
X179447130Y-110638140D01*
X179428382Y-110713130D01*
X179428382Y-110769373D01*
X179447130Y-110844364D01*
X179465878Y-110881859D01*
X179503373Y-110919355D01*
X179559616Y-110938102D01*
X179597111Y-110938102D01*
X179653354Y-110919355D01*
X179672102Y-110900607D01*
X179672102Y-110769373D01*
X179597111Y-110769373D01*
X179822083Y-110581897D02*
X179840831Y-110563149D01*
X179878326Y-110544401D01*
X179972065Y-110544401D01*
X180009560Y-110563149D01*
X180028308Y-110581897D01*
X180047055Y-110619392D01*
X180047055Y-110656887D01*
X180028308Y-110713130D01*
X179803336Y-110938102D01*
X180047055Y-110938102D01*
X180422009Y-110938102D02*
X180197037Y-110938102D01*
X180309523Y-110938102D02*
X180309523Y-110544401D01*
X180272027Y-110600644D01*
X180234532Y-110638140D01*
X180197037Y-110656887D01*
X180721971Y-110731878D02*
X180778214Y-110750626D01*
X180796962Y-110769373D01*
X180815710Y-110806869D01*
X180815710Y-110863112D01*
X180796962Y-110900607D01*
X180778214Y-110919355D01*
X180740719Y-110938102D01*
X180590738Y-110938102D01*
X180590738Y-110544401D01*
X180721971Y-110544401D01*
X180759467Y-110563149D01*
X180778214Y-110581897D01*
X180796962Y-110619392D01*
X180796962Y-110656887D01*
X180778214Y-110694383D01*
X180759467Y-110713130D01*
X180721971Y-110731878D01*
X180590738Y-110731878D01*
X181209411Y-110900607D02*
X181190663Y-110919355D01*
X181134420Y-110938102D01*
X181096925Y-110938102D01*
X181040682Y-110919355D01*
X181003186Y-110881859D01*
X180984439Y-110844364D01*
X180965691Y-110769373D01*
X180965691Y-110713130D01*
X180984439Y-110638140D01*
X181003186Y-110600644D01*
X181040682Y-110563149D01*
X181096925Y-110544401D01*
X181134420Y-110544401D01*
X181190663Y-110563149D01*
X181209411Y-110581897D01*
X181546869Y-110675635D02*
X181546869Y-110938102D01*
X181453130Y-110525654D02*
X181359392Y-110806869D01*
X181603112Y-110806869D01*
X181978065Y-110938102D02*
X181846831Y-110750626D01*
X181753093Y-110938102D02*
X181753093Y-110544401D01*
X181903074Y-110544401D01*
X181940570Y-110563149D01*
X181959317Y-110581897D01*
X181978065Y-110619392D01*
X181978065Y-110675635D01*
X181959317Y-110713130D01*
X181940570Y-110731878D01*
X181903074Y-110750626D01*
X181753093Y-110750626D01*
X182109299Y-110544401D02*
X182371766Y-110544401D01*
X182203037Y-110938102D01*
X182521747Y-110938102D02*
X182521747Y-110544401D01*
X182652981Y-110825616D01*
X182784215Y-110544401D01*
X182784215Y-110938102D01*
X182971691Y-110938102D02*
X182971691Y-110544401D01*
X183102925Y-110825616D01*
X183234159Y-110544401D01*
X183234159Y-110938102D01*
X183627860Y-110938102D02*
X183402888Y-110938102D01*
X183515374Y-110938102D02*
X183515374Y-110544401D01*
X183477878Y-110600644D01*
X183440383Y-110638140D01*
X183402888Y-110656887D01*
X184021561Y-110938102D02*
X183890327Y-110750626D01*
X183796589Y-110938102D02*
X183796589Y-110544401D01*
X183946570Y-110544401D01*
X183984065Y-110563149D01*
X184002813Y-110581897D01*
X184021561Y-110619392D01*
X184021561Y-110675635D01*
X184002813Y-110713130D01*
X183984065Y-110731878D01*
X183946570Y-110750626D01*
X183796589Y-110750626D01*
X184171542Y-110825616D02*
X184359019Y-110825616D01*
X184134047Y-110938102D02*
X184265280Y-110544401D01*
X184396514Y-110938102D01*
D13*
%TO.C,B*%
X208756666Y-102942380D02*
X209328095Y-102942380D01*
X209042380Y-103942380D02*
X209042380Y-102942380D01*
X210042380Y-103894761D02*
X209947142Y-103942380D01*
X209756666Y-103942380D01*
X209661428Y-103894761D01*
X209613809Y-103799523D01*
X209613809Y-103418571D01*
X209661428Y-103323333D01*
X209756666Y-103275714D01*
X209947142Y-103275714D01*
X210042380Y-103323333D01*
X210090000Y-103418571D01*
X210090000Y-103513809D01*
X209613809Y-103609047D01*
X210470952Y-103894761D02*
X210566190Y-103942380D01*
X210756666Y-103942380D01*
X210851904Y-103894761D01*
X210899523Y-103799523D01*
X210899523Y-103751904D01*
X210851904Y-103656666D01*
X210756666Y-103609047D01*
X210613809Y-103609047D01*
X210518571Y-103561428D01*
X210470952Y-103466190D01*
X210470952Y-103418571D01*
X210518571Y-103323333D01*
X210613809Y-103275714D01*
X210756666Y-103275714D01*
X210851904Y-103323333D01*
X211185238Y-103275714D02*
X211566190Y-103275714D01*
X211328095Y-102942380D02*
X211328095Y-103799523D01*
X211375714Y-103894761D01*
X211470952Y-103942380D01*
X211566190Y-103942380D01*
X211899523Y-103942380D02*
X211899523Y-102942380D01*
X212280476Y-102942380D01*
X212375714Y-102990000D01*
X212423333Y-103037619D01*
X212470952Y-103132857D01*
X212470952Y-103275714D01*
X212423333Y-103370952D01*
X212375714Y-103418571D01*
X212280476Y-103466190D01*
X211899523Y-103466190D01*
X213042380Y-103942380D02*
X212947142Y-103894761D01*
X212899523Y-103847142D01*
X212851904Y-103751904D01*
X212851904Y-103466190D01*
X212899523Y-103370952D01*
X212947142Y-103323333D01*
X213042380Y-103275714D01*
X213185238Y-103275714D01*
X213280476Y-103323333D01*
X213328095Y-103370952D01*
X213375714Y-103466190D01*
X213375714Y-103751904D01*
X213328095Y-103847142D01*
X213280476Y-103894761D01*
X213185238Y-103942380D01*
X213042380Y-103942380D01*
X213804285Y-103942380D02*
X213804285Y-103275714D01*
X213804285Y-102942380D02*
X213756666Y-102990000D01*
X213804285Y-103037619D01*
X213851904Y-102990000D01*
X213804285Y-102942380D01*
X213804285Y-103037619D01*
X214280476Y-103275714D02*
X214280476Y-103942380D01*
X214280476Y-103370952D02*
X214328095Y-103323333D01*
X214423333Y-103275714D01*
X214566190Y-103275714D01*
X214661428Y-103323333D01*
X214709047Y-103418571D01*
X214709047Y-103942380D01*
X215042380Y-103275714D02*
X215423333Y-103275714D01*
X215185238Y-102942380D02*
X215185238Y-103799523D01*
X215232857Y-103894761D01*
X215328095Y-103942380D01*
X215423333Y-103942380D01*
X212161428Y-100418571D02*
X212304285Y-100466190D01*
X212351904Y-100513809D01*
X212399523Y-100609047D01*
X212399523Y-100751904D01*
X212351904Y-100847142D01*
X212304285Y-100894761D01*
X212209047Y-100942380D01*
X211828095Y-100942380D01*
X211828095Y-99942380D01*
X212161428Y-99942380D01*
X212256666Y-99990000D01*
X212304285Y-100037619D01*
X212351904Y-100132857D01*
X212351904Y-100228095D01*
X212304285Y-100323333D01*
X212256666Y-100370952D01*
X212161428Y-100418571D01*
X211828095Y-100418571D01*
%TO.C,D3*%
D14*
X179612619Y-112474523D02*
X179612619Y-111204523D01*
X179915000Y-111204523D01*
X180096428Y-111265000D01*
X180217380Y-111385952D01*
X180277857Y-111506904D01*
X180338333Y-111748809D01*
X180338333Y-111930238D01*
X180277857Y-112172142D01*
X180217380Y-112293095D01*
X180096428Y-112414047D01*
X179915000Y-112474523D01*
X179612619Y-112474523D01*
X180761666Y-111204523D02*
X181547857Y-111204523D01*
X181124523Y-111688333D01*
X181305952Y-111688333D01*
X181426904Y-111748809D01*
X181487380Y-111809285D01*
X181547857Y-111930238D01*
X181547857Y-112232619D01*
X181487380Y-112353571D01*
X181426904Y-112414047D01*
X181305952Y-112474523D01*
X180943095Y-112474523D01*
X180822142Y-112414047D01*
X180761666Y-112353571D01*
%TO.C,TP1*%
D13*
X197136666Y-97142380D02*
X197708095Y-97142380D01*
X197422380Y-98142380D02*
X197422380Y-97142380D01*
X198422380Y-98094761D02*
X198327142Y-98142380D01*
X198136666Y-98142380D01*
X198041428Y-98094761D01*
X197993809Y-97999523D01*
X197993809Y-97618571D01*
X198041428Y-97523333D01*
X198136666Y-97475714D01*
X198327142Y-97475714D01*
X198422380Y-97523333D01*
X198470000Y-97618571D01*
X198470000Y-97713809D01*
X197993809Y-97809047D01*
X198850952Y-98094761D02*
X198946190Y-98142380D01*
X199136666Y-98142380D01*
X199231904Y-98094761D01*
X199279523Y-97999523D01*
X199279523Y-97951904D01*
X199231904Y-97856666D01*
X199136666Y-97809047D01*
X198993809Y-97809047D01*
X198898571Y-97761428D01*
X198850952Y-97666190D01*
X198850952Y-97618571D01*
X198898571Y-97523333D01*
X198993809Y-97475714D01*
X199136666Y-97475714D01*
X199231904Y-97523333D01*
X199565238Y-97475714D02*
X199946190Y-97475714D01*
X199708095Y-97142380D02*
X199708095Y-97999523D01*
X199755714Y-98094761D01*
X199850952Y-98142380D01*
X199946190Y-98142380D01*
X200279523Y-98142380D02*
X200279523Y-97142380D01*
X200660476Y-97142380D01*
X200755714Y-97190000D01*
X200803333Y-97237619D01*
X200850952Y-97332857D01*
X200850952Y-97475714D01*
X200803333Y-97570952D01*
X200755714Y-97618571D01*
X200660476Y-97666190D01*
X200279523Y-97666190D01*
X201422380Y-98142380D02*
X201327142Y-98094761D01*
X201279523Y-98047142D01*
X201231904Y-97951904D01*
X201231904Y-97666190D01*
X201279523Y-97570952D01*
X201327142Y-97523333D01*
X201422380Y-97475714D01*
X201565238Y-97475714D01*
X201660476Y-97523333D01*
X201708095Y-97570952D01*
X201755714Y-97666190D01*
X201755714Y-97951904D01*
X201708095Y-98047142D01*
X201660476Y-98094761D01*
X201565238Y-98142380D01*
X201422380Y-98142380D01*
X202184285Y-98142380D02*
X202184285Y-97475714D01*
X202184285Y-97142380D02*
X202136666Y-97190000D01*
X202184285Y-97237619D01*
X202231904Y-97190000D01*
X202184285Y-97142380D01*
X202184285Y-97237619D01*
X202660476Y-97475714D02*
X202660476Y-98142380D01*
X202660476Y-97570952D02*
X202708095Y-97523333D01*
X202803333Y-97475714D01*
X202946190Y-97475714D01*
X203041428Y-97523333D01*
X203089047Y-97618571D01*
X203089047Y-98142380D01*
X203422380Y-97475714D02*
X203803333Y-97475714D01*
X203565238Y-97142380D02*
X203565238Y-97999523D01*
X203612857Y-98094761D01*
X203708095Y-98142380D01*
X203803333Y-98142380D01*
X199208095Y-100142380D02*
X199779523Y-100142380D01*
X199493809Y-101142380D02*
X199493809Y-100142380D01*
X200112857Y-101142380D02*
X200112857Y-100142380D01*
X200493809Y-100142380D01*
X200589047Y-100190000D01*
X200636666Y-100237619D01*
X200684285Y-100332857D01*
X200684285Y-100475714D01*
X200636666Y-100570952D01*
X200589047Y-100618571D01*
X200493809Y-100666190D01*
X200112857Y-100666190D01*
X201636666Y-101142380D02*
X201065238Y-101142380D01*
X201350952Y-101142380D02*
X201350952Y-100142380D01*
X201255714Y-100285238D01*
X201160476Y-100380476D01*
X201065238Y-100428095D01*
%TO.C,C12*%
X206845714Y-103124761D02*
X207512380Y-103124761D01*
X206464761Y-103362857D02*
X207179047Y-103600952D01*
X207179047Y-102981904D01*
X207417142Y-102600952D02*
X207464761Y-102553333D01*
X207512380Y-102600952D01*
X207464761Y-102648571D01*
X207417142Y-102600952D01*
X207512380Y-102600952D01*
X206512380Y-102220000D02*
X206512380Y-101553333D01*
X207512380Y-101981904D01*
X206845714Y-100743809D02*
X207512380Y-100743809D01*
X206845714Y-101172380D02*
X207369523Y-101172380D01*
X207464761Y-101124761D01*
X207512380Y-101029523D01*
X207512380Y-100886666D01*
X207464761Y-100791428D01*
X207417142Y-100743809D01*
X206988571Y-99934285D02*
X206988571Y-100267619D01*
X207512380Y-100267619D02*
X206512380Y-100267619D01*
X206512380Y-99791428D01*
D15*
X209195714Y-102234285D02*
X209233809Y-102272380D01*
X209271904Y-102386666D01*
X209271904Y-102462857D01*
X209233809Y-102577142D01*
X209157619Y-102653333D01*
X209081428Y-102691428D01*
X208929047Y-102729523D01*
X208814761Y-102729523D01*
X208662380Y-102691428D01*
X208586190Y-102653333D01*
X208510000Y-102577142D01*
X208471904Y-102462857D01*
X208471904Y-102386666D01*
X208510000Y-102272380D01*
X208548095Y-102234285D01*
X209271904Y-101472380D02*
X209271904Y-101929523D01*
X209271904Y-101700952D02*
X208471904Y-101700952D01*
X208586190Y-101777142D01*
X208662380Y-101853333D01*
X208700476Y-101929523D01*
X208548095Y-101167619D02*
X208510000Y-101129523D01*
X208471904Y-101053333D01*
X208471904Y-100862857D01*
X208510000Y-100786666D01*
X208548095Y-100748571D01*
X208624285Y-100710476D01*
X208700476Y-100710476D01*
X208814761Y-100748571D01*
X209271904Y-101205714D01*
X209271904Y-100710476D01*
%TO.C,IC4*%
D14*
X182660238Y-92674523D02*
X182660238Y-91404523D01*
X183990714Y-92553571D02*
X183930238Y-92614047D01*
X183748809Y-92674523D01*
X183627857Y-92674523D01*
X183446428Y-92614047D01*
X183325476Y-92493095D01*
X183265000Y-92372142D01*
X183204523Y-92130238D01*
X183204523Y-91948809D01*
X183265000Y-91706904D01*
X183325476Y-91585952D01*
X183446428Y-91465000D01*
X183627857Y-91404523D01*
X183748809Y-91404523D01*
X183930238Y-91465000D01*
X183990714Y-91525476D01*
X185079285Y-91827857D02*
X185079285Y-92674523D01*
X184776904Y-91344047D02*
X184474523Y-92251190D01*
X185260714Y-92251190D01*
%TO.C,D8*%
X176674523Y-95837380D02*
X175404523Y-95837380D01*
X175404523Y-95535000D01*
X175465000Y-95353571D01*
X175585952Y-95232619D01*
X175706904Y-95172142D01*
X175948809Y-95111666D01*
X176130238Y-95111666D01*
X176372142Y-95172142D01*
X176493095Y-95232619D01*
X176614047Y-95353571D01*
X176674523Y-95535000D01*
X176674523Y-95837380D01*
X175948809Y-94385952D02*
X175888333Y-94506904D01*
X175827857Y-94567380D01*
X175706904Y-94627857D01*
X175646428Y-94627857D01*
X175525476Y-94567380D01*
X175465000Y-94506904D01*
X175404523Y-94385952D01*
X175404523Y-94144047D01*
X175465000Y-94023095D01*
X175525476Y-93962619D01*
X175646428Y-93902142D01*
X175706904Y-93902142D01*
X175827857Y-93962619D01*
X175888333Y-94023095D01*
X175948809Y-94144047D01*
X175948809Y-94385952D01*
X176009285Y-94506904D01*
X176069761Y-94567380D01*
X176190714Y-94627857D01*
X176432619Y-94627857D01*
X176553571Y-94567380D01*
X176614047Y-94506904D01*
X176674523Y-94385952D01*
X176674523Y-94144047D01*
X176614047Y-94023095D01*
X176553571Y-93962619D01*
X176432619Y-93902142D01*
X176190714Y-93902142D01*
X176069761Y-93962619D01*
X176009285Y-94023095D01*
X175948809Y-94144047D01*
%TO.C,IC1*%
X198180238Y-93464523D02*
X198180238Y-92194523D01*
X199510714Y-93343571D02*
X199450238Y-93404047D01*
X199268809Y-93464523D01*
X199147857Y-93464523D01*
X198966428Y-93404047D01*
X198845476Y-93283095D01*
X198785000Y-93162142D01*
X198724523Y-92920238D01*
X198724523Y-92738809D01*
X198785000Y-92496904D01*
X198845476Y-92375952D01*
X198966428Y-92255000D01*
X199147857Y-92194523D01*
X199268809Y-92194523D01*
X199450238Y-92255000D01*
X199510714Y-92315476D01*
X200720238Y-93464523D02*
X199994523Y-93464523D01*
X200357380Y-93464523D02*
X200357380Y-92194523D01*
X200236428Y-92375952D01*
X200115476Y-92496904D01*
X199994523Y-92557380D01*
%TO.C,R6*%
D13*
X182014285Y-88215714D02*
X182014285Y-88882380D01*
X181776190Y-87834761D02*
X181538095Y-88549047D01*
X182157142Y-88549047D01*
X182538095Y-88882380D02*
X182538095Y-87882380D01*
X183109523Y-88882380D02*
X182680952Y-88310952D01*
X183109523Y-87882380D02*
X182538095Y-88453809D01*
X183442857Y-87882380D02*
X184109523Y-87882380D01*
X183680952Y-88882380D01*
D17*
X182756666Y-89717619D02*
X182670000Y-89593809D01*
X182608095Y-89717619D02*
X182608095Y-89457619D01*
X182707142Y-89457619D01*
X182731904Y-89470000D01*
X182744285Y-89482380D01*
X182756666Y-89507142D01*
X182756666Y-89544285D01*
X182744285Y-89569047D01*
X182731904Y-89581428D01*
X182707142Y-89593809D01*
X182608095Y-89593809D01*
X182979523Y-89457619D02*
X182930000Y-89457619D01*
X182905238Y-89470000D01*
X182892857Y-89482380D01*
X182868095Y-89519523D01*
X182855714Y-89569047D01*
X182855714Y-89668095D01*
X182868095Y-89692857D01*
X182880476Y-89705238D01*
X182905238Y-89717619D01*
X182954761Y-89717619D01*
X182979523Y-89705238D01*
X182991904Y-89692857D01*
X183004285Y-89668095D01*
X183004285Y-89606190D01*
X182991904Y-89581428D01*
X182979523Y-89569047D01*
X182954761Y-89556666D01*
X182905238Y-89556666D01*
X182880476Y-89569047D01*
X182868095Y-89581428D01*
X182855714Y-89606190D01*
%TO.C,R5*%
D13*
X216564285Y-95102380D02*
X217183333Y-95102380D01*
X216850000Y-95483333D01*
X216992857Y-95483333D01*
X217088095Y-95530952D01*
X217135714Y-95578571D01*
X217183333Y-95673809D01*
X217183333Y-95911904D01*
X217135714Y-96007142D01*
X217088095Y-96054761D01*
X216992857Y-96102380D01*
X216707142Y-96102380D01*
X216611904Y-96054761D01*
X216564285Y-96007142D01*
X217516666Y-95102380D02*
X218135714Y-95102380D01*
X217802380Y-95483333D01*
X217945238Y-95483333D01*
X218040476Y-95530952D01*
X218088095Y-95578571D01*
X218135714Y-95673809D01*
X218135714Y-95911904D01*
X218088095Y-96007142D01*
X218040476Y-96054761D01*
X217945238Y-96102380D01*
X217659523Y-96102380D01*
X217564285Y-96054761D01*
X217516666Y-96007142D01*
X218754761Y-95102380D02*
X218850000Y-95102380D01*
X218945238Y-95150000D01*
X218992857Y-95197619D01*
X219040476Y-95292857D01*
X219088095Y-95483333D01*
X219088095Y-95721428D01*
X219040476Y-95911904D01*
X218992857Y-96007142D01*
X218945238Y-96054761D01*
X218850000Y-96102380D01*
X218754761Y-96102380D01*
X218659523Y-96054761D01*
X218611904Y-96007142D01*
X218564285Y-95911904D01*
X218516666Y-95721428D01*
X218516666Y-95483333D01*
X218564285Y-95292857D01*
X218611904Y-95197619D01*
X218659523Y-95150000D01*
X218754761Y-95102380D01*
D17*
X217856666Y-93647619D02*
X217770000Y-93523809D01*
X217708095Y-93647619D02*
X217708095Y-93387619D01*
X217807142Y-93387619D01*
X217831904Y-93400000D01*
X217844285Y-93412380D01*
X217856666Y-93437142D01*
X217856666Y-93474285D01*
X217844285Y-93499047D01*
X217831904Y-93511428D01*
X217807142Y-93523809D01*
X217708095Y-93523809D01*
X218091904Y-93387619D02*
X217968095Y-93387619D01*
X217955714Y-93511428D01*
X217968095Y-93499047D01*
X217992857Y-93486666D01*
X218054761Y-93486666D01*
X218079523Y-93499047D01*
X218091904Y-93511428D01*
X218104285Y-93536190D01*
X218104285Y-93598095D01*
X218091904Y-93622857D01*
X218079523Y-93635238D01*
X218054761Y-93647619D01*
X217992857Y-93647619D01*
X217968095Y-93635238D01*
X217955714Y-93622857D01*
%TO.C,C4*%
D13*
X190702380Y-94072380D02*
X190130952Y-94072380D01*
X190416666Y-94072380D02*
X190416666Y-93072380D01*
X190321428Y-93215238D01*
X190226190Y-93310476D01*
X190130952Y-93358095D01*
X191321428Y-93072380D02*
X191416666Y-93072380D01*
X191511904Y-93120000D01*
X191559523Y-93167619D01*
X191607142Y-93262857D01*
X191654761Y-93453333D01*
X191654761Y-93691428D01*
X191607142Y-93881904D01*
X191559523Y-93977142D01*
X191511904Y-94024761D01*
X191416666Y-94072380D01*
X191321428Y-94072380D01*
X191226190Y-94024761D01*
X191178571Y-93977142D01*
X191130952Y-93881904D01*
X191083333Y-93691428D01*
X191083333Y-93453333D01*
X191130952Y-93262857D01*
X191178571Y-93167619D01*
X191226190Y-93120000D01*
X191321428Y-93072380D01*
X192273809Y-93072380D02*
X192369047Y-93072380D01*
X192464285Y-93120000D01*
X192511904Y-93167619D01*
X192559523Y-93262857D01*
X192607142Y-93453333D01*
X192607142Y-93691428D01*
X192559523Y-93881904D01*
X192511904Y-93977142D01*
X192464285Y-94024761D01*
X192369047Y-94072380D01*
X192273809Y-94072380D01*
X192178571Y-94024761D01*
X192130952Y-93977142D01*
X192083333Y-93881904D01*
X192035714Y-93691428D01*
X192035714Y-93453333D01*
X192083333Y-93262857D01*
X192130952Y-93167619D01*
X192178571Y-93120000D01*
X192273809Y-93072380D01*
X193035714Y-93405714D02*
X193035714Y-94072380D01*
X193035714Y-93500952D02*
X193083333Y-93453333D01*
X193178571Y-93405714D01*
X193321428Y-93405714D01*
X193416666Y-93453333D01*
X193464285Y-93548571D01*
X193464285Y-94072380D01*
X194273809Y-93548571D02*
X193940476Y-93548571D01*
X193940476Y-94072380D02*
X193940476Y-93072380D01*
X194416666Y-93072380D01*
D17*
X192208333Y-92549285D02*
X192196428Y-92561190D01*
X192160714Y-92573095D01*
X192136904Y-92573095D01*
X192101190Y-92561190D01*
X192077380Y-92537380D01*
X192065476Y-92513571D01*
X192053571Y-92465952D01*
X192053571Y-92430238D01*
X192065476Y-92382619D01*
X192077380Y-92358809D01*
X192101190Y-92335000D01*
X192136904Y-92323095D01*
X192160714Y-92323095D01*
X192196428Y-92335000D01*
X192208333Y-92346904D01*
X192422619Y-92406428D02*
X192422619Y-92573095D01*
X192363095Y-92311190D02*
X192303571Y-92489761D01*
X192458333Y-92489761D01*
%TO.C,R4*%
D13*
X214004285Y-95112380D02*
X214623333Y-95112380D01*
X214290000Y-95493333D01*
X214432857Y-95493333D01*
X214528095Y-95540952D01*
X214575714Y-95588571D01*
X214623333Y-95683809D01*
X214623333Y-95921904D01*
X214575714Y-96017142D01*
X214528095Y-96064761D01*
X214432857Y-96112380D01*
X214147142Y-96112380D01*
X214051904Y-96064761D01*
X214004285Y-96017142D01*
X214956666Y-95112380D02*
X215575714Y-95112380D01*
X215242380Y-95493333D01*
X215385238Y-95493333D01*
X215480476Y-95540952D01*
X215528095Y-95588571D01*
X215575714Y-95683809D01*
X215575714Y-95921904D01*
X215528095Y-96017142D01*
X215480476Y-96064761D01*
X215385238Y-96112380D01*
X215099523Y-96112380D01*
X215004285Y-96064761D01*
X214956666Y-96017142D01*
X216194761Y-95112380D02*
X216290000Y-95112380D01*
X216385238Y-95160000D01*
X216432857Y-95207619D01*
X216480476Y-95302857D01*
X216528095Y-95493333D01*
X216528095Y-95731428D01*
X216480476Y-95921904D01*
X216432857Y-96017142D01*
X216385238Y-96064761D01*
X216290000Y-96112380D01*
X216194761Y-96112380D01*
X216099523Y-96064761D01*
X216051904Y-96017142D01*
X216004285Y-95921904D01*
X215956666Y-95731428D01*
X215956666Y-95493333D01*
X216004285Y-95302857D01*
X216051904Y-95207619D01*
X216099523Y-95160000D01*
X216194761Y-95112380D01*
D17*
X215246666Y-94607619D02*
X215160000Y-94483809D01*
X215098095Y-94607619D02*
X215098095Y-94347619D01*
X215197142Y-94347619D01*
X215221904Y-94360000D01*
X215234285Y-94372380D01*
X215246666Y-94397142D01*
X215246666Y-94434285D01*
X215234285Y-94459047D01*
X215221904Y-94471428D01*
X215197142Y-94483809D01*
X215098095Y-94483809D01*
X215469523Y-94434285D02*
X215469523Y-94607619D01*
X215407619Y-94335238D02*
X215345714Y-94520952D01*
X215506666Y-94520952D01*
%TO.C,C10*%
D13*
X182795238Y-102135714D02*
X182795238Y-102802380D01*
X182557142Y-101754761D02*
X182319047Y-102469047D01*
X182938095Y-102469047D01*
X183319047Y-102707142D02*
X183366666Y-102754761D01*
X183319047Y-102802380D01*
X183271428Y-102754761D01*
X183319047Y-102707142D01*
X183319047Y-102802380D01*
X183700000Y-101802380D02*
X184366666Y-101802380D01*
X183938095Y-102802380D01*
X185176190Y-102135714D02*
X185176190Y-102802380D01*
X184747619Y-102135714D02*
X184747619Y-102659523D01*
X184795238Y-102754761D01*
X184890476Y-102802380D01*
X185033333Y-102802380D01*
X185128571Y-102754761D01*
X185176190Y-102707142D01*
X185985714Y-102278571D02*
X185652380Y-102278571D01*
X185652380Y-102802380D02*
X185652380Y-101802380D01*
X186128571Y-101802380D01*
D15*
X183685714Y-100785714D02*
X183647619Y-100823809D01*
X183533333Y-100861904D01*
X183457142Y-100861904D01*
X183342857Y-100823809D01*
X183266666Y-100747619D01*
X183228571Y-100671428D01*
X183190476Y-100519047D01*
X183190476Y-100404761D01*
X183228571Y-100252380D01*
X183266666Y-100176190D01*
X183342857Y-100100000D01*
X183457142Y-100061904D01*
X183533333Y-100061904D01*
X183647619Y-100100000D01*
X183685714Y-100138095D01*
X184447619Y-100861904D02*
X183990476Y-100861904D01*
X184219047Y-100861904D02*
X184219047Y-100061904D01*
X184142857Y-100176190D01*
X184066666Y-100252380D01*
X183990476Y-100290476D01*
X184942857Y-100061904D02*
X185019047Y-100061904D01*
X185095238Y-100100000D01*
X185133333Y-100138095D01*
X185171428Y-100214285D01*
X185209523Y-100366666D01*
X185209523Y-100557142D01*
X185171428Y-100709523D01*
X185133333Y-100785714D01*
X185095238Y-100823809D01*
X185019047Y-100861904D01*
X184942857Y-100861904D01*
X184866666Y-100823809D01*
X184828571Y-100785714D01*
X184790476Y-100709523D01*
X184752380Y-100557142D01*
X184752380Y-100366666D01*
X184790476Y-100214285D01*
X184828571Y-100138095D01*
X184866666Y-100100000D01*
X184942857Y-100061904D01*
%TO.C,R2*%
D13*
X198434285Y-101765714D02*
X198434285Y-102432380D01*
X198196190Y-101384761D02*
X197958095Y-102099047D01*
X198577142Y-102099047D01*
X198958095Y-102432380D02*
X198958095Y-101432380D01*
X199529523Y-102432380D02*
X199100952Y-101860952D01*
X199529523Y-101432380D02*
X198958095Y-102003809D01*
X199862857Y-101432380D02*
X200529523Y-101432380D01*
X200100952Y-102432380D01*
D17*
X199176666Y-100927619D02*
X199090000Y-100803809D01*
X199028095Y-100927619D02*
X199028095Y-100667619D01*
X199127142Y-100667619D01*
X199151904Y-100680000D01*
X199164285Y-100692380D01*
X199176666Y-100717142D01*
X199176666Y-100754285D01*
X199164285Y-100779047D01*
X199151904Y-100791428D01*
X199127142Y-100803809D01*
X199028095Y-100803809D01*
X199275714Y-100692380D02*
X199288095Y-100680000D01*
X199312857Y-100667619D01*
X199374761Y-100667619D01*
X199399523Y-100680000D01*
X199411904Y-100692380D01*
X199424285Y-100717142D01*
X199424285Y-100741904D01*
X199411904Y-100779047D01*
X199263333Y-100927619D01*
X199424285Y-100927619D01*
%TO.C,C2*%
D13*
X204718571Y-96322380D02*
X204147142Y-96322380D01*
X204432857Y-96322380D02*
X204432857Y-95322380D01*
X204337619Y-95465238D01*
X204242380Y-95560476D01*
X204147142Y-95608095D01*
X205337619Y-95322380D02*
X205432857Y-95322380D01*
X205528095Y-95370000D01*
X205575714Y-95417619D01*
X205623333Y-95512857D01*
X205670952Y-95703333D01*
X205670952Y-95941428D01*
X205623333Y-96131904D01*
X205575714Y-96227142D01*
X205528095Y-96274761D01*
X205432857Y-96322380D01*
X205337619Y-96322380D01*
X205242380Y-96274761D01*
X205194761Y-96227142D01*
X205147142Y-96131904D01*
X205099523Y-95941428D01*
X205099523Y-95703333D01*
X205147142Y-95512857D01*
X205194761Y-95417619D01*
X205242380Y-95370000D01*
X205337619Y-95322380D01*
X206099523Y-95655714D02*
X206099523Y-96322380D01*
X206099523Y-95750952D02*
X206147142Y-95703333D01*
X206242380Y-95655714D01*
X206385238Y-95655714D01*
X206480476Y-95703333D01*
X206528095Y-95798571D01*
X206528095Y-96322380D01*
X207337619Y-95798571D02*
X207004285Y-95798571D01*
X207004285Y-96322380D02*
X207004285Y-95322380D01*
X207480476Y-95322380D01*
D17*
X205748333Y-97119285D02*
X205736428Y-97131190D01*
X205700714Y-97143095D01*
X205676904Y-97143095D01*
X205641190Y-97131190D01*
X205617380Y-97107380D01*
X205605476Y-97083571D01*
X205593571Y-97035952D01*
X205593571Y-97000238D01*
X205605476Y-96952619D01*
X205617380Y-96928809D01*
X205641190Y-96905000D01*
X205676904Y-96893095D01*
X205700714Y-96893095D01*
X205736428Y-96905000D01*
X205748333Y-96916904D01*
X205843571Y-96916904D02*
X205855476Y-96905000D01*
X205879285Y-96893095D01*
X205938809Y-96893095D01*
X205962619Y-96905000D01*
X205974523Y-96916904D01*
X205986428Y-96940714D01*
X205986428Y-96964523D01*
X205974523Y-97000238D01*
X205831666Y-97143095D01*
X205986428Y-97143095D01*
%TO.C,RV1*%
D14*
X185614523Y-114055952D02*
X185009761Y-114479285D01*
X185614523Y-114781666D02*
X184344523Y-114781666D01*
X184344523Y-114297857D01*
X184405000Y-114176904D01*
X184465476Y-114116428D01*
X184586428Y-114055952D01*
X184767857Y-114055952D01*
X184888809Y-114116428D01*
X184949285Y-114176904D01*
X185009761Y-114297857D01*
X185009761Y-114781666D01*
X184344523Y-113693095D02*
X185614523Y-113269761D01*
X184344523Y-112846428D01*
X185614523Y-111757857D02*
X185614523Y-112483571D01*
X185614523Y-112120714D02*
X184344523Y-112120714D01*
X184525952Y-112241666D01*
X184646904Y-112362619D01*
X184707380Y-112483571D01*
%TO.C,L1*%
D13*
X189963333Y-91152380D02*
X189391904Y-91152380D01*
X189677619Y-91152380D02*
X189677619Y-90152380D01*
X189582380Y-90295238D01*
X189487142Y-90390476D01*
X189391904Y-90438095D01*
X190582380Y-90152380D02*
X190677619Y-90152380D01*
X190772857Y-90200000D01*
X190820476Y-90247619D01*
X190868095Y-90342857D01*
X190915714Y-90533333D01*
X190915714Y-90771428D01*
X190868095Y-90961904D01*
X190820476Y-91057142D01*
X190772857Y-91104761D01*
X190677619Y-91152380D01*
X190582380Y-91152380D01*
X190487142Y-91104761D01*
X190439523Y-91057142D01*
X190391904Y-90961904D01*
X190344285Y-90771428D01*
X190344285Y-90533333D01*
X190391904Y-90342857D01*
X190439523Y-90247619D01*
X190487142Y-90200000D01*
X190582380Y-90152380D01*
X191772857Y-90485714D02*
X191772857Y-91152380D01*
X191344285Y-90485714D02*
X191344285Y-91009523D01*
X191391904Y-91104761D01*
X191487142Y-91152380D01*
X191630000Y-91152380D01*
X191725238Y-91104761D01*
X191772857Y-91057142D01*
X192249047Y-91152380D02*
X192249047Y-90152380D01*
X192249047Y-90628571D02*
X192820476Y-90628571D01*
X192820476Y-91152380D02*
X192820476Y-90152380D01*
D15*
X191657066Y-87079104D02*
X191276114Y-87079104D01*
X191276114Y-86279104D01*
X192342780Y-87079104D02*
X191885638Y-87079104D01*
X192114209Y-87079104D02*
X192114209Y-86279104D01*
X192038019Y-86393390D01*
X191961828Y-86469580D01*
X191885638Y-86507676D01*
%TO.C,R3*%
D13*
X193272380Y-95536666D02*
X193272380Y-96108095D01*
X193272380Y-95822380D02*
X192272380Y-95822380D01*
X192415238Y-95917619D01*
X192510476Y-96012857D01*
X192558095Y-96108095D01*
X192272380Y-94917619D02*
X192272380Y-94822380D01*
X192320000Y-94727142D01*
X192367619Y-94679523D01*
X192462857Y-94631904D01*
X192653333Y-94584285D01*
X192891428Y-94584285D01*
X193081904Y-94631904D01*
X193177142Y-94679523D01*
X193224761Y-94727142D01*
X193272380Y-94822380D01*
X193272380Y-94917619D01*
X193224761Y-95012857D01*
X193177142Y-95060476D01*
X193081904Y-95108095D01*
X192891428Y-95155714D01*
X192653333Y-95155714D01*
X192462857Y-95108095D01*
X192367619Y-95060476D01*
X192320000Y-95012857D01*
X192272380Y-94917619D01*
X192272380Y-93965238D02*
X192272380Y-93870000D01*
X192320000Y-93774761D01*
X192367619Y-93727142D01*
X192462857Y-93679523D01*
X192653333Y-93631904D01*
X192891428Y-93631904D01*
X193081904Y-93679523D01*
X193177142Y-93727142D01*
X193224761Y-93774761D01*
X193272380Y-93870000D01*
X193272380Y-93965238D01*
X193224761Y-94060476D01*
X193177142Y-94108095D01*
X193081904Y-94155714D01*
X192891428Y-94203333D01*
X192653333Y-94203333D01*
X192462857Y-94155714D01*
X192367619Y-94108095D01*
X192320000Y-94060476D01*
X192272380Y-93965238D01*
X193272380Y-93203333D02*
X192272380Y-93203333D01*
X193272380Y-92631904D02*
X192700952Y-93060476D01*
X192272380Y-92631904D02*
X192843809Y-93203333D01*
D17*
X191767619Y-94413333D02*
X191643809Y-94500000D01*
X191767619Y-94561904D02*
X191507619Y-94561904D01*
X191507619Y-94462857D01*
X191520000Y-94438095D01*
X191532380Y-94425714D01*
X191557142Y-94413333D01*
X191594285Y-94413333D01*
X191619047Y-94425714D01*
X191631428Y-94438095D01*
X191643809Y-94462857D01*
X191643809Y-94561904D01*
X191507619Y-94326666D02*
X191507619Y-94165714D01*
X191606666Y-94252380D01*
X191606666Y-94215238D01*
X191619047Y-94190476D01*
X191631428Y-94178095D01*
X191656190Y-94165714D01*
X191718095Y-94165714D01*
X191742857Y-94178095D01*
X191755238Y-94190476D01*
X191767619Y-94215238D01*
X191767619Y-94289523D01*
X191755238Y-94314285D01*
X191742857Y-94326666D01*
%TO.C,U1*%
D14*
X208684523Y-106877619D02*
X209712619Y-106877619D01*
X209833571Y-106817142D01*
X209894047Y-106756666D01*
X209954523Y-106635714D01*
X209954523Y-106393809D01*
X209894047Y-106272857D01*
X209833571Y-106212380D01*
X209712619Y-106151904D01*
X208684523Y-106151904D01*
X209954523Y-104881904D02*
X209954523Y-105607619D01*
X209954523Y-105244761D02*
X208684523Y-105244761D01*
X208865952Y-105365714D01*
X208986904Y-105486666D01*
X209047380Y-105607619D01*
%TO.C,R7*%
D13*
X191435714Y-95155714D02*
X192102380Y-95155714D01*
X191054761Y-95393809D02*
X191769047Y-95631904D01*
X191769047Y-95012857D01*
X192102380Y-94631904D02*
X191102380Y-94631904D01*
X192102380Y-94060476D02*
X191530952Y-94489047D01*
X191102380Y-94060476D02*
X191673809Y-94631904D01*
X191102380Y-93727142D02*
X191102380Y-93060476D01*
X192102380Y-93489047D01*
D17*
X192937619Y-94413333D02*
X192813809Y-94500000D01*
X192937619Y-94561904D02*
X192677619Y-94561904D01*
X192677619Y-94462857D01*
X192690000Y-94438095D01*
X192702380Y-94425714D01*
X192727142Y-94413333D01*
X192764285Y-94413333D01*
X192789047Y-94425714D01*
X192801428Y-94438095D01*
X192813809Y-94462857D01*
X192813809Y-94561904D01*
X192677619Y-94326666D02*
X192677619Y-94153333D01*
X192937619Y-94264761D01*
%TO.C,D5*%
D13*
X205292380Y-107358571D02*
X204292380Y-107358571D01*
X204292380Y-107120476D01*
X204340000Y-106977619D01*
X204435238Y-106882380D01*
X204530476Y-106834761D01*
X204720952Y-106787142D01*
X204863809Y-106787142D01*
X205054285Y-106834761D01*
X205149523Y-106882380D01*
X205244761Y-106977619D01*
X205292380Y-107120476D01*
X205292380Y-107358571D01*
X205387619Y-106596666D02*
X205387619Y-105834761D01*
X204292380Y-105739523D02*
X204292380Y-105168095D01*
X205292380Y-105453809D02*
X204292380Y-105453809D01*
X204292380Y-104977619D02*
X205292380Y-104644285D01*
X204292380Y-104310952D01*
X205244761Y-104025238D02*
X205292380Y-103882380D01*
X205292380Y-103644285D01*
X205244761Y-103549047D01*
X205197142Y-103501428D01*
X205101904Y-103453809D01*
X205006666Y-103453809D01*
X204911428Y-103501428D01*
X204863809Y-103549047D01*
X204816190Y-103644285D01*
X204768571Y-103834761D01*
X204720952Y-103930000D01*
X204673333Y-103977619D01*
X204578095Y-104025238D01*
X204482857Y-104025238D01*
X204387619Y-103977619D01*
X204340000Y-103930000D01*
X204292380Y-103834761D01*
X204292380Y-103596666D01*
X204340000Y-103453809D01*
X209042380Y-106068095D02*
X208042380Y-106068095D01*
X208042380Y-105830000D01*
X208090000Y-105687142D01*
X208185238Y-105591904D01*
X208280476Y-105544285D01*
X208470952Y-105496666D01*
X208613809Y-105496666D01*
X208804285Y-105544285D01*
X208899523Y-105591904D01*
X208994761Y-105687142D01*
X209042380Y-105830000D01*
X209042380Y-106068095D01*
X208042380Y-104591904D02*
X208042380Y-105068095D01*
X208518571Y-105115714D01*
X208470952Y-105068095D01*
X208423333Y-104972857D01*
X208423333Y-104734761D01*
X208470952Y-104639523D01*
X208518571Y-104591904D01*
X208613809Y-104544285D01*
X208851904Y-104544285D01*
X208947142Y-104591904D01*
X208994761Y-104639523D01*
X209042380Y-104734761D01*
X209042380Y-104972857D01*
X208994761Y-105068095D01*
X208947142Y-105115714D01*
%TO.C,R1*%
X198375714Y-103175714D02*
X199042380Y-103175714D01*
X197994761Y-103413809D02*
X198709047Y-103651904D01*
X198709047Y-103032857D01*
X199042380Y-102651904D02*
X198042380Y-102651904D01*
X199042380Y-102080476D02*
X198470952Y-102509047D01*
X198042380Y-102080476D02*
X198613809Y-102651904D01*
X198042380Y-101747142D02*
X198042380Y-101080476D01*
X199042380Y-101509047D01*
D17*
X197537619Y-102433333D02*
X197413809Y-102520000D01*
X197537619Y-102581904D02*
X197277619Y-102581904D01*
X197277619Y-102482857D01*
X197290000Y-102458095D01*
X197302380Y-102445714D01*
X197327142Y-102433333D01*
X197364285Y-102433333D01*
X197389047Y-102445714D01*
X197401428Y-102458095D01*
X197413809Y-102482857D01*
X197413809Y-102581904D01*
X197537619Y-102185714D02*
X197537619Y-102334285D01*
X197537619Y-102260000D02*
X197277619Y-102260000D01*
X197314761Y-102284761D01*
X197339523Y-102309523D01*
X197351904Y-102334285D01*
%TO.C,IC2*%
D14*
X186074523Y-107339761D02*
X184804523Y-107339761D01*
X185953571Y-106009285D02*
X186014047Y-106069761D01*
X186074523Y-106251190D01*
X186074523Y-106372142D01*
X186014047Y-106553571D01*
X185893095Y-106674523D01*
X185772142Y-106735000D01*
X185530238Y-106795476D01*
X185348809Y-106795476D01*
X185106904Y-106735000D01*
X184985952Y-106674523D01*
X184865000Y-106553571D01*
X184804523Y-106372142D01*
X184804523Y-106251190D01*
X184865000Y-106069761D01*
X184925476Y-106009285D01*
X184925476Y-105525476D02*
X184865000Y-105465000D01*
X184804523Y-105344047D01*
X184804523Y-105041666D01*
X184865000Y-104920714D01*
X184925476Y-104860238D01*
X185046428Y-104799761D01*
X185167380Y-104799761D01*
X185348809Y-104860238D01*
X186074523Y-105585952D01*
X186074523Y-104799761D01*
%TO.C,R8*%
D13*
X182214285Y-92761714D02*
X182214285Y-93428380D01*
X181976190Y-92380761D02*
X181738095Y-93095047D01*
X182357142Y-93095047D01*
X182738095Y-93428380D02*
X182738095Y-92428380D01*
X183309523Y-93428380D02*
X182880952Y-92856952D01*
X183309523Y-92428380D02*
X182738095Y-92999809D01*
X183642857Y-92428380D02*
X184309523Y-92428380D01*
X183880952Y-93428380D01*
D17*
X182956666Y-94617619D02*
X182870000Y-94493809D01*
X182808095Y-94617619D02*
X182808095Y-94357619D01*
X182907142Y-94357619D01*
X182931904Y-94370000D01*
X182944285Y-94382380D01*
X182956666Y-94407142D01*
X182956666Y-94444285D01*
X182944285Y-94469047D01*
X182931904Y-94481428D01*
X182907142Y-94493809D01*
X182808095Y-94493809D01*
X183105238Y-94469047D02*
X183080476Y-94456666D01*
X183068095Y-94444285D01*
X183055714Y-94419523D01*
X183055714Y-94407142D01*
X183068095Y-94382380D01*
X183080476Y-94370000D01*
X183105238Y-94357619D01*
X183154761Y-94357619D01*
X183179523Y-94370000D01*
X183191904Y-94382380D01*
X183204285Y-94407142D01*
X183204285Y-94419523D01*
X183191904Y-94444285D01*
X183179523Y-94456666D01*
X183154761Y-94469047D01*
X183105238Y-94469047D01*
X183080476Y-94481428D01*
X183068095Y-94493809D01*
X183055714Y-94518571D01*
X183055714Y-94568095D01*
X183068095Y-94592857D01*
X183080476Y-94605238D01*
X183105238Y-94617619D01*
X183154761Y-94617619D01*
X183179523Y-94605238D01*
X183191904Y-94592857D01*
X183204285Y-94568095D01*
X183204285Y-94518571D01*
X183191904Y-94493809D01*
X183179523Y-94481428D01*
X183154761Y-94469047D01*
%TO.C,D7*%
D13*
X180972619Y-88046428D02*
X181972619Y-88046428D01*
X181972619Y-88284523D01*
X181925000Y-88427380D01*
X181829761Y-88522619D01*
X181734523Y-88570238D01*
X181544047Y-88617857D01*
X181401190Y-88617857D01*
X181210714Y-88570238D01*
X181115476Y-88522619D01*
X181020238Y-88427380D01*
X180972619Y-88284523D01*
X180972619Y-88046428D01*
X180877380Y-88808333D02*
X180877380Y-89570238D01*
X181972619Y-89665476D02*
X181972619Y-90236904D01*
X180972619Y-89951190D02*
X181972619Y-89951190D01*
X181972619Y-90427380D02*
X180972619Y-90760714D01*
X181972619Y-91094047D01*
X181020238Y-91379761D02*
X180972619Y-91522619D01*
X180972619Y-91760714D01*
X181020238Y-91855952D01*
X181067857Y-91903571D01*
X181163095Y-91951190D01*
X181258333Y-91951190D01*
X181353571Y-91903571D01*
X181401190Y-91855952D01*
X181448809Y-91760714D01*
X181496428Y-91570238D01*
X181544047Y-91475000D01*
X181591666Y-91427380D01*
X181686904Y-91379761D01*
X181782142Y-91379761D01*
X181877380Y-91427380D01*
X181925000Y-91475000D01*
X181972619Y-91570238D01*
X181972619Y-91808333D01*
X181925000Y-91951190D01*
X179026619Y-86684904D02*
X180026619Y-86684904D01*
X180026619Y-86923000D01*
X179979000Y-87065857D01*
X179883761Y-87161095D01*
X179788523Y-87208714D01*
X179598047Y-87256333D01*
X179455190Y-87256333D01*
X179264714Y-87208714D01*
X179169476Y-87161095D01*
X179074238Y-87065857D01*
X179026619Y-86923000D01*
X179026619Y-86684904D01*
X180026619Y-87589666D02*
X180026619Y-88256333D01*
X179026619Y-87827761D01*
%TO.C,C5*%
X190672380Y-90172380D02*
X190100952Y-90172380D01*
X190386666Y-90172380D02*
X190386666Y-89172380D01*
X190291428Y-89315238D01*
X190196190Y-89410476D01*
X190100952Y-89458095D01*
X191291428Y-89172380D02*
X191386666Y-89172380D01*
X191481904Y-89220000D01*
X191529523Y-89267619D01*
X191577142Y-89362857D01*
X191624761Y-89553333D01*
X191624761Y-89791428D01*
X191577142Y-89981904D01*
X191529523Y-90077142D01*
X191481904Y-90124761D01*
X191386666Y-90172380D01*
X191291428Y-90172380D01*
X191196190Y-90124761D01*
X191148571Y-90077142D01*
X191100952Y-89981904D01*
X191053333Y-89791428D01*
X191053333Y-89553333D01*
X191100952Y-89362857D01*
X191148571Y-89267619D01*
X191196190Y-89220000D01*
X191291428Y-89172380D01*
X192243809Y-89172380D02*
X192339047Y-89172380D01*
X192434285Y-89220000D01*
X192481904Y-89267619D01*
X192529523Y-89362857D01*
X192577142Y-89553333D01*
X192577142Y-89791428D01*
X192529523Y-89981904D01*
X192481904Y-90077142D01*
X192434285Y-90124761D01*
X192339047Y-90172380D01*
X192243809Y-90172380D01*
X192148571Y-90124761D01*
X192100952Y-90077142D01*
X192053333Y-89981904D01*
X192005714Y-89791428D01*
X192005714Y-89553333D01*
X192053333Y-89362857D01*
X192100952Y-89267619D01*
X192148571Y-89220000D01*
X192243809Y-89172380D01*
X193005714Y-89505714D02*
X193005714Y-90172380D01*
X193005714Y-89600952D02*
X193053333Y-89553333D01*
X193148571Y-89505714D01*
X193291428Y-89505714D01*
X193386666Y-89553333D01*
X193434285Y-89648571D01*
X193434285Y-90172380D01*
X194243809Y-89648571D02*
X193910476Y-89648571D01*
X193910476Y-90172380D02*
X193910476Y-89172380D01*
X194386666Y-89172380D01*
D17*
X192178333Y-90969285D02*
X192166428Y-90981190D01*
X192130714Y-90993095D01*
X192106904Y-90993095D01*
X192071190Y-90981190D01*
X192047380Y-90957380D01*
X192035476Y-90933571D01*
X192023571Y-90885952D01*
X192023571Y-90850238D01*
X192035476Y-90802619D01*
X192047380Y-90778809D01*
X192071190Y-90755000D01*
X192106904Y-90743095D01*
X192130714Y-90743095D01*
X192166428Y-90755000D01*
X192178333Y-90766904D01*
X192404523Y-90743095D02*
X192285476Y-90743095D01*
X192273571Y-90862142D01*
X192285476Y-90850238D01*
X192309285Y-90838333D01*
X192368809Y-90838333D01*
X192392619Y-90850238D01*
X192404523Y-90862142D01*
X192416428Y-90885952D01*
X192416428Y-90945476D01*
X192404523Y-90969285D01*
X192392619Y-90981190D01*
X192368809Y-90993095D01*
X192309285Y-90993095D01*
X192285476Y-90981190D01*
X192273571Y-90969285D01*
%TO.C,Y1*%
D14*
X209949761Y-92219761D02*
X210554523Y-92219761D01*
X209284523Y-92643095D02*
X209949761Y-92219761D01*
X209284523Y-91796428D01*
X210554523Y-90707857D02*
X210554523Y-91433571D01*
X210554523Y-91070714D02*
X209284523Y-91070714D01*
X209465952Y-91191666D01*
X209586904Y-91312619D01*
X209647380Y-91433571D01*
%TO.C,TP2*%
D13*
X198266666Y-97943180D02*
X198838095Y-97943180D01*
X198552380Y-98943180D02*
X198552380Y-97943180D01*
X199552380Y-98895561D02*
X199457142Y-98943180D01*
X199266666Y-98943180D01*
X199171428Y-98895561D01*
X199123809Y-98800323D01*
X199123809Y-98419371D01*
X199171428Y-98324133D01*
X199266666Y-98276514D01*
X199457142Y-98276514D01*
X199552380Y-98324133D01*
X199600000Y-98419371D01*
X199600000Y-98514609D01*
X199123809Y-98609847D01*
X199980952Y-98895561D02*
X200076190Y-98943180D01*
X200266666Y-98943180D01*
X200361904Y-98895561D01*
X200409523Y-98800323D01*
X200409523Y-98752704D01*
X200361904Y-98657466D01*
X200266666Y-98609847D01*
X200123809Y-98609847D01*
X200028571Y-98562228D01*
X199980952Y-98466990D01*
X199980952Y-98419371D01*
X200028571Y-98324133D01*
X200123809Y-98276514D01*
X200266666Y-98276514D01*
X200361904Y-98324133D01*
X200695238Y-98276514D02*
X201076190Y-98276514D01*
X200838095Y-97943180D02*
X200838095Y-98800323D01*
X200885714Y-98895561D01*
X200980952Y-98943180D01*
X201076190Y-98943180D01*
X201409523Y-98943180D02*
X201409523Y-97943180D01*
X201790476Y-97943180D01*
X201885714Y-97990800D01*
X201933333Y-98038419D01*
X201980952Y-98133657D01*
X201980952Y-98276514D01*
X201933333Y-98371752D01*
X201885714Y-98419371D01*
X201790476Y-98466990D01*
X201409523Y-98466990D01*
X202552380Y-98943180D02*
X202457142Y-98895561D01*
X202409523Y-98847942D01*
X202361904Y-98752704D01*
X202361904Y-98466990D01*
X202409523Y-98371752D01*
X202457142Y-98324133D01*
X202552380Y-98276514D01*
X202695238Y-98276514D01*
X202790476Y-98324133D01*
X202838095Y-98371752D01*
X202885714Y-98466990D01*
X202885714Y-98752704D01*
X202838095Y-98847942D01*
X202790476Y-98895561D01*
X202695238Y-98943180D01*
X202552380Y-98943180D01*
X203314285Y-98943180D02*
X203314285Y-98276514D01*
X203314285Y-97943180D02*
X203266666Y-97990800D01*
X203314285Y-98038419D01*
X203361904Y-97990800D01*
X203314285Y-97943180D01*
X203314285Y-98038419D01*
X203790476Y-98276514D02*
X203790476Y-98943180D01*
X203790476Y-98371752D02*
X203838095Y-98324133D01*
X203933333Y-98276514D01*
X204076190Y-98276514D01*
X204171428Y-98324133D01*
X204219047Y-98419371D01*
X204219047Y-98943180D01*
X204552380Y-98276514D02*
X204933333Y-98276514D01*
X204695238Y-97943180D02*
X204695238Y-98800323D01*
X204742857Y-98895561D01*
X204838095Y-98943180D01*
X204933333Y-98943180D01*
%TO.C,C3*%
X208072380Y-94465238D02*
X208072380Y-95036666D01*
X208072380Y-94750952D02*
X207072380Y-94750952D01*
X207215238Y-94846190D01*
X207310476Y-94941428D01*
X207358095Y-95036666D01*
X207405714Y-93608095D02*
X208072380Y-93608095D01*
X207405714Y-94036666D02*
X207929523Y-94036666D01*
X208024761Y-93989047D01*
X208072380Y-93893809D01*
X208072380Y-93750952D01*
X208024761Y-93655714D01*
X207977142Y-93608095D01*
X207548571Y-92798571D02*
X207548571Y-93131904D01*
X208072380Y-93131904D02*
X207072380Y-93131904D01*
X207072380Y-92655714D01*
D15*
X206075714Y-94003333D02*
X206113809Y-94041428D01*
X206151904Y-94155714D01*
X206151904Y-94231904D01*
X206113809Y-94346190D01*
X206037619Y-94422380D01*
X205961428Y-94460476D01*
X205809047Y-94498571D01*
X205694761Y-94498571D01*
X205542380Y-94460476D01*
X205466190Y-94422380D01*
X205390000Y-94346190D01*
X205351904Y-94231904D01*
X205351904Y-94155714D01*
X205390000Y-94041428D01*
X205428095Y-94003333D01*
X205351904Y-93736666D02*
X205351904Y-93241428D01*
X205656666Y-93508095D01*
X205656666Y-93393809D01*
X205694761Y-93317619D01*
X205732857Y-93279523D01*
X205809047Y-93241428D01*
X205999523Y-93241428D01*
X206075714Y-93279523D01*
X206113809Y-93317619D01*
X206151904Y-93393809D01*
X206151904Y-93622380D01*
X206113809Y-93698571D01*
X206075714Y-93736666D01*
%TO.C,C13*%
D13*
X182712380Y-92147619D02*
X182712380Y-92719047D01*
X182712380Y-92433333D02*
X181712380Y-92433333D01*
X181855238Y-92528571D01*
X181950476Y-92623809D01*
X181998095Y-92719047D01*
X181712380Y-91528571D02*
X181712380Y-91433333D01*
X181760000Y-91338095D01*
X181807619Y-91290476D01*
X181902857Y-91242857D01*
X182093333Y-91195238D01*
X182331428Y-91195238D01*
X182521904Y-91242857D01*
X182617142Y-91290476D01*
X182664761Y-91338095D01*
X182712380Y-91433333D01*
X182712380Y-91528571D01*
X182664761Y-91623809D01*
X182617142Y-91671428D01*
X182521904Y-91719047D01*
X182331428Y-91766666D01*
X182093333Y-91766666D01*
X181902857Y-91719047D01*
X181807619Y-91671428D01*
X181760000Y-91623809D01*
X181712380Y-91528571D01*
X181712380Y-90576190D02*
X181712380Y-90480952D01*
X181760000Y-90385714D01*
X181807619Y-90338095D01*
X181902857Y-90290476D01*
X182093333Y-90242857D01*
X182331428Y-90242857D01*
X182521904Y-90290476D01*
X182617142Y-90338095D01*
X182664761Y-90385714D01*
X182712380Y-90480952D01*
X182712380Y-90576190D01*
X182664761Y-90671428D01*
X182617142Y-90719047D01*
X182521904Y-90766666D01*
X182331428Y-90814285D01*
X182093333Y-90814285D01*
X181902857Y-90766666D01*
X181807619Y-90719047D01*
X181760000Y-90671428D01*
X181712380Y-90576190D01*
X182045714Y-89814285D02*
X182712380Y-89814285D01*
X182140952Y-89814285D02*
X182093333Y-89766666D01*
X182045714Y-89671428D01*
X182045714Y-89528571D01*
X182093333Y-89433333D01*
X182188571Y-89385714D01*
X182712380Y-89385714D01*
X182188571Y-88576190D02*
X182188571Y-88909523D01*
X182712380Y-88909523D02*
X181712380Y-88909523D01*
X181712380Y-88433333D01*
%TO.C,C16*%
X186704761Y-91892380D02*
X186133333Y-91892380D01*
X186419047Y-91892380D02*
X186419047Y-90892380D01*
X186323809Y-91035238D01*
X186228571Y-91130476D01*
X186133333Y-91178095D01*
X187561904Y-91225714D02*
X187561904Y-91892380D01*
X187133333Y-91225714D02*
X187133333Y-91749523D01*
X187180952Y-91844761D01*
X187276190Y-91892380D01*
X187419047Y-91892380D01*
X187514285Y-91844761D01*
X187561904Y-91797142D01*
X188371428Y-91368571D02*
X188038095Y-91368571D01*
X188038095Y-91892380D02*
X188038095Y-90892380D01*
X188514285Y-90892380D01*
D17*
X187139285Y-92689285D02*
X187127380Y-92701190D01*
X187091666Y-92713095D01*
X187067857Y-92713095D01*
X187032142Y-92701190D01*
X187008333Y-92677380D01*
X186996428Y-92653571D01*
X186984523Y-92605952D01*
X186984523Y-92570238D01*
X186996428Y-92522619D01*
X187008333Y-92498809D01*
X187032142Y-92475000D01*
X187067857Y-92463095D01*
X187091666Y-92463095D01*
X187127380Y-92475000D01*
X187139285Y-92486904D01*
X187377380Y-92713095D02*
X187234523Y-92713095D01*
X187305952Y-92713095D02*
X187305952Y-92463095D01*
X187282142Y-92498809D01*
X187258333Y-92522619D01*
X187234523Y-92534523D01*
X187591666Y-92463095D02*
X187544047Y-92463095D01*
X187520238Y-92475000D01*
X187508333Y-92486904D01*
X187484523Y-92522619D01*
X187472619Y-92570238D01*
X187472619Y-92665476D01*
X187484523Y-92689285D01*
X187496428Y-92701190D01*
X187520238Y-92713095D01*
X187567857Y-92713095D01*
X187591666Y-92701190D01*
X187603571Y-92689285D01*
X187615476Y-92665476D01*
X187615476Y-92605952D01*
X187603571Y-92582142D01*
X187591666Y-92570238D01*
X187567857Y-92558333D01*
X187520238Y-92558333D01*
X187496428Y-92570238D01*
X187484523Y-92582142D01*
X187472619Y-92605952D01*
%TO.C,D1*%
D14*
X193245619Y-103114523D02*
X193245619Y-101844523D01*
X193548000Y-101844523D01*
X193729428Y-101905000D01*
X193850380Y-102025952D01*
X193910857Y-102146904D01*
X193971333Y-102388809D01*
X193971333Y-102570238D01*
X193910857Y-102812142D01*
X193850380Y-102933095D01*
X193729428Y-103054047D01*
X193548000Y-103114523D01*
X193245619Y-103114523D01*
X195180857Y-103114523D02*
X194455142Y-103114523D01*
X194818000Y-103114523D02*
X194818000Y-101844523D01*
X194697047Y-102025952D01*
X194576095Y-102146904D01*
X194455142Y-102207380D01*
%TO.C,D2*%
X193512619Y-100924523D02*
X193512619Y-99654523D01*
X193815000Y-99654523D01*
X193996428Y-99715000D01*
X194117380Y-99835952D01*
X194177857Y-99956904D01*
X194238333Y-100198809D01*
X194238333Y-100380238D01*
X194177857Y-100622142D01*
X194117380Y-100743095D01*
X193996428Y-100864047D01*
X193815000Y-100924523D01*
X193512619Y-100924523D01*
X194722142Y-99775476D02*
X194782619Y-99715000D01*
X194903571Y-99654523D01*
X195205952Y-99654523D01*
X195326904Y-99715000D01*
X195387380Y-99775476D01*
X195447857Y-99896428D01*
X195447857Y-100017380D01*
X195387380Y-100198809D01*
X194661666Y-100924523D01*
X195447857Y-100924523D01*
%TO.C,C1*%
D13*
X199132380Y-100935238D02*
X199132380Y-101506666D01*
X199132380Y-101220952D02*
X198132380Y-101220952D01*
X198275238Y-101316190D01*
X198370476Y-101411428D01*
X198418095Y-101506666D01*
X198465714Y-100078095D02*
X199132380Y-100078095D01*
X198465714Y-100506666D02*
X198989523Y-100506666D01*
X199084761Y-100459047D01*
X199132380Y-100363809D01*
X199132380Y-100220952D01*
X199084761Y-100125714D01*
X199037142Y-100078095D01*
X198608571Y-99268571D02*
X198608571Y-99601904D01*
X199132380Y-99601904D02*
X198132380Y-99601904D01*
X198132380Y-99125714D01*
D17*
X197609285Y-100381666D02*
X197621190Y-100393571D01*
X197633095Y-100429285D01*
X197633095Y-100453095D01*
X197621190Y-100488809D01*
X197597380Y-100512619D01*
X197573571Y-100524523D01*
X197525952Y-100536428D01*
X197490238Y-100536428D01*
X197442619Y-100524523D01*
X197418809Y-100512619D01*
X197395000Y-100488809D01*
X197383095Y-100453095D01*
X197383095Y-100429285D01*
X197395000Y-100393571D01*
X197406904Y-100381666D01*
X197633095Y-100143571D02*
X197633095Y-100286428D01*
X197633095Y-100215000D02*
X197383095Y-100215000D01*
X197418809Y-100238809D01*
X197442619Y-100262619D01*
X197454523Y-100286428D01*
%TO.C,TP3*%
D13*
X194866666Y-96722380D02*
X195438095Y-96722380D01*
X195152380Y-97722380D02*
X195152380Y-96722380D01*
X196152380Y-97674761D02*
X196057142Y-97722380D01*
X195866666Y-97722380D01*
X195771428Y-97674761D01*
X195723809Y-97579523D01*
X195723809Y-97198571D01*
X195771428Y-97103333D01*
X195866666Y-97055714D01*
X196057142Y-97055714D01*
X196152380Y-97103333D01*
X196200000Y-97198571D01*
X196200000Y-97293809D01*
X195723809Y-97389047D01*
X196580952Y-97674761D02*
X196676190Y-97722380D01*
X196866666Y-97722380D01*
X196961904Y-97674761D01*
X197009523Y-97579523D01*
X197009523Y-97531904D01*
X196961904Y-97436666D01*
X196866666Y-97389047D01*
X196723809Y-97389047D01*
X196628571Y-97341428D01*
X196580952Y-97246190D01*
X196580952Y-97198571D01*
X196628571Y-97103333D01*
X196723809Y-97055714D01*
X196866666Y-97055714D01*
X196961904Y-97103333D01*
X197295238Y-97055714D02*
X197676190Y-97055714D01*
X197438095Y-96722380D02*
X197438095Y-97579523D01*
X197485714Y-97674761D01*
X197580952Y-97722380D01*
X197676190Y-97722380D01*
X198009523Y-97722380D02*
X198009523Y-96722380D01*
X198390476Y-96722380D01*
X198485714Y-96770000D01*
X198533333Y-96817619D01*
X198580952Y-96912857D01*
X198580952Y-97055714D01*
X198533333Y-97150952D01*
X198485714Y-97198571D01*
X198390476Y-97246190D01*
X198009523Y-97246190D01*
X199152380Y-97722380D02*
X199057142Y-97674761D01*
X199009523Y-97627142D01*
X198961904Y-97531904D01*
X198961904Y-97246190D01*
X199009523Y-97150952D01*
X199057142Y-97103333D01*
X199152380Y-97055714D01*
X199295238Y-97055714D01*
X199390476Y-97103333D01*
X199438095Y-97150952D01*
X199485714Y-97246190D01*
X199485714Y-97531904D01*
X199438095Y-97627142D01*
X199390476Y-97674761D01*
X199295238Y-97722380D01*
X199152380Y-97722380D01*
X199914285Y-97722380D02*
X199914285Y-97055714D01*
X199914285Y-96722380D02*
X199866666Y-96770000D01*
X199914285Y-96817619D01*
X199961904Y-96770000D01*
X199914285Y-96722380D01*
X199914285Y-96817619D01*
X200390476Y-97055714D02*
X200390476Y-97722380D01*
X200390476Y-97150952D02*
X200438095Y-97103333D01*
X200533333Y-97055714D01*
X200676190Y-97055714D01*
X200771428Y-97103333D01*
X200819047Y-97198571D01*
X200819047Y-97722380D01*
X201152380Y-97055714D02*
X201533333Y-97055714D01*
X201295238Y-96722380D02*
X201295238Y-97579523D01*
X201342857Y-97674761D01*
X201438095Y-97722380D01*
X201533333Y-97722380D01*
X196938095Y-99722380D02*
X197509523Y-99722380D01*
X197223809Y-100722380D02*
X197223809Y-99722380D01*
X197842857Y-100722380D02*
X197842857Y-99722380D01*
X198223809Y-99722380D01*
X198319047Y-99770000D01*
X198366666Y-99817619D01*
X198414285Y-99912857D01*
X198414285Y-100055714D01*
X198366666Y-100150952D01*
X198319047Y-100198571D01*
X198223809Y-100246190D01*
X197842857Y-100246190D01*
X198747619Y-99722380D02*
X199366666Y-99722380D01*
X199033333Y-100103333D01*
X199176190Y-100103333D01*
X199271428Y-100150952D01*
X199319047Y-100198571D01*
X199366666Y-100293809D01*
X199366666Y-100531904D01*
X199319047Y-100627142D01*
X199271428Y-100674761D01*
X199176190Y-100722380D01*
X198890476Y-100722380D01*
X198795238Y-100674761D01*
X198747619Y-100627142D01*
%TO.C,C11*%
X205182380Y-104002380D02*
X204610952Y-104002380D01*
X204896666Y-104002380D02*
X204896666Y-103002380D01*
X204801428Y-103145238D01*
X204706190Y-103240476D01*
X204610952Y-103288095D01*
X205801428Y-103002380D02*
X205896666Y-103002380D01*
X205991904Y-103050000D01*
X206039523Y-103097619D01*
X206087142Y-103192857D01*
X206134761Y-103383333D01*
X206134761Y-103621428D01*
X206087142Y-103811904D01*
X206039523Y-103907142D01*
X205991904Y-103954761D01*
X205896666Y-104002380D01*
X205801428Y-104002380D01*
X205706190Y-103954761D01*
X205658571Y-103907142D01*
X205610952Y-103811904D01*
X205563333Y-103621428D01*
X205563333Y-103383333D01*
X205610952Y-103192857D01*
X205658571Y-103097619D01*
X205706190Y-103050000D01*
X205801428Y-103002380D01*
X206753809Y-103002380D02*
X206849047Y-103002380D01*
X206944285Y-103050000D01*
X206991904Y-103097619D01*
X207039523Y-103192857D01*
X207087142Y-103383333D01*
X207087142Y-103621428D01*
X207039523Y-103811904D01*
X206991904Y-103907142D01*
X206944285Y-103954761D01*
X206849047Y-104002380D01*
X206753809Y-104002380D01*
X206658571Y-103954761D01*
X206610952Y-103907142D01*
X206563333Y-103811904D01*
X206515714Y-103621428D01*
X206515714Y-103383333D01*
X206563333Y-103192857D01*
X206610952Y-103097619D01*
X206658571Y-103050000D01*
X206753809Y-103002380D01*
X207515714Y-103335714D02*
X207515714Y-104002380D01*
X207515714Y-103430952D02*
X207563333Y-103383333D01*
X207658571Y-103335714D01*
X207801428Y-103335714D01*
X207896666Y-103383333D01*
X207944285Y-103478571D01*
X207944285Y-104002380D01*
X208753809Y-103478571D02*
X208420476Y-103478571D01*
X208420476Y-104002380D02*
X208420476Y-103002380D01*
X208896666Y-103002380D01*
D17*
X206569285Y-102479285D02*
X206557380Y-102491190D01*
X206521666Y-102503095D01*
X206497857Y-102503095D01*
X206462142Y-102491190D01*
X206438333Y-102467380D01*
X206426428Y-102443571D01*
X206414523Y-102395952D01*
X206414523Y-102360238D01*
X206426428Y-102312619D01*
X206438333Y-102288809D01*
X206462142Y-102265000D01*
X206497857Y-102253095D01*
X206521666Y-102253095D01*
X206557380Y-102265000D01*
X206569285Y-102276904D01*
X206807380Y-102503095D02*
X206664523Y-102503095D01*
X206735952Y-102503095D02*
X206735952Y-102253095D01*
X206712142Y-102288809D01*
X206688333Y-102312619D01*
X206664523Y-102324523D01*
X207045476Y-102503095D02*
X206902619Y-102503095D01*
X206974047Y-102503095D02*
X206974047Y-102253095D01*
X206950238Y-102288809D01*
X206926428Y-102312619D01*
X206902619Y-102324523D01*
%TO.C,C15*%
D13*
X185657142Y-89792380D02*
X185752380Y-89792380D01*
X185847619Y-89840000D01*
X185895238Y-89887619D01*
X185942857Y-89982857D01*
X185990476Y-90173333D01*
X185990476Y-90411428D01*
X185942857Y-90601904D01*
X185895238Y-90697142D01*
X185847619Y-90744761D01*
X185752380Y-90792380D01*
X185657142Y-90792380D01*
X185561904Y-90744761D01*
X185514285Y-90697142D01*
X185466666Y-90601904D01*
X185419047Y-90411428D01*
X185419047Y-90173333D01*
X185466666Y-89982857D01*
X185514285Y-89887619D01*
X185561904Y-89840000D01*
X185657142Y-89792380D01*
X186419047Y-90697142D02*
X186466666Y-90744761D01*
X186419047Y-90792380D01*
X186371428Y-90744761D01*
X186419047Y-90697142D01*
X186419047Y-90792380D01*
X187419047Y-90792380D02*
X186847619Y-90792380D01*
X187133333Y-90792380D02*
X187133333Y-89792380D01*
X187038095Y-89935238D01*
X186942857Y-90030476D01*
X186847619Y-90078095D01*
X188276190Y-90125714D02*
X188276190Y-90792380D01*
X187847619Y-90125714D02*
X187847619Y-90649523D01*
X187895238Y-90744761D01*
X187990476Y-90792380D01*
X188133333Y-90792380D01*
X188228571Y-90744761D01*
X188276190Y-90697142D01*
X189085714Y-90268571D02*
X188752380Y-90268571D01*
X188752380Y-90792380D02*
X188752380Y-89792380D01*
X189228571Y-89792380D01*
D17*
X187139285Y-91589285D02*
X187127380Y-91601190D01*
X187091666Y-91613095D01*
X187067857Y-91613095D01*
X187032142Y-91601190D01*
X187008333Y-91577380D01*
X186996428Y-91553571D01*
X186984523Y-91505952D01*
X186984523Y-91470238D01*
X186996428Y-91422619D01*
X187008333Y-91398809D01*
X187032142Y-91375000D01*
X187067857Y-91363095D01*
X187091666Y-91363095D01*
X187127380Y-91375000D01*
X187139285Y-91386904D01*
X187377380Y-91613095D02*
X187234523Y-91613095D01*
X187305952Y-91613095D02*
X187305952Y-91363095D01*
X187282142Y-91398809D01*
X187258333Y-91422619D01*
X187234523Y-91434523D01*
X187603571Y-91363095D02*
X187484523Y-91363095D01*
X187472619Y-91482142D01*
X187484523Y-91470238D01*
X187508333Y-91458333D01*
X187567857Y-91458333D01*
X187591666Y-91470238D01*
X187603571Y-91482142D01*
X187615476Y-91505952D01*
X187615476Y-91565476D01*
X187603571Y-91589285D01*
X187591666Y-91601190D01*
X187567857Y-91613095D01*
X187508333Y-91613095D01*
X187484523Y-91601190D01*
X187472619Y-91589285D01*
%TO.C,D6*%
D14*
X173574523Y-95837380D02*
X172304523Y-95837380D01*
X172304523Y-95535000D01*
X172365000Y-95353571D01*
X172485952Y-95232619D01*
X172606904Y-95172142D01*
X172848809Y-95111666D01*
X173030238Y-95111666D01*
X173272142Y-95172142D01*
X173393095Y-95232619D01*
X173514047Y-95353571D01*
X173574523Y-95535000D01*
X173574523Y-95837380D01*
X172304523Y-94023095D02*
X172304523Y-94265000D01*
X172365000Y-94385952D01*
X172425476Y-94446428D01*
X172606904Y-94567380D01*
X172848809Y-94627857D01*
X173332619Y-94627857D01*
X173453571Y-94567380D01*
X173514047Y-94506904D01*
X173574523Y-94385952D01*
X173574523Y-94144047D01*
X173514047Y-94023095D01*
X173453571Y-93962619D01*
X173332619Y-93902142D01*
X173030238Y-93902142D01*
X172909285Y-93962619D01*
X172848809Y-94023095D01*
X172788333Y-94144047D01*
X172788333Y-94385952D01*
X172848809Y-94506904D01*
X172909285Y-94567380D01*
X173030238Y-94627857D01*
%TO.C,D9*%
D13*
X178052380Y-96128571D02*
X177052380Y-96128571D01*
X177052380Y-95890476D01*
X177100000Y-95747619D01*
X177195238Y-95652380D01*
X177290476Y-95604761D01*
X177480952Y-95557142D01*
X177623809Y-95557142D01*
X177814285Y-95604761D01*
X177909523Y-95652380D01*
X178004761Y-95747619D01*
X178052380Y-95890476D01*
X178052380Y-96128571D01*
X178147619Y-95366666D02*
X178147619Y-94604761D01*
X177052380Y-94509523D02*
X177052380Y-93938095D01*
X178052380Y-94223809D02*
X177052380Y-94223809D01*
X177052380Y-93747619D02*
X178052380Y-93414285D01*
X177052380Y-93080952D01*
X178004761Y-92795238D02*
X178052380Y-92652380D01*
X178052380Y-92414285D01*
X178004761Y-92319047D01*
X177957142Y-92271428D01*
X177861904Y-92223809D01*
X177766666Y-92223809D01*
X177671428Y-92271428D01*
X177623809Y-92319047D01*
X177576190Y-92414285D01*
X177528571Y-92604761D01*
X177480952Y-92700000D01*
X177433333Y-92747619D01*
X177338095Y-92795238D01*
X177242857Y-92795238D01*
X177147619Y-92747619D01*
X177100000Y-92700000D01*
X177052380Y-92604761D01*
X177052380Y-92366666D01*
X177100000Y-92223809D01*
X181802380Y-94838095D02*
X180802380Y-94838095D01*
X180802380Y-94600000D01*
X180850000Y-94457142D01*
X180945238Y-94361904D01*
X181040476Y-94314285D01*
X181230952Y-94266666D01*
X181373809Y-94266666D01*
X181564285Y-94314285D01*
X181659523Y-94361904D01*
X181754761Y-94457142D01*
X181802380Y-94600000D01*
X181802380Y-94838095D01*
X181802380Y-93790476D02*
X181802380Y-93600000D01*
X181754761Y-93504761D01*
X181707142Y-93457142D01*
X181564285Y-93361904D01*
X181373809Y-93314285D01*
X180992857Y-93314285D01*
X180897619Y-93361904D01*
X180850000Y-93409523D01*
X180802380Y-93504761D01*
X180802380Y-93695238D01*
X180850000Y-93790476D01*
X180897619Y-93838095D01*
X180992857Y-93885714D01*
X181230952Y-93885714D01*
X181326190Y-93838095D01*
X181373809Y-93790476D01*
X181421428Y-93695238D01*
X181421428Y-93504761D01*
X181373809Y-93409523D01*
X181326190Y-93361904D01*
X181230952Y-93314285D01*
%TO.C,C7*%
X211957619Y-89712857D02*
X211910000Y-89665238D01*
X211862380Y-89570000D01*
X211862380Y-89331904D01*
X211910000Y-89236666D01*
X211957619Y-89189047D01*
X212052857Y-89141428D01*
X212148095Y-89141428D01*
X212290952Y-89189047D01*
X212862380Y-89760476D01*
X212862380Y-89141428D01*
X211957619Y-88760476D02*
X211910000Y-88712857D01*
X211862380Y-88617619D01*
X211862380Y-88379523D01*
X211910000Y-88284285D01*
X211957619Y-88236666D01*
X212052857Y-88189047D01*
X212148095Y-88189047D01*
X212290952Y-88236666D01*
X212862380Y-88808095D01*
X212862380Y-88189047D01*
X212195714Y-87760476D02*
X213195714Y-87760476D01*
X212243333Y-87760476D02*
X212195714Y-87665238D01*
X212195714Y-87474761D01*
X212243333Y-87379523D01*
X212290952Y-87331904D01*
X212386190Y-87284285D01*
X212671904Y-87284285D01*
X212767142Y-87331904D01*
X212814761Y-87379523D01*
X212862380Y-87474761D01*
X212862380Y-87665238D01*
X212814761Y-87760476D01*
X212338571Y-86522380D02*
X212338571Y-86855714D01*
X212862380Y-86855714D02*
X211862380Y-86855714D01*
X211862380Y-86379523D01*
D17*
X213659285Y-88111666D02*
X213671190Y-88123571D01*
X213683095Y-88159285D01*
X213683095Y-88183095D01*
X213671190Y-88218809D01*
X213647380Y-88242619D01*
X213623571Y-88254523D01*
X213575952Y-88266428D01*
X213540238Y-88266428D01*
X213492619Y-88254523D01*
X213468809Y-88242619D01*
X213445000Y-88218809D01*
X213433095Y-88183095D01*
X213433095Y-88159285D01*
X213445000Y-88123571D01*
X213456904Y-88111666D01*
X213433095Y-88028333D02*
X213433095Y-87861666D01*
X213683095Y-87968809D01*
%TO.C,C14*%
D13*
X180392380Y-95147619D02*
X180392380Y-95719047D01*
X180392380Y-95433333D02*
X179392380Y-95433333D01*
X179535238Y-95528571D01*
X179630476Y-95623809D01*
X179678095Y-95719047D01*
X179392380Y-94528571D02*
X179392380Y-94433333D01*
X179440000Y-94338095D01*
X179487619Y-94290476D01*
X179582857Y-94242857D01*
X179773333Y-94195238D01*
X180011428Y-94195238D01*
X180201904Y-94242857D01*
X180297142Y-94290476D01*
X180344761Y-94338095D01*
X180392380Y-94433333D01*
X180392380Y-94528571D01*
X180344761Y-94623809D01*
X180297142Y-94671428D01*
X180201904Y-94719047D01*
X180011428Y-94766666D01*
X179773333Y-94766666D01*
X179582857Y-94719047D01*
X179487619Y-94671428D01*
X179440000Y-94623809D01*
X179392380Y-94528571D01*
X179392380Y-93576190D02*
X179392380Y-93480952D01*
X179440000Y-93385714D01*
X179487619Y-93338095D01*
X179582857Y-93290476D01*
X179773333Y-93242857D01*
X180011428Y-93242857D01*
X180201904Y-93290476D01*
X180297142Y-93338095D01*
X180344761Y-93385714D01*
X180392380Y-93480952D01*
X180392380Y-93576190D01*
X180344761Y-93671428D01*
X180297142Y-93719047D01*
X180201904Y-93766666D01*
X180011428Y-93814285D01*
X179773333Y-93814285D01*
X179582857Y-93766666D01*
X179487619Y-93719047D01*
X179440000Y-93671428D01*
X179392380Y-93576190D01*
X179725714Y-92814285D02*
X180392380Y-92814285D01*
X179820952Y-92814285D02*
X179773333Y-92766666D01*
X179725714Y-92671428D01*
X179725714Y-92528571D01*
X179773333Y-92433333D01*
X179868571Y-92385714D01*
X180392380Y-92385714D01*
X179868571Y-91576190D02*
X179868571Y-91909523D01*
X180392380Y-91909523D02*
X179392380Y-91909523D01*
X179392380Y-91433333D01*
D17*
X181189285Y-93760714D02*
X181201190Y-93772619D01*
X181213095Y-93808333D01*
X181213095Y-93832142D01*
X181201190Y-93867857D01*
X181177380Y-93891666D01*
X181153571Y-93903571D01*
X181105952Y-93915476D01*
X181070238Y-93915476D01*
X181022619Y-93903571D01*
X180998809Y-93891666D01*
X180975000Y-93867857D01*
X180963095Y-93832142D01*
X180963095Y-93808333D01*
X180975000Y-93772619D01*
X180986904Y-93760714D01*
X181213095Y-93522619D02*
X181213095Y-93665476D01*
X181213095Y-93594047D02*
X180963095Y-93594047D01*
X180998809Y-93617857D01*
X181022619Y-93641666D01*
X181034523Y-93665476D01*
X181046428Y-93308333D02*
X181213095Y-93308333D01*
X180951190Y-93367857D02*
X181129761Y-93427380D01*
X181129761Y-93272619D01*
%TO.C,C6*%
D13*
X214307619Y-95102857D02*
X214260000Y-95055238D01*
X214212380Y-94960000D01*
X214212380Y-94721904D01*
X214260000Y-94626666D01*
X214307619Y-94579047D01*
X214402857Y-94531428D01*
X214498095Y-94531428D01*
X214640952Y-94579047D01*
X215212380Y-95150476D01*
X215212380Y-94531428D01*
X214307619Y-94150476D02*
X214260000Y-94102857D01*
X214212380Y-94007619D01*
X214212380Y-93769523D01*
X214260000Y-93674285D01*
X214307619Y-93626666D01*
X214402857Y-93579047D01*
X214498095Y-93579047D01*
X214640952Y-93626666D01*
X215212380Y-94198095D01*
X215212380Y-93579047D01*
X214545714Y-93150476D02*
X215545714Y-93150476D01*
X214593333Y-93150476D02*
X214545714Y-93055238D01*
X214545714Y-92864761D01*
X214593333Y-92769523D01*
X214640952Y-92721904D01*
X214736190Y-92674285D01*
X215021904Y-92674285D01*
X215117142Y-92721904D01*
X215164761Y-92769523D01*
X215212380Y-92864761D01*
X215212380Y-93055238D01*
X215164761Y-93150476D01*
X214688571Y-91912380D02*
X214688571Y-92245714D01*
X215212380Y-92245714D02*
X214212380Y-92245714D01*
X214212380Y-91769523D01*
D17*
X213689285Y-93501666D02*
X213701190Y-93513571D01*
X213713095Y-93549285D01*
X213713095Y-93573095D01*
X213701190Y-93608809D01*
X213677380Y-93632619D01*
X213653571Y-93644523D01*
X213605952Y-93656428D01*
X213570238Y-93656428D01*
X213522619Y-93644523D01*
X213498809Y-93632619D01*
X213475000Y-93608809D01*
X213463095Y-93573095D01*
X213463095Y-93549285D01*
X213475000Y-93513571D01*
X213486904Y-93501666D01*
X213463095Y-93287380D02*
X213463095Y-93335000D01*
X213475000Y-93358809D01*
X213486904Y-93370714D01*
X213522619Y-93394523D01*
X213570238Y-93406428D01*
X213665476Y-93406428D01*
X213689285Y-93394523D01*
X213701190Y-93382619D01*
X213713095Y-93358809D01*
X213713095Y-93311190D01*
X213701190Y-93287380D01*
X213689285Y-93275476D01*
X213665476Y-93263571D01*
X213605952Y-93263571D01*
X213582142Y-93275476D01*
X213570238Y-93287380D01*
X213558333Y-93311190D01*
X213558333Y-93358809D01*
X213570238Y-93382619D01*
X213582142Y-93394523D01*
X213605952Y-93406428D01*
%TO.C,H1*%
D13*
X169224285Y-89212380D02*
X169224285Y-88212380D01*
X169557619Y-88926666D01*
X169890952Y-88212380D01*
X169890952Y-89212380D01*
X170510000Y-89212380D02*
X170414761Y-89164761D01*
X170367142Y-89117142D01*
X170319523Y-89021904D01*
X170319523Y-88736190D01*
X170367142Y-88640952D01*
X170414761Y-88593333D01*
X170510000Y-88545714D01*
X170652857Y-88545714D01*
X170748095Y-88593333D01*
X170795714Y-88640952D01*
X170843333Y-88736190D01*
X170843333Y-89021904D01*
X170795714Y-89117142D01*
X170748095Y-89164761D01*
X170652857Y-89212380D01*
X170510000Y-89212380D01*
X171700476Y-88545714D02*
X171700476Y-89212380D01*
X171271904Y-88545714D02*
X171271904Y-89069523D01*
X171319523Y-89164761D01*
X171414761Y-89212380D01*
X171557619Y-89212380D01*
X171652857Y-89164761D01*
X171700476Y-89117142D01*
X172176666Y-88545714D02*
X172176666Y-89212380D01*
X172176666Y-88640952D02*
X172224285Y-88593333D01*
X172319523Y-88545714D01*
X172462380Y-88545714D01*
X172557619Y-88593333D01*
X172605238Y-88688571D01*
X172605238Y-89212380D01*
X172938571Y-88545714D02*
X173319523Y-88545714D01*
X173081428Y-88212380D02*
X173081428Y-89069523D01*
X173129047Y-89164761D01*
X173224285Y-89212380D01*
X173319523Y-89212380D01*
X173652857Y-89212380D02*
X173652857Y-88545714D01*
X173652857Y-88212380D02*
X173605238Y-88260000D01*
X173652857Y-88307619D01*
X173700476Y-88260000D01*
X173652857Y-88212380D01*
X173652857Y-88307619D01*
X174129047Y-88545714D02*
X174129047Y-89212380D01*
X174129047Y-88640952D02*
X174176666Y-88593333D01*
X174271904Y-88545714D01*
X174414761Y-88545714D01*
X174510000Y-88593333D01*
X174557619Y-88688571D01*
X174557619Y-89212380D01*
X175462380Y-88545714D02*
X175462380Y-89355238D01*
X175414761Y-89450476D01*
X175367142Y-89498095D01*
X175271904Y-89545714D01*
X175129047Y-89545714D01*
X175033809Y-89498095D01*
X175462380Y-89164761D02*
X175367142Y-89212380D01*
X175176666Y-89212380D01*
X175081428Y-89164761D01*
X175033809Y-89117142D01*
X174986190Y-89021904D01*
X174986190Y-88736190D01*
X175033809Y-88640952D01*
X175081428Y-88593333D01*
X175176666Y-88545714D01*
X175367142Y-88545714D01*
X175462380Y-88593333D01*
X175938571Y-89212380D02*
X175938571Y-88212380D01*
X175938571Y-88688571D02*
X176510000Y-88688571D01*
X176510000Y-89212380D02*
X176510000Y-88212380D01*
X177129047Y-89212380D02*
X177033809Y-89164761D01*
X176986190Y-89117142D01*
X176938571Y-89021904D01*
X176938571Y-88736190D01*
X176986190Y-88640952D01*
X177033809Y-88593333D01*
X177129047Y-88545714D01*
X177271904Y-88545714D01*
X177367142Y-88593333D01*
X177414761Y-88640952D01*
X177462380Y-88736190D01*
X177462380Y-89021904D01*
X177414761Y-89117142D01*
X177367142Y-89164761D01*
X177271904Y-89212380D01*
X177129047Y-89212380D01*
X178033809Y-89212380D02*
X177938571Y-89164761D01*
X177890952Y-89069523D01*
X177890952Y-88212380D01*
X178795714Y-89164761D02*
X178700476Y-89212380D01*
X178510000Y-89212380D01*
X178414761Y-89164761D01*
X178367142Y-89069523D01*
X178367142Y-88688571D01*
X178414761Y-88593333D01*
X178510000Y-88545714D01*
X178700476Y-88545714D01*
X178795714Y-88593333D01*
X178843333Y-88688571D01*
X178843333Y-88783809D01*
X178367142Y-88879047D01*
X173248095Y-83162380D02*
X173248095Y-82162380D01*
X173248095Y-82638571D02*
X173819523Y-82638571D01*
X173819523Y-83162380D02*
X173819523Y-82162380D01*
X174819523Y-83162380D02*
X174248095Y-83162380D01*
X174533809Y-83162380D02*
X174533809Y-82162380D01*
X174438571Y-82305238D01*
X174343333Y-82400476D01*
X174248095Y-82448095D01*
%TO.C,H4*%
X228222380Y-119565714D02*
X227222380Y-119565714D01*
X227936666Y-119232380D01*
X227222380Y-118899047D01*
X228222380Y-118899047D01*
X228222380Y-118280000D02*
X228174761Y-118375238D01*
X228127142Y-118422857D01*
X228031904Y-118470476D01*
X227746190Y-118470476D01*
X227650952Y-118422857D01*
X227603333Y-118375238D01*
X227555714Y-118280000D01*
X227555714Y-118137142D01*
X227603333Y-118041904D01*
X227650952Y-117994285D01*
X227746190Y-117946666D01*
X228031904Y-117946666D01*
X228127142Y-117994285D01*
X228174761Y-118041904D01*
X228222380Y-118137142D01*
X228222380Y-118280000D01*
X227555714Y-117089523D02*
X228222380Y-117089523D01*
X227555714Y-117518095D02*
X228079523Y-117518095D01*
X228174761Y-117470476D01*
X228222380Y-117375238D01*
X228222380Y-117232380D01*
X228174761Y-117137142D01*
X228127142Y-117089523D01*
X227555714Y-116613333D02*
X228222380Y-116613333D01*
X227650952Y-116613333D02*
X227603333Y-116565714D01*
X227555714Y-116470476D01*
X227555714Y-116327619D01*
X227603333Y-116232380D01*
X227698571Y-116184761D01*
X228222380Y-116184761D01*
X227555714Y-115851428D02*
X227555714Y-115470476D01*
X227222380Y-115708571D02*
X228079523Y-115708571D01*
X228174761Y-115660952D01*
X228222380Y-115565714D01*
X228222380Y-115470476D01*
X228222380Y-115137142D02*
X227555714Y-115137142D01*
X227222380Y-115137142D02*
X227270000Y-115184761D01*
X227317619Y-115137142D01*
X227270000Y-115089523D01*
X227222380Y-115137142D01*
X227317619Y-115137142D01*
X227555714Y-114660952D02*
X228222380Y-114660952D01*
X227650952Y-114660952D02*
X227603333Y-114613333D01*
X227555714Y-114518095D01*
X227555714Y-114375238D01*
X227603333Y-114280000D01*
X227698571Y-114232380D01*
X228222380Y-114232380D01*
X227555714Y-113327619D02*
X228365238Y-113327619D01*
X228460476Y-113375238D01*
X228508095Y-113422857D01*
X228555714Y-113518095D01*
X228555714Y-113660952D01*
X228508095Y-113756190D01*
X228174761Y-113327619D02*
X228222380Y-113422857D01*
X228222380Y-113613333D01*
X228174761Y-113708571D01*
X228127142Y-113756190D01*
X228031904Y-113803809D01*
X227746190Y-113803809D01*
X227650952Y-113756190D01*
X227603333Y-113708571D01*
X227555714Y-113613333D01*
X227555714Y-113422857D01*
X227603333Y-113327619D01*
X228222380Y-112851428D02*
X227222380Y-112851428D01*
X227698571Y-112851428D02*
X227698571Y-112280000D01*
X228222380Y-112280000D02*
X227222380Y-112280000D01*
X228222380Y-111660952D02*
X228174761Y-111756190D01*
X228127142Y-111803809D01*
X228031904Y-111851428D01*
X227746190Y-111851428D01*
X227650952Y-111803809D01*
X227603333Y-111756190D01*
X227555714Y-111660952D01*
X227555714Y-111518095D01*
X227603333Y-111422857D01*
X227650952Y-111375238D01*
X227746190Y-111327619D01*
X228031904Y-111327619D01*
X228127142Y-111375238D01*
X228174761Y-111422857D01*
X228222380Y-111518095D01*
X228222380Y-111660952D01*
X228222380Y-110756190D02*
X228174761Y-110851428D01*
X228079523Y-110899047D01*
X227222380Y-110899047D01*
X228174761Y-109994285D02*
X228222380Y-110089523D01*
X228222380Y-110280000D01*
X228174761Y-110375238D01*
X228079523Y-110422857D01*
X227698571Y-110422857D01*
X227603333Y-110375238D01*
X227555714Y-110280000D01*
X227555714Y-110089523D01*
X227603333Y-109994285D01*
X227698571Y-109946666D01*
X227793809Y-109946666D01*
X227889047Y-110422857D01*
X222172380Y-115541904D02*
X221172380Y-115541904D01*
X221648571Y-115541904D02*
X221648571Y-114970476D01*
X222172380Y-114970476D02*
X221172380Y-114970476D01*
X221505714Y-114065714D02*
X222172380Y-114065714D01*
X221124761Y-114303809D02*
X221839047Y-114541904D01*
X221839047Y-113922857D01*
%TO.C,H3*%
X161974285Y-118232380D02*
X161974285Y-117232380D01*
X162307619Y-117946666D01*
X162640952Y-117232380D01*
X162640952Y-118232380D01*
X163260000Y-118232380D02*
X163164761Y-118184761D01*
X163117142Y-118137142D01*
X163069523Y-118041904D01*
X163069523Y-117756190D01*
X163117142Y-117660952D01*
X163164761Y-117613333D01*
X163260000Y-117565714D01*
X163402857Y-117565714D01*
X163498095Y-117613333D01*
X163545714Y-117660952D01*
X163593333Y-117756190D01*
X163593333Y-118041904D01*
X163545714Y-118137142D01*
X163498095Y-118184761D01*
X163402857Y-118232380D01*
X163260000Y-118232380D01*
X164450476Y-117565714D02*
X164450476Y-118232380D01*
X164021904Y-117565714D02*
X164021904Y-118089523D01*
X164069523Y-118184761D01*
X164164761Y-118232380D01*
X164307619Y-118232380D01*
X164402857Y-118184761D01*
X164450476Y-118137142D01*
X164926666Y-117565714D02*
X164926666Y-118232380D01*
X164926666Y-117660952D02*
X164974285Y-117613333D01*
X165069523Y-117565714D01*
X165212380Y-117565714D01*
X165307619Y-117613333D01*
X165355238Y-117708571D01*
X165355238Y-118232380D01*
X165688571Y-117565714D02*
X166069523Y-117565714D01*
X165831428Y-117232380D02*
X165831428Y-118089523D01*
X165879047Y-118184761D01*
X165974285Y-118232380D01*
X166069523Y-118232380D01*
X166402857Y-118232380D02*
X166402857Y-117565714D01*
X166402857Y-117232380D02*
X166355238Y-117280000D01*
X166402857Y-117327619D01*
X166450476Y-117280000D01*
X166402857Y-117232380D01*
X166402857Y-117327619D01*
X166879047Y-117565714D02*
X166879047Y-118232380D01*
X166879047Y-117660952D02*
X166926666Y-117613333D01*
X167021904Y-117565714D01*
X167164761Y-117565714D01*
X167260000Y-117613333D01*
X167307619Y-117708571D01*
X167307619Y-118232380D01*
X168212380Y-117565714D02*
X168212380Y-118375238D01*
X168164761Y-118470476D01*
X168117142Y-118518095D01*
X168021904Y-118565714D01*
X167879047Y-118565714D01*
X167783809Y-118518095D01*
X168212380Y-118184761D02*
X168117142Y-118232380D01*
X167926666Y-118232380D01*
X167831428Y-118184761D01*
X167783809Y-118137142D01*
X167736190Y-118041904D01*
X167736190Y-117756190D01*
X167783809Y-117660952D01*
X167831428Y-117613333D01*
X167926666Y-117565714D01*
X168117142Y-117565714D01*
X168212380Y-117613333D01*
X168688571Y-118232380D02*
X168688571Y-117232380D01*
X168688571Y-117708571D02*
X169260000Y-117708571D01*
X169260000Y-118232380D02*
X169260000Y-117232380D01*
X169879047Y-118232380D02*
X169783809Y-118184761D01*
X169736190Y-118137142D01*
X169688571Y-118041904D01*
X169688571Y-117756190D01*
X169736190Y-117660952D01*
X169783809Y-117613333D01*
X169879047Y-117565714D01*
X170021904Y-117565714D01*
X170117142Y-117613333D01*
X170164761Y-117660952D01*
X170212380Y-117756190D01*
X170212380Y-118041904D01*
X170164761Y-118137142D01*
X170117142Y-118184761D01*
X170021904Y-118232380D01*
X169879047Y-118232380D01*
X170783809Y-118232380D02*
X170688571Y-118184761D01*
X170640952Y-118089523D01*
X170640952Y-117232380D01*
X171545714Y-118184761D02*
X171450476Y-118232380D01*
X171260000Y-118232380D01*
X171164761Y-118184761D01*
X171117142Y-118089523D01*
X171117142Y-117708571D01*
X171164761Y-117613333D01*
X171260000Y-117565714D01*
X171450476Y-117565714D01*
X171545714Y-117613333D01*
X171593333Y-117708571D01*
X171593333Y-117803809D01*
X171117142Y-117899047D01*
X165998095Y-112182380D02*
X165998095Y-111182380D01*
X165998095Y-111658571D02*
X166569523Y-111658571D01*
X166569523Y-112182380D02*
X166569523Y-111182380D01*
X166950476Y-111182380D02*
X167569523Y-111182380D01*
X167236190Y-111563333D01*
X167379047Y-111563333D01*
X167474285Y-111610952D01*
X167521904Y-111658571D01*
X167569523Y-111753809D01*
X167569523Y-111991904D01*
X167521904Y-112087142D01*
X167474285Y-112134761D01*
X167379047Y-112182380D01*
X167093333Y-112182380D01*
X166998095Y-112134761D01*
X166950476Y-112087142D01*
%TO.C,H2*%
X212734285Y-89212380D02*
X212734285Y-88212380D01*
X213067619Y-88926666D01*
X213400952Y-88212380D01*
X213400952Y-89212380D01*
X214020000Y-89212380D02*
X213924761Y-89164761D01*
X213877142Y-89117142D01*
X213829523Y-89021904D01*
X213829523Y-88736190D01*
X213877142Y-88640952D01*
X213924761Y-88593333D01*
X214020000Y-88545714D01*
X214162857Y-88545714D01*
X214258095Y-88593333D01*
X214305714Y-88640952D01*
X214353333Y-88736190D01*
X214353333Y-89021904D01*
X214305714Y-89117142D01*
X214258095Y-89164761D01*
X214162857Y-89212380D01*
X214020000Y-89212380D01*
X215210476Y-88545714D02*
X215210476Y-89212380D01*
X214781904Y-88545714D02*
X214781904Y-89069523D01*
X214829523Y-89164761D01*
X214924761Y-89212380D01*
X215067619Y-89212380D01*
X215162857Y-89164761D01*
X215210476Y-89117142D01*
X215686666Y-88545714D02*
X215686666Y-89212380D01*
X215686666Y-88640952D02*
X215734285Y-88593333D01*
X215829523Y-88545714D01*
X215972380Y-88545714D01*
X216067619Y-88593333D01*
X216115238Y-88688571D01*
X216115238Y-89212380D01*
X216448571Y-88545714D02*
X216829523Y-88545714D01*
X216591428Y-88212380D02*
X216591428Y-89069523D01*
X216639047Y-89164761D01*
X216734285Y-89212380D01*
X216829523Y-89212380D01*
X217162857Y-89212380D02*
X217162857Y-88545714D01*
X217162857Y-88212380D02*
X217115238Y-88260000D01*
X217162857Y-88307619D01*
X217210476Y-88260000D01*
X217162857Y-88212380D01*
X217162857Y-88307619D01*
X217639047Y-88545714D02*
X217639047Y-89212380D01*
X217639047Y-88640952D02*
X217686666Y-88593333D01*
X217781904Y-88545714D01*
X217924761Y-88545714D01*
X218020000Y-88593333D01*
X218067619Y-88688571D01*
X218067619Y-89212380D01*
X218972380Y-88545714D02*
X218972380Y-89355238D01*
X218924761Y-89450476D01*
X218877142Y-89498095D01*
X218781904Y-89545714D01*
X218639047Y-89545714D01*
X218543809Y-89498095D01*
X218972380Y-89164761D02*
X218877142Y-89212380D01*
X218686666Y-89212380D01*
X218591428Y-89164761D01*
X218543809Y-89117142D01*
X218496190Y-89021904D01*
X218496190Y-88736190D01*
X218543809Y-88640952D01*
X218591428Y-88593333D01*
X218686666Y-88545714D01*
X218877142Y-88545714D01*
X218972380Y-88593333D01*
X219448571Y-89212380D02*
X219448571Y-88212380D01*
X219448571Y-88688571D02*
X220020000Y-88688571D01*
X220020000Y-89212380D02*
X220020000Y-88212380D01*
X220639047Y-89212380D02*
X220543809Y-89164761D01*
X220496190Y-89117142D01*
X220448571Y-89021904D01*
X220448571Y-88736190D01*
X220496190Y-88640952D01*
X220543809Y-88593333D01*
X220639047Y-88545714D01*
X220781904Y-88545714D01*
X220877142Y-88593333D01*
X220924761Y-88640952D01*
X220972380Y-88736190D01*
X220972380Y-89021904D01*
X220924761Y-89117142D01*
X220877142Y-89164761D01*
X220781904Y-89212380D01*
X220639047Y-89212380D01*
X221543809Y-89212380D02*
X221448571Y-89164761D01*
X221400952Y-89069523D01*
X221400952Y-88212380D01*
X222305714Y-89164761D02*
X222210476Y-89212380D01*
X222020000Y-89212380D01*
X221924761Y-89164761D01*
X221877142Y-89069523D01*
X221877142Y-88688571D01*
X221924761Y-88593333D01*
X222020000Y-88545714D01*
X222210476Y-88545714D01*
X222305714Y-88593333D01*
X222353333Y-88688571D01*
X222353333Y-88783809D01*
X221877142Y-88879047D01*
X216758095Y-83162380D02*
X216758095Y-82162380D01*
X216758095Y-82638571D02*
X217329523Y-82638571D01*
X217329523Y-83162380D02*
X217329523Y-82162380D01*
X217758095Y-82257619D02*
X217805714Y-82210000D01*
X217900952Y-82162380D01*
X218139047Y-82162380D01*
X218234285Y-82210000D01*
X218281904Y-82257619D01*
X218329523Y-82352857D01*
X218329523Y-82448095D01*
X218281904Y-82590952D01*
X217710476Y-83162380D01*
X218329523Y-83162380D01*
%TO.C,GND*%
X218216666Y-106772380D02*
X218788095Y-106772380D01*
X218502380Y-107772380D02*
X218502380Y-106772380D01*
X219502380Y-107724761D02*
X219407142Y-107772380D01*
X219216666Y-107772380D01*
X219121428Y-107724761D01*
X219073809Y-107629523D01*
X219073809Y-107248571D01*
X219121428Y-107153333D01*
X219216666Y-107105714D01*
X219407142Y-107105714D01*
X219502380Y-107153333D01*
X219550000Y-107248571D01*
X219550000Y-107343809D01*
X219073809Y-107439047D01*
X219930952Y-107724761D02*
X220026190Y-107772380D01*
X220216666Y-107772380D01*
X220311904Y-107724761D01*
X220359523Y-107629523D01*
X220359523Y-107581904D01*
X220311904Y-107486666D01*
X220216666Y-107439047D01*
X220073809Y-107439047D01*
X219978571Y-107391428D01*
X219930952Y-107296190D01*
X219930952Y-107248571D01*
X219978571Y-107153333D01*
X220073809Y-107105714D01*
X220216666Y-107105714D01*
X220311904Y-107153333D01*
X220645238Y-107105714D02*
X221026190Y-107105714D01*
X220788095Y-106772380D02*
X220788095Y-107629523D01*
X220835714Y-107724761D01*
X220930952Y-107772380D01*
X221026190Y-107772380D01*
X221359523Y-107772380D02*
X221359523Y-106772380D01*
X221740476Y-106772380D01*
X221835714Y-106820000D01*
X221883333Y-106867619D01*
X221930952Y-106962857D01*
X221930952Y-107105714D01*
X221883333Y-107200952D01*
X221835714Y-107248571D01*
X221740476Y-107296190D01*
X221359523Y-107296190D01*
X222502380Y-107772380D02*
X222407142Y-107724761D01*
X222359523Y-107677142D01*
X222311904Y-107581904D01*
X222311904Y-107296190D01*
X222359523Y-107200952D01*
X222407142Y-107153333D01*
X222502380Y-107105714D01*
X222645238Y-107105714D01*
X222740476Y-107153333D01*
X222788095Y-107200952D01*
X222835714Y-107296190D01*
X222835714Y-107581904D01*
X222788095Y-107677142D01*
X222740476Y-107724761D01*
X222645238Y-107772380D01*
X222502380Y-107772380D01*
X223264285Y-107772380D02*
X223264285Y-107105714D01*
X223264285Y-106772380D02*
X223216666Y-106820000D01*
X223264285Y-106867619D01*
X223311904Y-106820000D01*
X223264285Y-106772380D01*
X223264285Y-106867619D01*
X223740476Y-107105714D02*
X223740476Y-107772380D01*
X223740476Y-107200952D02*
X223788095Y-107153333D01*
X223883333Y-107105714D01*
X224026190Y-107105714D01*
X224121428Y-107153333D01*
X224169047Y-107248571D01*
X224169047Y-107772380D01*
X224502380Y-107105714D02*
X224883333Y-107105714D01*
X224645238Y-106772380D02*
X224645238Y-107629523D01*
X224692857Y-107724761D01*
X224788095Y-107772380D01*
X224883333Y-107772380D01*
X166866666Y-106012380D02*
X167438095Y-106012380D01*
X167152380Y-107012380D02*
X167152380Y-106012380D01*
X168152380Y-106964761D02*
X168057142Y-107012380D01*
X167866666Y-107012380D01*
X167771428Y-106964761D01*
X167723809Y-106869523D01*
X167723809Y-106488571D01*
X167771428Y-106393333D01*
X167866666Y-106345714D01*
X168057142Y-106345714D01*
X168152380Y-106393333D01*
X168200000Y-106488571D01*
X168200000Y-106583809D01*
X167723809Y-106679047D01*
X168580952Y-106964761D02*
X168676190Y-107012380D01*
X168866666Y-107012380D01*
X168961904Y-106964761D01*
X169009523Y-106869523D01*
X169009523Y-106821904D01*
X168961904Y-106726666D01*
X168866666Y-106679047D01*
X168723809Y-106679047D01*
X168628571Y-106631428D01*
X168580952Y-106536190D01*
X168580952Y-106488571D01*
X168628571Y-106393333D01*
X168723809Y-106345714D01*
X168866666Y-106345714D01*
X168961904Y-106393333D01*
X169295238Y-106345714D02*
X169676190Y-106345714D01*
X169438095Y-106012380D02*
X169438095Y-106869523D01*
X169485714Y-106964761D01*
X169580952Y-107012380D01*
X169676190Y-107012380D01*
X170009523Y-107012380D02*
X170009523Y-106012380D01*
X170390476Y-106012380D01*
X170485714Y-106060000D01*
X170533333Y-106107619D01*
X170580952Y-106202857D01*
X170580952Y-106345714D01*
X170533333Y-106440952D01*
X170485714Y-106488571D01*
X170390476Y-106536190D01*
X170009523Y-106536190D01*
X171152380Y-107012380D02*
X171057142Y-106964761D01*
X171009523Y-106917142D01*
X170961904Y-106821904D01*
X170961904Y-106536190D01*
X171009523Y-106440952D01*
X171057142Y-106393333D01*
X171152380Y-106345714D01*
X171295238Y-106345714D01*
X171390476Y-106393333D01*
X171438095Y-106440952D01*
X171485714Y-106536190D01*
X171485714Y-106821904D01*
X171438095Y-106917142D01*
X171390476Y-106964761D01*
X171295238Y-107012380D01*
X171152380Y-107012380D01*
X171914285Y-107012380D02*
X171914285Y-106345714D01*
X171914285Y-106012380D02*
X171866666Y-106060000D01*
X171914285Y-106107619D01*
X171961904Y-106060000D01*
X171914285Y-106012380D01*
X171914285Y-106107619D01*
X172390476Y-106345714D02*
X172390476Y-107012380D01*
X172390476Y-106440952D02*
X172438095Y-106393333D01*
X172533333Y-106345714D01*
X172676190Y-106345714D01*
X172771428Y-106393333D01*
X172819047Y-106488571D01*
X172819047Y-107012380D01*
X173152380Y-106345714D02*
X173533333Y-106345714D01*
X173295238Y-106012380D02*
X173295238Y-106869523D01*
X173342857Y-106964761D01*
X173438095Y-107012380D01*
X173533333Y-107012380D01*
%TO.C,J3*%
D14*
X203986666Y-119804523D02*
X203986666Y-120711666D01*
X203926190Y-120893095D01*
X203805238Y-121014047D01*
X203623809Y-121074523D01*
X203502857Y-121074523D01*
X204470476Y-119804523D02*
X205256666Y-119804523D01*
X204833333Y-120288333D01*
X205014761Y-120288333D01*
X205135714Y-120348809D01*
X205196190Y-120409285D01*
X205256666Y-120530238D01*
X205256666Y-120832619D01*
X205196190Y-120953571D01*
X205135714Y-121014047D01*
X205014761Y-121074523D01*
X204651904Y-121074523D01*
X204530952Y-121014047D01*
X204470476Y-120953571D01*
%TO.C,J2*%
X186696666Y-119794523D02*
X186696666Y-120701666D01*
X186636190Y-120883095D01*
X186515238Y-121004047D01*
X186333809Y-121064523D01*
X186212857Y-121064523D01*
X187240952Y-119915476D02*
X187301428Y-119855000D01*
X187422380Y-119794523D01*
X187724761Y-119794523D01*
X187845714Y-119855000D01*
X187906190Y-119915476D01*
X187966666Y-120036428D01*
X187966666Y-120157380D01*
X187906190Y-120338809D01*
X187180476Y-121064523D01*
X187966666Y-121064523D01*
%TO.C,Z1*%
D13*
X179275190Y-121427142D02*
X179227571Y-121474761D01*
X179084714Y-121522380D01*
X178989476Y-121522380D01*
X178846619Y-121474761D01*
X178751380Y-121379523D01*
X178703761Y-121284285D01*
X178656142Y-121093809D01*
X178656142Y-120950952D01*
X178703761Y-120760476D01*
X178751380Y-120665238D01*
X178846619Y-120570000D01*
X178989476Y-120522380D01*
X179084714Y-120522380D01*
X179227571Y-120570000D01*
X179275190Y-120617619D01*
X179894238Y-120522380D02*
X180084714Y-120522380D01*
X180179952Y-120570000D01*
X180275190Y-120665238D01*
X180322809Y-120855714D01*
X180322809Y-121189047D01*
X180275190Y-121379523D01*
X180179952Y-121474761D01*
X180084714Y-121522380D01*
X179894238Y-121522380D01*
X179799000Y-121474761D01*
X179703761Y-121379523D01*
X179656142Y-121189047D01*
X179656142Y-120855714D01*
X179703761Y-120665238D01*
X179799000Y-120570000D01*
X179894238Y-120522380D01*
X180751380Y-121522380D02*
X180751380Y-120522380D01*
X181322809Y-121522380D01*
X181322809Y-120522380D01*
X181799000Y-121522380D02*
X181799000Y-120522380D01*
X182370428Y-121522380D01*
X182370428Y-120522380D01*
X182608523Y-121617619D02*
X183370428Y-121617619D01*
X183799000Y-120522380D02*
X183894238Y-120522380D01*
X183989476Y-120570000D01*
X184037095Y-120617619D01*
X184084714Y-120712857D01*
X184132333Y-120903333D01*
X184132333Y-121141428D01*
X184084714Y-121331904D01*
X184037095Y-121427142D01*
X183989476Y-121474761D01*
X183894238Y-121522380D01*
X183799000Y-121522380D01*
X183703761Y-121474761D01*
X183656142Y-121427142D01*
X183608523Y-121331904D01*
X183560904Y-121141428D01*
X183560904Y-120903333D01*
X183608523Y-120712857D01*
X183656142Y-120617619D01*
X183703761Y-120570000D01*
X183799000Y-120522380D01*
X185084714Y-121522380D02*
X184513285Y-121522380D01*
X184799000Y-121522380D02*
X184799000Y-120522380D01*
X184703761Y-120665238D01*
X184608523Y-120760476D01*
X184513285Y-120808095D01*
X185418047Y-120522380D02*
X186084714Y-121522380D01*
X186084714Y-120522380D02*
X185418047Y-121522380D01*
X186656142Y-120522380D02*
X186751380Y-120522380D01*
X186846619Y-120570000D01*
X186894238Y-120617619D01*
X186941857Y-120712857D01*
X186989476Y-120903333D01*
X186989476Y-121141428D01*
X186941857Y-121331904D01*
X186894238Y-121427142D01*
X186846619Y-121474761D01*
X186751380Y-121522380D01*
X186656142Y-121522380D01*
X186560904Y-121474761D01*
X186513285Y-121427142D01*
X186465666Y-121331904D01*
X186418047Y-121141428D01*
X186418047Y-120903333D01*
X186465666Y-120712857D01*
X186513285Y-120617619D01*
X186560904Y-120570000D01*
X186656142Y-120522380D01*
X187941857Y-121522380D02*
X187370428Y-121522380D01*
X187656142Y-121522380D02*
X187656142Y-120522380D01*
X187560904Y-120665238D01*
X187465666Y-120760476D01*
X187370428Y-120808095D01*
%TO.C,Z2*%
X155216190Y-117900142D02*
X155168571Y-117947761D01*
X155025714Y-117995380D01*
X154930476Y-117995380D01*
X154787619Y-117947761D01*
X154692380Y-117852523D01*
X154644761Y-117757285D01*
X154597142Y-117566809D01*
X154597142Y-117423952D01*
X154644761Y-117233476D01*
X154692380Y-117138238D01*
X154787619Y-117043000D01*
X154930476Y-116995380D01*
X155025714Y-116995380D01*
X155168571Y-117043000D01*
X155216190Y-117090619D01*
X155835238Y-116995380D02*
X156025714Y-116995380D01*
X156120952Y-117043000D01*
X156216190Y-117138238D01*
X156263809Y-117328714D01*
X156263809Y-117662047D01*
X156216190Y-117852523D01*
X156120952Y-117947761D01*
X156025714Y-117995380D01*
X155835238Y-117995380D01*
X155740000Y-117947761D01*
X155644761Y-117852523D01*
X155597142Y-117662047D01*
X155597142Y-117328714D01*
X155644761Y-117138238D01*
X155740000Y-117043000D01*
X155835238Y-116995380D01*
X156692380Y-117995380D02*
X156692380Y-116995380D01*
X157263809Y-117995380D01*
X157263809Y-116995380D01*
X157740000Y-117995380D02*
X157740000Y-116995380D01*
X158311428Y-117995380D01*
X158311428Y-116995380D01*
X158549523Y-118090619D02*
X159311428Y-118090619D01*
X159740000Y-116995380D02*
X159835238Y-116995380D01*
X159930476Y-117043000D01*
X159978095Y-117090619D01*
X160025714Y-117185857D01*
X160073333Y-117376333D01*
X160073333Y-117614428D01*
X160025714Y-117804904D01*
X159978095Y-117900142D01*
X159930476Y-117947761D01*
X159835238Y-117995380D01*
X159740000Y-117995380D01*
X159644761Y-117947761D01*
X159597142Y-117900142D01*
X159549523Y-117804904D01*
X159501904Y-117614428D01*
X159501904Y-117376333D01*
X159549523Y-117185857D01*
X159597142Y-117090619D01*
X159644761Y-117043000D01*
X159740000Y-116995380D01*
X161025714Y-117995380D02*
X160454285Y-117995380D01*
X160740000Y-117995380D02*
X160740000Y-116995380D01*
X160644761Y-117138238D01*
X160549523Y-117233476D01*
X160454285Y-117281095D01*
X161359047Y-116995380D02*
X162025714Y-117995380D01*
X162025714Y-116995380D02*
X161359047Y-117995380D01*
X162597142Y-116995380D02*
X162692380Y-116995380D01*
X162787619Y-117043000D01*
X162835238Y-117090619D01*
X162882857Y-117185857D01*
X162930476Y-117376333D01*
X162930476Y-117614428D01*
X162882857Y-117804904D01*
X162835238Y-117900142D01*
X162787619Y-117947761D01*
X162692380Y-117995380D01*
X162597142Y-117995380D01*
X162501904Y-117947761D01*
X162454285Y-117900142D01*
X162406666Y-117804904D01*
X162359047Y-117614428D01*
X162359047Y-117376333D01*
X162406666Y-117185857D01*
X162454285Y-117090619D01*
X162501904Y-117043000D01*
X162597142Y-116995380D01*
X163882857Y-117995380D02*
X163311428Y-117995380D01*
X163597142Y-117995380D02*
X163597142Y-116995380D01*
X163501904Y-117138238D01*
X163406666Y-117233476D01*
X163311428Y-117281095D01*
%TO.C,J1*%
X189936666Y-86347142D02*
X189889047Y-86394761D01*
X189746190Y-86442380D01*
X189650952Y-86442380D01*
X189508095Y-86394761D01*
X189412857Y-86299523D01*
X189365238Y-86204285D01*
X189317619Y-86013809D01*
X189317619Y-85870952D01*
X189365238Y-85680476D01*
X189412857Y-85585238D01*
X189508095Y-85490000D01*
X189650952Y-85442380D01*
X189746190Y-85442380D01*
X189889047Y-85490000D01*
X189936666Y-85537619D01*
X190508095Y-86442380D02*
X190412857Y-86394761D01*
X190365238Y-86347142D01*
X190317619Y-86251904D01*
X190317619Y-85966190D01*
X190365238Y-85870952D01*
X190412857Y-85823333D01*
X190508095Y-85775714D01*
X190650952Y-85775714D01*
X190746190Y-85823333D01*
X190793809Y-85870952D01*
X190841428Y-85966190D01*
X190841428Y-86251904D01*
X190793809Y-86347142D01*
X190746190Y-86394761D01*
X190650952Y-86442380D01*
X190508095Y-86442380D01*
X191270000Y-85775714D02*
X191270000Y-86442380D01*
X191270000Y-85870952D02*
X191317619Y-85823333D01*
X191412857Y-85775714D01*
X191555714Y-85775714D01*
X191650952Y-85823333D01*
X191698571Y-85918571D01*
X191698571Y-86442380D01*
X192174761Y-85775714D02*
X192174761Y-86442380D01*
X192174761Y-85870952D02*
X192222380Y-85823333D01*
X192317619Y-85775714D01*
X192460476Y-85775714D01*
X192555714Y-85823333D01*
X192603333Y-85918571D01*
X192603333Y-86442380D01*
X192841428Y-86537619D02*
X193603333Y-86537619D01*
X194031904Y-85442380D02*
X194127142Y-85442380D01*
X194222380Y-85490000D01*
X194270000Y-85537619D01*
X194317619Y-85632857D01*
X194365238Y-85823333D01*
X194365238Y-86061428D01*
X194317619Y-86251904D01*
X194270000Y-86347142D01*
X194222380Y-86394761D01*
X194127142Y-86442380D01*
X194031904Y-86442380D01*
X193936666Y-86394761D01*
X193889047Y-86347142D01*
X193841428Y-86251904D01*
X193793809Y-86061428D01*
X193793809Y-85823333D01*
X193841428Y-85632857D01*
X193889047Y-85537619D01*
X193936666Y-85490000D01*
X194031904Y-85442380D01*
X195317619Y-86442380D02*
X194746190Y-86442380D01*
X195031904Y-86442380D02*
X195031904Y-85442380D01*
X194936666Y-85585238D01*
X194841428Y-85680476D01*
X194746190Y-85728095D01*
X195650952Y-86442380D02*
X196174761Y-85775714D01*
X195650952Y-85775714D02*
X196174761Y-86442380D01*
X196746190Y-85442380D02*
X196841428Y-85442380D01*
X196936666Y-85490000D01*
X196984285Y-85537619D01*
X197031904Y-85632857D01*
X197079523Y-85823333D01*
X197079523Y-86061428D01*
X197031904Y-86251904D01*
X196984285Y-86347142D01*
X196936666Y-86394761D01*
X196841428Y-86442380D01*
X196746190Y-86442380D01*
X196650952Y-86394761D01*
X196603333Y-86347142D01*
X196555714Y-86251904D01*
X196508095Y-86061428D01*
X196508095Y-85823333D01*
X196555714Y-85632857D01*
X196603333Y-85537619D01*
X196650952Y-85490000D01*
X196746190Y-85442380D01*
X197936666Y-85442380D02*
X197746190Y-85442380D01*
X197650952Y-85490000D01*
X197603333Y-85537619D01*
X197508095Y-85680476D01*
X197460476Y-85870952D01*
X197460476Y-86251904D01*
X197508095Y-86347142D01*
X197555714Y-86394761D01*
X197650952Y-86442380D01*
X197841428Y-86442380D01*
X197936666Y-86394761D01*
X197984285Y-86347142D01*
X198031904Y-86251904D01*
X198031904Y-86013809D01*
X197984285Y-85918571D01*
X197936666Y-85870952D01*
X197841428Y-85823333D01*
X197650952Y-85823333D01*
X197555714Y-85870952D01*
X197508095Y-85918571D01*
X197460476Y-86013809D01*
X198222380Y-86537619D02*
X198984285Y-86537619D01*
X199222380Y-86442380D02*
X199222380Y-85442380D01*
X199555714Y-86156666D01*
X199889047Y-85442380D01*
X199889047Y-86442380D01*
X200793809Y-86442380D02*
X200793809Y-85918571D01*
X200746190Y-85823333D01*
X200650952Y-85775714D01*
X200460476Y-85775714D01*
X200365238Y-85823333D01*
X200793809Y-86394761D02*
X200698571Y-86442380D01*
X200460476Y-86442380D01*
X200365238Y-86394761D01*
X200317619Y-86299523D01*
X200317619Y-86204285D01*
X200365238Y-86109047D01*
X200460476Y-86061428D01*
X200698571Y-86061428D01*
X200793809Y-86013809D01*
X201412857Y-86442380D02*
X201317619Y-86394761D01*
X201270000Y-86299523D01*
X201270000Y-85442380D01*
X202174761Y-86394761D02*
X202079523Y-86442380D01*
X201889047Y-86442380D01*
X201793809Y-86394761D01*
X201746190Y-86299523D01*
X201746190Y-85918571D01*
X201793809Y-85823333D01*
X201889047Y-85775714D01*
X202079523Y-85775714D01*
X202174761Y-85823333D01*
X202222380Y-85918571D01*
X202222380Y-86013809D01*
X201746190Y-86109047D01*
X195296666Y-82982380D02*
X195296666Y-83696666D01*
X195249047Y-83839523D01*
X195153809Y-83934761D01*
X195010952Y-83982380D01*
X194915714Y-83982380D01*
X196296666Y-83982380D02*
X195725238Y-83982380D01*
X196010952Y-83982380D02*
X196010952Y-82982380D01*
X195915714Y-83125238D01*
X195820476Y-83220476D01*
X195725238Y-83268095D01*
%TD*%
M02*
