%TF.GenerationSoftware,KiCad,Pcbnew,(5.1.10)-1*%
%TF.CreationDate,2021-11-08T10:20:26+05:30*%
%TF.ProjectId,Modbus_IO_Board,4d6f6462-7573-45f4-994f-5f426f617264,rev?*%
%TF.SameCoordinates,Original*%
%TF.FileFunction,OtherDrawing,Comment*%
%FSLAX46Y46*%
G04 Gerber Fmt 4.6, Leading zero omitted, Abs format (unit mm)*
G04 Created by KiCad (PCBNEW (5.1.10)-1) date 2021-11-08 10:20:26*
%MOMM*%
%LPD*%
G01*
G04 APERTURE LIST*
%ADD10C,0.150000*%
G04 APERTURE END LIST*
D10*
X192145952Y-73012380D02*
X191669761Y-73012380D01*
X191622142Y-73488571D01*
X191669761Y-73440952D01*
X191765000Y-73393333D01*
X192003095Y-73393333D01*
X192098333Y-73440952D01*
X192145952Y-73488571D01*
X192193571Y-73583809D01*
X192193571Y-73821904D01*
X192145952Y-73917142D01*
X192098333Y-73964761D01*
X192003095Y-74012380D01*
X191765000Y-74012380D01*
X191669761Y-73964761D01*
X191622142Y-73917142D01*
X192526904Y-73012380D02*
X193145952Y-73012380D01*
X192812619Y-73393333D01*
X192955476Y-73393333D01*
X193050714Y-73440952D01*
X193098333Y-73488571D01*
X193145952Y-73583809D01*
X193145952Y-73821904D01*
X193098333Y-73917142D01*
X193050714Y-73964761D01*
X192955476Y-74012380D01*
X192669761Y-74012380D01*
X192574523Y-73964761D01*
X192526904Y-73917142D01*
X193574523Y-73917142D02*
X193622142Y-73964761D01*
X193574523Y-74012380D01*
X193526904Y-73964761D01*
X193574523Y-73917142D01*
X193574523Y-74012380D01*
X194574523Y-74012380D02*
X194003095Y-74012380D01*
X194288809Y-74012380D02*
X194288809Y-73012380D01*
X194193571Y-73155238D01*
X194098333Y-73250476D01*
X194003095Y-73298095D01*
X194907857Y-73012380D02*
X195526904Y-73012380D01*
X195193571Y-73393333D01*
X195336428Y-73393333D01*
X195431666Y-73440952D01*
X195479285Y-73488571D01*
X195526904Y-73583809D01*
X195526904Y-73821904D01*
X195479285Y-73917142D01*
X195431666Y-73964761D01*
X195336428Y-74012380D01*
X195050714Y-74012380D01*
X194955476Y-73964761D01*
X194907857Y-73917142D01*
X196145952Y-73012380D02*
X196241190Y-73012380D01*
X196336428Y-73060000D01*
X196384047Y-73107619D01*
X196431666Y-73202857D01*
X196479285Y-73393333D01*
X196479285Y-73631428D01*
X196431666Y-73821904D01*
X196384047Y-73917142D01*
X196336428Y-73964761D01*
X196241190Y-74012380D01*
X196145952Y-74012380D01*
X196050714Y-73964761D01*
X196003095Y-73917142D01*
X195955476Y-73821904D01*
X195907857Y-73631428D01*
X195907857Y-73393333D01*
X195955476Y-73202857D01*
X196003095Y-73107619D01*
X196050714Y-73060000D01*
X196145952Y-73012380D01*
X197669761Y-74012380D02*
X197669761Y-73345714D01*
X197669761Y-73440952D02*
X197717380Y-73393333D01*
X197812619Y-73345714D01*
X197955476Y-73345714D01*
X198050714Y-73393333D01*
X198098333Y-73488571D01*
X198098333Y-74012380D01*
X198098333Y-73488571D02*
X198145952Y-73393333D01*
X198241190Y-73345714D01*
X198384047Y-73345714D01*
X198479285Y-73393333D01*
X198526904Y-73488571D01*
X198526904Y-74012380D01*
X199003095Y-74012380D02*
X199003095Y-73345714D01*
X199003095Y-73440952D02*
X199050714Y-73393333D01*
X199145952Y-73345714D01*
X199288809Y-73345714D01*
X199384047Y-73393333D01*
X199431666Y-73488571D01*
X199431666Y-74012380D01*
X199431666Y-73488571D02*
X199479285Y-73393333D01*
X199574523Y-73345714D01*
X199717380Y-73345714D01*
X199812619Y-73393333D01*
X199860238Y-73488571D01*
X199860238Y-74012380D01*
X169200000Y-74860000D02*
X222330000Y-74860000D01*
X169200000Y-80000000D02*
X169200000Y-74273579D01*
X222330000Y-80000000D02*
X222330000Y-74273579D01*
X222330000Y-74860000D02*
X221203496Y-75446421D01*
X222330000Y-74860000D02*
X221203496Y-74273579D01*
X169200000Y-74860000D02*
X170326504Y-75446421D01*
X169200000Y-74860000D02*
X170326504Y-74273579D01*
X191574523Y-132502379D02*
X192241190Y-132502379D01*
X191812619Y-133502379D01*
X193145952Y-133502379D02*
X192574523Y-133502379D01*
X192860238Y-133502379D02*
X192860238Y-132502379D01*
X192765000Y-132645237D01*
X192669761Y-132740475D01*
X192574523Y-132788094D01*
X193574523Y-133407141D02*
X193622142Y-133454760D01*
X193574523Y-133502379D01*
X193526904Y-133454760D01*
X193574523Y-133407141D01*
X193574523Y-133502379D01*
X194526904Y-132502379D02*
X194050714Y-132502379D01*
X194003095Y-132978570D01*
X194050714Y-132930951D01*
X194145952Y-132883332D01*
X194384047Y-132883332D01*
X194479285Y-132930951D01*
X194526904Y-132978570D01*
X194574523Y-133073808D01*
X194574523Y-133311903D01*
X194526904Y-133407141D01*
X194479285Y-133454760D01*
X194384047Y-133502379D01*
X194145952Y-133502379D01*
X194050714Y-133454760D01*
X194003095Y-133407141D01*
X194907857Y-132502379D02*
X195526904Y-132502379D01*
X195193571Y-132883332D01*
X195336428Y-132883332D01*
X195431666Y-132930951D01*
X195479285Y-132978570D01*
X195526904Y-133073808D01*
X195526904Y-133311903D01*
X195479285Y-133407141D01*
X195431666Y-133454760D01*
X195336428Y-133502379D01*
X195050714Y-133502379D01*
X194955476Y-133454760D01*
X194907857Y-133407141D01*
X196145952Y-132502379D02*
X196241190Y-132502379D01*
X196336428Y-132549999D01*
X196384047Y-132597618D01*
X196431666Y-132692856D01*
X196479285Y-132883332D01*
X196479285Y-133121427D01*
X196431666Y-133311903D01*
X196384047Y-133407141D01*
X196336428Y-133454760D01*
X196241190Y-133502379D01*
X196145952Y-133502379D01*
X196050714Y-133454760D01*
X196003095Y-133407141D01*
X195955476Y-133311903D01*
X195907857Y-133121427D01*
X195907857Y-132883332D01*
X195955476Y-132692856D01*
X196003095Y-132597618D01*
X196050714Y-132549999D01*
X196145952Y-132502379D01*
X197669761Y-133502379D02*
X197669761Y-132835713D01*
X197669761Y-132930951D02*
X197717380Y-132883332D01*
X197812619Y-132835713D01*
X197955476Y-132835713D01*
X198050714Y-132883332D01*
X198098333Y-132978570D01*
X198098333Y-133502379D01*
X198098333Y-132978570D02*
X198145952Y-132883332D01*
X198241190Y-132835713D01*
X198384047Y-132835713D01*
X198479285Y-132883332D01*
X198526904Y-132978570D01*
X198526904Y-133502379D01*
X199003095Y-133502379D02*
X199003095Y-132835713D01*
X199003095Y-132930951D02*
X199050714Y-132883332D01*
X199145952Y-132835713D01*
X199288809Y-132835713D01*
X199384047Y-132883332D01*
X199431666Y-132978570D01*
X199431666Y-133502379D01*
X199431666Y-132978570D02*
X199479285Y-132883332D01*
X199574523Y-132835713D01*
X199717380Y-132835713D01*
X199812619Y-132883332D01*
X199860238Y-132978570D01*
X199860238Y-133502379D01*
X160000000Y-131749999D02*
X231530000Y-131749999D01*
X160000000Y-125000000D02*
X160000000Y-132336420D01*
X231530000Y-125000000D02*
X231530000Y-132336420D01*
X231530000Y-131749999D02*
X230403496Y-132336420D01*
X231530000Y-131749999D02*
X230403496Y-131163578D01*
X160000000Y-131749999D02*
X161126504Y-132336420D01*
X160000000Y-131749999D02*
X161126504Y-131163578D01*
X152914285Y-98833333D02*
X152247619Y-98833333D01*
X153295238Y-98595238D02*
X152580952Y-98357142D01*
X152580952Y-98976190D01*
X153247619Y-99833333D02*
X153247619Y-99357142D01*
X152771428Y-99309523D01*
X152819047Y-99357142D01*
X152866666Y-99452380D01*
X152866666Y-99690476D01*
X152819047Y-99785714D01*
X152771428Y-99833333D01*
X152676190Y-99880952D01*
X152438095Y-99880952D01*
X152342857Y-99833333D01*
X152295238Y-99785714D01*
X152247619Y-99690476D01*
X152247619Y-99452380D01*
X152295238Y-99357142D01*
X152342857Y-99309523D01*
X152342857Y-100309523D02*
X152295238Y-100357142D01*
X152247619Y-100309523D01*
X152295238Y-100261904D01*
X152342857Y-100309523D01*
X152247619Y-100309523D01*
X153247619Y-100976190D02*
X153247619Y-101071428D01*
X153200000Y-101166666D01*
X153152380Y-101214285D01*
X153057142Y-101261904D01*
X152866666Y-101309523D01*
X152628571Y-101309523D01*
X152438095Y-101261904D01*
X152342857Y-101214285D01*
X152295238Y-101166666D01*
X152247619Y-101071428D01*
X152247619Y-100976190D01*
X152295238Y-100880952D01*
X152342857Y-100833333D01*
X152438095Y-100785714D01*
X152628571Y-100738095D01*
X152866666Y-100738095D01*
X153057142Y-100785714D01*
X153152380Y-100833333D01*
X153200000Y-100880952D01*
X153247619Y-100976190D01*
X153247619Y-101928571D02*
X153247619Y-102023809D01*
X153200000Y-102119047D01*
X153152380Y-102166666D01*
X153057142Y-102214285D01*
X152866666Y-102261904D01*
X152628571Y-102261904D01*
X152438095Y-102214285D01*
X152342857Y-102166666D01*
X152295238Y-102119047D01*
X152247619Y-102023809D01*
X152247619Y-101928571D01*
X152295238Y-101833333D01*
X152342857Y-101785714D01*
X152438095Y-101738095D01*
X152628571Y-101690476D01*
X152866666Y-101690476D01*
X153057142Y-101738095D01*
X153152380Y-101785714D01*
X153200000Y-101833333D01*
X153247619Y-101928571D01*
X153247619Y-102880952D02*
X153247619Y-102976190D01*
X153200000Y-103071428D01*
X153152380Y-103119047D01*
X153057142Y-103166666D01*
X152866666Y-103214285D01*
X152628571Y-103214285D01*
X152438095Y-103166666D01*
X152342857Y-103119047D01*
X152295238Y-103071428D01*
X152247619Y-102976190D01*
X152247619Y-102880952D01*
X152295238Y-102785714D01*
X152342857Y-102738095D01*
X152438095Y-102690476D01*
X152628571Y-102642857D01*
X152866666Y-102642857D01*
X153057142Y-102690476D01*
X153152380Y-102738095D01*
X153200000Y-102785714D01*
X153247619Y-102880952D01*
X152247619Y-104404761D02*
X152914285Y-104404761D01*
X152819047Y-104404761D02*
X152866666Y-104452380D01*
X152914285Y-104547619D01*
X152914285Y-104690476D01*
X152866666Y-104785714D01*
X152771428Y-104833333D01*
X152247619Y-104833333D01*
X152771428Y-104833333D02*
X152866666Y-104880952D01*
X152914285Y-104976190D01*
X152914285Y-105119047D01*
X152866666Y-105214285D01*
X152771428Y-105261904D01*
X152247619Y-105261904D01*
X152247619Y-105738095D02*
X152914285Y-105738095D01*
X152819047Y-105738095D02*
X152866666Y-105785714D01*
X152914285Y-105880952D01*
X152914285Y-106023809D01*
X152866666Y-106119047D01*
X152771428Y-106166666D01*
X152247619Y-106166666D01*
X152771428Y-106166666D02*
X152866666Y-106214285D01*
X152914285Y-106309523D01*
X152914285Y-106452380D01*
X152866666Y-106547619D01*
X152771428Y-106595238D01*
X152247619Y-106595238D01*
X154000000Y-80000000D02*
X154000000Y-125000000D01*
X160000000Y-80000000D02*
X153413579Y-80000000D01*
X160000000Y-125000000D02*
X153413579Y-125000000D01*
X154000000Y-125000000D02*
X153413579Y-123873496D01*
X154000000Y-125000000D02*
X154586421Y-123873496D01*
X154000000Y-80000000D02*
X153413579Y-81126504D01*
X154000000Y-80000000D02*
X154586421Y-81126504D01*
M02*
