M48
; DRILL file {KiCad (5.1.10)-1} date 11/03/21 13:15:45
; FORMAT={-:-/ absolute / metric / decimal}
; #@! TF.CreationDate,2021-11-03T13:15:45+05:30
; #@! TF.GenerationSoftware,Kicad,Pcbnew,(5.1.10)-1
; #@! TF.FileFunction,Plated,1,2,PTH
FMAT,2
METRIC
T1C0.300
T2C0.400
T3C1.000
T4C1.100
T5C1.300
T6C2.000
T7C2.200
T8C3.000
%
G90
G05
T1
X182.35Y-109.1
X182.59Y-106.07
X182.6Y-105.4
X183.14Y-109.11
X183.59Y-105.4
X183.63Y-106.1
X184.6Y-105.4
X184.61Y-106.11
X185.68Y-105.4
X185.71Y-106.1
X186.68Y-105.4
X186.7Y-106.1
X187.39Y-109.08
X187.8Y-105.4
X187.8Y-106.1
X188.21Y-109.1
T2
X176.1Y-99.3
X179.5Y-87.9
X179.5Y-96.2
X181.1Y-89.1
X181.1Y-95.0
X181.4Y-92.1
X183.2Y-114.8
X184.8Y-97.7
X185.3Y-94.7
X186.4Y-93.6
X186.5Y-90.5
X187.2Y-95.9
X190.55Y-90.875
X190.8Y-97.2
X192.1Y-115.0
X192.9Y-96.925
X193.7Y-95.7
X193.875Y-101.8
X195.85Y-86.05
X196.6Y-99.1
X196.61Y-94.89
X196.8Y-93.3
X198.2Y-98.82
X199.825Y-90.225
X200.61Y-99.02
X201.17Y-100.73
X202.0Y-94.7
X202.075Y-93.3
X202.249Y-99.04
X202.84Y-105.86
X203.2Y-97.2
X203.75Y-114.175
X204.4Y-97.0
X205.975Y-115.125
X206.81Y-93.13
X208.94Y-102.07
X209.3Y-105.9
X213.56Y-89.46
X213.59Y-92.13
X213.9Y-95.1
X217.3Y-93.5
X217.8Y-91.1
X218.2Y-104.4
X218.4Y-103.1
T3
X189.28Y-83.53
X191.82Y-83.53
X194.36Y-83.53
X196.9Y-83.53
X199.44Y-83.53
X201.98Y-83.53
T4
X182.04Y-120.49
X184.58Y-120.49
X187.12Y-120.49
X189.66Y-120.49
X192.2Y-120.49
X199.33Y-120.5
X201.87Y-120.5
X204.41Y-120.5
X206.95Y-120.5
X209.49Y-120.5
T5
X170.2Y-105.01
X178.22Y-105.25
X179.9Y-101.4
X212.09Y-101.94
X213.59Y-105.94
X221.55Y-105.77
T7
X170.22Y-110.24
X175.22Y-110.25
X216.59Y-110.98
X221.59Y-110.98
T8
X166.76Y-114.78
X174.01Y-85.76
X217.52Y-85.76
X224.77Y-114.78
T6
G00X164.71Y-121.01
M15
G01X164.71Y-123.01
M16
G05
G00X176.71Y-121.01
M15
G01X176.71Y-123.01
M16
G05
G00X214.58Y-120.97
M15
G01X214.58Y-122.97
M16
G05
G00X226.59Y-121.14
M15
G01X226.59Y-123.14
M16
G05
T0
M30
