%TF.GenerationSoftware,KiCad,Pcbnew,(5.1.10)-1*%
%TF.CreationDate,2021-11-08T10:20:26+05:30*%
%TF.ProjectId,Modbus_IO_Board,4d6f6462-7573-45f4-994f-5f426f617264,rev?*%
%TF.SameCoordinates,Original*%
%TF.FileFunction,Other,User*%
%FSLAX46Y46*%
G04 Gerber Fmt 4.6, Leading zero omitted, Abs format (unit mm)*
G04 Created by KiCad (PCBNEW (5.1.10)-1) date 2021-11-08 10:20:26*
%MOMM*%
%LPD*%
G01*
G04 APERTURE LIST*
%ADD10C,0.050000*%
%ADD11C,0.100000*%
G04 APERTURE END LIST*
D10*
%TO.C,D11*%
X209650000Y-116000000D02*
X206450000Y-116000000D01*
X206450000Y-116000000D02*
X206450000Y-114100000D01*
X209650000Y-114100000D02*
X206450000Y-114100000D01*
X209650000Y-116000000D02*
X209650000Y-114100000D01*
%TO.C,D10*%
X204250000Y-116025000D02*
X201050000Y-116025000D01*
X201050000Y-116025000D02*
X201050000Y-114125000D01*
X204250000Y-114125000D02*
X201050000Y-114125000D01*
X204250000Y-116025000D02*
X204250000Y-114125000D01*
%TO.C,12V*%
X217590000Y-110940000D02*
G75*
G03*
X217590000Y-110940000I-1000000J0D01*
G01*
X176200000Y-110270000D02*
G75*
G03*
X176200000Y-110270000I-1000000J0D01*
G01*
%TO.C,GND*%
X171220000Y-110240000D02*
G75*
G03*
X171220000Y-110240000I-1000000J0D01*
G01*
X222590000Y-110980000D02*
G75*
G03*
X222590000Y-110980000I-1000000J0D01*
G01*
%TO.C,B*%
X180900000Y-101400000D02*
G75*
G03*
X180900000Y-101400000I-1000000J0D01*
G01*
%TO.C,A*%
X179220000Y-105250000D02*
G75*
G03*
X179220000Y-105250000I-1000000J0D01*
G01*
%TO.C,C8*%
X186625000Y-100980000D02*
X186625000Y-97480000D01*
X191875000Y-100980000D02*
X186625000Y-100980000D01*
X191875000Y-97480000D02*
X191875000Y-100980000D01*
X186625000Y-97480000D02*
X191875000Y-97480000D01*
%TO.C,IC5*%
X214360000Y-95100000D02*
X221000000Y-95100000D01*
X214360000Y-102700000D02*
X214360000Y-95100000D01*
X221000000Y-102700000D02*
X214360000Y-102700000D01*
X221000000Y-95100000D02*
X221000000Y-102700000D01*
%TO.C,GND*%
X217350000Y-91080000D02*
G75*
G03*
X217350000Y-91080000I-1000000J0D01*
G01*
%TO.C,D4*%
X186660000Y-114210000D02*
X186660000Y-110710000D01*
X193660000Y-114210000D02*
X186660000Y-114210000D01*
X193660000Y-110710000D02*
X193660000Y-114210000D01*
X186660000Y-110710000D02*
X193660000Y-110710000D01*
%TO.C,FB1*%
X191500000Y-110560000D02*
X189200000Y-110560000D01*
X191500000Y-105960000D02*
X191500000Y-110560000D01*
X189200000Y-105960000D02*
X191500000Y-105960000D01*
X189200000Y-110560000D02*
X189200000Y-105960000D01*
%TO.C,A*%
X214590000Y-105940000D02*
G75*
G03*
X214590000Y-105940000I-1000000J0D01*
G01*
%TO.C,FB2*%
X207650000Y-101380000D02*
X203050000Y-101380000D01*
X203050000Y-101380000D02*
X203050000Y-99080000D01*
X203050000Y-99080000D02*
X207650000Y-99080000D01*
X207650000Y-99080000D02*
X207650000Y-101380000D01*
%TO.C,IC3*%
X198245000Y-107040000D02*
X198245000Y-101540000D01*
X205695000Y-107040000D02*
X198245000Y-107040000D01*
X205695000Y-101540000D02*
X205695000Y-107040000D01*
X198245000Y-101540000D02*
X205695000Y-101540000D01*
%TO.C,C9*%
X191480000Y-101150000D02*
X191480000Y-105750000D01*
X189180000Y-101150000D02*
X191480000Y-101150000D01*
X189180000Y-105750000D02*
X189180000Y-101150000D01*
X191480000Y-105750000D02*
X189180000Y-105750000D01*
%TO.C,RT1*%
X181418000Y-110423000D02*
X181418000Y-108457000D01*
X178002000Y-110423000D02*
X178002000Y-108457000D01*
X178002000Y-108457000D02*
X181418000Y-108457000D01*
X178002000Y-110423000D02*
X181418000Y-110423000D01*
%TO.C,B*%
X213090000Y-101940000D02*
G75*
G03*
X213090000Y-101940000I-1000000J0D01*
G01*
%TO.C,D3*%
X183020000Y-110730000D02*
X183020000Y-112940000D01*
X177840000Y-110720000D02*
X183020000Y-110720000D01*
X177840000Y-112940000D02*
X177840000Y-110720000D01*
X183020000Y-112940000D02*
X177840000Y-112940000D01*
%TO.C,C12*%
X207760000Y-104020000D02*
X207760000Y-99420000D01*
X210060000Y-104020000D02*
X207760000Y-104020000D01*
X210060000Y-99420000D02*
X210060000Y-104020000D01*
X207760000Y-99420000D02*
X210060000Y-99420000D01*
%TO.C,IC4*%
X181800000Y-90325000D02*
X186000000Y-90325000D01*
X186000000Y-90325000D02*
X186000000Y-93875000D01*
X186000000Y-93875000D02*
X181800000Y-93875000D01*
X181800000Y-93875000D02*
X181800000Y-90325000D01*
%TO.C,D8*%
X174830000Y-97465400D02*
X174830000Y-92315400D01*
X174830000Y-92315400D02*
X177319200Y-92315400D01*
X177319200Y-92315400D02*
X177319200Y-97465400D01*
X177319200Y-97465400D02*
X174830000Y-97465400D01*
%TO.C,IC1*%
X204670000Y-98140000D02*
X194170000Y-98140000D01*
X194170000Y-98140000D02*
X194170000Y-87640000D01*
X194170000Y-87640000D02*
X204670000Y-87640000D01*
X204670000Y-87640000D02*
X204670000Y-98140000D01*
%TO.C,R6*%
X181870000Y-89130000D02*
X183730000Y-89130000D01*
X181870000Y-90070000D02*
X181870000Y-89130000D01*
X183730000Y-90070000D02*
X181870000Y-90070000D01*
X183730000Y-89130000D02*
X183730000Y-90070000D01*
%TO.C,R5*%
X218780000Y-94950000D02*
X216920000Y-94950000D01*
X218780000Y-94010000D02*
X218780000Y-94950000D01*
X216920000Y-94010000D02*
X218780000Y-94010000D01*
X216920000Y-94950000D02*
X216920000Y-94010000D01*
%TO.C,C4*%
X193160000Y-92920000D02*
X191340000Y-92920000D01*
X193160000Y-92000000D02*
X193160000Y-92920000D01*
X191340000Y-92000000D02*
X193160000Y-92000000D01*
X191340000Y-92920000D02*
X191340000Y-92000000D01*
%TO.C,R4*%
X216220000Y-94960000D02*
X214360000Y-94960000D01*
X216220000Y-94020000D02*
X216220000Y-94960000D01*
X214360000Y-94020000D02*
X216220000Y-94020000D01*
X214360000Y-94960000D02*
X214360000Y-94020000D01*
%TO.C,C10*%
X186500000Y-101650000D02*
X181900000Y-101650000D01*
X186500000Y-99350000D02*
X186500000Y-101650000D01*
X181900000Y-99350000D02*
X186500000Y-99350000D01*
X181900000Y-101650000D02*
X181900000Y-99350000D01*
%TO.C,R2*%
X198290000Y-101280000D02*
X198290000Y-100340000D01*
X198290000Y-100340000D02*
X200150000Y-100340000D01*
X200150000Y-100340000D02*
X200150000Y-101280000D01*
X200150000Y-101280000D02*
X198290000Y-101280000D01*
%TO.C,C2*%
X204880000Y-96570000D02*
X206700000Y-96570000D01*
X204880000Y-97490000D02*
X204880000Y-96570000D01*
X206700000Y-97490000D02*
X204880000Y-97490000D01*
X206700000Y-96570000D02*
X206700000Y-97490000D01*
%TO.C,RV1*%
X183840000Y-110950000D02*
X186240000Y-110950000D01*
X183840000Y-115650000D02*
X183840000Y-110950000D01*
X186240000Y-115650000D02*
X183840000Y-115650000D01*
X186240000Y-110950000D02*
X186240000Y-115650000D01*
%TO.C,L1*%
X193480000Y-90000000D02*
X188780000Y-90000000D01*
X193480000Y-87600000D02*
X193480000Y-90000000D01*
X188780000Y-87600000D02*
X193480000Y-87600000D01*
X188780000Y-90000000D02*
X188780000Y-87600000D01*
%TO.C,R3*%
X192120000Y-93440000D02*
X192120000Y-95300000D01*
X191180000Y-93440000D02*
X192120000Y-93440000D01*
X191180000Y-95300000D02*
X191180000Y-93440000D01*
X192120000Y-95300000D02*
X191180000Y-95300000D01*
D11*
%TO.C,U1*%
X210890000Y-107718000D02*
X207842000Y-107718000D01*
X210890000Y-104162000D02*
X210890000Y-107718000D01*
X207842000Y-104162000D02*
X210890000Y-104162000D01*
X207842000Y-107718000D02*
X207842000Y-104162000D01*
D10*
%TO.C,R7*%
X192350000Y-95300000D02*
X192350000Y-93440000D01*
X193290000Y-95300000D02*
X192350000Y-95300000D01*
X193290000Y-93440000D02*
X193290000Y-95300000D01*
X192350000Y-93440000D02*
X193290000Y-93440000D01*
%TO.C,D5*%
X207690000Y-103730000D02*
X205790000Y-103730000D01*
X205790000Y-103730000D02*
X205790000Y-106930000D01*
X207690000Y-106930000D02*
X205790000Y-106930000D01*
X207690000Y-103730000D02*
X207690000Y-106930000D01*
%TO.C,R1*%
X197890000Y-101460000D02*
X197890000Y-103320000D01*
X196950000Y-101460000D02*
X197890000Y-101460000D01*
X196950000Y-103320000D02*
X196950000Y-101460000D01*
X197890000Y-103320000D02*
X196950000Y-103320000D01*
%TO.C,IC2*%
X181900000Y-101825000D02*
X189100000Y-101825000D01*
X181900000Y-110375000D02*
X181900000Y-101825000D01*
X189100000Y-110375000D02*
X181900000Y-110375000D01*
X189100000Y-101825000D02*
X189100000Y-110375000D01*
%TO.C,R8*%
X182070000Y-94030000D02*
X183930000Y-94030000D01*
X182070000Y-94970000D02*
X182070000Y-94030000D01*
X183930000Y-94970000D02*
X182070000Y-94970000D01*
X183930000Y-94030000D02*
X183930000Y-94970000D01*
%TO.C,D7*%
X178575000Y-91675000D02*
X178575000Y-88475000D01*
X178575000Y-88475000D02*
X180475000Y-88475000D01*
X180475000Y-91675000D02*
X180475000Y-88475000D01*
X178575000Y-91675000D02*
X180475000Y-91675000D01*
%TO.C,C5*%
X191310000Y-90420000D02*
X193130000Y-90420000D01*
X191310000Y-91340000D02*
X191310000Y-90420000D01*
X193130000Y-91340000D02*
X191310000Y-91340000D01*
X193130000Y-90420000D02*
X193130000Y-91340000D01*
D11*
%TO.C,Y1*%
X212774000Y-98918000D02*
X207186000Y-98918000D01*
X212774000Y-82662000D02*
X212774000Y-98918000D01*
X207186000Y-82662000D02*
X212774000Y-82662000D01*
X207186000Y-98918000D02*
X207186000Y-82662000D01*
D10*
%TO.C,C3*%
X206920000Y-91570000D02*
X206920000Y-96170000D01*
X204820000Y-91570000D02*
X206920000Y-91570000D01*
X204820000Y-96170000D02*
X204820000Y-91570000D01*
X206920000Y-96170000D02*
X204820000Y-96170000D01*
%TO.C,C13*%
X181560000Y-89690000D02*
X181560000Y-91510000D01*
X180640000Y-89690000D02*
X181560000Y-89690000D01*
X180640000Y-91510000D02*
X180640000Y-89690000D01*
X181560000Y-91510000D02*
X180640000Y-91510000D01*
%TO.C,C16*%
X188210000Y-92140000D02*
X188210000Y-93060000D01*
X188210000Y-93060000D02*
X186390000Y-93060000D01*
X186390000Y-93060000D02*
X186390000Y-92140000D01*
X186390000Y-92140000D02*
X188210000Y-92140000D01*
D11*
%TO.C,D1*%
X192020000Y-103540000D02*
X192020000Y-101540000D01*
X196820000Y-103540000D02*
X192020000Y-103540000D01*
X196820000Y-101540000D02*
X196820000Y-103540000D01*
X192020000Y-101540000D02*
X196820000Y-101540000D01*
D10*
%TO.C,D2*%
X196880000Y-99360000D02*
X196880000Y-101350000D01*
X191990000Y-99360000D02*
X196880000Y-99360000D01*
X191990000Y-101350000D02*
X191990000Y-99360000D01*
X196870000Y-101350000D02*
X192000000Y-101350000D01*
%TO.C,C1*%
X197980000Y-99430000D02*
X197980000Y-101250000D01*
X197060000Y-99430000D02*
X197980000Y-99430000D01*
X197060000Y-101250000D02*
X197060000Y-99430000D01*
X197980000Y-101250000D02*
X197060000Y-101250000D01*
%TO.C,C11*%
X205820000Y-102850000D02*
X205820000Y-101930000D01*
X205820000Y-101930000D02*
X207640000Y-101930000D01*
X207640000Y-101930000D02*
X207640000Y-102850000D01*
X207640000Y-102850000D02*
X205820000Y-102850000D01*
%TO.C,C15*%
X188210000Y-91040000D02*
X188210000Y-91960000D01*
X188210000Y-91960000D02*
X186390000Y-91960000D01*
X186390000Y-91960000D02*
X186390000Y-91040000D01*
X186390000Y-91040000D02*
X188210000Y-91040000D01*
%TO.C,D6*%
X171730000Y-97475000D02*
X171730000Y-92325000D01*
X171730000Y-92325000D02*
X174310000Y-92320000D01*
X174310000Y-92320000D02*
X174310000Y-97470000D01*
X174310000Y-97470000D02*
X171730000Y-97475000D01*
%TO.C,D9*%
X180450000Y-92500000D02*
X180450000Y-95700000D01*
X180450000Y-95700000D02*
X178550000Y-95700000D01*
X178550000Y-92500000D02*
X178550000Y-95700000D01*
X180450000Y-92500000D02*
X178550000Y-92500000D01*
%TO.C,C7*%
X213110000Y-88980000D02*
X213110000Y-87160000D01*
X214030000Y-88980000D02*
X213110000Y-88980000D01*
X214030000Y-87160000D02*
X214030000Y-88980000D01*
X213110000Y-87160000D02*
X214030000Y-87160000D01*
%TO.C,C14*%
X180640000Y-94510000D02*
X180640000Y-92690000D01*
X181560000Y-94510000D02*
X180640000Y-94510000D01*
X181560000Y-92690000D02*
X181560000Y-94510000D01*
X180640000Y-92690000D02*
X181560000Y-92690000D01*
%TO.C,C6*%
X214060000Y-92550000D02*
X214060000Y-94370000D01*
X213140000Y-92550000D02*
X214060000Y-92550000D01*
X213140000Y-94370000D02*
X213140000Y-92550000D01*
X214060000Y-94370000D02*
X213140000Y-94370000D01*
%TO.C,GND*%
X222550000Y-105770000D02*
G75*
G03*
X222550000Y-105770000I-1000000J0D01*
G01*
X171200000Y-105010000D02*
G75*
G03*
X171200000Y-105010000I-1000000J0D01*
G01*
D11*
%TO.C,J3*%
X211990000Y-124750000D02*
X196830000Y-124750000D01*
X196830000Y-124750000D02*
X196830000Y-116250000D01*
X196830000Y-116250000D02*
X211990000Y-116250000D01*
X211990000Y-116250000D02*
X211990000Y-124750000D01*
%TO.C,J2*%
X179540000Y-116240000D02*
X194700000Y-116240000D01*
X194700000Y-116240000D02*
X194700000Y-124740000D01*
X194700000Y-124740000D02*
X179540000Y-124740000D01*
X179540000Y-124740000D02*
X179540000Y-116240000D01*
%TD*%
M02*
