%TF.GenerationSoftware,KiCad,Pcbnew,(5.1.10)-1*%
%TF.CreationDate,2021-11-08T10:20:26+05:30*%
%TF.ProjectId,Modbus_IO_Board,4d6f6462-7573-45f4-994f-5f426f617264,rev?*%
%TF.SameCoordinates,Original*%
%TF.FileFunction,Legend,Top*%
%TF.FilePolarity,Positive*%
%FSLAX46Y46*%
G04 Gerber Fmt 4.6, Leading zero omitted, Abs format (unit mm)*
G04 Created by KiCad (PCBNEW (5.1.10)-1) date 2021-11-08 10:20:26*
%MOMM*%
%LPD*%
G01*
G04 APERTURE LIST*
%ADD10C,0.100000*%
%ADD11C,0.150000*%
%ADD12C,0.120000*%
%ADD13C,0.200000*%
%ADD14C,0.400000*%
%ADD15C,0.010000*%
G04 APERTURE END LIST*
D10*
X201669047Y-85000000D02*
X201621428Y-84976190D01*
X201550000Y-84976190D01*
X201478571Y-85000000D01*
X201430952Y-85047619D01*
X201407142Y-85095238D01*
X201383333Y-85190476D01*
X201383333Y-85261904D01*
X201407142Y-85357142D01*
X201430952Y-85404761D01*
X201478571Y-85452380D01*
X201550000Y-85476190D01*
X201597619Y-85476190D01*
X201669047Y-85452380D01*
X201692857Y-85428571D01*
X201692857Y-85261904D01*
X201597619Y-85261904D01*
X201907142Y-85476190D02*
X201907142Y-84976190D01*
X202192857Y-85476190D01*
X202192857Y-84976190D01*
X202430952Y-85476190D02*
X202430952Y-84976190D01*
X202550000Y-84976190D01*
X202621428Y-85000000D01*
X202669047Y-85047619D01*
X202692857Y-85095238D01*
X202716666Y-85190476D01*
X202716666Y-85261904D01*
X202692857Y-85357142D01*
X202669047Y-85404761D01*
X202621428Y-85452380D01*
X202550000Y-85476190D01*
X202430952Y-85476190D01*
X199116666Y-85501190D02*
X198950000Y-85263095D01*
X198830952Y-85501190D02*
X198830952Y-85001190D01*
X199021428Y-85001190D01*
X199069047Y-85025000D01*
X199092857Y-85048809D01*
X199116666Y-85096428D01*
X199116666Y-85167857D01*
X199092857Y-85215476D01*
X199069047Y-85239285D01*
X199021428Y-85263095D01*
X198830952Y-85263095D01*
X199307142Y-85477380D02*
X199378571Y-85501190D01*
X199497619Y-85501190D01*
X199545238Y-85477380D01*
X199569047Y-85453571D01*
X199592857Y-85405952D01*
X199592857Y-85358333D01*
X199569047Y-85310714D01*
X199545238Y-85286904D01*
X199497619Y-85263095D01*
X199402380Y-85239285D01*
X199354761Y-85215476D01*
X199330952Y-85191666D01*
X199307142Y-85144047D01*
X199307142Y-85096428D01*
X199330952Y-85048809D01*
X199354761Y-85025000D01*
X199402380Y-85001190D01*
X199521428Y-85001190D01*
X199592857Y-85025000D01*
X199973809Y-85239285D02*
X200045238Y-85263095D01*
X200069047Y-85286904D01*
X200092857Y-85334523D01*
X200092857Y-85405952D01*
X200069047Y-85453571D01*
X200045238Y-85477380D01*
X199997619Y-85501190D01*
X199807142Y-85501190D01*
X199807142Y-85001190D01*
X199973809Y-85001190D01*
X200021428Y-85025000D01*
X200045238Y-85048809D01*
X200069047Y-85096428D01*
X200069047Y-85144047D01*
X200045238Y-85191666D01*
X200021428Y-85215476D01*
X199973809Y-85239285D01*
X199807142Y-85239285D01*
X196214285Y-85501190D02*
X196214285Y-85001190D01*
X196380952Y-85358333D01*
X196547619Y-85001190D01*
X196547619Y-85501190D01*
X196880952Y-85001190D02*
X196976190Y-85001190D01*
X197023809Y-85025000D01*
X197071428Y-85072619D01*
X197095238Y-85167857D01*
X197095238Y-85334523D01*
X197071428Y-85429761D01*
X197023809Y-85477380D01*
X196976190Y-85501190D01*
X196880952Y-85501190D01*
X196833333Y-85477380D01*
X196785714Y-85429761D01*
X196761904Y-85334523D01*
X196761904Y-85167857D01*
X196785714Y-85072619D01*
X196833333Y-85025000D01*
X196880952Y-85001190D01*
X197285714Y-85477380D02*
X197357142Y-85501190D01*
X197476190Y-85501190D01*
X197523809Y-85477380D01*
X197547619Y-85453571D01*
X197571428Y-85405952D01*
X197571428Y-85358333D01*
X197547619Y-85310714D01*
X197523809Y-85286904D01*
X197476190Y-85263095D01*
X197380952Y-85239285D01*
X197333333Y-85215476D01*
X197309523Y-85191666D01*
X197285714Y-85144047D01*
X197285714Y-85096428D01*
X197309523Y-85048809D01*
X197333333Y-85025000D01*
X197380952Y-85001190D01*
X197500000Y-85001190D01*
X197571428Y-85025000D01*
X197785714Y-85501190D02*
X197785714Y-85001190D01*
X193707142Y-85477380D02*
X193778571Y-85501190D01*
X193897619Y-85501190D01*
X193945238Y-85477380D01*
X193969047Y-85453571D01*
X193992857Y-85405952D01*
X193992857Y-85358333D01*
X193969047Y-85310714D01*
X193945238Y-85286904D01*
X193897619Y-85263095D01*
X193802380Y-85239285D01*
X193754761Y-85215476D01*
X193730952Y-85191666D01*
X193707142Y-85144047D01*
X193707142Y-85096428D01*
X193730952Y-85048809D01*
X193754761Y-85025000D01*
X193802380Y-85001190D01*
X193921428Y-85001190D01*
X193992857Y-85025000D01*
X194492857Y-85453571D02*
X194469047Y-85477380D01*
X194397619Y-85501190D01*
X194350000Y-85501190D01*
X194278571Y-85477380D01*
X194230952Y-85429761D01*
X194207142Y-85382142D01*
X194183333Y-85286904D01*
X194183333Y-85215476D01*
X194207142Y-85120238D01*
X194230952Y-85072619D01*
X194278571Y-85025000D01*
X194350000Y-85001190D01*
X194397619Y-85001190D01*
X194469047Y-85025000D01*
X194492857Y-85048809D01*
X194707142Y-85501190D02*
X194707142Y-85001190D01*
X194992857Y-85501190D02*
X194778571Y-85215476D01*
X194992857Y-85001190D02*
X194707142Y-85286904D01*
X191111904Y-85001190D02*
X191421428Y-85001190D01*
X191254761Y-85191666D01*
X191326190Y-85191666D01*
X191373809Y-85215476D01*
X191397619Y-85239285D01*
X191421428Y-85286904D01*
X191421428Y-85405952D01*
X191397619Y-85453571D01*
X191373809Y-85477380D01*
X191326190Y-85501190D01*
X191183333Y-85501190D01*
X191135714Y-85477380D01*
X191111904Y-85453571D01*
X191635714Y-85453571D02*
X191659523Y-85477380D01*
X191635714Y-85501190D01*
X191611904Y-85477380D01*
X191635714Y-85453571D01*
X191635714Y-85501190D01*
X191826190Y-85001190D02*
X192135714Y-85001190D01*
X191969047Y-85191666D01*
X192040476Y-85191666D01*
X192088095Y-85215476D01*
X192111904Y-85239285D01*
X192135714Y-85286904D01*
X192135714Y-85405952D01*
X192111904Y-85453571D01*
X192088095Y-85477380D01*
X192040476Y-85501190D01*
X191897619Y-85501190D01*
X191850000Y-85477380D01*
X191826190Y-85453571D01*
X192278571Y-85001190D02*
X192445238Y-85501190D01*
X192611904Y-85001190D01*
X188489285Y-85526190D02*
X188489285Y-85026190D01*
X188655952Y-85383333D01*
X188822619Y-85026190D01*
X188822619Y-85526190D01*
X189060714Y-85526190D02*
X189060714Y-85026190D01*
X189275000Y-85502380D02*
X189346428Y-85526190D01*
X189465476Y-85526190D01*
X189513095Y-85502380D01*
X189536904Y-85478571D01*
X189560714Y-85430952D01*
X189560714Y-85383333D01*
X189536904Y-85335714D01*
X189513095Y-85311904D01*
X189465476Y-85288095D01*
X189370238Y-85264285D01*
X189322619Y-85240476D01*
X189298809Y-85216666D01*
X189275000Y-85169047D01*
X189275000Y-85121428D01*
X189298809Y-85073809D01*
X189322619Y-85050000D01*
X189370238Y-85026190D01*
X189489285Y-85026190D01*
X189560714Y-85050000D01*
X189870238Y-85026190D02*
X189965476Y-85026190D01*
X190013095Y-85050000D01*
X190060714Y-85097619D01*
X190084523Y-85192857D01*
X190084523Y-85359523D01*
X190060714Y-85454761D01*
X190013095Y-85502380D01*
X189965476Y-85526190D01*
X189870238Y-85526190D01*
X189822619Y-85502380D01*
X189775000Y-85454761D01*
X189751190Y-85359523D01*
X189751190Y-85192857D01*
X189775000Y-85097619D01*
X189822619Y-85050000D01*
X189870238Y-85026190D01*
D11*
X198927380Y-112135714D02*
X198927380Y-111945238D01*
X198975000Y-111850000D01*
X199070238Y-111754761D01*
X199260714Y-111707142D01*
X199594047Y-111707142D01*
X199784523Y-111754761D01*
X199879761Y-111850000D01*
X199927380Y-111945238D01*
X199927380Y-112135714D01*
X199879761Y-112230952D01*
X199784523Y-112326190D01*
X199594047Y-112373809D01*
X199260714Y-112373809D01*
X199070238Y-112326190D01*
X198975000Y-112230952D01*
X198927380Y-112135714D01*
X199927380Y-110754761D02*
X199927380Y-111326190D01*
X199927380Y-111040476D02*
X198927380Y-111040476D01*
X199070238Y-111135714D01*
X199165476Y-111230952D01*
X199213095Y-111326190D01*
X199832142Y-110326190D02*
X199879761Y-110278571D01*
X199927380Y-110326190D01*
X199879761Y-110373809D01*
X199832142Y-110326190D01*
X199927380Y-110326190D01*
X199927380Y-109326190D02*
X199927380Y-109897619D01*
X199927380Y-109611904D02*
X198927380Y-109611904D01*
X199070238Y-109707142D01*
X199165476Y-109802380D01*
X199213095Y-109897619D01*
X201377380Y-112260714D02*
X201377380Y-112070238D01*
X201425000Y-111975000D01*
X201520238Y-111879761D01*
X201710714Y-111832142D01*
X202044047Y-111832142D01*
X202234523Y-111879761D01*
X202329761Y-111975000D01*
X202377380Y-112070238D01*
X202377380Y-112260714D01*
X202329761Y-112355952D01*
X202234523Y-112451190D01*
X202044047Y-112498809D01*
X201710714Y-112498809D01*
X201520238Y-112451190D01*
X201425000Y-112355952D01*
X201377380Y-112260714D01*
X202377380Y-110879761D02*
X202377380Y-111451190D01*
X202377380Y-111165476D02*
X201377380Y-111165476D01*
X201520238Y-111260714D01*
X201615476Y-111355952D01*
X201663095Y-111451190D01*
X202282142Y-110451190D02*
X202329761Y-110403571D01*
X202377380Y-110451190D01*
X202329761Y-110498809D01*
X202282142Y-110451190D01*
X202377380Y-110451190D01*
X201472619Y-110022619D02*
X201425000Y-109975000D01*
X201377380Y-109879761D01*
X201377380Y-109641666D01*
X201425000Y-109546428D01*
X201472619Y-109498809D01*
X201567857Y-109451190D01*
X201663095Y-109451190D01*
X201805952Y-109498809D01*
X202377380Y-110070238D01*
X202377380Y-109451190D01*
X209000000Y-111736904D02*
X208952380Y-111832142D01*
X208952380Y-111975000D01*
X209000000Y-112117857D01*
X209095238Y-112213095D01*
X209190476Y-112260714D01*
X209380952Y-112308333D01*
X209523809Y-112308333D01*
X209714285Y-112260714D01*
X209809523Y-112213095D01*
X209904761Y-112117857D01*
X209952380Y-111975000D01*
X209952380Y-111879761D01*
X209904761Y-111736904D01*
X209857142Y-111689285D01*
X209523809Y-111689285D01*
X209523809Y-111879761D01*
X209952380Y-111260714D02*
X208952380Y-111260714D01*
X209952380Y-110689285D01*
X208952380Y-110689285D01*
X209952380Y-110213095D02*
X208952380Y-110213095D01*
X208952380Y-109975000D01*
X209000000Y-109832142D01*
X209095238Y-109736904D01*
X209190476Y-109689285D01*
X209380952Y-109641666D01*
X209523809Y-109641666D01*
X209714285Y-109689285D01*
X209809523Y-109736904D01*
X209904761Y-109832142D01*
X209952380Y-109975000D01*
X209952380Y-110213095D01*
X206577380Y-112260714D02*
X206577380Y-112070238D01*
X206625000Y-111975000D01*
X206720238Y-111879761D01*
X206910714Y-111832142D01*
X207244047Y-111832142D01*
X207434523Y-111879761D01*
X207529761Y-111975000D01*
X207577380Y-112070238D01*
X207577380Y-112260714D01*
X207529761Y-112355952D01*
X207434523Y-112451190D01*
X207244047Y-112498809D01*
X206910714Y-112498809D01*
X206720238Y-112451190D01*
X206625000Y-112355952D01*
X206577380Y-112260714D01*
X206672619Y-111451190D02*
X206625000Y-111403571D01*
X206577380Y-111308333D01*
X206577380Y-111070238D01*
X206625000Y-110975000D01*
X206672619Y-110927380D01*
X206767857Y-110879761D01*
X206863095Y-110879761D01*
X207005952Y-110927380D01*
X207577380Y-111498809D01*
X207577380Y-110879761D01*
X207482142Y-110451190D02*
X207529761Y-110403571D01*
X207577380Y-110451190D01*
X207529761Y-110498809D01*
X207482142Y-110451190D01*
X207577380Y-110451190D01*
X206672619Y-110022619D02*
X206625000Y-109975000D01*
X206577380Y-109879761D01*
X206577380Y-109641666D01*
X206625000Y-109546428D01*
X206672619Y-109498809D01*
X206767857Y-109451190D01*
X206863095Y-109451190D01*
X207005952Y-109498809D01*
X207577380Y-110070238D01*
X207577380Y-109451190D01*
X203727380Y-112210714D02*
X203727380Y-112020238D01*
X203775000Y-111925000D01*
X203870238Y-111829761D01*
X204060714Y-111782142D01*
X204394047Y-111782142D01*
X204584523Y-111829761D01*
X204679761Y-111925000D01*
X204727380Y-112020238D01*
X204727380Y-112210714D01*
X204679761Y-112305952D01*
X204584523Y-112401190D01*
X204394047Y-112448809D01*
X204060714Y-112448809D01*
X203870238Y-112401190D01*
X203775000Y-112305952D01*
X203727380Y-112210714D01*
X203822619Y-111401190D02*
X203775000Y-111353571D01*
X203727380Y-111258333D01*
X203727380Y-111020238D01*
X203775000Y-110925000D01*
X203822619Y-110877380D01*
X203917857Y-110829761D01*
X204013095Y-110829761D01*
X204155952Y-110877380D01*
X204727380Y-111448809D01*
X204727380Y-110829761D01*
X204632142Y-110401190D02*
X204679761Y-110353571D01*
X204727380Y-110401190D01*
X204679761Y-110448809D01*
X204632142Y-110401190D01*
X204727380Y-110401190D01*
X204727380Y-109401190D02*
X204727380Y-109972619D01*
X204727380Y-109686904D02*
X203727380Y-109686904D01*
X203870238Y-109782142D01*
X203965476Y-109877380D01*
X204013095Y-109972619D01*
X191788095Y-115850000D02*
X191692857Y-115802380D01*
X191550000Y-115802380D01*
X191407142Y-115850000D01*
X191311904Y-115945238D01*
X191264285Y-116040476D01*
X191216666Y-116230952D01*
X191216666Y-116373809D01*
X191264285Y-116564285D01*
X191311904Y-116659523D01*
X191407142Y-116754761D01*
X191550000Y-116802380D01*
X191645238Y-116802380D01*
X191788095Y-116754761D01*
X191835714Y-116707142D01*
X191835714Y-116373809D01*
X191645238Y-116373809D01*
X192264285Y-116802380D02*
X192264285Y-115802380D01*
X192835714Y-116802380D01*
X192835714Y-115802380D01*
X193311904Y-116802380D02*
X193311904Y-115802380D01*
X193550000Y-115802380D01*
X193692857Y-115850000D01*
X193788095Y-115945238D01*
X193835714Y-116040476D01*
X193883333Y-116230952D01*
X193883333Y-116373809D01*
X193835714Y-116564285D01*
X193788095Y-116659523D01*
X193692857Y-116754761D01*
X193550000Y-116802380D01*
X193311904Y-116802380D01*
X190077380Y-116890476D02*
X189077380Y-116890476D01*
X189172619Y-116461904D02*
X189125000Y-116414285D01*
X189077380Y-116319047D01*
X189077380Y-116080952D01*
X189125000Y-115985714D01*
X189172619Y-115938095D01*
X189267857Y-115890476D01*
X189363095Y-115890476D01*
X189505952Y-115938095D01*
X190077380Y-116509523D01*
X190077380Y-115890476D01*
X189982142Y-115461904D02*
X190029761Y-115414285D01*
X190077380Y-115461904D01*
X190029761Y-115509523D01*
X189982142Y-115461904D01*
X190077380Y-115461904D01*
X189172619Y-115033333D02*
X189125000Y-114985714D01*
X189077380Y-114890476D01*
X189077380Y-114652380D01*
X189125000Y-114557142D01*
X189172619Y-114509523D01*
X189267857Y-114461904D01*
X189363095Y-114461904D01*
X189505952Y-114509523D01*
X190077380Y-115080952D01*
X190077380Y-114461904D01*
X187752380Y-116890476D02*
X186752380Y-116890476D01*
X186847619Y-116461904D02*
X186800000Y-116414285D01*
X186752380Y-116319047D01*
X186752380Y-116080952D01*
X186800000Y-115985714D01*
X186847619Y-115938095D01*
X186942857Y-115890476D01*
X187038095Y-115890476D01*
X187180952Y-115938095D01*
X187752380Y-116509523D01*
X187752380Y-115890476D01*
X187657142Y-115461904D02*
X187704761Y-115414285D01*
X187752380Y-115461904D01*
X187704761Y-115509523D01*
X187657142Y-115461904D01*
X187752380Y-115461904D01*
X187752380Y-114461904D02*
X187752380Y-115033333D01*
X187752380Y-114747619D02*
X186752380Y-114747619D01*
X186895238Y-114842857D01*
X186990476Y-114938095D01*
X187038095Y-115033333D01*
X183159523Y-116977380D02*
X183159523Y-115977380D01*
X184159523Y-116977380D02*
X183588095Y-116977380D01*
X183873809Y-116977380D02*
X183873809Y-115977380D01*
X183778571Y-116120238D01*
X183683333Y-116215476D01*
X183588095Y-116263095D01*
X184588095Y-116882142D02*
X184635714Y-116929761D01*
X184588095Y-116977380D01*
X184540476Y-116929761D01*
X184588095Y-116882142D01*
X184588095Y-116977380D01*
X185016666Y-116072619D02*
X185064285Y-116025000D01*
X185159523Y-115977380D01*
X185397619Y-115977380D01*
X185492857Y-116025000D01*
X185540476Y-116072619D01*
X185588095Y-116167857D01*
X185588095Y-116263095D01*
X185540476Y-116405952D01*
X184969047Y-116977380D01*
X185588095Y-116977380D01*
X182027380Y-116790476D02*
X181027380Y-116790476D01*
X182027380Y-115790476D02*
X182027380Y-116361904D01*
X182027380Y-116076190D02*
X181027380Y-116076190D01*
X181170238Y-116171428D01*
X181265476Y-116266666D01*
X181313095Y-116361904D01*
X181932142Y-115361904D02*
X181979761Y-115314285D01*
X182027380Y-115361904D01*
X181979761Y-115409523D01*
X181932142Y-115361904D01*
X182027380Y-115361904D01*
X182027380Y-114361904D02*
X182027380Y-114933333D01*
X182027380Y-114647619D02*
X181027380Y-114647619D01*
X181170238Y-114742857D01*
X181265476Y-114838095D01*
X181313095Y-114933333D01*
D12*
%TO.C,D11*%
X209550000Y-115900000D02*
X209550000Y-114200000D01*
X209550000Y-114200000D02*
X207000000Y-114200000D01*
X209550000Y-115900000D02*
X207000000Y-115900000D01*
%TO.C,D10*%
X204150000Y-115925000D02*
X204150000Y-114225000D01*
X204150000Y-114225000D02*
X201600000Y-114225000D01*
X204150000Y-115925000D02*
X201600000Y-115925000D01*
%TO.C,12V*%
X217739826Y-110940000D02*
G75*
G03*
X217739826Y-110940000I-1149826J0D01*
G01*
X176327585Y-110260000D02*
G75*
G03*
X176327585Y-110260000I-1137585J0D01*
G01*
%TO.C,GND*%
X171372606Y-110240000D02*
G75*
G03*
X171372606Y-110240000I-1152606J0D01*
G01*
X222760982Y-110980000D02*
G75*
G03*
X222760982Y-110980000I-1170982J0D01*
G01*
%TO.C,B*%
X180600000Y-101400000D02*
G75*
G03*
X180600000Y-101400000I-700000J0D01*
G01*
%TO.C,A*%
X178920000Y-105250000D02*
G75*
G03*
X178920000Y-105250000I-700000J0D01*
G01*
D13*
%TO.C,C8*%
X187500000Y-100630000D02*
X191000000Y-100630000D01*
X191000000Y-97830000D02*
X186875000Y-97830000D01*
%TO.C,IC5*%
X220260000Y-95350000D02*
X220260000Y-96945000D01*
X214760000Y-97295000D02*
X220600000Y-97295000D01*
X214760000Y-100505000D02*
X214760000Y-97295000D01*
X220600000Y-100505000D02*
X214760000Y-100505000D01*
X220600000Y-97295000D02*
X220600000Y-100505000D01*
D12*
%TO.C,GND*%
X217050000Y-91080000D02*
G75*
G03*
X217050000Y-91080000I-700000J0D01*
G01*
%TO.C,D4*%
X186760000Y-110810000D02*
X192160000Y-110810000D01*
X186760000Y-114110000D02*
X192160000Y-114110000D01*
X186760000Y-110810000D02*
X186760000Y-114110000D01*
D13*
%TO.C,FB1*%
X189650000Y-108260000D02*
X191050000Y-108260000D01*
D12*
%TO.C,A*%
X214290000Y-105940000D02*
G75*
G03*
X214290000Y-105940000I-700000J0D01*
G01*
D13*
%TO.C,FB2*%
X205350000Y-100930000D02*
X205350000Y-99530000D01*
%TO.C,IC3*%
X198495000Y-101710000D02*
X200020000Y-101710000D01*
X200370000Y-106740000D02*
X200370000Y-101840000D01*
X203570000Y-106740000D02*
X200370000Y-106740000D01*
X203570000Y-101840000D02*
X203570000Y-106740000D01*
X200370000Y-101840000D02*
X203570000Y-101840000D01*
D12*
%TO.C,C9*%
X191240000Y-104161252D02*
X191240000Y-102738748D01*
X189420000Y-104161252D02*
X189420000Y-102738748D01*
%TO.C,B*%
X212790000Y-101940000D02*
G75*
G03*
X212790000Y-101940000I-700000J0D01*
G01*
D13*
%TO.C,D3*%
X181800000Y-111050000D02*
X179100000Y-111050000D01*
X181830000Y-112650000D02*
X179100000Y-112650000D01*
D12*
%TO.C,C12*%
X208000000Y-101008748D02*
X208000000Y-102431252D01*
X209820000Y-101008748D02*
X209820000Y-102431252D01*
D13*
%TO.C,IC4*%
X183600000Y-90650000D02*
X184200000Y-90650000D01*
X184200000Y-90650000D02*
X184200000Y-93550000D01*
X184200000Y-93550000D02*
X183600000Y-93550000D01*
X183600000Y-93550000D02*
X183600000Y-90650000D01*
X182050000Y-90500000D02*
X183250000Y-90500000D01*
%TO.C,D8*%
X175300000Y-96322400D02*
X175300000Y-93550000D01*
X176900000Y-96250000D02*
X176900000Y-93550000D01*
%TO.C,IC1*%
X202570000Y-96040000D02*
X196270000Y-96040000D01*
X196270000Y-96040000D02*
X196270000Y-89740000D01*
X196270000Y-89740000D02*
X202570000Y-89740000D01*
X202570000Y-89740000D02*
X202570000Y-96040000D01*
D14*
X204220000Y-96890000D02*
G75*
G03*
X204220000Y-96890000I-200000J0D01*
G01*
D12*
%TO.C,R6*%
X182953641Y-89220000D02*
X182646359Y-89220000D01*
X182953641Y-89980000D02*
X182646359Y-89980000D01*
%TO.C,R5*%
X217696359Y-94860000D02*
X218003641Y-94860000D01*
X217696359Y-94100000D02*
X218003641Y-94100000D01*
%TO.C,C4*%
X192142164Y-92820000D02*
X192357836Y-92820000D01*
X192142164Y-92100000D02*
X192357836Y-92100000D01*
%TO.C,R4*%
X215136359Y-94870000D02*
X215443641Y-94870000D01*
X215136359Y-94110000D02*
X215443641Y-94110000D01*
%TO.C,C10*%
X183488748Y-101410000D02*
X184911252Y-101410000D01*
X183488748Y-99590000D02*
X184911252Y-99590000D01*
%TO.C,R2*%
X199066359Y-100430000D02*
X199373641Y-100430000D01*
X199066359Y-101190000D02*
X199373641Y-101190000D01*
%TO.C,C2*%
X205897836Y-96670000D02*
X205682164Y-96670000D01*
X205897836Y-97390000D02*
X205682164Y-97390000D01*
D13*
%TO.C,RV1*%
X185740000Y-113300000D02*
X184340000Y-113300000D01*
D12*
%TO.C,L1*%
X190294758Y-89710000D02*
X191965242Y-89710000D01*
X190294758Y-87890000D02*
X191965242Y-87890000D01*
%TO.C,R3*%
X192030000Y-94523641D02*
X192030000Y-94216359D01*
X191270000Y-94523641D02*
X191270000Y-94216359D01*
D13*
%TO.C,U1*%
X210434000Y-108110000D02*
X210434000Y-108110000D01*
X210434000Y-108110000D02*
X210434000Y-108110000D01*
X209550000Y-104540000D02*
X208702000Y-104540000D01*
X209550000Y-104540000D02*
X209550000Y-104540000D01*
X208702000Y-104540000D02*
X209550000Y-104540000D01*
X208702000Y-104540000D02*
X208702000Y-104540000D01*
X208750000Y-107400000D02*
X209550000Y-107400000D01*
X208750000Y-107400000D02*
X208750000Y-107400000D01*
X209550000Y-107400000D02*
X208750000Y-107400000D01*
X209550000Y-107400000D02*
X209550000Y-107400000D01*
X208702000Y-104940000D02*
X208702000Y-104940000D01*
X208702000Y-104540000D02*
X208702000Y-104940000D01*
X208702000Y-104540000D02*
X208702000Y-104540000D01*
X208702000Y-104940000D02*
X208702000Y-104540000D01*
X208750000Y-107400000D02*
X208702000Y-107400000D01*
X208750000Y-106940000D02*
X208750000Y-107400000D01*
X208702000Y-106940000D02*
X208750000Y-106940000D01*
X208702000Y-107400000D02*
X208702000Y-106940000D01*
X210334000Y-108110000D02*
G75*
G02*
X210434000Y-108110000I50000J0D01*
G01*
X210434000Y-108110000D02*
G75*
G02*
X210334000Y-108110000I-50000J0D01*
G01*
X210334000Y-108110000D02*
G75*
G02*
X210434000Y-108110000I50000J0D01*
G01*
D12*
%TO.C,R7*%
X192440000Y-94216359D02*
X192440000Y-94523641D01*
X193200000Y-94216359D02*
X193200000Y-94523641D01*
%TO.C,D5*%
X207590000Y-103830000D02*
X207590000Y-106380000D01*
X205890000Y-103830000D02*
X205890000Y-106380000D01*
X207590000Y-103830000D02*
X205890000Y-103830000D01*
%TO.C,R1*%
X197800000Y-102543641D02*
X197800000Y-102236359D01*
X197040000Y-102543641D02*
X197040000Y-102236359D01*
D13*
%TO.C,IC2*%
X188625000Y-102075000D02*
X188625000Y-103825000D01*
X182250000Y-104350000D02*
X188750000Y-104350000D01*
X182250000Y-107850000D02*
X182250000Y-104350000D01*
X188750000Y-107850000D02*
X182250000Y-107850000D01*
X188750000Y-104350000D02*
X188750000Y-107850000D01*
D12*
%TO.C,R8*%
X183153641Y-94120000D02*
X182846359Y-94120000D01*
X183153641Y-94880000D02*
X182846359Y-94880000D01*
%TO.C,D7*%
X178675000Y-91575000D02*
X180375000Y-91575000D01*
X180375000Y-91575000D02*
X180375000Y-89025000D01*
X178675000Y-91575000D02*
X178675000Y-89025000D01*
%TO.C,C5*%
X192327836Y-90520000D02*
X192112164Y-90520000D01*
X192327836Y-91240000D02*
X192112164Y-91240000D01*
D10*
%TO.C,Y1*%
X211730000Y-96490000D02*
X212330000Y-96490000D01*
X211730000Y-96490000D02*
X211730000Y-96490000D01*
X212330000Y-96490000D02*
X211730000Y-96490000D01*
X212330000Y-96490000D02*
X212330000Y-96490000D01*
X212330000Y-85090000D02*
X212330000Y-85090000D01*
X212330000Y-96490000D02*
X212330000Y-85090000D01*
X212330000Y-96490000D02*
X212330000Y-96490000D01*
X212330000Y-85090000D02*
X212330000Y-96490000D01*
X212330000Y-85090000D02*
X211730000Y-85090000D01*
X212330000Y-85090000D02*
X212330000Y-85090000D01*
X211730000Y-85090000D02*
X212330000Y-85090000D01*
X211730000Y-85090000D02*
X211730000Y-85090000D01*
X208230000Y-85090000D02*
X207630000Y-85090000D01*
X208230000Y-85090000D02*
X208230000Y-85090000D01*
X207630000Y-85090000D02*
X208230000Y-85090000D01*
X207630000Y-85090000D02*
X207630000Y-85090000D01*
X207630000Y-96490000D02*
X207630000Y-96490000D01*
X207630000Y-85090000D02*
X207630000Y-96490000D01*
X207630000Y-85090000D02*
X207630000Y-85090000D01*
X207630000Y-96490000D02*
X207630000Y-85090000D01*
X207630000Y-96490000D02*
X208230000Y-96490000D01*
X207630000Y-96490000D02*
X207630000Y-96490000D01*
X208230000Y-96490000D02*
X207630000Y-96490000D01*
X208230000Y-96490000D02*
X208230000Y-96490000D01*
D12*
%TO.C,C3*%
X206805000Y-96180000D02*
X206805000Y-92270000D01*
X204935000Y-96180000D02*
X206805000Y-96180000D01*
X204935000Y-92270000D02*
X204935000Y-96180000D01*
%TO.C,C13*%
X181460000Y-90707836D02*
X181460000Y-90492164D01*
X180740000Y-90707836D02*
X180740000Y-90492164D01*
%TO.C,C16*%
X187407836Y-92960000D02*
X187192164Y-92960000D01*
X187407836Y-92240000D02*
X187192164Y-92240000D01*
D10*
%TO.C,D1*%
X193520000Y-103240000D02*
X195320000Y-103240000D01*
X193520000Y-101840000D02*
X195320000Y-101840000D01*
D13*
%TO.C,D2*%
X195970000Y-99575000D02*
X192950000Y-99580000D01*
X195974000Y-101112000D02*
X192940000Y-101110000D01*
D12*
%TO.C,C1*%
X197880000Y-100447836D02*
X197880000Y-100232164D01*
X197160000Y-100447836D02*
X197160000Y-100232164D01*
%TO.C,TP3*%
X198536155Y-98820000D02*
G75*
G03*
X198536155Y-98820000I-336155J0D01*
G01*
%TO.C,C11*%
X206622164Y-102030000D02*
X206837836Y-102030000D01*
X206622164Y-102750000D02*
X206837836Y-102750000D01*
%TO.C,C15*%
X187407836Y-91860000D02*
X187192164Y-91860000D01*
X187407836Y-91140000D02*
X187192164Y-91140000D01*
D13*
%TO.C,D6*%
X172187200Y-96246200D02*
X172187200Y-93579200D01*
X173800000Y-96250000D02*
X173800000Y-93550000D01*
D12*
%TO.C,D9*%
X180350000Y-92600000D02*
X178650000Y-92600000D01*
X178650000Y-92600000D02*
X178650000Y-95150000D01*
X180350000Y-92600000D02*
X180350000Y-95150000D01*
%TO.C,C7*%
X213210000Y-87962164D02*
X213210000Y-88177836D01*
X213930000Y-87962164D02*
X213930000Y-88177836D01*
%TO.C,C14*%
X180740000Y-93492164D02*
X180740000Y-93707836D01*
X181460000Y-93492164D02*
X181460000Y-93707836D01*
%TO.C,C6*%
X213960000Y-93567836D02*
X213960000Y-93352164D01*
X213240000Y-93567836D02*
X213240000Y-93352164D01*
D15*
%TO.C,G\u002A\u002A\u002A*%
G36*
X231086000Y-105301333D02*
G01*
X226598667Y-105301333D01*
X226598667Y-104776350D01*
X226683333Y-104776350D01*
X226714681Y-104964197D01*
X226824424Y-105092366D01*
X227036107Y-105170598D01*
X227373278Y-105208633D01*
X227747714Y-105216667D01*
X228546000Y-105216667D01*
X228546000Y-104539333D01*
X228077676Y-104539333D01*
X227764592Y-104521186D01*
X227597752Y-104463694D01*
X227562963Y-104418445D01*
X227567009Y-104290763D01*
X227617577Y-104053292D01*
X227702562Y-103742644D01*
X227809859Y-103395428D01*
X227927367Y-103048255D01*
X228042979Y-102737737D01*
X228144594Y-102500482D01*
X228220106Y-102373102D01*
X228242992Y-102361558D01*
X228297699Y-102447453D01*
X228392874Y-102668384D01*
X228518340Y-102997805D01*
X228663917Y-103409168D01*
X228795764Y-103803116D01*
X229257195Y-105216667D01*
X229630322Y-105216667D01*
X229873168Y-105200219D01*
X229965858Y-105147422D01*
X229963077Y-105110833D01*
X229926365Y-105003040D01*
X229845307Y-104758137D01*
X229727763Y-104400096D01*
X229581591Y-103952892D01*
X229414649Y-103440499D01*
X229309820Y-103118016D01*
X229130461Y-102576455D01*
X228961101Y-102084927D01*
X228810670Y-101667800D01*
X228688094Y-101349441D01*
X228602301Y-101154217D01*
X228573087Y-101107183D01*
X228357237Y-100998181D01*
X228097911Y-101008011D01*
X227929793Y-101089167D01*
X227866932Y-101195348D01*
X227764603Y-101434550D01*
X227632603Y-101777785D01*
X227480733Y-102196065D01*
X227318791Y-102660404D01*
X227156576Y-103141815D01*
X227003888Y-103611310D01*
X226870526Y-104039901D01*
X226766288Y-104398603D01*
X226700975Y-104658427D01*
X226683333Y-104776350D01*
X226598667Y-104776350D01*
X226598667Y-100983333D01*
X229477333Y-100983333D01*
X229477333Y-101322000D01*
X229485790Y-101538782D01*
X229542113Y-101635111D01*
X229692732Y-101659860D01*
X229799066Y-101660666D01*
X230036120Y-101685941D01*
X230205192Y-101748168D01*
X230222400Y-101762266D01*
X230261383Y-101863852D01*
X230290350Y-102088124D01*
X230309980Y-102447011D01*
X230320957Y-102952441D01*
X230324000Y-103540266D01*
X230324000Y-105216667D01*
X231001333Y-105216667D01*
X231001333Y-103269333D01*
X231000860Y-102588663D01*
X230994336Y-102058521D01*
X230974102Y-101660109D01*
X230932500Y-101374628D01*
X230861872Y-101183281D01*
X230754558Y-101067270D01*
X230602901Y-101007797D01*
X230399242Y-100986064D01*
X230135922Y-100983272D01*
X230070000Y-100983333D01*
X229477333Y-100983333D01*
X226598667Y-100983333D01*
X226598667Y-100898667D01*
X231086000Y-100898667D01*
X231086000Y-105301333D01*
G37*
X231086000Y-105301333D02*
X226598667Y-105301333D01*
X226598667Y-104776350D01*
X226683333Y-104776350D01*
X226714681Y-104964197D01*
X226824424Y-105092366D01*
X227036107Y-105170598D01*
X227373278Y-105208633D01*
X227747714Y-105216667D01*
X228546000Y-105216667D01*
X228546000Y-104539333D01*
X228077676Y-104539333D01*
X227764592Y-104521186D01*
X227597752Y-104463694D01*
X227562963Y-104418445D01*
X227567009Y-104290763D01*
X227617577Y-104053292D01*
X227702562Y-103742644D01*
X227809859Y-103395428D01*
X227927367Y-103048255D01*
X228042979Y-102737737D01*
X228144594Y-102500482D01*
X228220106Y-102373102D01*
X228242992Y-102361558D01*
X228297699Y-102447453D01*
X228392874Y-102668384D01*
X228518340Y-102997805D01*
X228663917Y-103409168D01*
X228795764Y-103803116D01*
X229257195Y-105216667D01*
X229630322Y-105216667D01*
X229873168Y-105200219D01*
X229965858Y-105147422D01*
X229963077Y-105110833D01*
X229926365Y-105003040D01*
X229845307Y-104758137D01*
X229727763Y-104400096D01*
X229581591Y-103952892D01*
X229414649Y-103440499D01*
X229309820Y-103118016D01*
X229130461Y-102576455D01*
X228961101Y-102084927D01*
X228810670Y-101667800D01*
X228688094Y-101349441D01*
X228602301Y-101154217D01*
X228573087Y-101107183D01*
X228357237Y-100998181D01*
X228097911Y-101008011D01*
X227929793Y-101089167D01*
X227866932Y-101195348D01*
X227764603Y-101434550D01*
X227632603Y-101777785D01*
X227480733Y-102196065D01*
X227318791Y-102660404D01*
X227156576Y-103141815D01*
X227003888Y-103611310D01*
X226870526Y-104039901D01*
X226766288Y-104398603D01*
X226700975Y-104658427D01*
X226683333Y-104776350D01*
X226598667Y-104776350D01*
X226598667Y-100983333D01*
X229477333Y-100983333D01*
X229477333Y-101322000D01*
X229485790Y-101538782D01*
X229542113Y-101635111D01*
X229692732Y-101659860D01*
X229799066Y-101660666D01*
X230036120Y-101685941D01*
X230205192Y-101748168D01*
X230222400Y-101762266D01*
X230261383Y-101863852D01*
X230290350Y-102088124D01*
X230309980Y-102447011D01*
X230320957Y-102952441D01*
X230324000Y-103540266D01*
X230324000Y-105216667D01*
X231001333Y-105216667D01*
X231001333Y-103269333D01*
X231000860Y-102588663D01*
X230994336Y-102058521D01*
X230974102Y-101660109D01*
X230932500Y-101374628D01*
X230861872Y-101183281D01*
X230754558Y-101067270D01*
X230602901Y-101007797D01*
X230399242Y-100986064D01*
X230135922Y-100983272D01*
X230070000Y-100983333D01*
X229477333Y-100983333D01*
X226598667Y-100983333D01*
X226598667Y-100898667D01*
X231086000Y-100898667D01*
X231086000Y-105301333D01*
G36*
X164986000Y-105301333D02*
G01*
X160498667Y-105301333D01*
X160498667Y-104776350D01*
X160583333Y-104776350D01*
X160614681Y-104964197D01*
X160724424Y-105092366D01*
X160936107Y-105170598D01*
X161273278Y-105208633D01*
X161647714Y-105216667D01*
X162446000Y-105216667D01*
X162446000Y-104539333D01*
X161977676Y-104539333D01*
X161664592Y-104521186D01*
X161497752Y-104463694D01*
X161462963Y-104418445D01*
X161467009Y-104290763D01*
X161517577Y-104053292D01*
X161602562Y-103742644D01*
X161709859Y-103395428D01*
X161827367Y-103048255D01*
X161942979Y-102737737D01*
X162044594Y-102500482D01*
X162120106Y-102373102D01*
X162142992Y-102361558D01*
X162197699Y-102447453D01*
X162292874Y-102668384D01*
X162418340Y-102997805D01*
X162563917Y-103409168D01*
X162695764Y-103803116D01*
X163157195Y-105216667D01*
X163530322Y-105216667D01*
X163773168Y-105200219D01*
X163865858Y-105147422D01*
X163863077Y-105110833D01*
X163826365Y-105003040D01*
X163745307Y-104758137D01*
X163627763Y-104400096D01*
X163481591Y-103952892D01*
X163314649Y-103440499D01*
X163209820Y-103118016D01*
X163030461Y-102576455D01*
X162861101Y-102084927D01*
X162710670Y-101667800D01*
X162588094Y-101349441D01*
X162502301Y-101154217D01*
X162473087Y-101107183D01*
X162257237Y-100998181D01*
X161997911Y-101008011D01*
X161829793Y-101089167D01*
X161766932Y-101195348D01*
X161664603Y-101434550D01*
X161532603Y-101777785D01*
X161380733Y-102196065D01*
X161218791Y-102660404D01*
X161056576Y-103141815D01*
X160903888Y-103611310D01*
X160770526Y-104039901D01*
X160666288Y-104398603D01*
X160600975Y-104658427D01*
X160583333Y-104776350D01*
X160498667Y-104776350D01*
X160498667Y-100983333D01*
X163377333Y-100983333D01*
X163377333Y-101322000D01*
X163385790Y-101538782D01*
X163442113Y-101635111D01*
X163592732Y-101659860D01*
X163699066Y-101660666D01*
X163936120Y-101685941D01*
X164105192Y-101748168D01*
X164122400Y-101762266D01*
X164161383Y-101863852D01*
X164190350Y-102088124D01*
X164209980Y-102447011D01*
X164220957Y-102952441D01*
X164224000Y-103540266D01*
X164224000Y-105216667D01*
X164901333Y-105216667D01*
X164901333Y-103269333D01*
X164900860Y-102588663D01*
X164894336Y-102058521D01*
X164874102Y-101660109D01*
X164832500Y-101374628D01*
X164761872Y-101183281D01*
X164654558Y-101067270D01*
X164502901Y-101007797D01*
X164299242Y-100986064D01*
X164035922Y-100983272D01*
X163970000Y-100983333D01*
X163377333Y-100983333D01*
X160498667Y-100983333D01*
X160498667Y-100898667D01*
X164986000Y-100898667D01*
X164986000Y-105301333D01*
G37*
X164986000Y-105301333D02*
X160498667Y-105301333D01*
X160498667Y-104776350D01*
X160583333Y-104776350D01*
X160614681Y-104964197D01*
X160724424Y-105092366D01*
X160936107Y-105170598D01*
X161273278Y-105208633D01*
X161647714Y-105216667D01*
X162446000Y-105216667D01*
X162446000Y-104539333D01*
X161977676Y-104539333D01*
X161664592Y-104521186D01*
X161497752Y-104463694D01*
X161462963Y-104418445D01*
X161467009Y-104290763D01*
X161517577Y-104053292D01*
X161602562Y-103742644D01*
X161709859Y-103395428D01*
X161827367Y-103048255D01*
X161942979Y-102737737D01*
X162044594Y-102500482D01*
X162120106Y-102373102D01*
X162142992Y-102361558D01*
X162197699Y-102447453D01*
X162292874Y-102668384D01*
X162418340Y-102997805D01*
X162563917Y-103409168D01*
X162695764Y-103803116D01*
X163157195Y-105216667D01*
X163530322Y-105216667D01*
X163773168Y-105200219D01*
X163865858Y-105147422D01*
X163863077Y-105110833D01*
X163826365Y-105003040D01*
X163745307Y-104758137D01*
X163627763Y-104400096D01*
X163481591Y-103952892D01*
X163314649Y-103440499D01*
X163209820Y-103118016D01*
X163030461Y-102576455D01*
X162861101Y-102084927D01*
X162710670Y-101667800D01*
X162588094Y-101349441D01*
X162502301Y-101154217D01*
X162473087Y-101107183D01*
X162257237Y-100998181D01*
X161997911Y-101008011D01*
X161829793Y-101089167D01*
X161766932Y-101195348D01*
X161664603Y-101434550D01*
X161532603Y-101777785D01*
X161380733Y-102196065D01*
X161218791Y-102660404D01*
X161056576Y-103141815D01*
X160903888Y-103611310D01*
X160770526Y-104039901D01*
X160666288Y-104398603D01*
X160600975Y-104658427D01*
X160583333Y-104776350D01*
X160498667Y-104776350D01*
X160498667Y-100983333D01*
X163377333Y-100983333D01*
X163377333Y-101322000D01*
X163385790Y-101538782D01*
X163442113Y-101635111D01*
X163592732Y-101659860D01*
X163699066Y-101660666D01*
X163936120Y-101685941D01*
X164105192Y-101748168D01*
X164122400Y-101762266D01*
X164161383Y-101863852D01*
X164190350Y-102088124D01*
X164209980Y-102447011D01*
X164220957Y-102952441D01*
X164224000Y-103540266D01*
X164224000Y-105216667D01*
X164901333Y-105216667D01*
X164901333Y-103269333D01*
X164900860Y-102588663D01*
X164894336Y-102058521D01*
X164874102Y-101660109D01*
X164832500Y-101374628D01*
X164761872Y-101183281D01*
X164654558Y-101067270D01*
X164502901Y-101007797D01*
X164299242Y-100986064D01*
X164035922Y-100983272D01*
X163970000Y-100983333D01*
X163377333Y-100983333D01*
X160498667Y-100983333D01*
X160498667Y-100898667D01*
X164986000Y-100898667D01*
X164986000Y-105301333D01*
D12*
%TO.C,H1*%
X175640491Y-85760000D02*
G75*
G03*
X175640491Y-85760000I-1630491J0D01*
G01*
%TO.C,H4*%
X226400767Y-114780000D02*
G75*
G03*
X226400767Y-114780000I-1630767J0D01*
G01*
%TO.C,H3*%
X168400030Y-114780000D02*
G75*
G03*
X168400030Y-114780000I-1640030J0D01*
G01*
%TO.C,H2*%
X219140031Y-85760000D02*
G75*
G03*
X219140031Y-85760000I-1620031J0D01*
G01*
%TO.C,GND*%
X222250000Y-105770000D02*
G75*
G03*
X222250000Y-105770000I-700000J0D01*
G01*
X170900000Y-105010000D02*
G75*
G03*
X170900000Y-105010000I-700000J0D01*
G01*
D10*
%TO.C,J3*%
X210990000Y-117250000D02*
X197830000Y-117250000D01*
X197830000Y-117250000D02*
X197830000Y-123750000D01*
X197830000Y-123750000D02*
X210990000Y-123750000D01*
X210990000Y-123750000D02*
X210990000Y-117250000D01*
%TO.C,J2*%
X180540000Y-123740000D02*
X193700000Y-123740000D01*
X193700000Y-123740000D02*
X193700000Y-117240000D01*
X193700000Y-117240000D02*
X180540000Y-117240000D01*
X180540000Y-117240000D02*
X180540000Y-123740000D01*
D12*
%TO.C,J1*%
X189534000Y-84860000D02*
X188204000Y-84860000D01*
X188204000Y-84860000D02*
X188204000Y-83530000D01*
X190550000Y-82200000D02*
X203310000Y-82200000D01*
X203310000Y-84860000D02*
X203310000Y-82200000D01*
X190550000Y-84860000D02*
X203310000Y-84860000D01*
X190550000Y-84860000D02*
X190550000Y-82200000D01*
%TO.C,D11*%
D11*
X206835714Y-117352380D02*
X206835714Y-116352380D01*
X207073809Y-116352380D01*
X207216666Y-116400000D01*
X207311904Y-116495238D01*
X207359523Y-116590476D01*
X207407142Y-116780952D01*
X207407142Y-116923809D01*
X207359523Y-117114285D01*
X207311904Y-117209523D01*
X207216666Y-117304761D01*
X207073809Y-117352380D01*
X206835714Y-117352380D01*
X208359523Y-117352380D02*
X207788095Y-117352380D01*
X208073809Y-117352380D02*
X208073809Y-116352380D01*
X207978571Y-116495238D01*
X207883333Y-116590476D01*
X207788095Y-116638095D01*
X209311904Y-117352380D02*
X208740476Y-117352380D01*
X209026190Y-117352380D02*
X209026190Y-116352380D01*
X208930952Y-116495238D01*
X208835714Y-116590476D01*
X208740476Y-116638095D01*
%TO.C,D10*%
X201435714Y-117377380D02*
X201435714Y-116377380D01*
X201673809Y-116377380D01*
X201816666Y-116425000D01*
X201911904Y-116520238D01*
X201959523Y-116615476D01*
X202007142Y-116805952D01*
X202007142Y-116948809D01*
X201959523Y-117139285D01*
X201911904Y-117234523D01*
X201816666Y-117329761D01*
X201673809Y-117377380D01*
X201435714Y-117377380D01*
X202959523Y-117377380D02*
X202388095Y-117377380D01*
X202673809Y-117377380D02*
X202673809Y-116377380D01*
X202578571Y-116520238D01*
X202483333Y-116615476D01*
X202388095Y-116663095D01*
X203578571Y-116377380D02*
X203673809Y-116377380D01*
X203769047Y-116425000D01*
X203816666Y-116472619D01*
X203864285Y-116567857D01*
X203911904Y-116758333D01*
X203911904Y-116996428D01*
X203864285Y-117186904D01*
X203816666Y-117282142D01*
X203769047Y-117329761D01*
X203673809Y-117377380D01*
X203578571Y-117377380D01*
X203483333Y-117329761D01*
X203435714Y-117282142D01*
X203388095Y-117186904D01*
X203340476Y-116996428D01*
X203340476Y-116758333D01*
X203388095Y-116567857D01*
X203435714Y-116472619D01*
X203483333Y-116425000D01*
X203578571Y-116377380D01*
%TO.C,12V*%
D10*
X216254761Y-114836904D02*
X215797619Y-114836904D01*
X216026190Y-114836904D02*
X216026190Y-114036904D01*
X215950000Y-114151190D01*
X215873809Y-114227380D01*
X215797619Y-114265476D01*
X216559523Y-114113095D02*
X216597619Y-114075000D01*
X216673809Y-114036904D01*
X216864285Y-114036904D01*
X216940476Y-114075000D01*
X216978571Y-114113095D01*
X217016666Y-114189285D01*
X217016666Y-114265476D01*
X216978571Y-114379761D01*
X216521428Y-114836904D01*
X217016666Y-114836904D01*
X217245238Y-114036904D02*
X217511904Y-114836904D01*
X217778571Y-114036904D01*
X174704761Y-114261904D02*
X174247619Y-114261904D01*
X174476190Y-114261904D02*
X174476190Y-113461904D01*
X174400000Y-113576190D01*
X174323809Y-113652380D01*
X174247619Y-113690476D01*
X175009523Y-113538095D02*
X175047619Y-113500000D01*
X175123809Y-113461904D01*
X175314285Y-113461904D01*
X175390476Y-113500000D01*
X175428571Y-113538095D01*
X175466666Y-113614285D01*
X175466666Y-113690476D01*
X175428571Y-113804761D01*
X174971428Y-114261904D01*
X175466666Y-114261904D01*
X175695238Y-113461904D02*
X175961904Y-114261904D01*
X176228571Y-113461904D01*
%TO.C,GND*%
X166290476Y-109900000D02*
X166214285Y-109861904D01*
X166100000Y-109861904D01*
X165985714Y-109900000D01*
X165909523Y-109976190D01*
X165871428Y-110052380D01*
X165833333Y-110204761D01*
X165833333Y-110319047D01*
X165871428Y-110471428D01*
X165909523Y-110547619D01*
X165985714Y-110623809D01*
X166100000Y-110661904D01*
X166176190Y-110661904D01*
X166290476Y-110623809D01*
X166328571Y-110585714D01*
X166328571Y-110319047D01*
X166176190Y-110319047D01*
X166671428Y-110661904D02*
X166671428Y-109861904D01*
X167128571Y-110661904D01*
X167128571Y-109861904D01*
X167509523Y-110661904D02*
X167509523Y-109861904D01*
X167700000Y-109861904D01*
X167814285Y-109900000D01*
X167890476Y-109976190D01*
X167928571Y-110052380D01*
X167966666Y-110204761D01*
X167966666Y-110319047D01*
X167928571Y-110471428D01*
X167890476Y-110547619D01*
X167814285Y-110623809D01*
X167700000Y-110661904D01*
X167509523Y-110661904D01*
X223990476Y-110600000D02*
X223914285Y-110561904D01*
X223800000Y-110561904D01*
X223685714Y-110600000D01*
X223609523Y-110676190D01*
X223571428Y-110752380D01*
X223533333Y-110904761D01*
X223533333Y-111019047D01*
X223571428Y-111171428D01*
X223609523Y-111247619D01*
X223685714Y-111323809D01*
X223800000Y-111361904D01*
X223876190Y-111361904D01*
X223990476Y-111323809D01*
X224028571Y-111285714D01*
X224028571Y-111019047D01*
X223876190Y-111019047D01*
X224371428Y-111361904D02*
X224371428Y-110561904D01*
X224828571Y-111361904D01*
X224828571Y-110561904D01*
X225209523Y-111361904D02*
X225209523Y-110561904D01*
X225400000Y-110561904D01*
X225514285Y-110600000D01*
X225590476Y-110676190D01*
X225628571Y-110752380D01*
X225666666Y-110904761D01*
X225666666Y-111019047D01*
X225628571Y-111171428D01*
X225590476Y-111247619D01*
X225514285Y-111323809D01*
X225400000Y-111361904D01*
X225209523Y-111361904D01*
%TO.C,B*%
X177557142Y-101442857D02*
X177671428Y-101480952D01*
X177709523Y-101519047D01*
X177747619Y-101595238D01*
X177747619Y-101709523D01*
X177709523Y-101785714D01*
X177671428Y-101823809D01*
X177595238Y-101861904D01*
X177290476Y-101861904D01*
X177290476Y-101061904D01*
X177557142Y-101061904D01*
X177633333Y-101100000D01*
X177671428Y-101138095D01*
X177709523Y-101214285D01*
X177709523Y-101290476D01*
X177671428Y-101366666D01*
X177633333Y-101404761D01*
X177557142Y-101442857D01*
X177290476Y-101442857D01*
%TO.C,A*%
X175509523Y-105333333D02*
X175890476Y-105333333D01*
X175433333Y-105561904D02*
X175700000Y-104761904D01*
X175966666Y-105561904D01*
%TO.C,C8*%
X188966666Y-97385714D02*
X188928571Y-97423809D01*
X188814285Y-97461904D01*
X188738095Y-97461904D01*
X188623809Y-97423809D01*
X188547619Y-97347619D01*
X188509523Y-97271428D01*
X188471428Y-97119047D01*
X188471428Y-97004761D01*
X188509523Y-96852380D01*
X188547619Y-96776190D01*
X188623809Y-96700000D01*
X188738095Y-96661904D01*
X188814285Y-96661904D01*
X188928571Y-96700000D01*
X188966666Y-96738095D01*
X189423809Y-97004761D02*
X189347619Y-96966666D01*
X189309523Y-96928571D01*
X189271428Y-96852380D01*
X189271428Y-96814285D01*
X189309523Y-96738095D01*
X189347619Y-96700000D01*
X189423809Y-96661904D01*
X189576190Y-96661904D01*
X189652380Y-96700000D01*
X189690476Y-96738095D01*
X189728571Y-96814285D01*
X189728571Y-96852380D01*
X189690476Y-96928571D01*
X189652380Y-96966666D01*
X189576190Y-97004761D01*
X189423809Y-97004761D01*
X189347619Y-97042857D01*
X189309523Y-97080952D01*
X189271428Y-97157142D01*
X189271428Y-97309523D01*
X189309523Y-97385714D01*
X189347619Y-97423809D01*
X189423809Y-97461904D01*
X189576190Y-97461904D01*
X189652380Y-97423809D01*
X189690476Y-97385714D01*
X189728571Y-97309523D01*
X189728571Y-97157142D01*
X189690476Y-97080952D01*
X189652380Y-97042857D01*
X189576190Y-97004761D01*
%TO.C,IC5*%
X221219047Y-101761904D02*
X221219047Y-100961904D01*
X222057142Y-101685714D02*
X222019047Y-101723809D01*
X221904761Y-101761904D01*
X221828571Y-101761904D01*
X221714285Y-101723809D01*
X221638095Y-101647619D01*
X221600000Y-101571428D01*
X221561904Y-101419047D01*
X221561904Y-101304761D01*
X221600000Y-101152380D01*
X221638095Y-101076190D01*
X221714285Y-101000000D01*
X221828571Y-100961904D01*
X221904761Y-100961904D01*
X222019047Y-101000000D01*
X222057142Y-101038095D01*
X222780952Y-100961904D02*
X222400000Y-100961904D01*
X222361904Y-101342857D01*
X222400000Y-101304761D01*
X222476190Y-101266666D01*
X222666666Y-101266666D01*
X222742857Y-101304761D01*
X222780952Y-101342857D01*
X222819047Y-101419047D01*
X222819047Y-101609523D01*
X222780952Y-101685714D01*
X222742857Y-101723809D01*
X222666666Y-101761904D01*
X222476190Y-101761904D01*
X222400000Y-101723809D01*
X222361904Y-101685714D01*
%TO.C,GND*%
X215690476Y-89200000D02*
X215614285Y-89161904D01*
X215500000Y-89161904D01*
X215385714Y-89200000D01*
X215309523Y-89276190D01*
X215271428Y-89352380D01*
X215233333Y-89504761D01*
X215233333Y-89619047D01*
X215271428Y-89771428D01*
X215309523Y-89847619D01*
X215385714Y-89923809D01*
X215500000Y-89961904D01*
X215576190Y-89961904D01*
X215690476Y-89923809D01*
X215728571Y-89885714D01*
X215728571Y-89619047D01*
X215576190Y-89619047D01*
X216071428Y-89961904D02*
X216071428Y-89161904D01*
X216528571Y-89961904D01*
X216528571Y-89161904D01*
X216909523Y-89961904D02*
X216909523Y-89161904D01*
X217100000Y-89161904D01*
X217214285Y-89200000D01*
X217290476Y-89276190D01*
X217328571Y-89352380D01*
X217366666Y-89504761D01*
X217366666Y-89619047D01*
X217328571Y-89771428D01*
X217290476Y-89847619D01*
X217214285Y-89923809D01*
X217100000Y-89961904D01*
X216909523Y-89961904D01*
%TO.C,D4*%
X189569523Y-110321904D02*
X189569523Y-109521904D01*
X189760000Y-109521904D01*
X189874285Y-109560000D01*
X189950476Y-109636190D01*
X189988571Y-109712380D01*
X190026666Y-109864761D01*
X190026666Y-109979047D01*
X189988571Y-110131428D01*
X189950476Y-110207619D01*
X189874285Y-110283809D01*
X189760000Y-110321904D01*
X189569523Y-110321904D01*
X190712380Y-109788571D02*
X190712380Y-110321904D01*
X190521904Y-109483809D02*
X190331428Y-110055238D01*
X190826666Y-110055238D01*
%TO.C,FB1*%
X192033333Y-108242857D02*
X191766666Y-108242857D01*
X191766666Y-108661904D02*
X191766666Y-107861904D01*
X192147619Y-107861904D01*
X192719047Y-108242857D02*
X192833333Y-108280952D01*
X192871428Y-108319047D01*
X192909523Y-108395238D01*
X192909523Y-108509523D01*
X192871428Y-108585714D01*
X192833333Y-108623809D01*
X192757142Y-108661904D01*
X192452380Y-108661904D01*
X192452380Y-107861904D01*
X192719047Y-107861904D01*
X192795238Y-107900000D01*
X192833333Y-107938095D01*
X192871428Y-108014285D01*
X192871428Y-108090476D01*
X192833333Y-108166666D01*
X192795238Y-108204761D01*
X192719047Y-108242857D01*
X192452380Y-108242857D01*
X193671428Y-108661904D02*
X193214285Y-108661904D01*
X193442857Y-108661904D02*
X193442857Y-107861904D01*
X193366666Y-107976190D01*
X193290476Y-108052380D01*
X193214285Y-108090476D01*
%TO.C,A*%
X216209523Y-106133333D02*
X216590476Y-106133333D01*
X216133333Y-106361904D02*
X216400000Y-105561904D01*
X216666666Y-106361904D01*
%TO.C,FB2*%
X203633333Y-98642857D02*
X203366666Y-98642857D01*
X203366666Y-99061904D02*
X203366666Y-98261904D01*
X203747619Y-98261904D01*
X204319047Y-98642857D02*
X204433333Y-98680952D01*
X204471428Y-98719047D01*
X204509523Y-98795238D01*
X204509523Y-98909523D01*
X204471428Y-98985714D01*
X204433333Y-99023809D01*
X204357142Y-99061904D01*
X204052380Y-99061904D01*
X204052380Y-98261904D01*
X204319047Y-98261904D01*
X204395238Y-98300000D01*
X204433333Y-98338095D01*
X204471428Y-98414285D01*
X204471428Y-98490476D01*
X204433333Y-98566666D01*
X204395238Y-98604761D01*
X204319047Y-98642857D01*
X204052380Y-98642857D01*
X204814285Y-98338095D02*
X204852380Y-98300000D01*
X204928571Y-98261904D01*
X205119047Y-98261904D01*
X205195238Y-98300000D01*
X205233333Y-98338095D01*
X205271428Y-98414285D01*
X205271428Y-98490476D01*
X205233333Y-98604761D01*
X204776190Y-99061904D01*
X205271428Y-99061904D01*
%TO.C,IC3*%
X201119047Y-108161904D02*
X201119047Y-107361904D01*
X201957142Y-108085714D02*
X201919047Y-108123809D01*
X201804761Y-108161904D01*
X201728571Y-108161904D01*
X201614285Y-108123809D01*
X201538095Y-108047619D01*
X201500000Y-107971428D01*
X201461904Y-107819047D01*
X201461904Y-107704761D01*
X201500000Y-107552380D01*
X201538095Y-107476190D01*
X201614285Y-107400000D01*
X201728571Y-107361904D01*
X201804761Y-107361904D01*
X201919047Y-107400000D01*
X201957142Y-107438095D01*
X202223809Y-107361904D02*
X202719047Y-107361904D01*
X202452380Y-107666666D01*
X202566666Y-107666666D01*
X202642857Y-107704761D01*
X202680952Y-107742857D01*
X202719047Y-107819047D01*
X202719047Y-108009523D01*
X202680952Y-108085714D01*
X202642857Y-108123809D01*
X202566666Y-108161904D01*
X202338095Y-108161904D01*
X202261904Y-108123809D01*
X202223809Y-108085714D01*
%TO.C,C9*%
X192066666Y-104885714D02*
X192028571Y-104923809D01*
X191914285Y-104961904D01*
X191838095Y-104961904D01*
X191723809Y-104923809D01*
X191647619Y-104847619D01*
X191609523Y-104771428D01*
X191571428Y-104619047D01*
X191571428Y-104504761D01*
X191609523Y-104352380D01*
X191647619Y-104276190D01*
X191723809Y-104200000D01*
X191838095Y-104161904D01*
X191914285Y-104161904D01*
X192028571Y-104200000D01*
X192066666Y-104238095D01*
X192447619Y-104961904D02*
X192600000Y-104961904D01*
X192676190Y-104923809D01*
X192714285Y-104885714D01*
X192790476Y-104771428D01*
X192828571Y-104619047D01*
X192828571Y-104314285D01*
X192790476Y-104238095D01*
X192752380Y-104200000D01*
X192676190Y-104161904D01*
X192523809Y-104161904D01*
X192447619Y-104200000D01*
X192409523Y-104238095D01*
X192371428Y-104314285D01*
X192371428Y-104504761D01*
X192409523Y-104580952D01*
X192447619Y-104619047D01*
X192523809Y-104657142D01*
X192676190Y-104657142D01*
X192752380Y-104619047D01*
X192790476Y-104580952D01*
X192828571Y-104504761D01*
%TO.C,RT1*%
X179161904Y-108161904D02*
X178895238Y-107780952D01*
X178704761Y-108161904D02*
X178704761Y-107361904D01*
X179009523Y-107361904D01*
X179085714Y-107400000D01*
X179123809Y-107438095D01*
X179161904Y-107514285D01*
X179161904Y-107628571D01*
X179123809Y-107704761D01*
X179085714Y-107742857D01*
X179009523Y-107780952D01*
X178704761Y-107780952D01*
X179390476Y-107361904D02*
X179847619Y-107361904D01*
X179619047Y-108161904D02*
X179619047Y-107361904D01*
X180533333Y-108161904D02*
X180076190Y-108161904D01*
X180304761Y-108161904D02*
X180304761Y-107361904D01*
X180228571Y-107476190D01*
X180152380Y-107552380D01*
X180076190Y-107590476D01*
%TO.C,B*%
X214407142Y-101767857D02*
X214521428Y-101805952D01*
X214559523Y-101844047D01*
X214597619Y-101920238D01*
X214597619Y-102034523D01*
X214559523Y-102110714D01*
X214521428Y-102148809D01*
X214445238Y-102186904D01*
X214140476Y-102186904D01*
X214140476Y-101386904D01*
X214407142Y-101386904D01*
X214483333Y-101425000D01*
X214521428Y-101463095D01*
X214559523Y-101539285D01*
X214559523Y-101615476D01*
X214521428Y-101691666D01*
X214483333Y-101729761D01*
X214407142Y-101767857D01*
X214140476Y-101767857D01*
%TO.C,D3*%
X177909523Y-113911904D02*
X177909523Y-113111904D01*
X178100000Y-113111904D01*
X178214285Y-113150000D01*
X178290476Y-113226190D01*
X178328571Y-113302380D01*
X178366666Y-113454761D01*
X178366666Y-113569047D01*
X178328571Y-113721428D01*
X178290476Y-113797619D01*
X178214285Y-113873809D01*
X178100000Y-113911904D01*
X177909523Y-113911904D01*
X178633333Y-113111904D02*
X179128571Y-113111904D01*
X178861904Y-113416666D01*
X178976190Y-113416666D01*
X179052380Y-113454761D01*
X179090476Y-113492857D01*
X179128571Y-113569047D01*
X179128571Y-113759523D01*
X179090476Y-113835714D01*
X179052380Y-113873809D01*
X178976190Y-113911904D01*
X178747619Y-113911904D01*
X178671428Y-113873809D01*
X178633333Y-113835714D01*
%TO.C,TP1*%
X199590476Y-99461904D02*
X200047619Y-99461904D01*
X199819047Y-100261904D02*
X199819047Y-99461904D01*
X200314285Y-100261904D02*
X200314285Y-99461904D01*
X200619047Y-99461904D01*
X200695238Y-99500000D01*
X200733333Y-99538095D01*
X200771428Y-99614285D01*
X200771428Y-99728571D01*
X200733333Y-99804761D01*
X200695238Y-99842857D01*
X200619047Y-99880952D01*
X200314285Y-99880952D01*
X201533333Y-100261904D02*
X201076190Y-100261904D01*
X201304761Y-100261904D02*
X201304761Y-99461904D01*
X201228571Y-99576190D01*
X201152380Y-99652380D01*
X201076190Y-99690476D01*
%TO.C,C12*%
X210685714Y-99985714D02*
X210647619Y-100023809D01*
X210533333Y-100061904D01*
X210457142Y-100061904D01*
X210342857Y-100023809D01*
X210266666Y-99947619D01*
X210228571Y-99871428D01*
X210190476Y-99719047D01*
X210190476Y-99604761D01*
X210228571Y-99452380D01*
X210266666Y-99376190D01*
X210342857Y-99300000D01*
X210457142Y-99261904D01*
X210533333Y-99261904D01*
X210647619Y-99300000D01*
X210685714Y-99338095D01*
X211447619Y-100061904D02*
X210990476Y-100061904D01*
X211219047Y-100061904D02*
X211219047Y-99261904D01*
X211142857Y-99376190D01*
X211066666Y-99452380D01*
X210990476Y-99490476D01*
X211752380Y-99338095D02*
X211790476Y-99300000D01*
X211866666Y-99261904D01*
X212057142Y-99261904D01*
X212133333Y-99300000D01*
X212171428Y-99338095D01*
X212209523Y-99414285D01*
X212209523Y-99490476D01*
X212171428Y-99604761D01*
X211714285Y-100061904D01*
X212209523Y-100061904D01*
%TO.C,IC4*%
X184219047Y-94867904D02*
X184219047Y-94067904D01*
X185057142Y-94791714D02*
X185019047Y-94829809D01*
X184904761Y-94867904D01*
X184828571Y-94867904D01*
X184714285Y-94829809D01*
X184638095Y-94753619D01*
X184600000Y-94677428D01*
X184561904Y-94525047D01*
X184561904Y-94410761D01*
X184600000Y-94258380D01*
X184638095Y-94182190D01*
X184714285Y-94106000D01*
X184828571Y-94067904D01*
X184904761Y-94067904D01*
X185019047Y-94106000D01*
X185057142Y-94144095D01*
X185742857Y-94334571D02*
X185742857Y-94867904D01*
X185552380Y-94029809D02*
X185361904Y-94601238D01*
X185857142Y-94601238D01*
%TO.C,D8*%
X175509523Y-98461904D02*
X175509523Y-97661904D01*
X175700000Y-97661904D01*
X175814285Y-97700000D01*
X175890476Y-97776190D01*
X175928571Y-97852380D01*
X175966666Y-98004761D01*
X175966666Y-98119047D01*
X175928571Y-98271428D01*
X175890476Y-98347619D01*
X175814285Y-98423809D01*
X175700000Y-98461904D01*
X175509523Y-98461904D01*
X176423809Y-98004761D02*
X176347619Y-97966666D01*
X176309523Y-97928571D01*
X176271428Y-97852380D01*
X176271428Y-97814285D01*
X176309523Y-97738095D01*
X176347619Y-97700000D01*
X176423809Y-97661904D01*
X176576190Y-97661904D01*
X176652380Y-97700000D01*
X176690476Y-97738095D01*
X176728571Y-97814285D01*
X176728571Y-97852380D01*
X176690476Y-97928571D01*
X176652380Y-97966666D01*
X176576190Y-98004761D01*
X176423809Y-98004761D01*
X176347619Y-98042857D01*
X176309523Y-98080952D01*
X176271428Y-98157142D01*
X176271428Y-98309523D01*
X176309523Y-98385714D01*
X176347619Y-98423809D01*
X176423809Y-98461904D01*
X176576190Y-98461904D01*
X176652380Y-98423809D01*
X176690476Y-98385714D01*
X176728571Y-98309523D01*
X176728571Y-98157142D01*
X176690476Y-98080952D01*
X176652380Y-98042857D01*
X176576190Y-98004761D01*
%TO.C,IC1*%
X198519047Y-87361904D02*
X198519047Y-86561904D01*
X199357142Y-87285714D02*
X199319047Y-87323809D01*
X199204761Y-87361904D01*
X199128571Y-87361904D01*
X199014285Y-87323809D01*
X198938095Y-87247619D01*
X198900000Y-87171428D01*
X198861904Y-87019047D01*
X198861904Y-86904761D01*
X198900000Y-86752380D01*
X198938095Y-86676190D01*
X199014285Y-86600000D01*
X199128571Y-86561904D01*
X199204761Y-86561904D01*
X199319047Y-86600000D01*
X199357142Y-86638095D01*
X200119047Y-87361904D02*
X199661904Y-87361904D01*
X199890476Y-87361904D02*
X199890476Y-86561904D01*
X199814285Y-86676190D01*
X199738095Y-86752380D01*
X199661904Y-86790476D01*
%TO.C,R6*%
X184466666Y-89861904D02*
X184200000Y-89480952D01*
X184009523Y-89861904D02*
X184009523Y-89061904D01*
X184314285Y-89061904D01*
X184390476Y-89100000D01*
X184428571Y-89138095D01*
X184466666Y-89214285D01*
X184466666Y-89328571D01*
X184428571Y-89404761D01*
X184390476Y-89442857D01*
X184314285Y-89480952D01*
X184009523Y-89480952D01*
X185152380Y-89061904D02*
X185000000Y-89061904D01*
X184923809Y-89100000D01*
X184885714Y-89138095D01*
X184809523Y-89252380D01*
X184771428Y-89404761D01*
X184771428Y-89709523D01*
X184809523Y-89785714D01*
X184847619Y-89823809D01*
X184923809Y-89861904D01*
X185076190Y-89861904D01*
X185152380Y-89823809D01*
X185190476Y-89785714D01*
X185228571Y-89709523D01*
X185228571Y-89519047D01*
X185190476Y-89442857D01*
X185152380Y-89404761D01*
X185076190Y-89366666D01*
X184923809Y-89366666D01*
X184847619Y-89404761D01*
X184809523Y-89442857D01*
X184771428Y-89519047D01*
%TO.C,R5*%
X218366666Y-93861904D02*
X218100000Y-93480952D01*
X217909523Y-93861904D02*
X217909523Y-93061904D01*
X218214285Y-93061904D01*
X218290476Y-93100000D01*
X218328571Y-93138095D01*
X218366666Y-93214285D01*
X218366666Y-93328571D01*
X218328571Y-93404761D01*
X218290476Y-93442857D01*
X218214285Y-93480952D01*
X217909523Y-93480952D01*
X219090476Y-93061904D02*
X218709523Y-93061904D01*
X218671428Y-93442857D01*
X218709523Y-93404761D01*
X218785714Y-93366666D01*
X218976190Y-93366666D01*
X219052380Y-93404761D01*
X219090476Y-93442857D01*
X219128571Y-93519047D01*
X219128571Y-93709523D01*
X219090476Y-93785714D01*
X219052380Y-93823809D01*
X218976190Y-93861904D01*
X218785714Y-93861904D01*
X218709523Y-93823809D01*
X218671428Y-93785714D01*
%TO.C,C4*%
X190271666Y-91574714D02*
X190233571Y-91612809D01*
X190119285Y-91650904D01*
X190043095Y-91650904D01*
X189928809Y-91612809D01*
X189852619Y-91536619D01*
X189814523Y-91460428D01*
X189776428Y-91308047D01*
X189776428Y-91193761D01*
X189814523Y-91041380D01*
X189852619Y-90965190D01*
X189928809Y-90889000D01*
X190043095Y-90850904D01*
X190119285Y-90850904D01*
X190233571Y-90889000D01*
X190271666Y-90927095D01*
X190957380Y-91117571D02*
X190957380Y-91650904D01*
X190766904Y-90812809D02*
X190576428Y-91384238D01*
X191071666Y-91384238D01*
%TO.C,R4*%
X215066666Y-93861904D02*
X214800000Y-93480952D01*
X214609523Y-93861904D02*
X214609523Y-93061904D01*
X214914285Y-93061904D01*
X214990476Y-93100000D01*
X215028571Y-93138095D01*
X215066666Y-93214285D01*
X215066666Y-93328571D01*
X215028571Y-93404761D01*
X214990476Y-93442857D01*
X214914285Y-93480952D01*
X214609523Y-93480952D01*
X215752380Y-93328571D02*
X215752380Y-93861904D01*
X215561904Y-93023809D02*
X215371428Y-93595238D01*
X215866666Y-93595238D01*
%TO.C,C10*%
X183685714Y-99085714D02*
X183647619Y-99123809D01*
X183533333Y-99161904D01*
X183457142Y-99161904D01*
X183342857Y-99123809D01*
X183266666Y-99047619D01*
X183228571Y-98971428D01*
X183190476Y-98819047D01*
X183190476Y-98704761D01*
X183228571Y-98552380D01*
X183266666Y-98476190D01*
X183342857Y-98400000D01*
X183457142Y-98361904D01*
X183533333Y-98361904D01*
X183647619Y-98400000D01*
X183685714Y-98438095D01*
X184447619Y-99161904D02*
X183990476Y-99161904D01*
X184219047Y-99161904D02*
X184219047Y-98361904D01*
X184142857Y-98476190D01*
X184066666Y-98552380D01*
X183990476Y-98590476D01*
X184942857Y-98361904D02*
X185019047Y-98361904D01*
X185095238Y-98400000D01*
X185133333Y-98438095D01*
X185171428Y-98514285D01*
X185209523Y-98666666D01*
X185209523Y-98857142D01*
X185171428Y-99009523D01*
X185133333Y-99085714D01*
X185095238Y-99123809D01*
X185019047Y-99161904D01*
X184942857Y-99161904D01*
X184866666Y-99123809D01*
X184828571Y-99085714D01*
X184790476Y-99009523D01*
X184752380Y-98857142D01*
X184752380Y-98666666D01*
X184790476Y-98514285D01*
X184828571Y-98438095D01*
X184866666Y-98400000D01*
X184942857Y-98361904D01*
%TO.C,R2*%
X201066666Y-101461904D02*
X200800000Y-101080952D01*
X200609523Y-101461904D02*
X200609523Y-100661904D01*
X200914285Y-100661904D01*
X200990476Y-100700000D01*
X201028571Y-100738095D01*
X201066666Y-100814285D01*
X201066666Y-100928571D01*
X201028571Y-101004761D01*
X200990476Y-101042857D01*
X200914285Y-101080952D01*
X200609523Y-101080952D01*
X201371428Y-100738095D02*
X201409523Y-100700000D01*
X201485714Y-100661904D01*
X201676190Y-100661904D01*
X201752380Y-100700000D01*
X201790476Y-100738095D01*
X201828571Y-100814285D01*
X201828571Y-100890476D01*
X201790476Y-101004761D01*
X201333333Y-101461904D01*
X201828571Y-101461904D01*
%TO.C,C2*%
X206266666Y-98285714D02*
X206228571Y-98323809D01*
X206114285Y-98361904D01*
X206038095Y-98361904D01*
X205923809Y-98323809D01*
X205847619Y-98247619D01*
X205809523Y-98171428D01*
X205771428Y-98019047D01*
X205771428Y-97904761D01*
X205809523Y-97752380D01*
X205847619Y-97676190D01*
X205923809Y-97600000D01*
X206038095Y-97561904D01*
X206114285Y-97561904D01*
X206228571Y-97600000D01*
X206266666Y-97638095D01*
X206571428Y-97638095D02*
X206609523Y-97600000D01*
X206685714Y-97561904D01*
X206876190Y-97561904D01*
X206952380Y-97600000D01*
X206990476Y-97638095D01*
X207028571Y-97714285D01*
X207028571Y-97790476D01*
X206990476Y-97904761D01*
X206533333Y-98361904D01*
X207028571Y-98361904D01*
%TO.C,RV1*%
X182573809Y-113461904D02*
X182307142Y-113080952D01*
X182116666Y-113461904D02*
X182116666Y-112661904D01*
X182421428Y-112661904D01*
X182497619Y-112700000D01*
X182535714Y-112738095D01*
X182573809Y-112814285D01*
X182573809Y-112928571D01*
X182535714Y-113004761D01*
X182497619Y-113042857D01*
X182421428Y-113080952D01*
X182116666Y-113080952D01*
X182802380Y-112661904D02*
X183069047Y-113461904D01*
X183335714Y-112661904D01*
X184021428Y-113461904D02*
X183564285Y-113461904D01*
X183792857Y-113461904D02*
X183792857Y-112661904D01*
X183716666Y-112776190D01*
X183640476Y-112852380D01*
X183564285Y-112890476D01*
%TO.C,L1*%
X187933666Y-89021904D02*
X187552714Y-89021904D01*
X187552714Y-88221904D01*
X188619380Y-89021904D02*
X188162238Y-89021904D01*
X188390809Y-89021904D02*
X188390809Y-88221904D01*
X188314619Y-88336190D01*
X188238428Y-88412380D01*
X188162238Y-88450476D01*
%TO.C,R3*%
X190266666Y-94761904D02*
X190000000Y-94380952D01*
X189809523Y-94761904D02*
X189809523Y-93961904D01*
X190114285Y-93961904D01*
X190190476Y-94000000D01*
X190228571Y-94038095D01*
X190266666Y-94114285D01*
X190266666Y-94228571D01*
X190228571Y-94304761D01*
X190190476Y-94342857D01*
X190114285Y-94380952D01*
X189809523Y-94380952D01*
X190533333Y-93961904D02*
X191028571Y-93961904D01*
X190761904Y-94266666D01*
X190876190Y-94266666D01*
X190952380Y-94304761D01*
X190990476Y-94342857D01*
X191028571Y-94419047D01*
X191028571Y-94609523D01*
X190990476Y-94685714D01*
X190952380Y-94723809D01*
X190876190Y-94761904D01*
X190647619Y-94761904D01*
X190571428Y-94723809D01*
X190533333Y-94685714D01*
%TO.C,U1*%
X211190476Y-103961904D02*
X211190476Y-104609523D01*
X211228571Y-104685714D01*
X211266666Y-104723809D01*
X211342857Y-104761904D01*
X211495238Y-104761904D01*
X211571428Y-104723809D01*
X211609523Y-104685714D01*
X211647619Y-104609523D01*
X211647619Y-103961904D01*
X212447619Y-104761904D02*
X211990476Y-104761904D01*
X212219047Y-104761904D02*
X212219047Y-103961904D01*
X212142857Y-104076190D01*
X212066666Y-104152380D01*
X211990476Y-104190476D01*
%TO.C,R7*%
X192366666Y-96361904D02*
X192100000Y-95980952D01*
X191909523Y-96361904D02*
X191909523Y-95561904D01*
X192214285Y-95561904D01*
X192290476Y-95600000D01*
X192328571Y-95638095D01*
X192366666Y-95714285D01*
X192366666Y-95828571D01*
X192328571Y-95904761D01*
X192290476Y-95942857D01*
X192214285Y-95980952D01*
X191909523Y-95980952D01*
X192633333Y-95561904D02*
X193166666Y-95561904D01*
X192823809Y-96361904D01*
%TO.C,D5*%
X206109523Y-108161904D02*
X206109523Y-107361904D01*
X206300000Y-107361904D01*
X206414285Y-107400000D01*
X206490476Y-107476190D01*
X206528571Y-107552380D01*
X206566666Y-107704761D01*
X206566666Y-107819047D01*
X206528571Y-107971428D01*
X206490476Y-108047619D01*
X206414285Y-108123809D01*
X206300000Y-108161904D01*
X206109523Y-108161904D01*
X207290476Y-107361904D02*
X206909523Y-107361904D01*
X206871428Y-107742857D01*
X206909523Y-107704761D01*
X206985714Y-107666666D01*
X207176190Y-107666666D01*
X207252380Y-107704761D01*
X207290476Y-107742857D01*
X207328571Y-107819047D01*
X207328571Y-108009523D01*
X207290476Y-108085714D01*
X207252380Y-108123809D01*
X207176190Y-108161904D01*
X206985714Y-108161904D01*
X206909523Y-108123809D01*
X206871428Y-108085714D01*
%TO.C,R1*%
X197466666Y-104361904D02*
X197200000Y-103980952D01*
X197009523Y-104361904D02*
X197009523Y-103561904D01*
X197314285Y-103561904D01*
X197390476Y-103600000D01*
X197428571Y-103638095D01*
X197466666Y-103714285D01*
X197466666Y-103828571D01*
X197428571Y-103904761D01*
X197390476Y-103942857D01*
X197314285Y-103980952D01*
X197009523Y-103980952D01*
X198228571Y-104361904D02*
X197771428Y-104361904D01*
X198000000Y-104361904D02*
X198000000Y-103561904D01*
X197923809Y-103676190D01*
X197847619Y-103752380D01*
X197771428Y-103790476D01*
%TO.C,IC2*%
X180219047Y-105661904D02*
X180219047Y-104861904D01*
X181057142Y-105585714D02*
X181019047Y-105623809D01*
X180904761Y-105661904D01*
X180828571Y-105661904D01*
X180714285Y-105623809D01*
X180638095Y-105547619D01*
X180600000Y-105471428D01*
X180561904Y-105319047D01*
X180561904Y-105204761D01*
X180600000Y-105052380D01*
X180638095Y-104976190D01*
X180714285Y-104900000D01*
X180828571Y-104861904D01*
X180904761Y-104861904D01*
X181019047Y-104900000D01*
X181057142Y-104938095D01*
X181361904Y-104938095D02*
X181400000Y-104900000D01*
X181476190Y-104861904D01*
X181666666Y-104861904D01*
X181742857Y-104900000D01*
X181780952Y-104938095D01*
X181819047Y-105014285D01*
X181819047Y-105090476D01*
X181780952Y-105204761D01*
X181323809Y-105661904D01*
X181819047Y-105661904D01*
%TO.C,R8*%
X183666666Y-95961904D02*
X183400000Y-95580952D01*
X183209523Y-95961904D02*
X183209523Y-95161904D01*
X183514285Y-95161904D01*
X183590476Y-95200000D01*
X183628571Y-95238095D01*
X183666666Y-95314285D01*
X183666666Y-95428571D01*
X183628571Y-95504761D01*
X183590476Y-95542857D01*
X183514285Y-95580952D01*
X183209523Y-95580952D01*
X184123809Y-95504761D02*
X184047619Y-95466666D01*
X184009523Y-95428571D01*
X183971428Y-95352380D01*
X183971428Y-95314285D01*
X184009523Y-95238095D01*
X184047619Y-95200000D01*
X184123809Y-95161904D01*
X184276190Y-95161904D01*
X184352380Y-95200000D01*
X184390476Y-95238095D01*
X184428571Y-95314285D01*
X184428571Y-95352380D01*
X184390476Y-95428571D01*
X184352380Y-95466666D01*
X184276190Y-95504761D01*
X184123809Y-95504761D01*
X184047619Y-95542857D01*
X184009523Y-95580952D01*
X183971428Y-95657142D01*
X183971428Y-95809523D01*
X184009523Y-95885714D01*
X184047619Y-95923809D01*
X184123809Y-95961904D01*
X184276190Y-95961904D01*
X184352380Y-95923809D01*
X184390476Y-95885714D01*
X184428571Y-95809523D01*
X184428571Y-95657142D01*
X184390476Y-95580952D01*
X184352380Y-95542857D01*
X184276190Y-95504761D01*
%TO.C,D7*%
X177234523Y-90436904D02*
X177234523Y-89636904D01*
X177425000Y-89636904D01*
X177539285Y-89675000D01*
X177615476Y-89751190D01*
X177653571Y-89827380D01*
X177691666Y-89979761D01*
X177691666Y-90094047D01*
X177653571Y-90246428D01*
X177615476Y-90322619D01*
X177539285Y-90398809D01*
X177425000Y-90436904D01*
X177234523Y-90436904D01*
X177958333Y-89636904D02*
X178491666Y-89636904D01*
X178148809Y-90436904D01*
%TO.C,C5*%
X190466666Y-92885714D02*
X190428571Y-92923809D01*
X190314285Y-92961904D01*
X190238095Y-92961904D01*
X190123809Y-92923809D01*
X190047619Y-92847619D01*
X190009523Y-92771428D01*
X189971428Y-92619047D01*
X189971428Y-92504761D01*
X190009523Y-92352380D01*
X190047619Y-92276190D01*
X190123809Y-92200000D01*
X190238095Y-92161904D01*
X190314285Y-92161904D01*
X190428571Y-92200000D01*
X190466666Y-92238095D01*
X191190476Y-92161904D02*
X190809523Y-92161904D01*
X190771428Y-92542857D01*
X190809523Y-92504761D01*
X190885714Y-92466666D01*
X191076190Y-92466666D01*
X191152380Y-92504761D01*
X191190476Y-92542857D01*
X191228571Y-92619047D01*
X191228571Y-92809523D01*
X191190476Y-92885714D01*
X191152380Y-92923809D01*
X191076190Y-92961904D01*
X190885714Y-92961904D01*
X190809523Y-92923809D01*
X190771428Y-92885714D01*
%TO.C,Y1*%
X209819047Y-81980952D02*
X209819047Y-82361904D01*
X209552380Y-81561904D02*
X209819047Y-81980952D01*
X210085714Y-81561904D01*
X210771428Y-82361904D02*
X210314285Y-82361904D01*
X210542857Y-82361904D02*
X210542857Y-81561904D01*
X210466666Y-81676190D01*
X210390476Y-81752380D01*
X210314285Y-81790476D01*
%TO.C,TP2*%
X201790476Y-99661904D02*
X202247619Y-99661904D01*
X202019047Y-100461904D02*
X202019047Y-99661904D01*
X202438095Y-99661904D02*
X202971428Y-100461904D01*
X202971428Y-99661904D02*
X202438095Y-100461904D01*
%TO.C,C3*%
X205796666Y-91185714D02*
X205758571Y-91223809D01*
X205644285Y-91261904D01*
X205568095Y-91261904D01*
X205453809Y-91223809D01*
X205377619Y-91147619D01*
X205339523Y-91071428D01*
X205301428Y-90919047D01*
X205301428Y-90804761D01*
X205339523Y-90652380D01*
X205377619Y-90576190D01*
X205453809Y-90500000D01*
X205568095Y-90461904D01*
X205644285Y-90461904D01*
X205758571Y-90500000D01*
X205796666Y-90538095D01*
X206063333Y-90461904D02*
X206558571Y-90461904D01*
X206291904Y-90766666D01*
X206406190Y-90766666D01*
X206482380Y-90804761D01*
X206520476Y-90842857D01*
X206558571Y-90919047D01*
X206558571Y-91109523D01*
X206520476Y-91185714D01*
X206482380Y-91223809D01*
X206406190Y-91261904D01*
X206177619Y-91261904D01*
X206101428Y-91223809D01*
X206063333Y-91185714D01*
%TO.C,C13*%
X180785714Y-88385714D02*
X180747619Y-88423809D01*
X180633333Y-88461904D01*
X180557142Y-88461904D01*
X180442857Y-88423809D01*
X180366666Y-88347619D01*
X180328571Y-88271428D01*
X180290476Y-88119047D01*
X180290476Y-88004761D01*
X180328571Y-87852380D01*
X180366666Y-87776190D01*
X180442857Y-87700000D01*
X180557142Y-87661904D01*
X180633333Y-87661904D01*
X180747619Y-87700000D01*
X180785714Y-87738095D01*
X181547619Y-88461904D02*
X181090476Y-88461904D01*
X181319047Y-88461904D02*
X181319047Y-87661904D01*
X181242857Y-87776190D01*
X181166666Y-87852380D01*
X181090476Y-87890476D01*
X181814285Y-87661904D02*
X182309523Y-87661904D01*
X182042857Y-87966666D01*
X182157142Y-87966666D01*
X182233333Y-88004761D01*
X182271428Y-88042857D01*
X182309523Y-88119047D01*
X182309523Y-88309523D01*
X182271428Y-88385714D01*
X182233333Y-88423809D01*
X182157142Y-88461904D01*
X181928571Y-88461904D01*
X181852380Y-88423809D01*
X181814285Y-88385714D01*
%TO.C,C16*%
X187485714Y-93985714D02*
X187447619Y-94023809D01*
X187333333Y-94061904D01*
X187257142Y-94061904D01*
X187142857Y-94023809D01*
X187066666Y-93947619D01*
X187028571Y-93871428D01*
X186990476Y-93719047D01*
X186990476Y-93604761D01*
X187028571Y-93452380D01*
X187066666Y-93376190D01*
X187142857Y-93300000D01*
X187257142Y-93261904D01*
X187333333Y-93261904D01*
X187447619Y-93300000D01*
X187485714Y-93338095D01*
X188247619Y-94061904D02*
X187790476Y-94061904D01*
X188019047Y-94061904D02*
X188019047Y-93261904D01*
X187942857Y-93376190D01*
X187866666Y-93452380D01*
X187790476Y-93490476D01*
X188933333Y-93261904D02*
X188780952Y-93261904D01*
X188704761Y-93300000D01*
X188666666Y-93338095D01*
X188590476Y-93452380D01*
X188552380Y-93604761D01*
X188552380Y-93909523D01*
X188590476Y-93985714D01*
X188628571Y-94023809D01*
X188704761Y-94061904D01*
X188857142Y-94061904D01*
X188933333Y-94023809D01*
X188971428Y-93985714D01*
X189009523Y-93909523D01*
X189009523Y-93719047D01*
X188971428Y-93642857D01*
X188933333Y-93604761D01*
X188857142Y-93566666D01*
X188704761Y-93566666D01*
X188628571Y-93604761D01*
X188590476Y-93642857D01*
X188552380Y-93719047D01*
%TO.C,D1*%
X193909523Y-104661904D02*
X193909523Y-103861904D01*
X194100000Y-103861904D01*
X194214285Y-103900000D01*
X194290476Y-103976190D01*
X194328571Y-104052380D01*
X194366666Y-104204761D01*
X194366666Y-104319047D01*
X194328571Y-104471428D01*
X194290476Y-104547619D01*
X194214285Y-104623809D01*
X194100000Y-104661904D01*
X193909523Y-104661904D01*
X195128571Y-104661904D02*
X194671428Y-104661904D01*
X194900000Y-104661904D02*
X194900000Y-103861904D01*
X194823809Y-103976190D01*
X194747619Y-104052380D01*
X194671428Y-104090476D01*
%TO.C,D2*%
X193809523Y-99261904D02*
X193809523Y-98461904D01*
X194000000Y-98461904D01*
X194114285Y-98500000D01*
X194190476Y-98576190D01*
X194228571Y-98652380D01*
X194266666Y-98804761D01*
X194266666Y-98919047D01*
X194228571Y-99071428D01*
X194190476Y-99147619D01*
X194114285Y-99223809D01*
X194000000Y-99261904D01*
X193809523Y-99261904D01*
X194571428Y-98538095D02*
X194609523Y-98500000D01*
X194685714Y-98461904D01*
X194876190Y-98461904D01*
X194952380Y-98500000D01*
X194990476Y-98538095D01*
X195028571Y-98614285D01*
X195028571Y-98690476D01*
X194990476Y-98804761D01*
X194533333Y-99261904D01*
X195028571Y-99261904D01*
%TO.C,C1*%
X196966666Y-99185714D02*
X196928571Y-99223809D01*
X196814285Y-99261904D01*
X196738095Y-99261904D01*
X196623809Y-99223809D01*
X196547619Y-99147619D01*
X196509523Y-99071428D01*
X196471428Y-98919047D01*
X196471428Y-98804761D01*
X196509523Y-98652380D01*
X196547619Y-98576190D01*
X196623809Y-98500000D01*
X196738095Y-98461904D01*
X196814285Y-98461904D01*
X196928571Y-98500000D01*
X196966666Y-98538095D01*
X197728571Y-99261904D02*
X197271428Y-99261904D01*
X197500000Y-99261904D02*
X197500000Y-98461904D01*
X197423809Y-98576190D01*
X197347619Y-98652380D01*
X197271428Y-98690476D01*
%TO.C,TP3*%
X197690476Y-99361904D02*
X198147619Y-99361904D01*
X197919047Y-100161904D02*
X197919047Y-99361904D01*
X198414285Y-100161904D02*
X198414285Y-99361904D01*
X198719047Y-99361904D01*
X198795238Y-99400000D01*
X198833333Y-99438095D01*
X198871428Y-99514285D01*
X198871428Y-99628571D01*
X198833333Y-99704761D01*
X198795238Y-99742857D01*
X198719047Y-99780952D01*
X198414285Y-99780952D01*
X199138095Y-99361904D02*
X199633333Y-99361904D01*
X199366666Y-99666666D01*
X199480952Y-99666666D01*
X199557142Y-99704761D01*
X199595238Y-99742857D01*
X199633333Y-99819047D01*
X199633333Y-100009523D01*
X199595238Y-100085714D01*
X199557142Y-100123809D01*
X199480952Y-100161904D01*
X199252380Y-100161904D01*
X199176190Y-100123809D01*
X199138095Y-100085714D01*
%TO.C,C11*%
X206285714Y-103585714D02*
X206247619Y-103623809D01*
X206133333Y-103661904D01*
X206057142Y-103661904D01*
X205942857Y-103623809D01*
X205866666Y-103547619D01*
X205828571Y-103471428D01*
X205790476Y-103319047D01*
X205790476Y-103204761D01*
X205828571Y-103052380D01*
X205866666Y-102976190D01*
X205942857Y-102900000D01*
X206057142Y-102861904D01*
X206133333Y-102861904D01*
X206247619Y-102900000D01*
X206285714Y-102938095D01*
X207047619Y-103661904D02*
X206590476Y-103661904D01*
X206819047Y-103661904D02*
X206819047Y-102861904D01*
X206742857Y-102976190D01*
X206666666Y-103052380D01*
X206590476Y-103090476D01*
X207809523Y-103661904D02*
X207352380Y-103661904D01*
X207580952Y-103661904D02*
X207580952Y-102861904D01*
X207504761Y-102976190D01*
X207428571Y-103052380D01*
X207352380Y-103090476D01*
%TO.C,C15*%
X187485714Y-90685714D02*
X187447619Y-90723809D01*
X187333333Y-90761904D01*
X187257142Y-90761904D01*
X187142857Y-90723809D01*
X187066666Y-90647619D01*
X187028571Y-90571428D01*
X186990476Y-90419047D01*
X186990476Y-90304761D01*
X187028571Y-90152380D01*
X187066666Y-90076190D01*
X187142857Y-90000000D01*
X187257142Y-89961904D01*
X187333333Y-89961904D01*
X187447619Y-90000000D01*
X187485714Y-90038095D01*
X188247619Y-90761904D02*
X187790476Y-90761904D01*
X188019047Y-90761904D02*
X188019047Y-89961904D01*
X187942857Y-90076190D01*
X187866666Y-90152380D01*
X187790476Y-90190476D01*
X188971428Y-89961904D02*
X188590476Y-89961904D01*
X188552380Y-90342857D01*
X188590476Y-90304761D01*
X188666666Y-90266666D01*
X188857142Y-90266666D01*
X188933333Y-90304761D01*
X188971428Y-90342857D01*
X189009523Y-90419047D01*
X189009523Y-90609523D01*
X188971428Y-90685714D01*
X188933333Y-90723809D01*
X188857142Y-90761904D01*
X188666666Y-90761904D01*
X188590476Y-90723809D01*
X188552380Y-90685714D01*
%TO.C,D6*%
X172409523Y-98461904D02*
X172409523Y-97661904D01*
X172600000Y-97661904D01*
X172714285Y-97700000D01*
X172790476Y-97776190D01*
X172828571Y-97852380D01*
X172866666Y-98004761D01*
X172866666Y-98119047D01*
X172828571Y-98271428D01*
X172790476Y-98347619D01*
X172714285Y-98423809D01*
X172600000Y-98461904D01*
X172409523Y-98461904D01*
X173552380Y-97661904D02*
X173400000Y-97661904D01*
X173323809Y-97700000D01*
X173285714Y-97738095D01*
X173209523Y-97852380D01*
X173171428Y-98004761D01*
X173171428Y-98309523D01*
X173209523Y-98385714D01*
X173247619Y-98423809D01*
X173323809Y-98461904D01*
X173476190Y-98461904D01*
X173552380Y-98423809D01*
X173590476Y-98385714D01*
X173628571Y-98309523D01*
X173628571Y-98119047D01*
X173590476Y-98042857D01*
X173552380Y-98004761D01*
X173476190Y-97966666D01*
X173323809Y-97966666D01*
X173247619Y-98004761D01*
X173209523Y-98042857D01*
X173171428Y-98119047D01*
%TO.C,D9*%
X177409523Y-94661904D02*
X177409523Y-93861904D01*
X177600000Y-93861904D01*
X177714285Y-93900000D01*
X177790476Y-93976190D01*
X177828571Y-94052380D01*
X177866666Y-94204761D01*
X177866666Y-94319047D01*
X177828571Y-94471428D01*
X177790476Y-94547619D01*
X177714285Y-94623809D01*
X177600000Y-94661904D01*
X177409523Y-94661904D01*
X178247619Y-94661904D02*
X178400000Y-94661904D01*
X178476190Y-94623809D01*
X178514285Y-94585714D01*
X178590476Y-94471428D01*
X178628571Y-94319047D01*
X178628571Y-94014285D01*
X178590476Y-93938095D01*
X178552380Y-93900000D01*
X178476190Y-93861904D01*
X178323809Y-93861904D01*
X178247619Y-93900000D01*
X178209523Y-93938095D01*
X178171428Y-94014285D01*
X178171428Y-94204761D01*
X178209523Y-94280952D01*
X178247619Y-94319047D01*
X178323809Y-94357142D01*
X178476190Y-94357142D01*
X178552380Y-94319047D01*
X178590476Y-94280952D01*
X178628571Y-94204761D01*
%TO.C,C7*%
X213566666Y-86685714D02*
X213528571Y-86723809D01*
X213414285Y-86761904D01*
X213338095Y-86761904D01*
X213223809Y-86723809D01*
X213147619Y-86647619D01*
X213109523Y-86571428D01*
X213071428Y-86419047D01*
X213071428Y-86304761D01*
X213109523Y-86152380D01*
X213147619Y-86076190D01*
X213223809Y-86000000D01*
X213338095Y-85961904D01*
X213414285Y-85961904D01*
X213528571Y-86000000D01*
X213566666Y-86038095D01*
X213833333Y-85961904D02*
X214366666Y-85961904D01*
X214023809Y-86761904D01*
%TO.C,C14*%
X180785714Y-96085714D02*
X180747619Y-96123809D01*
X180633333Y-96161904D01*
X180557142Y-96161904D01*
X180442857Y-96123809D01*
X180366666Y-96047619D01*
X180328571Y-95971428D01*
X180290476Y-95819047D01*
X180290476Y-95704761D01*
X180328571Y-95552380D01*
X180366666Y-95476190D01*
X180442857Y-95400000D01*
X180557142Y-95361904D01*
X180633333Y-95361904D01*
X180747619Y-95400000D01*
X180785714Y-95438095D01*
X181547619Y-96161904D02*
X181090476Y-96161904D01*
X181319047Y-96161904D02*
X181319047Y-95361904D01*
X181242857Y-95476190D01*
X181166666Y-95552380D01*
X181090476Y-95590476D01*
X182233333Y-95628571D02*
X182233333Y-96161904D01*
X182042857Y-95323809D02*
X181852380Y-95895238D01*
X182347619Y-95895238D01*
%TO.C,C6*%
X213566666Y-91285714D02*
X213528571Y-91323809D01*
X213414285Y-91361904D01*
X213338095Y-91361904D01*
X213223809Y-91323809D01*
X213147619Y-91247619D01*
X213109523Y-91171428D01*
X213071428Y-91019047D01*
X213071428Y-90904761D01*
X213109523Y-90752380D01*
X213147619Y-90676190D01*
X213223809Y-90600000D01*
X213338095Y-90561904D01*
X213414285Y-90561904D01*
X213528571Y-90600000D01*
X213566666Y-90638095D01*
X214252380Y-90561904D02*
X214100000Y-90561904D01*
X214023809Y-90600000D01*
X213985714Y-90638095D01*
X213909523Y-90752380D01*
X213871428Y-90904761D01*
X213871428Y-91209523D01*
X213909523Y-91285714D01*
X213947619Y-91323809D01*
X214023809Y-91361904D01*
X214176190Y-91361904D01*
X214252380Y-91323809D01*
X214290476Y-91285714D01*
X214328571Y-91209523D01*
X214328571Y-91019047D01*
X214290476Y-90942857D01*
X214252380Y-90904761D01*
X214176190Y-90866666D01*
X214023809Y-90866666D01*
X213947619Y-90904761D01*
X213909523Y-90942857D01*
X213871428Y-91019047D01*
%TO.C,GND*%
X223790476Y-105300000D02*
X223714285Y-105261904D01*
X223600000Y-105261904D01*
X223485714Y-105300000D01*
X223409523Y-105376190D01*
X223371428Y-105452380D01*
X223333333Y-105604761D01*
X223333333Y-105719047D01*
X223371428Y-105871428D01*
X223409523Y-105947619D01*
X223485714Y-106023809D01*
X223600000Y-106061904D01*
X223676190Y-106061904D01*
X223790476Y-106023809D01*
X223828571Y-105985714D01*
X223828571Y-105719047D01*
X223676190Y-105719047D01*
X224171428Y-106061904D02*
X224171428Y-105261904D01*
X224628571Y-106061904D01*
X224628571Y-105261904D01*
X225009523Y-106061904D02*
X225009523Y-105261904D01*
X225200000Y-105261904D01*
X225314285Y-105300000D01*
X225390476Y-105376190D01*
X225428571Y-105452380D01*
X225466666Y-105604761D01*
X225466666Y-105719047D01*
X225428571Y-105871428D01*
X225390476Y-105947619D01*
X225314285Y-106023809D01*
X225200000Y-106061904D01*
X225009523Y-106061904D01*
X166490476Y-104500000D02*
X166414285Y-104461904D01*
X166300000Y-104461904D01*
X166185714Y-104500000D01*
X166109523Y-104576190D01*
X166071428Y-104652380D01*
X166033333Y-104804761D01*
X166033333Y-104919047D01*
X166071428Y-105071428D01*
X166109523Y-105147619D01*
X166185714Y-105223809D01*
X166300000Y-105261904D01*
X166376190Y-105261904D01*
X166490476Y-105223809D01*
X166528571Y-105185714D01*
X166528571Y-104919047D01*
X166376190Y-104919047D01*
X166871428Y-105261904D02*
X166871428Y-104461904D01*
X167328571Y-105261904D01*
X167328571Y-104461904D01*
X167709523Y-105261904D02*
X167709523Y-104461904D01*
X167900000Y-104461904D01*
X168014285Y-104500000D01*
X168090476Y-104576190D01*
X168128571Y-104652380D01*
X168166666Y-104804761D01*
X168166666Y-104919047D01*
X168128571Y-105071428D01*
X168090476Y-105147619D01*
X168014285Y-105223809D01*
X167900000Y-105261904D01*
X167709523Y-105261904D01*
%TO.C,J3*%
X204143333Y-120061904D02*
X204143333Y-120633333D01*
X204105238Y-120747619D01*
X204029047Y-120823809D01*
X203914761Y-120861904D01*
X203838571Y-120861904D01*
X204448095Y-120061904D02*
X204943333Y-120061904D01*
X204676666Y-120366666D01*
X204790952Y-120366666D01*
X204867142Y-120404761D01*
X204905238Y-120442857D01*
X204943333Y-120519047D01*
X204943333Y-120709523D01*
X204905238Y-120785714D01*
X204867142Y-120823809D01*
X204790952Y-120861904D01*
X204562380Y-120861904D01*
X204486190Y-120823809D01*
X204448095Y-120785714D01*
%TO.C,J2*%
X186853333Y-120051904D02*
X186853333Y-120623333D01*
X186815238Y-120737619D01*
X186739047Y-120813809D01*
X186624761Y-120851904D01*
X186548571Y-120851904D01*
X187196190Y-120128095D02*
X187234285Y-120090000D01*
X187310476Y-120051904D01*
X187500952Y-120051904D01*
X187577142Y-120090000D01*
X187615238Y-120128095D01*
X187653333Y-120204285D01*
X187653333Y-120280476D01*
X187615238Y-120394761D01*
X187158095Y-120851904D01*
X187653333Y-120851904D01*
%TD*%
M02*
