%TF.GenerationSoftware,KiCad,Pcbnew,(5.1.10)-1*%
%TF.CreationDate,2021-11-03T13:15:42+05:30*%
%TF.ProjectId,Modbus_IO_Board,4d6f6462-7573-45f4-994f-5f426f617264,rev?*%
%TF.SameCoordinates,Original*%
%TF.FileFunction,Profile,NP*%
%FSLAX46Y46*%
G04 Gerber Fmt 4.6, Leading zero omitted, Abs format (unit mm)*
G04 Created by KiCad (PCBNEW (5.1.10)-1) date 2021-11-03 13:15:42*
%MOMM*%
%LPD*%
G01*
G04 APERTURE LIST*
%TA.AperFunction,Profile*%
%ADD10C,0.050000*%
%TD*%
G04 APERTURE END LIST*
D10*
X218990000Y-80000000D02*
X222330000Y-83540000D01*
X169200000Y-83540000D02*
X172540000Y-80000000D01*
X214200000Y-99900000D02*
X214200000Y-98100000D01*
X221100000Y-99900000D02*
X214200000Y-99900000D01*
X221100000Y-98100000D02*
X221100000Y-99900000D01*
X214200000Y-98100000D02*
X221100000Y-98100000D01*
X206897800Y-80004400D02*
X218990000Y-80000000D01*
X172540000Y-80000000D02*
X184634000Y-80004400D01*
X222330000Y-100580000D02*
X231530000Y-100580000D01*
X222330000Y-100580000D02*
X222330000Y-83540000D01*
X231530000Y-125000000D02*
X231530000Y-100580000D01*
X169200000Y-100580000D02*
X169200000Y-83540000D01*
X160000000Y-100580000D02*
X169200000Y-100580000D01*
X160000000Y-125000000D02*
X231530000Y-125000000D01*
X160000000Y-125000000D02*
X160000000Y-100580000D01*
X184634000Y-80004400D02*
X184634000Y-86796400D01*
X184634000Y-86796400D02*
X186974000Y-86796400D01*
X204586400Y-80004400D02*
X204586400Y-86786200D01*
X204586400Y-86786200D02*
X206897800Y-86786200D01*
X206897800Y-86786200D02*
X206897800Y-80004400D01*
X186974000Y-80004400D02*
X204586400Y-80004400D01*
X186974000Y-86796400D02*
X186974000Y-80004400D01*
M02*
