%FSLAX45Y45*%
G04 Gerber Fmt 4.5, Leading zero omitted, Abs format (unit mm)*
G04 Created by KiCad (PCBNEW (5.1.10)-1) date 2021-11-08 10:20:36*
%MOMM*%
%LPD*%
G01*
G04 APERTURE LIST*
%TA.AperFunction,Profile*%
%ADD10C,0.050000*%
%TD*%
%ADD11C,0.200000*%
%ADD12C,0.300000*%
G04 APERTURE END LIST*
D10*
X21899000Y-8000000D02*
X22233000Y-8354000D01*
X16920000Y-8354000D02*
X17254000Y-8000000D01*
X21420000Y-9990000D02*
X21420000Y-9810000D01*
X22110000Y-9990000D02*
X21420000Y-9990000D01*
X22110000Y-9810000D02*
X22110000Y-9990000D01*
X21420000Y-9810000D02*
X22110000Y-9810000D01*
X20689780Y-8000440D02*
X21899000Y-8000000D01*
X17254000Y-8000000D02*
X18463400Y-8000440D01*
X22233000Y-10058000D02*
X23153000Y-10058000D01*
X22233000Y-10058000D02*
X22233000Y-8354000D01*
X23153000Y-12500000D02*
X23153000Y-10058000D01*
X16920000Y-10058000D02*
X16920000Y-8354000D01*
X16000000Y-10058000D02*
X16920000Y-10058000D01*
X16000000Y-12500000D02*
X23153000Y-12500000D01*
X16000000Y-12500000D02*
X16000000Y-10058000D01*
X18463400Y-8000440D02*
X18463400Y-8679640D01*
X18463400Y-8679640D02*
X18697400Y-8679640D01*
X20458640Y-8000440D02*
X20458640Y-8678620D01*
X20458640Y-8678620D02*
X20689780Y-8678620D01*
X20689780Y-8678620D02*
X20689780Y-8000440D01*
X18697400Y-8000440D02*
X20458640Y-8000440D01*
X18697400Y-8679640D02*
X18697400Y-8000440D01*
D11*
X18220000Y-10895000D02*
X18250000Y-10925000D01*
X18250000Y-10895000D02*
X18220000Y-10925000D01*
X18244000Y-10592000D02*
X18274000Y-10622000D01*
X18274000Y-10592000D02*
X18244000Y-10622000D01*
X18245000Y-10525000D02*
X18275000Y-10555000D01*
X18275000Y-10525000D02*
X18245000Y-10555000D01*
X18299000Y-10896000D02*
X18329000Y-10926000D01*
X18329000Y-10896000D02*
X18299000Y-10926000D01*
X18344000Y-10525000D02*
X18374000Y-10555000D01*
X18374000Y-10525000D02*
X18344000Y-10555000D01*
X18348000Y-10595000D02*
X18378000Y-10625000D01*
X18378000Y-10595000D02*
X18348000Y-10625000D01*
X18445000Y-10525000D02*
X18475000Y-10555000D01*
X18475000Y-10525000D02*
X18445000Y-10555000D01*
X18446000Y-10596000D02*
X18476000Y-10626000D01*
X18476000Y-10596000D02*
X18446000Y-10626000D01*
X18553000Y-10525000D02*
X18583000Y-10555000D01*
X18583000Y-10525000D02*
X18553000Y-10555000D01*
X18556000Y-10595000D02*
X18586000Y-10625000D01*
X18586000Y-10595000D02*
X18556000Y-10625000D01*
X18653000Y-10525000D02*
X18683000Y-10555000D01*
X18683000Y-10525000D02*
X18653000Y-10555000D01*
X18655000Y-10595000D02*
X18685000Y-10625000D01*
X18685000Y-10595000D02*
X18655000Y-10625000D01*
X18724000Y-10893000D02*
X18754000Y-10923000D01*
X18754000Y-10893000D02*
X18724000Y-10923000D01*
X18765000Y-10525000D02*
X18795000Y-10555000D01*
X18795000Y-10525000D02*
X18765000Y-10555000D01*
X18765000Y-10595000D02*
X18795000Y-10625000D01*
X18795000Y-10595000D02*
X18765000Y-10625000D01*
X18806000Y-10895000D02*
X18836000Y-10925000D01*
X18836000Y-10895000D02*
X18806000Y-10925000D01*
X17630000Y-9930000D02*
G75*
G03*
X17630000Y-9930000I-20000J0D01*
G01*
X17970000Y-8790000D02*
G75*
G03*
X17970000Y-8790000I-20000J0D01*
G01*
X17970000Y-9620000D02*
G75*
G03*
X17970000Y-9620000I-20000J0D01*
G01*
X18130000Y-8910000D02*
G75*
G03*
X18130000Y-8910000I-20000J0D01*
G01*
X18130000Y-9500000D02*
G75*
G03*
X18130000Y-9500000I-20000J0D01*
G01*
X18160000Y-9210000D02*
G75*
G03*
X18160000Y-9210000I-20000J0D01*
G01*
X18340000Y-11480000D02*
G75*
G03*
X18340000Y-11480000I-20000J0D01*
G01*
X18550000Y-9470000D02*
G75*
G03*
X18550000Y-9470000I-20000J0D01*
G01*
X18660000Y-9360000D02*
G75*
G03*
X18660000Y-9360000I-20000J0D01*
G01*
X18670000Y-9050000D02*
G75*
G03*
X18670000Y-9050000I-20000J0D01*
G01*
X19075000Y-9087500D02*
G75*
G03*
X19075000Y-9087500I-20000J0D01*
G01*
X19100000Y-9720000D02*
G75*
G03*
X19100000Y-9720000I-20000J0D01*
G01*
X19100000Y-10090000D02*
G75*
G03*
X19100000Y-10090000I-20000J0D01*
G01*
X19230000Y-11500000D02*
G75*
G03*
X19230000Y-11500000I-20000J0D01*
G01*
X19310000Y-9692500D02*
G75*
G03*
X19310000Y-9692500I-20000J0D01*
G01*
X19390000Y-9570000D02*
G75*
G03*
X19390000Y-9570000I-20000J0D01*
G01*
X19407500Y-10180000D02*
G75*
G03*
X19407500Y-10180000I-20000J0D01*
G01*
X19605000Y-8605000D02*
G75*
G03*
X19605000Y-8605000I-20000J0D01*
G01*
X19680000Y-9910000D02*
G75*
G03*
X19680000Y-9910000I-20000J0D01*
G01*
X19681000Y-9489000D02*
G75*
G03*
X19681000Y-9489000I-20000J0D01*
G01*
X19700000Y-9330000D02*
G75*
G03*
X19700000Y-9330000I-20000J0D01*
G01*
X19840000Y-9882000D02*
G75*
G03*
X19840000Y-9882000I-20000J0D01*
G01*
X20002500Y-9022500D02*
G75*
G03*
X20002500Y-9022500I-20000J0D01*
G01*
X20081000Y-9902000D02*
G75*
G03*
X20081000Y-9902000I-20000J0D01*
G01*
X20137000Y-10073000D02*
G75*
G03*
X20137000Y-10073000I-20000J0D01*
G01*
X20220000Y-9470000D02*
G75*
G03*
X20220000Y-9470000I-20000J0D01*
G01*
X20227500Y-9330000D02*
G75*
G03*
X20227500Y-9330000I-20000J0D01*
G01*
X20244920Y-9904000D02*
G75*
G03*
X20244920Y-9904000I-20000J0D01*
G01*
X20304000Y-10586000D02*
G75*
G03*
X20304000Y-10586000I-20000J0D01*
G01*
X20340000Y-9720000D02*
G75*
G03*
X20340000Y-9720000I-20000J0D01*
G01*
X20395000Y-11417500D02*
G75*
G03*
X20395000Y-11417500I-20000J0D01*
G01*
X20460000Y-9700000D02*
G75*
G03*
X20460000Y-9700000I-20000J0D01*
G01*
X20617500Y-11512500D02*
G75*
G03*
X20617500Y-11512500I-20000J0D01*
G01*
X20701000Y-9313000D02*
G75*
G03*
X20701000Y-9313000I-20000J0D01*
G01*
X20914000Y-10207000D02*
G75*
G03*
X20914000Y-10207000I-20000J0D01*
G01*
X20950000Y-10590000D02*
G75*
G03*
X20950000Y-10590000I-20000J0D01*
G01*
X21376000Y-8946000D02*
G75*
G03*
X21376000Y-8946000I-20000J0D01*
G01*
X21379000Y-9213000D02*
G75*
G03*
X21379000Y-9213000I-20000J0D01*
G01*
X21410000Y-9510000D02*
G75*
G03*
X21410000Y-9510000I-20000J0D01*
G01*
X21750000Y-9350000D02*
G75*
G03*
X21750000Y-9350000I-20000J0D01*
G01*
X21800000Y-9110000D02*
G75*
G03*
X21800000Y-9110000I-20000J0D01*
G01*
X21840000Y-10440000D02*
G75*
G03*
X21840000Y-10440000I-20000J0D01*
G01*
X21860000Y-10310000D02*
G75*
G03*
X21860000Y-10310000I-20000J0D01*
G01*
X18928000Y-8303000D02*
X18928000Y-8403000D01*
X18878000Y-8353000D02*
X18978000Y-8353000D01*
X19182000Y-8303000D02*
X19182000Y-8403000D01*
X19132000Y-8353000D02*
X19232000Y-8353000D01*
X19436000Y-8303000D02*
X19436000Y-8403000D01*
X19386000Y-8353000D02*
X19486000Y-8353000D01*
X19690000Y-8303000D02*
X19690000Y-8403000D01*
X19640000Y-8353000D02*
X19740000Y-8353000D01*
X19944000Y-8303000D02*
X19944000Y-8403000D01*
X19894000Y-8353000D02*
X19994000Y-8353000D01*
X20198000Y-8303000D02*
X20198000Y-8403000D01*
X20148000Y-8353000D02*
X20248000Y-8353000D01*
X18242891Y-12087891D02*
X18242891Y-12010109D01*
X18165109Y-12010109D01*
X18165109Y-12087891D01*
X18242891Y-12087891D01*
X18496891Y-12087891D02*
X18496891Y-12010109D01*
X18419109Y-12010109D01*
X18419109Y-12087891D01*
X18496891Y-12087891D01*
X18750891Y-12087891D02*
X18750891Y-12010109D01*
X18673109Y-12010109D01*
X18673109Y-12087891D01*
X18750891Y-12087891D01*
X19004891Y-12087891D02*
X19004891Y-12010109D01*
X18927109Y-12010109D01*
X18927109Y-12087891D01*
X19004891Y-12087891D01*
X19258891Y-12087891D02*
X19258891Y-12010109D01*
X19181109Y-12010109D01*
X19181109Y-12087891D01*
X19258891Y-12087891D01*
X19971891Y-12088891D02*
X19971891Y-12011109D01*
X19894109Y-12011109D01*
X19894109Y-12088891D01*
X19971891Y-12088891D01*
X20225891Y-12088891D02*
X20225891Y-12011109D01*
X20148109Y-12011109D01*
X20148109Y-12088891D01*
X20225891Y-12088891D01*
X20479891Y-12088891D02*
X20479891Y-12011109D01*
X20402109Y-12011109D01*
X20402109Y-12088891D01*
X20479891Y-12088891D01*
X20733891Y-12088891D02*
X20733891Y-12011109D01*
X20656109Y-12011109D01*
X20656109Y-12088891D01*
X20733891Y-12088891D01*
X20987891Y-12088891D02*
X20987891Y-12011109D01*
X20910109Y-12011109D01*
X20910109Y-12088891D01*
X20987891Y-12088891D01*
X17020000Y-10566000D02*
X17085000Y-10501000D01*
X17020000Y-10436000D01*
X16955000Y-10501000D01*
X17020000Y-10566000D01*
X17822000Y-10590000D02*
X17887000Y-10525000D01*
X17822000Y-10460000D01*
X17757000Y-10525000D01*
X17822000Y-10590000D01*
X17990000Y-10205000D02*
X18055000Y-10140000D01*
X17990000Y-10075000D01*
X17925000Y-10140000D01*
X17990000Y-10205000D01*
X21209000Y-10259000D02*
X21274000Y-10194000D01*
X21209000Y-10129000D01*
X21144000Y-10194000D01*
X21209000Y-10259000D01*
X21359000Y-10659000D02*
X21424000Y-10594000D01*
X21359000Y-10529000D01*
X21294000Y-10594000D01*
X21359000Y-10659000D01*
X22155000Y-10642000D02*
X22220000Y-10577000D01*
X22155000Y-10512000D01*
X22090000Y-10577000D01*
X22155000Y-10642000D01*
X16371000Y-12101000D02*
X16571000Y-12301000D01*
X16571000Y-12101000D02*
X16371000Y-12301000D01*
X16571000Y-12201000D02*
G75*
G03*
X16571000Y-12201000I-100000J0D01*
G01*
X16381000Y-12101000D02*
X16381000Y-12301000D01*
X16561000Y-12101000D02*
X16561000Y-12301000D01*
X16381000Y-12301000D02*
G75*
G03*
X16561000Y-12301000I90000J0D01*
G01*
X16561000Y-12101000D02*
G75*
G03*
X16381000Y-12101000I-90000J0D01*
G01*
X17571000Y-12101000D02*
X17771000Y-12301000D01*
X17771000Y-12101000D02*
X17571000Y-12301000D01*
X17771000Y-12201000D02*
G75*
G03*
X17771000Y-12201000I-100000J0D01*
G01*
X17581000Y-12101000D02*
X17581000Y-12301000D01*
X17761000Y-12101000D02*
X17761000Y-12301000D01*
X17581000Y-12301000D02*
G75*
G03*
X17761000Y-12301000I90000J0D01*
G01*
X17761000Y-12101000D02*
G75*
G03*
X17581000Y-12101000I-90000J0D01*
G01*
X21358000Y-12097000D02*
X21558000Y-12297000D01*
X21558000Y-12097000D02*
X21358000Y-12297000D01*
X21558000Y-12197000D02*
G75*
G03*
X21558000Y-12197000I-100000J0D01*
G01*
X21368000Y-12097000D02*
X21368000Y-12297000D01*
X21548000Y-12097000D02*
X21548000Y-12297000D01*
X21368000Y-12297000D02*
G75*
G03*
X21548000Y-12297000I90000J0D01*
G01*
X21548000Y-12097000D02*
G75*
G03*
X21368000Y-12097000I-90000J0D01*
G01*
X22559000Y-12114000D02*
X22759000Y-12314000D01*
X22759000Y-12114000D02*
X22559000Y-12314000D01*
X22759000Y-12214000D02*
G75*
G03*
X22759000Y-12214000I-100000J0D01*
G01*
X22569000Y-12114000D02*
X22569000Y-12314000D01*
X22749000Y-12114000D02*
X22749000Y-12314000D01*
X22569000Y-12314000D02*
G75*
G03*
X22749000Y-12314000I90000J0D01*
G01*
X22749000Y-12114000D02*
G75*
G03*
X22569000Y-12114000I-90000J0D01*
G01*
X16912000Y-10914000D02*
X17132000Y-11134000D01*
X17132000Y-10914000D02*
X16912000Y-11134000D01*
X17022000Y-10914000D02*
X17022000Y-11134000D01*
X16912000Y-11024000D02*
X17132000Y-11024000D01*
X17412000Y-10915000D02*
X17632000Y-11135000D01*
X17632000Y-10915000D02*
X17412000Y-11135000D01*
X17522000Y-10915000D02*
X17522000Y-11135000D01*
X17412000Y-11025000D02*
X17632000Y-11025000D01*
X21549000Y-10988000D02*
X21769000Y-11208000D01*
X21769000Y-10988000D02*
X21549000Y-11208000D01*
X21659000Y-10988000D02*
X21659000Y-11208000D01*
X21549000Y-11098000D02*
X21769000Y-11098000D01*
X22049000Y-10988000D02*
X22269000Y-11208000D01*
X22269000Y-10988000D02*
X22049000Y-11208000D01*
X22159000Y-10988000D02*
X22159000Y-11208000D01*
X22049000Y-11098000D02*
X22269000Y-11098000D01*
X16526000Y-11328000D02*
X16826000Y-11628000D01*
X16826000Y-11328000D02*
X16526000Y-11628000D01*
X16782067Y-11584067D02*
X16782067Y-11371933D01*
X16569933Y-11371933D01*
X16569933Y-11584067D01*
X16782067Y-11584067D01*
X17251000Y-8426000D02*
X17551000Y-8726000D01*
X17551000Y-8426000D02*
X17251000Y-8726000D01*
X17507067Y-8682067D02*
X17507067Y-8469933D01*
X17294933Y-8469933D01*
X17294933Y-8682067D01*
X17507067Y-8682067D01*
X21602000Y-8426000D02*
X21902000Y-8726000D01*
X21902000Y-8426000D02*
X21602000Y-8726000D01*
X21858067Y-8682067D02*
X21858067Y-8469933D01*
X21645933Y-8469933D01*
X21645933Y-8682067D01*
X21858067Y-8682067D01*
X22327000Y-11328000D02*
X22627000Y-11628000D01*
X22627000Y-11328000D02*
X22327000Y-11628000D01*
X22583067Y-11584067D02*
X22583067Y-11371933D01*
X22370933Y-11371933D01*
X22370933Y-11584067D01*
X22583067Y-11584067D01*
D12*
X16283928Y-12968214D02*
X16283928Y-12668214D01*
X16355357Y-12668214D01*
X16398214Y-12682500D01*
X16426786Y-12711071D01*
X16441071Y-12739643D01*
X16455357Y-12796786D01*
X16455357Y-12839643D01*
X16441071Y-12896786D01*
X16426786Y-12925357D01*
X16398214Y-12953929D01*
X16355357Y-12968214D01*
X16283928Y-12968214D01*
X16583928Y-12968214D02*
X16583928Y-12768214D01*
X16583928Y-12825357D02*
X16598214Y-12796786D01*
X16612500Y-12782500D01*
X16641071Y-12768214D01*
X16669643Y-12768214D01*
X16769643Y-12968214D02*
X16769643Y-12768214D01*
X16769643Y-12668214D02*
X16755357Y-12682500D01*
X16769643Y-12696786D01*
X16783928Y-12682500D01*
X16769643Y-12668214D01*
X16769643Y-12696786D01*
X16955357Y-12968214D02*
X16926786Y-12953929D01*
X16912500Y-12925357D01*
X16912500Y-12668214D01*
X17112500Y-12968214D02*
X17083928Y-12953929D01*
X17069643Y-12925357D01*
X17069643Y-12668214D01*
X17455357Y-12968214D02*
X17455357Y-12668214D01*
X17555357Y-12882500D01*
X17655357Y-12668214D01*
X17655357Y-12968214D01*
X17926786Y-12968214D02*
X17926786Y-12811071D01*
X17912500Y-12782500D01*
X17883928Y-12768214D01*
X17826786Y-12768214D01*
X17798214Y-12782500D01*
X17926786Y-12953929D02*
X17898214Y-12968214D01*
X17826786Y-12968214D01*
X17798214Y-12953929D01*
X17783928Y-12925357D01*
X17783928Y-12896786D01*
X17798214Y-12868214D01*
X17826786Y-12853929D01*
X17898214Y-12853929D01*
X17926786Y-12839643D01*
X18069643Y-12768214D02*
X18069643Y-13068214D01*
X18069643Y-12782500D02*
X18098214Y-12768214D01*
X18155357Y-12768214D01*
X18183928Y-12782500D01*
X18198214Y-12796786D01*
X18212500Y-12825357D01*
X18212500Y-12911071D01*
X18198214Y-12939643D01*
X18183928Y-12953929D01*
X18155357Y-12968214D01*
X18098214Y-12968214D01*
X18069643Y-12953929D01*
X18341071Y-12939643D02*
X18355357Y-12953929D01*
X18341071Y-12968214D01*
X18326786Y-12953929D01*
X18341071Y-12939643D01*
X18341071Y-12968214D01*
X18341071Y-12782500D02*
X18355357Y-12796786D01*
X18341071Y-12811071D01*
X18326786Y-12796786D01*
X18341071Y-12782500D01*
X18341071Y-12811071D01*
X15967500Y-13447500D02*
X15997500Y-13477500D01*
X15997500Y-13447500D02*
X15967500Y-13477500D01*
X16341071Y-13298214D02*
X16369643Y-13298214D01*
X16398214Y-13312500D01*
X16412500Y-13326786D01*
X16426786Y-13355357D01*
X16441071Y-13412500D01*
X16441071Y-13483929D01*
X16426786Y-13541071D01*
X16412500Y-13569643D01*
X16398214Y-13583929D01*
X16369643Y-13598214D01*
X16341071Y-13598214D01*
X16312500Y-13583929D01*
X16298214Y-13569643D01*
X16283928Y-13541071D01*
X16269643Y-13483929D01*
X16269643Y-13412500D01*
X16283928Y-13355357D01*
X16298214Y-13326786D01*
X16312500Y-13312500D01*
X16341071Y-13298214D01*
X16569643Y-13569643D02*
X16583928Y-13583929D01*
X16569643Y-13598214D01*
X16555357Y-13583929D01*
X16569643Y-13569643D01*
X16569643Y-13598214D01*
X16683928Y-13298214D02*
X16869643Y-13298214D01*
X16769643Y-13412500D01*
X16812500Y-13412500D01*
X16841071Y-13426786D01*
X16855357Y-13441071D01*
X16869643Y-13469643D01*
X16869643Y-13541071D01*
X16855357Y-13569643D01*
X16841071Y-13583929D01*
X16812500Y-13598214D01*
X16726786Y-13598214D01*
X16698214Y-13583929D01*
X16683928Y-13569643D01*
X17055357Y-13298214D02*
X17083928Y-13298214D01*
X17112500Y-13312500D01*
X17126786Y-13326786D01*
X17141071Y-13355357D01*
X17155357Y-13412500D01*
X17155357Y-13483929D01*
X17141071Y-13541071D01*
X17126786Y-13569643D01*
X17112500Y-13583929D01*
X17083928Y-13598214D01*
X17055357Y-13598214D01*
X17026786Y-13583929D01*
X17012500Y-13569643D01*
X16998214Y-13541071D01*
X16983928Y-13483929D01*
X16983928Y-13412500D01*
X16998214Y-13355357D01*
X17012500Y-13326786D01*
X17026786Y-13312500D01*
X17055357Y-13298214D01*
X17341071Y-13298214D02*
X17369643Y-13298214D01*
X17398214Y-13312500D01*
X17412500Y-13326786D01*
X17426786Y-13355357D01*
X17441071Y-13412500D01*
X17441071Y-13483929D01*
X17426786Y-13541071D01*
X17412500Y-13569643D01*
X17398214Y-13583929D01*
X17369643Y-13598214D01*
X17341071Y-13598214D01*
X17312500Y-13583929D01*
X17298214Y-13569643D01*
X17283928Y-13541071D01*
X17269643Y-13483929D01*
X17269643Y-13412500D01*
X17283928Y-13355357D01*
X17298214Y-13326786D01*
X17312500Y-13312500D01*
X17341071Y-13298214D01*
X17569643Y-13598214D02*
X17569643Y-13398214D01*
X17569643Y-13426786D02*
X17583928Y-13412500D01*
X17612500Y-13398214D01*
X17655357Y-13398214D01*
X17683928Y-13412500D01*
X17698214Y-13441071D01*
X17698214Y-13598214D01*
X17698214Y-13441071D02*
X17712500Y-13412500D01*
X17741071Y-13398214D01*
X17783928Y-13398214D01*
X17812500Y-13412500D01*
X17826786Y-13441071D01*
X17826786Y-13598214D01*
X17969643Y-13598214D02*
X17969643Y-13398214D01*
X17969643Y-13426786D02*
X17983928Y-13412500D01*
X18012500Y-13398214D01*
X18055357Y-13398214D01*
X18083928Y-13412500D01*
X18098214Y-13441071D01*
X18098214Y-13598214D01*
X18098214Y-13441071D02*
X18112500Y-13412500D01*
X18141071Y-13398214D01*
X18183928Y-13398214D01*
X18212500Y-13412500D01*
X18226786Y-13441071D01*
X18226786Y-13598214D01*
X18812500Y-13283929D02*
X18555357Y-13669643D01*
X19198214Y-13298214D02*
X19226786Y-13298214D01*
X19255357Y-13312500D01*
X19269643Y-13326786D01*
X19283928Y-13355357D01*
X19298214Y-13412500D01*
X19298214Y-13483929D01*
X19283928Y-13541071D01*
X19269643Y-13569643D01*
X19255357Y-13583929D01*
X19226786Y-13598214D01*
X19198214Y-13598214D01*
X19169643Y-13583929D01*
X19155357Y-13569643D01*
X19141071Y-13541071D01*
X19126786Y-13483929D01*
X19126786Y-13412500D01*
X19141071Y-13355357D01*
X19155357Y-13326786D01*
X19169643Y-13312500D01*
X19198214Y-13298214D01*
X19426786Y-13569643D02*
X19441071Y-13583929D01*
X19426786Y-13598214D01*
X19412500Y-13583929D01*
X19426786Y-13569643D01*
X19426786Y-13598214D01*
X19626786Y-13298214D02*
X19655357Y-13298214D01*
X19683928Y-13312500D01*
X19698214Y-13326786D01*
X19712500Y-13355357D01*
X19726786Y-13412500D01*
X19726786Y-13483929D01*
X19712500Y-13541071D01*
X19698214Y-13569643D01*
X19683928Y-13583929D01*
X19655357Y-13598214D01*
X19626786Y-13598214D01*
X19598214Y-13583929D01*
X19583928Y-13569643D01*
X19569643Y-13541071D01*
X19555357Y-13483929D01*
X19555357Y-13412500D01*
X19569643Y-13355357D01*
X19583928Y-13326786D01*
X19598214Y-13312500D01*
X19626786Y-13298214D01*
X20012500Y-13598214D02*
X19841071Y-13598214D01*
X19926786Y-13598214D02*
X19926786Y-13298214D01*
X19898214Y-13341071D01*
X19869643Y-13369643D01*
X19841071Y-13383929D01*
X20298214Y-13598214D02*
X20126786Y-13598214D01*
X20212500Y-13598214D02*
X20212500Y-13298214D01*
X20183928Y-13341071D01*
X20155357Y-13369643D01*
X20126786Y-13383929D01*
X20469643Y-13426786D02*
X20441071Y-13412500D01*
X20426786Y-13398214D01*
X20412500Y-13369643D01*
X20412500Y-13355357D01*
X20426786Y-13326786D01*
X20441071Y-13312500D01*
X20469643Y-13298214D01*
X20526786Y-13298214D01*
X20555357Y-13312500D01*
X20569643Y-13326786D01*
X20583928Y-13355357D01*
X20583928Y-13369643D01*
X20569643Y-13398214D01*
X20555357Y-13412500D01*
X20526786Y-13426786D01*
X20469643Y-13426786D01*
X20441071Y-13441071D01*
X20426786Y-13455357D01*
X20412500Y-13483929D01*
X20412500Y-13541071D01*
X20426786Y-13569643D01*
X20441071Y-13583929D01*
X20469643Y-13598214D01*
X20526786Y-13598214D01*
X20555357Y-13583929D01*
X20569643Y-13569643D01*
X20583928Y-13541071D01*
X20583928Y-13483929D01*
X20569643Y-13455357D01*
X20555357Y-13441071D01*
X20526786Y-13426786D01*
X20698214Y-13298214D02*
X20698214Y-13355357D01*
X20812500Y-13298214D02*
X20812500Y-13355357D01*
X21255357Y-13712500D02*
X21241071Y-13698214D01*
X21212500Y-13655357D01*
X21198214Y-13626786D01*
X21183928Y-13583929D01*
X21169643Y-13512500D01*
X21169643Y-13455357D01*
X21183928Y-13383929D01*
X21198214Y-13341071D01*
X21212500Y-13312500D01*
X21241071Y-13269643D01*
X21255357Y-13255357D01*
X21526786Y-13598214D02*
X21355357Y-13598214D01*
X21441071Y-13598214D02*
X21441071Y-13298214D01*
X21412500Y-13341071D01*
X21383928Y-13369643D01*
X21355357Y-13383929D01*
X21783928Y-13298214D02*
X21726786Y-13298214D01*
X21698214Y-13312500D01*
X21683928Y-13326786D01*
X21655357Y-13369643D01*
X21641071Y-13426786D01*
X21641071Y-13541071D01*
X21655357Y-13569643D01*
X21669643Y-13583929D01*
X21698214Y-13598214D01*
X21755357Y-13598214D01*
X21783928Y-13583929D01*
X21798214Y-13569643D01*
X21812500Y-13541071D01*
X21812500Y-13469643D01*
X21798214Y-13441071D01*
X21783928Y-13426786D01*
X21755357Y-13412500D01*
X21698214Y-13412500D01*
X21669643Y-13426786D01*
X21655357Y-13441071D01*
X21641071Y-13469643D01*
X22169643Y-13598214D02*
X22169643Y-13298214D01*
X22298214Y-13598214D02*
X22298214Y-13441071D01*
X22283928Y-13412500D01*
X22255357Y-13398214D01*
X22212500Y-13398214D01*
X22183928Y-13412500D01*
X22169643Y-13426786D01*
X22483928Y-13598214D02*
X22455357Y-13583929D01*
X22441071Y-13569643D01*
X22426786Y-13541071D01*
X22426786Y-13455357D01*
X22441071Y-13426786D01*
X22455357Y-13412500D01*
X22483928Y-13398214D01*
X22526786Y-13398214D01*
X22555357Y-13412500D01*
X22569643Y-13426786D01*
X22583928Y-13455357D01*
X22583928Y-13541071D01*
X22569643Y-13569643D01*
X22555357Y-13583929D01*
X22526786Y-13598214D01*
X22483928Y-13598214D01*
X22755357Y-13598214D02*
X22726786Y-13583929D01*
X22712500Y-13555357D01*
X22712500Y-13298214D01*
X22983928Y-13583929D02*
X22955357Y-13598214D01*
X22898214Y-13598214D01*
X22869643Y-13583929D01*
X22855357Y-13555357D01*
X22855357Y-13441071D01*
X22869643Y-13412500D01*
X22898214Y-13398214D01*
X22955357Y-13398214D01*
X22983928Y-13412500D01*
X22998214Y-13441071D01*
X22998214Y-13469643D01*
X22855357Y-13498214D01*
X23112500Y-13583929D02*
X23141071Y-13598214D01*
X23198214Y-13598214D01*
X23226786Y-13583929D01*
X23241071Y-13555357D01*
X23241071Y-13541071D01*
X23226786Y-13512500D01*
X23198214Y-13498214D01*
X23155357Y-13498214D01*
X23126786Y-13483929D01*
X23112500Y-13455357D01*
X23112500Y-13441071D01*
X23126786Y-13412500D01*
X23155357Y-13398214D01*
X23198214Y-13398214D01*
X23226786Y-13412500D01*
X23341071Y-13712500D02*
X23355357Y-13698214D01*
X23383928Y-13655357D01*
X23398214Y-13626786D01*
X23412500Y-13583929D01*
X23426786Y-13512500D01*
X23426786Y-13455357D01*
X23412500Y-13383929D01*
X23398214Y-13341071D01*
X23383928Y-13312500D01*
X23355357Y-13269643D01*
X23341071Y-13255357D01*
X15997500Y-13858500D02*
G75*
G03*
X15997500Y-13858500I-20000J0D01*
G01*
X16341071Y-13694214D02*
X16369643Y-13694214D01*
X16398214Y-13708500D01*
X16412500Y-13722786D01*
X16426786Y-13751357D01*
X16441071Y-13808500D01*
X16441071Y-13879929D01*
X16426786Y-13937071D01*
X16412500Y-13965643D01*
X16398214Y-13979929D01*
X16369643Y-13994214D01*
X16341071Y-13994214D01*
X16312500Y-13979929D01*
X16298214Y-13965643D01*
X16283928Y-13937071D01*
X16269643Y-13879929D01*
X16269643Y-13808500D01*
X16283928Y-13751357D01*
X16298214Y-13722786D01*
X16312500Y-13708500D01*
X16341071Y-13694214D01*
X16569643Y-13965643D02*
X16583928Y-13979929D01*
X16569643Y-13994214D01*
X16555357Y-13979929D01*
X16569643Y-13965643D01*
X16569643Y-13994214D01*
X16841071Y-13794214D02*
X16841071Y-13994214D01*
X16769643Y-13679929D02*
X16698214Y-13894214D01*
X16883928Y-13894214D01*
X17055357Y-13694214D02*
X17083928Y-13694214D01*
X17112500Y-13708500D01*
X17126786Y-13722786D01*
X17141071Y-13751357D01*
X17155357Y-13808500D01*
X17155357Y-13879929D01*
X17141071Y-13937071D01*
X17126786Y-13965643D01*
X17112500Y-13979929D01*
X17083928Y-13994214D01*
X17055357Y-13994214D01*
X17026786Y-13979929D01*
X17012500Y-13965643D01*
X16998214Y-13937071D01*
X16983928Y-13879929D01*
X16983928Y-13808500D01*
X16998214Y-13751357D01*
X17012500Y-13722786D01*
X17026786Y-13708500D01*
X17055357Y-13694214D01*
X17341071Y-13694214D02*
X17369643Y-13694214D01*
X17398214Y-13708500D01*
X17412500Y-13722786D01*
X17426786Y-13751357D01*
X17441071Y-13808500D01*
X17441071Y-13879929D01*
X17426786Y-13937071D01*
X17412500Y-13965643D01*
X17398214Y-13979929D01*
X17369643Y-13994214D01*
X17341071Y-13994214D01*
X17312500Y-13979929D01*
X17298214Y-13965643D01*
X17283928Y-13937071D01*
X17269643Y-13879929D01*
X17269643Y-13808500D01*
X17283928Y-13751357D01*
X17298214Y-13722786D01*
X17312500Y-13708500D01*
X17341071Y-13694214D01*
X17569643Y-13994214D02*
X17569643Y-13794214D01*
X17569643Y-13822786D02*
X17583928Y-13808500D01*
X17612500Y-13794214D01*
X17655357Y-13794214D01*
X17683928Y-13808500D01*
X17698214Y-13837071D01*
X17698214Y-13994214D01*
X17698214Y-13837071D02*
X17712500Y-13808500D01*
X17741071Y-13794214D01*
X17783928Y-13794214D01*
X17812500Y-13808500D01*
X17826786Y-13837071D01*
X17826786Y-13994214D01*
X17969643Y-13994214D02*
X17969643Y-13794214D01*
X17969643Y-13822786D02*
X17983928Y-13808500D01*
X18012500Y-13794214D01*
X18055357Y-13794214D01*
X18083928Y-13808500D01*
X18098214Y-13837071D01*
X18098214Y-13994214D01*
X18098214Y-13837071D02*
X18112500Y-13808500D01*
X18141071Y-13794214D01*
X18183928Y-13794214D01*
X18212500Y-13808500D01*
X18226786Y-13837071D01*
X18226786Y-13994214D01*
X18812500Y-13679929D02*
X18555357Y-14065643D01*
X19198214Y-13694214D02*
X19226786Y-13694214D01*
X19255357Y-13708500D01*
X19269643Y-13722786D01*
X19283928Y-13751357D01*
X19298214Y-13808500D01*
X19298214Y-13879929D01*
X19283928Y-13937071D01*
X19269643Y-13965643D01*
X19255357Y-13979929D01*
X19226786Y-13994214D01*
X19198214Y-13994214D01*
X19169643Y-13979929D01*
X19155357Y-13965643D01*
X19141071Y-13937071D01*
X19126786Y-13879929D01*
X19126786Y-13808500D01*
X19141071Y-13751357D01*
X19155357Y-13722786D01*
X19169643Y-13708500D01*
X19198214Y-13694214D01*
X19426786Y-13965643D02*
X19441071Y-13979929D01*
X19426786Y-13994214D01*
X19412500Y-13979929D01*
X19426786Y-13965643D01*
X19426786Y-13994214D01*
X19626786Y-13694214D02*
X19655357Y-13694214D01*
X19683928Y-13708500D01*
X19698214Y-13722786D01*
X19712500Y-13751357D01*
X19726786Y-13808500D01*
X19726786Y-13879929D01*
X19712500Y-13937071D01*
X19698214Y-13965643D01*
X19683928Y-13979929D01*
X19655357Y-13994214D01*
X19626786Y-13994214D01*
X19598214Y-13979929D01*
X19583928Y-13965643D01*
X19569643Y-13937071D01*
X19555357Y-13879929D01*
X19555357Y-13808500D01*
X19569643Y-13751357D01*
X19583928Y-13722786D01*
X19598214Y-13708500D01*
X19626786Y-13694214D01*
X20012500Y-13994214D02*
X19841071Y-13994214D01*
X19926786Y-13994214D02*
X19926786Y-13694214D01*
X19898214Y-13737071D01*
X19869643Y-13765643D01*
X19841071Y-13779929D01*
X20283928Y-13694214D02*
X20141071Y-13694214D01*
X20126786Y-13837071D01*
X20141071Y-13822786D01*
X20169643Y-13808500D01*
X20241071Y-13808500D01*
X20269643Y-13822786D01*
X20283928Y-13837071D01*
X20298214Y-13865643D01*
X20298214Y-13937071D01*
X20283928Y-13965643D01*
X20269643Y-13979929D01*
X20241071Y-13994214D01*
X20169643Y-13994214D01*
X20141071Y-13979929D01*
X20126786Y-13965643D01*
X20398214Y-13694214D02*
X20598214Y-13694214D01*
X20469643Y-13994214D01*
X20698214Y-13694214D02*
X20698214Y-13751357D01*
X20812500Y-13694214D02*
X20812500Y-13751357D01*
X21255357Y-14108500D02*
X21241071Y-14094214D01*
X21212500Y-14051357D01*
X21198214Y-14022786D01*
X21183928Y-13979929D01*
X21169643Y-13908500D01*
X21169643Y-13851357D01*
X21183928Y-13779929D01*
X21198214Y-13737071D01*
X21212500Y-13708500D01*
X21241071Y-13665643D01*
X21255357Y-13651357D01*
X21498214Y-13794214D02*
X21498214Y-13994214D01*
X21426786Y-13679929D02*
X21355357Y-13894214D01*
X21541071Y-13894214D01*
X21626786Y-13694214D02*
X21812500Y-13694214D01*
X21712500Y-13808500D01*
X21755357Y-13808500D01*
X21783928Y-13822786D01*
X21798214Y-13837071D01*
X21812500Y-13865643D01*
X21812500Y-13937071D01*
X21798214Y-13965643D01*
X21783928Y-13979929D01*
X21755357Y-13994214D01*
X21669643Y-13994214D01*
X21641071Y-13979929D01*
X21626786Y-13965643D01*
X22169643Y-13994214D02*
X22169643Y-13694214D01*
X22298214Y-13994214D02*
X22298214Y-13837071D01*
X22283928Y-13808500D01*
X22255357Y-13794214D01*
X22212500Y-13794214D01*
X22183928Y-13808500D01*
X22169643Y-13822786D01*
X22483928Y-13994214D02*
X22455357Y-13979929D01*
X22441071Y-13965643D01*
X22426786Y-13937071D01*
X22426786Y-13851357D01*
X22441071Y-13822786D01*
X22455357Y-13808500D01*
X22483928Y-13794214D01*
X22526786Y-13794214D01*
X22555357Y-13808500D01*
X22569643Y-13822786D01*
X22583928Y-13851357D01*
X22583928Y-13937071D01*
X22569643Y-13965643D01*
X22555357Y-13979929D01*
X22526786Y-13994214D01*
X22483928Y-13994214D01*
X22755357Y-13994214D02*
X22726786Y-13979929D01*
X22712500Y-13951357D01*
X22712500Y-13694214D01*
X22983928Y-13979929D02*
X22955357Y-13994214D01*
X22898214Y-13994214D01*
X22869643Y-13979929D01*
X22855357Y-13951357D01*
X22855357Y-13837071D01*
X22869643Y-13808500D01*
X22898214Y-13794214D01*
X22955357Y-13794214D01*
X22983928Y-13808500D01*
X22998214Y-13837071D01*
X22998214Y-13865643D01*
X22855357Y-13894214D01*
X23112500Y-13979929D02*
X23141071Y-13994214D01*
X23198214Y-13994214D01*
X23226786Y-13979929D01*
X23241071Y-13951357D01*
X23241071Y-13937071D01*
X23226786Y-13908500D01*
X23198214Y-13894214D01*
X23155357Y-13894214D01*
X23126786Y-13879929D01*
X23112500Y-13851357D01*
X23112500Y-13837071D01*
X23126786Y-13808500D01*
X23155357Y-13794214D01*
X23198214Y-13794214D01*
X23226786Y-13808500D01*
X23341071Y-14108500D02*
X23355357Y-14094214D01*
X23383928Y-14051357D01*
X23398214Y-14022786D01*
X23412500Y-13979929D01*
X23426786Y-13908500D01*
X23426786Y-13851357D01*
X23412500Y-13779929D01*
X23398214Y-13737071D01*
X23383928Y-13708500D01*
X23355357Y-13665643D01*
X23341071Y-13651357D01*
X15947500Y-14204500D02*
X15947500Y-14304500D01*
X15897500Y-14254500D02*
X15997500Y-14254500D01*
X16441071Y-14390214D02*
X16269643Y-14390214D01*
X16355357Y-14390214D02*
X16355357Y-14090214D01*
X16326786Y-14133071D01*
X16298214Y-14161643D01*
X16269643Y-14175929D01*
X16569643Y-14361643D02*
X16583928Y-14375929D01*
X16569643Y-14390214D01*
X16555357Y-14375929D01*
X16569643Y-14361643D01*
X16569643Y-14390214D01*
X16769643Y-14090214D02*
X16798214Y-14090214D01*
X16826786Y-14104500D01*
X16841071Y-14118786D01*
X16855357Y-14147357D01*
X16869643Y-14204500D01*
X16869643Y-14275929D01*
X16855357Y-14333071D01*
X16841071Y-14361643D01*
X16826786Y-14375929D01*
X16798214Y-14390214D01*
X16769643Y-14390214D01*
X16741071Y-14375929D01*
X16726786Y-14361643D01*
X16712500Y-14333071D01*
X16698214Y-14275929D01*
X16698214Y-14204500D01*
X16712500Y-14147357D01*
X16726786Y-14118786D01*
X16741071Y-14104500D01*
X16769643Y-14090214D01*
X17055357Y-14090214D02*
X17083928Y-14090214D01*
X17112500Y-14104500D01*
X17126786Y-14118786D01*
X17141071Y-14147357D01*
X17155357Y-14204500D01*
X17155357Y-14275929D01*
X17141071Y-14333071D01*
X17126786Y-14361643D01*
X17112500Y-14375929D01*
X17083928Y-14390214D01*
X17055357Y-14390214D01*
X17026786Y-14375929D01*
X17012500Y-14361643D01*
X16998214Y-14333071D01*
X16983928Y-14275929D01*
X16983928Y-14204500D01*
X16998214Y-14147357D01*
X17012500Y-14118786D01*
X17026786Y-14104500D01*
X17055357Y-14090214D01*
X17341071Y-14090214D02*
X17369643Y-14090214D01*
X17398214Y-14104500D01*
X17412500Y-14118786D01*
X17426786Y-14147357D01*
X17441071Y-14204500D01*
X17441071Y-14275929D01*
X17426786Y-14333071D01*
X17412500Y-14361643D01*
X17398214Y-14375929D01*
X17369643Y-14390214D01*
X17341071Y-14390214D01*
X17312500Y-14375929D01*
X17298214Y-14361643D01*
X17283928Y-14333071D01*
X17269643Y-14275929D01*
X17269643Y-14204500D01*
X17283928Y-14147357D01*
X17298214Y-14118786D01*
X17312500Y-14104500D01*
X17341071Y-14090214D01*
X17569643Y-14390214D02*
X17569643Y-14190214D01*
X17569643Y-14218786D02*
X17583928Y-14204500D01*
X17612500Y-14190214D01*
X17655357Y-14190214D01*
X17683928Y-14204500D01*
X17698214Y-14233071D01*
X17698214Y-14390214D01*
X17698214Y-14233071D02*
X17712500Y-14204500D01*
X17741071Y-14190214D01*
X17783928Y-14190214D01*
X17812500Y-14204500D01*
X17826786Y-14233071D01*
X17826786Y-14390214D01*
X17969643Y-14390214D02*
X17969643Y-14190214D01*
X17969643Y-14218786D02*
X17983928Y-14204500D01*
X18012500Y-14190214D01*
X18055357Y-14190214D01*
X18083928Y-14204500D01*
X18098214Y-14233071D01*
X18098214Y-14390214D01*
X18098214Y-14233071D02*
X18112500Y-14204500D01*
X18141071Y-14190214D01*
X18183928Y-14190214D01*
X18212500Y-14204500D01*
X18226786Y-14233071D01*
X18226786Y-14390214D01*
X18812500Y-14075929D02*
X18555357Y-14461643D01*
X19198214Y-14090214D02*
X19226786Y-14090214D01*
X19255357Y-14104500D01*
X19269643Y-14118786D01*
X19283928Y-14147357D01*
X19298214Y-14204500D01*
X19298214Y-14275929D01*
X19283928Y-14333071D01*
X19269643Y-14361643D01*
X19255357Y-14375929D01*
X19226786Y-14390214D01*
X19198214Y-14390214D01*
X19169643Y-14375929D01*
X19155357Y-14361643D01*
X19141071Y-14333071D01*
X19126786Y-14275929D01*
X19126786Y-14204500D01*
X19141071Y-14147357D01*
X19155357Y-14118786D01*
X19169643Y-14104500D01*
X19198214Y-14090214D01*
X19426786Y-14361643D02*
X19441071Y-14375929D01*
X19426786Y-14390214D01*
X19412500Y-14375929D01*
X19426786Y-14361643D01*
X19426786Y-14390214D01*
X19626786Y-14090214D02*
X19655357Y-14090214D01*
X19683928Y-14104500D01*
X19698214Y-14118786D01*
X19712500Y-14147357D01*
X19726786Y-14204500D01*
X19726786Y-14275929D01*
X19712500Y-14333071D01*
X19698214Y-14361643D01*
X19683928Y-14375929D01*
X19655357Y-14390214D01*
X19626786Y-14390214D01*
X19598214Y-14375929D01*
X19583928Y-14361643D01*
X19569643Y-14333071D01*
X19555357Y-14275929D01*
X19555357Y-14204500D01*
X19569643Y-14147357D01*
X19583928Y-14118786D01*
X19598214Y-14104500D01*
X19626786Y-14090214D01*
X19826786Y-14090214D02*
X20012500Y-14090214D01*
X19912500Y-14204500D01*
X19955357Y-14204500D01*
X19983928Y-14218786D01*
X19998214Y-14233071D01*
X20012500Y-14261643D01*
X20012500Y-14333071D01*
X19998214Y-14361643D01*
X19983928Y-14375929D01*
X19955357Y-14390214D01*
X19869643Y-14390214D01*
X19841071Y-14375929D01*
X19826786Y-14361643D01*
X20155357Y-14390214D02*
X20212500Y-14390214D01*
X20241071Y-14375929D01*
X20255357Y-14361643D01*
X20283928Y-14318786D01*
X20298214Y-14261643D01*
X20298214Y-14147357D01*
X20283928Y-14118786D01*
X20269643Y-14104500D01*
X20241071Y-14090214D01*
X20183928Y-14090214D01*
X20155357Y-14104500D01*
X20141071Y-14118786D01*
X20126786Y-14147357D01*
X20126786Y-14218786D01*
X20141071Y-14247357D01*
X20155357Y-14261643D01*
X20183928Y-14275929D01*
X20241071Y-14275929D01*
X20269643Y-14261643D01*
X20283928Y-14247357D01*
X20298214Y-14218786D01*
X20555357Y-14190214D02*
X20555357Y-14390214D01*
X20483928Y-14075929D02*
X20412500Y-14290214D01*
X20598214Y-14290214D01*
X20698214Y-14090214D02*
X20698214Y-14147357D01*
X20812500Y-14090214D02*
X20812500Y-14147357D01*
X21255357Y-14504500D02*
X21241071Y-14490214D01*
X21212500Y-14447357D01*
X21198214Y-14418786D01*
X21183928Y-14375929D01*
X21169643Y-14304500D01*
X21169643Y-14247357D01*
X21183928Y-14175929D01*
X21198214Y-14133071D01*
X21212500Y-14104500D01*
X21241071Y-14061643D01*
X21255357Y-14047357D01*
X21498214Y-14090214D02*
X21441071Y-14090214D01*
X21412500Y-14104500D01*
X21398214Y-14118786D01*
X21369643Y-14161643D01*
X21355357Y-14218786D01*
X21355357Y-14333071D01*
X21369643Y-14361643D01*
X21383928Y-14375929D01*
X21412500Y-14390214D01*
X21469643Y-14390214D01*
X21498214Y-14375929D01*
X21512500Y-14361643D01*
X21526786Y-14333071D01*
X21526786Y-14261643D01*
X21512500Y-14233071D01*
X21498214Y-14218786D01*
X21469643Y-14204500D01*
X21412500Y-14204500D01*
X21383928Y-14218786D01*
X21369643Y-14233071D01*
X21355357Y-14261643D01*
X21883928Y-14390214D02*
X21883928Y-14090214D01*
X22012500Y-14390214D02*
X22012500Y-14233071D01*
X21998214Y-14204500D01*
X21969643Y-14190214D01*
X21926786Y-14190214D01*
X21898214Y-14204500D01*
X21883928Y-14218786D01*
X22198214Y-14390214D02*
X22169643Y-14375929D01*
X22155357Y-14361643D01*
X22141071Y-14333071D01*
X22141071Y-14247357D01*
X22155357Y-14218786D01*
X22169643Y-14204500D01*
X22198214Y-14190214D01*
X22241071Y-14190214D01*
X22269643Y-14204500D01*
X22283928Y-14218786D01*
X22298214Y-14247357D01*
X22298214Y-14333071D01*
X22283928Y-14361643D01*
X22269643Y-14375929D01*
X22241071Y-14390214D01*
X22198214Y-14390214D01*
X22469643Y-14390214D02*
X22441071Y-14375929D01*
X22426786Y-14347357D01*
X22426786Y-14090214D01*
X22698214Y-14375929D02*
X22669643Y-14390214D01*
X22612500Y-14390214D01*
X22583928Y-14375929D01*
X22569643Y-14347357D01*
X22569643Y-14233071D01*
X22583928Y-14204500D01*
X22612500Y-14190214D01*
X22669643Y-14190214D01*
X22698214Y-14204500D01*
X22712500Y-14233071D01*
X22712500Y-14261643D01*
X22569643Y-14290214D01*
X22826786Y-14375929D02*
X22855357Y-14390214D01*
X22912500Y-14390214D01*
X22941071Y-14375929D01*
X22955357Y-14347357D01*
X22955357Y-14333071D01*
X22941071Y-14304500D01*
X22912500Y-14290214D01*
X22869643Y-14290214D01*
X22841071Y-14275929D01*
X22826786Y-14247357D01*
X22826786Y-14233071D01*
X22841071Y-14204500D01*
X22869643Y-14190214D01*
X22912500Y-14190214D01*
X22941071Y-14204500D01*
X23055357Y-14504500D02*
X23069643Y-14490214D01*
X23098214Y-14447357D01*
X23112500Y-14418786D01*
X23126786Y-14375929D01*
X23141071Y-14304500D01*
X23141071Y-14247357D01*
X23126786Y-14175929D01*
X23112500Y-14133071D01*
X23098214Y-14104500D01*
X23069643Y-14061643D01*
X23055357Y-14047357D01*
X15981391Y-14689391D02*
X15981391Y-14611609D01*
X15903609Y-14611609D01*
X15903609Y-14689391D01*
X15981391Y-14689391D01*
X16441071Y-14786214D02*
X16269643Y-14786214D01*
X16355357Y-14786214D02*
X16355357Y-14486214D01*
X16326786Y-14529071D01*
X16298214Y-14557643D01*
X16269643Y-14571929D01*
X16569643Y-14757643D02*
X16583928Y-14771929D01*
X16569643Y-14786214D01*
X16555357Y-14771929D01*
X16569643Y-14757643D01*
X16569643Y-14786214D01*
X16869643Y-14786214D02*
X16698214Y-14786214D01*
X16783928Y-14786214D02*
X16783928Y-14486214D01*
X16755357Y-14529071D01*
X16726786Y-14557643D01*
X16698214Y-14571929D01*
X17055357Y-14486214D02*
X17083928Y-14486214D01*
X17112500Y-14500500D01*
X17126786Y-14514786D01*
X17141071Y-14543357D01*
X17155357Y-14600500D01*
X17155357Y-14671929D01*
X17141071Y-14729071D01*
X17126786Y-14757643D01*
X17112500Y-14771929D01*
X17083928Y-14786214D01*
X17055357Y-14786214D01*
X17026786Y-14771929D01*
X17012500Y-14757643D01*
X16998214Y-14729071D01*
X16983928Y-14671929D01*
X16983928Y-14600500D01*
X16998214Y-14543357D01*
X17012500Y-14514786D01*
X17026786Y-14500500D01*
X17055357Y-14486214D01*
X17341071Y-14486214D02*
X17369643Y-14486214D01*
X17398214Y-14500500D01*
X17412500Y-14514786D01*
X17426786Y-14543357D01*
X17441071Y-14600500D01*
X17441071Y-14671929D01*
X17426786Y-14729071D01*
X17412500Y-14757643D01*
X17398214Y-14771929D01*
X17369643Y-14786214D01*
X17341071Y-14786214D01*
X17312500Y-14771929D01*
X17298214Y-14757643D01*
X17283928Y-14729071D01*
X17269643Y-14671929D01*
X17269643Y-14600500D01*
X17283928Y-14543357D01*
X17298214Y-14514786D01*
X17312500Y-14500500D01*
X17341071Y-14486214D01*
X17569643Y-14786214D02*
X17569643Y-14586214D01*
X17569643Y-14614786D02*
X17583928Y-14600500D01*
X17612500Y-14586214D01*
X17655357Y-14586214D01*
X17683928Y-14600500D01*
X17698214Y-14629071D01*
X17698214Y-14786214D01*
X17698214Y-14629071D02*
X17712500Y-14600500D01*
X17741071Y-14586214D01*
X17783928Y-14586214D01*
X17812500Y-14600500D01*
X17826786Y-14629071D01*
X17826786Y-14786214D01*
X17969643Y-14786214D02*
X17969643Y-14586214D01*
X17969643Y-14614786D02*
X17983928Y-14600500D01*
X18012500Y-14586214D01*
X18055357Y-14586214D01*
X18083928Y-14600500D01*
X18098214Y-14629071D01*
X18098214Y-14786214D01*
X18098214Y-14629071D02*
X18112500Y-14600500D01*
X18141071Y-14586214D01*
X18183928Y-14586214D01*
X18212500Y-14600500D01*
X18226786Y-14629071D01*
X18226786Y-14786214D01*
X18812500Y-14471929D02*
X18555357Y-14857643D01*
X19198214Y-14486214D02*
X19226786Y-14486214D01*
X19255357Y-14500500D01*
X19269643Y-14514786D01*
X19283928Y-14543357D01*
X19298214Y-14600500D01*
X19298214Y-14671929D01*
X19283928Y-14729071D01*
X19269643Y-14757643D01*
X19255357Y-14771929D01*
X19226786Y-14786214D01*
X19198214Y-14786214D01*
X19169643Y-14771929D01*
X19155357Y-14757643D01*
X19141071Y-14729071D01*
X19126786Y-14671929D01*
X19126786Y-14600500D01*
X19141071Y-14543357D01*
X19155357Y-14514786D01*
X19169643Y-14500500D01*
X19198214Y-14486214D01*
X19426786Y-14757643D02*
X19441071Y-14771929D01*
X19426786Y-14786214D01*
X19412500Y-14771929D01*
X19426786Y-14757643D01*
X19426786Y-14786214D01*
X19626786Y-14486214D02*
X19655357Y-14486214D01*
X19683928Y-14500500D01*
X19698214Y-14514786D01*
X19712500Y-14543357D01*
X19726786Y-14600500D01*
X19726786Y-14671929D01*
X19712500Y-14729071D01*
X19698214Y-14757643D01*
X19683928Y-14771929D01*
X19655357Y-14786214D01*
X19626786Y-14786214D01*
X19598214Y-14771929D01*
X19583928Y-14757643D01*
X19569643Y-14729071D01*
X19555357Y-14671929D01*
X19555357Y-14600500D01*
X19569643Y-14543357D01*
X19583928Y-14514786D01*
X19598214Y-14500500D01*
X19626786Y-14486214D01*
X19983928Y-14586214D02*
X19983928Y-14786214D01*
X19912500Y-14471929D02*
X19841071Y-14686214D01*
X20026786Y-14686214D01*
X20112500Y-14486214D02*
X20298214Y-14486214D01*
X20198214Y-14600500D01*
X20241071Y-14600500D01*
X20269643Y-14614786D01*
X20283928Y-14629071D01*
X20298214Y-14657643D01*
X20298214Y-14729071D01*
X20283928Y-14757643D01*
X20269643Y-14771929D01*
X20241071Y-14786214D01*
X20155357Y-14786214D01*
X20126786Y-14771929D01*
X20112500Y-14757643D01*
X20398214Y-14486214D02*
X20583928Y-14486214D01*
X20483928Y-14600500D01*
X20526786Y-14600500D01*
X20555357Y-14614786D01*
X20569643Y-14629071D01*
X20583928Y-14657643D01*
X20583928Y-14729071D01*
X20569643Y-14757643D01*
X20555357Y-14771929D01*
X20526786Y-14786214D01*
X20441071Y-14786214D01*
X20412500Y-14771929D01*
X20398214Y-14757643D01*
X20698214Y-14486214D02*
X20698214Y-14543357D01*
X20812500Y-14486214D02*
X20812500Y-14543357D01*
X21255357Y-14900500D02*
X21241071Y-14886214D01*
X21212500Y-14843357D01*
X21198214Y-14814786D01*
X21183928Y-14771929D01*
X21169643Y-14700500D01*
X21169643Y-14643357D01*
X21183928Y-14571929D01*
X21198214Y-14529071D01*
X21212500Y-14500500D01*
X21241071Y-14457643D01*
X21255357Y-14443357D01*
X21526786Y-14786214D02*
X21355357Y-14786214D01*
X21441071Y-14786214D02*
X21441071Y-14486214D01*
X21412500Y-14529071D01*
X21383928Y-14557643D01*
X21355357Y-14571929D01*
X21712500Y-14486214D02*
X21741071Y-14486214D01*
X21769643Y-14500500D01*
X21783928Y-14514786D01*
X21798214Y-14543357D01*
X21812500Y-14600500D01*
X21812500Y-14671929D01*
X21798214Y-14729071D01*
X21783928Y-14757643D01*
X21769643Y-14771929D01*
X21741071Y-14786214D01*
X21712500Y-14786214D01*
X21683928Y-14771929D01*
X21669643Y-14757643D01*
X21655357Y-14729071D01*
X21641071Y-14671929D01*
X21641071Y-14600500D01*
X21655357Y-14543357D01*
X21669643Y-14514786D01*
X21683928Y-14500500D01*
X21712500Y-14486214D01*
X22169643Y-14786214D02*
X22169643Y-14486214D01*
X22298214Y-14786214D02*
X22298214Y-14629071D01*
X22283928Y-14600500D01*
X22255357Y-14586214D01*
X22212500Y-14586214D01*
X22183928Y-14600500D01*
X22169643Y-14614786D01*
X22483928Y-14786214D02*
X22455357Y-14771929D01*
X22441071Y-14757643D01*
X22426786Y-14729071D01*
X22426786Y-14643357D01*
X22441071Y-14614786D01*
X22455357Y-14600500D01*
X22483928Y-14586214D01*
X22526786Y-14586214D01*
X22555357Y-14600500D01*
X22569643Y-14614786D01*
X22583928Y-14643357D01*
X22583928Y-14729071D01*
X22569643Y-14757643D01*
X22555357Y-14771929D01*
X22526786Y-14786214D01*
X22483928Y-14786214D01*
X22755357Y-14786214D02*
X22726786Y-14771929D01*
X22712500Y-14743357D01*
X22712500Y-14486214D01*
X22983928Y-14771929D02*
X22955357Y-14786214D01*
X22898214Y-14786214D01*
X22869643Y-14771929D01*
X22855357Y-14743357D01*
X22855357Y-14629071D01*
X22869643Y-14600500D01*
X22898214Y-14586214D01*
X22955357Y-14586214D01*
X22983928Y-14600500D01*
X22998214Y-14629071D01*
X22998214Y-14657643D01*
X22855357Y-14686214D01*
X23112500Y-14771929D02*
X23141071Y-14786214D01*
X23198214Y-14786214D01*
X23226786Y-14771929D01*
X23241071Y-14743357D01*
X23241071Y-14729071D01*
X23226786Y-14700500D01*
X23198214Y-14686214D01*
X23155357Y-14686214D01*
X23126786Y-14671929D01*
X23112500Y-14643357D01*
X23112500Y-14629071D01*
X23126786Y-14600500D01*
X23155357Y-14586214D01*
X23198214Y-14586214D01*
X23226786Y-14600500D01*
X23341071Y-14900500D02*
X23355357Y-14886214D01*
X23383928Y-14843357D01*
X23398214Y-14814786D01*
X23412500Y-14771929D01*
X23426786Y-14700500D01*
X23426786Y-14643357D01*
X23412500Y-14571929D01*
X23398214Y-14529071D01*
X23383928Y-14500500D01*
X23355357Y-14457643D01*
X23341071Y-14443357D01*
X15932500Y-15111500D02*
X15997500Y-15046500D01*
X15932500Y-14981500D01*
X15867500Y-15046500D01*
X15932500Y-15111500D01*
X16441071Y-15182214D02*
X16269643Y-15182214D01*
X16355357Y-15182214D02*
X16355357Y-14882214D01*
X16326786Y-14925071D01*
X16298214Y-14953643D01*
X16269643Y-14967929D01*
X16569643Y-15153643D02*
X16583928Y-15167929D01*
X16569643Y-15182214D01*
X16555357Y-15167929D01*
X16569643Y-15153643D01*
X16569643Y-15182214D01*
X16683928Y-14882214D02*
X16869643Y-14882214D01*
X16769643Y-14996500D01*
X16812500Y-14996500D01*
X16841071Y-15010786D01*
X16855357Y-15025071D01*
X16869643Y-15053643D01*
X16869643Y-15125071D01*
X16855357Y-15153643D01*
X16841071Y-15167929D01*
X16812500Y-15182214D01*
X16726786Y-15182214D01*
X16698214Y-15167929D01*
X16683928Y-15153643D01*
X17055357Y-14882214D02*
X17083928Y-14882214D01*
X17112500Y-14896500D01*
X17126786Y-14910786D01*
X17141071Y-14939357D01*
X17155357Y-14996500D01*
X17155357Y-15067929D01*
X17141071Y-15125071D01*
X17126786Y-15153643D01*
X17112500Y-15167929D01*
X17083928Y-15182214D01*
X17055357Y-15182214D01*
X17026786Y-15167929D01*
X17012500Y-15153643D01*
X16998214Y-15125071D01*
X16983928Y-15067929D01*
X16983928Y-14996500D01*
X16998214Y-14939357D01*
X17012500Y-14910786D01*
X17026786Y-14896500D01*
X17055357Y-14882214D01*
X17341071Y-14882214D02*
X17369643Y-14882214D01*
X17398214Y-14896500D01*
X17412500Y-14910786D01*
X17426786Y-14939357D01*
X17441071Y-14996500D01*
X17441071Y-15067929D01*
X17426786Y-15125071D01*
X17412500Y-15153643D01*
X17398214Y-15167929D01*
X17369643Y-15182214D01*
X17341071Y-15182214D01*
X17312500Y-15167929D01*
X17298214Y-15153643D01*
X17283928Y-15125071D01*
X17269643Y-15067929D01*
X17269643Y-14996500D01*
X17283928Y-14939357D01*
X17298214Y-14910786D01*
X17312500Y-14896500D01*
X17341071Y-14882214D01*
X17569643Y-15182214D02*
X17569643Y-14982214D01*
X17569643Y-15010786D02*
X17583928Y-14996500D01*
X17612500Y-14982214D01*
X17655357Y-14982214D01*
X17683928Y-14996500D01*
X17698214Y-15025071D01*
X17698214Y-15182214D01*
X17698214Y-15025071D02*
X17712500Y-14996500D01*
X17741071Y-14982214D01*
X17783928Y-14982214D01*
X17812500Y-14996500D01*
X17826786Y-15025071D01*
X17826786Y-15182214D01*
X17969643Y-15182214D02*
X17969643Y-14982214D01*
X17969643Y-15010786D02*
X17983928Y-14996500D01*
X18012500Y-14982214D01*
X18055357Y-14982214D01*
X18083928Y-14996500D01*
X18098214Y-15025071D01*
X18098214Y-15182214D01*
X18098214Y-15025071D02*
X18112500Y-14996500D01*
X18141071Y-14982214D01*
X18183928Y-14982214D01*
X18212500Y-14996500D01*
X18226786Y-15025071D01*
X18226786Y-15182214D01*
X18812500Y-14867929D02*
X18555357Y-15253643D01*
X19198214Y-14882214D02*
X19226786Y-14882214D01*
X19255357Y-14896500D01*
X19269643Y-14910786D01*
X19283928Y-14939357D01*
X19298214Y-14996500D01*
X19298214Y-15067929D01*
X19283928Y-15125071D01*
X19269643Y-15153643D01*
X19255357Y-15167929D01*
X19226786Y-15182214D01*
X19198214Y-15182214D01*
X19169643Y-15167929D01*
X19155357Y-15153643D01*
X19141071Y-15125071D01*
X19126786Y-15067929D01*
X19126786Y-14996500D01*
X19141071Y-14939357D01*
X19155357Y-14910786D01*
X19169643Y-14896500D01*
X19198214Y-14882214D01*
X19426786Y-15153643D02*
X19441071Y-15167929D01*
X19426786Y-15182214D01*
X19412500Y-15167929D01*
X19426786Y-15153643D01*
X19426786Y-15182214D01*
X19626786Y-14882214D02*
X19655357Y-14882214D01*
X19683928Y-14896500D01*
X19698214Y-14910786D01*
X19712500Y-14939357D01*
X19726786Y-14996500D01*
X19726786Y-15067929D01*
X19712500Y-15125071D01*
X19698214Y-15153643D01*
X19683928Y-15167929D01*
X19655357Y-15182214D01*
X19626786Y-15182214D01*
X19598214Y-15167929D01*
X19583928Y-15153643D01*
X19569643Y-15125071D01*
X19555357Y-15067929D01*
X19555357Y-14996500D01*
X19569643Y-14939357D01*
X19583928Y-14910786D01*
X19598214Y-14896500D01*
X19626786Y-14882214D01*
X19998214Y-14882214D02*
X19855357Y-14882214D01*
X19841071Y-15025071D01*
X19855357Y-15010786D01*
X19883928Y-14996500D01*
X19955357Y-14996500D01*
X19983928Y-15010786D01*
X19998214Y-15025071D01*
X20012500Y-15053643D01*
X20012500Y-15125071D01*
X19998214Y-15153643D01*
X19983928Y-15167929D01*
X19955357Y-15182214D01*
X19883928Y-15182214D01*
X19855357Y-15167929D01*
X19841071Y-15153643D01*
X20298214Y-15182214D02*
X20126786Y-15182214D01*
X20212500Y-15182214D02*
X20212500Y-14882214D01*
X20183928Y-14925071D01*
X20155357Y-14953643D01*
X20126786Y-14967929D01*
X20412500Y-14910786D02*
X20426786Y-14896500D01*
X20455357Y-14882214D01*
X20526786Y-14882214D01*
X20555357Y-14896500D01*
X20569643Y-14910786D01*
X20583928Y-14939357D01*
X20583928Y-14967929D01*
X20569643Y-15010786D01*
X20398214Y-15182214D01*
X20583928Y-15182214D01*
X20698214Y-14882214D02*
X20698214Y-14939357D01*
X20812500Y-14882214D02*
X20812500Y-14939357D01*
X21255357Y-15296500D02*
X21241071Y-15282214D01*
X21212500Y-15239357D01*
X21198214Y-15210786D01*
X21183928Y-15167929D01*
X21169643Y-15096500D01*
X21169643Y-15039357D01*
X21183928Y-14967929D01*
X21198214Y-14925071D01*
X21212500Y-14896500D01*
X21241071Y-14853643D01*
X21255357Y-14839357D01*
X21498214Y-14882214D02*
X21441071Y-14882214D01*
X21412500Y-14896500D01*
X21398214Y-14910786D01*
X21369643Y-14953643D01*
X21355357Y-15010786D01*
X21355357Y-15125071D01*
X21369643Y-15153643D01*
X21383928Y-15167929D01*
X21412500Y-15182214D01*
X21469643Y-15182214D01*
X21498214Y-15167929D01*
X21512500Y-15153643D01*
X21526786Y-15125071D01*
X21526786Y-15053643D01*
X21512500Y-15025071D01*
X21498214Y-15010786D01*
X21469643Y-14996500D01*
X21412500Y-14996500D01*
X21383928Y-15010786D01*
X21369643Y-15025071D01*
X21355357Y-15053643D01*
X21883928Y-15182214D02*
X21883928Y-14882214D01*
X22012500Y-15182214D02*
X22012500Y-15025071D01*
X21998214Y-14996500D01*
X21969643Y-14982214D01*
X21926786Y-14982214D01*
X21898214Y-14996500D01*
X21883928Y-15010786D01*
X22198214Y-15182214D02*
X22169643Y-15167929D01*
X22155357Y-15153643D01*
X22141071Y-15125071D01*
X22141071Y-15039357D01*
X22155357Y-15010786D01*
X22169643Y-14996500D01*
X22198214Y-14982214D01*
X22241071Y-14982214D01*
X22269643Y-14996500D01*
X22283928Y-15010786D01*
X22298214Y-15039357D01*
X22298214Y-15125071D01*
X22283928Y-15153643D01*
X22269643Y-15167929D01*
X22241071Y-15182214D01*
X22198214Y-15182214D01*
X22469643Y-15182214D02*
X22441071Y-15167929D01*
X22426786Y-15139357D01*
X22426786Y-14882214D01*
X22698214Y-15167929D02*
X22669643Y-15182214D01*
X22612500Y-15182214D01*
X22583928Y-15167929D01*
X22569643Y-15139357D01*
X22569643Y-15025071D01*
X22583928Y-14996500D01*
X22612500Y-14982214D01*
X22669643Y-14982214D01*
X22698214Y-14996500D01*
X22712500Y-15025071D01*
X22712500Y-15053643D01*
X22569643Y-15082214D01*
X22826786Y-15167929D02*
X22855357Y-15182214D01*
X22912500Y-15182214D01*
X22941071Y-15167929D01*
X22955357Y-15139357D01*
X22955357Y-15125071D01*
X22941071Y-15096500D01*
X22912500Y-15082214D01*
X22869643Y-15082214D01*
X22841071Y-15067929D01*
X22826786Y-15039357D01*
X22826786Y-15025071D01*
X22841071Y-14996500D01*
X22869643Y-14982214D01*
X22912500Y-14982214D01*
X22941071Y-14996500D01*
X23055357Y-15296500D02*
X23069643Y-15282214D01*
X23098214Y-15239357D01*
X23112500Y-15210786D01*
X23126786Y-15167929D01*
X23141071Y-15096500D01*
X23141071Y-15039357D01*
X23126786Y-14967929D01*
X23112500Y-14925071D01*
X23098214Y-14896500D01*
X23069643Y-14853643D01*
X23055357Y-14839357D01*
X15797500Y-15342500D02*
X15997500Y-15542500D01*
X15997500Y-15342500D02*
X15797500Y-15542500D01*
X15997500Y-15442500D02*
G75*
G03*
X15997500Y-15442500I-100000J0D01*
G01*
X16269643Y-15306786D02*
X16283928Y-15292500D01*
X16312500Y-15278214D01*
X16383928Y-15278214D01*
X16412500Y-15292500D01*
X16426786Y-15306786D01*
X16441071Y-15335357D01*
X16441071Y-15363929D01*
X16426786Y-15406786D01*
X16255357Y-15578214D01*
X16441071Y-15578214D01*
X16569643Y-15549643D02*
X16583928Y-15563929D01*
X16569643Y-15578214D01*
X16555357Y-15563929D01*
X16569643Y-15549643D01*
X16569643Y-15578214D01*
X16769643Y-15278214D02*
X16798214Y-15278214D01*
X16826786Y-15292500D01*
X16841071Y-15306786D01*
X16855357Y-15335357D01*
X16869643Y-15392500D01*
X16869643Y-15463929D01*
X16855357Y-15521071D01*
X16841071Y-15549643D01*
X16826786Y-15563929D01*
X16798214Y-15578214D01*
X16769643Y-15578214D01*
X16741071Y-15563929D01*
X16726786Y-15549643D01*
X16712500Y-15521071D01*
X16698214Y-15463929D01*
X16698214Y-15392500D01*
X16712500Y-15335357D01*
X16726786Y-15306786D01*
X16741071Y-15292500D01*
X16769643Y-15278214D01*
X17055357Y-15278214D02*
X17083928Y-15278214D01*
X17112500Y-15292500D01*
X17126786Y-15306786D01*
X17141071Y-15335357D01*
X17155357Y-15392500D01*
X17155357Y-15463929D01*
X17141071Y-15521071D01*
X17126786Y-15549643D01*
X17112500Y-15563929D01*
X17083928Y-15578214D01*
X17055357Y-15578214D01*
X17026786Y-15563929D01*
X17012500Y-15549643D01*
X16998214Y-15521071D01*
X16983928Y-15463929D01*
X16983928Y-15392500D01*
X16998214Y-15335357D01*
X17012500Y-15306786D01*
X17026786Y-15292500D01*
X17055357Y-15278214D01*
X17341071Y-15278214D02*
X17369643Y-15278214D01*
X17398214Y-15292500D01*
X17412500Y-15306786D01*
X17426786Y-15335357D01*
X17441071Y-15392500D01*
X17441071Y-15463929D01*
X17426786Y-15521071D01*
X17412500Y-15549643D01*
X17398214Y-15563929D01*
X17369643Y-15578214D01*
X17341071Y-15578214D01*
X17312500Y-15563929D01*
X17298214Y-15549643D01*
X17283928Y-15521071D01*
X17269643Y-15463929D01*
X17269643Y-15392500D01*
X17283928Y-15335357D01*
X17298214Y-15306786D01*
X17312500Y-15292500D01*
X17341071Y-15278214D01*
X17569643Y-15578214D02*
X17569643Y-15378214D01*
X17569643Y-15406786D02*
X17583928Y-15392500D01*
X17612500Y-15378214D01*
X17655357Y-15378214D01*
X17683928Y-15392500D01*
X17698214Y-15421071D01*
X17698214Y-15578214D01*
X17698214Y-15421071D02*
X17712500Y-15392500D01*
X17741071Y-15378214D01*
X17783928Y-15378214D01*
X17812500Y-15392500D01*
X17826786Y-15421071D01*
X17826786Y-15578214D01*
X17969643Y-15578214D02*
X17969643Y-15378214D01*
X17969643Y-15406786D02*
X17983928Y-15392500D01*
X18012500Y-15378214D01*
X18055357Y-15378214D01*
X18083928Y-15392500D01*
X18098214Y-15421071D01*
X18098214Y-15578214D01*
X18098214Y-15421071D02*
X18112500Y-15392500D01*
X18141071Y-15378214D01*
X18183928Y-15378214D01*
X18212500Y-15392500D01*
X18226786Y-15421071D01*
X18226786Y-15578214D01*
X18812500Y-15263929D02*
X18555357Y-15649643D01*
X19198214Y-15278214D02*
X19226786Y-15278214D01*
X19255357Y-15292500D01*
X19269643Y-15306786D01*
X19283928Y-15335357D01*
X19298214Y-15392500D01*
X19298214Y-15463929D01*
X19283928Y-15521071D01*
X19269643Y-15549643D01*
X19255357Y-15563929D01*
X19226786Y-15578214D01*
X19198214Y-15578214D01*
X19169643Y-15563929D01*
X19155357Y-15549643D01*
X19141071Y-15521071D01*
X19126786Y-15463929D01*
X19126786Y-15392500D01*
X19141071Y-15335357D01*
X19155357Y-15306786D01*
X19169643Y-15292500D01*
X19198214Y-15278214D01*
X19426786Y-15549643D02*
X19441071Y-15563929D01*
X19426786Y-15578214D01*
X19412500Y-15563929D01*
X19426786Y-15549643D01*
X19426786Y-15578214D01*
X19626786Y-15278214D02*
X19655357Y-15278214D01*
X19683928Y-15292500D01*
X19698214Y-15306786D01*
X19712500Y-15335357D01*
X19726786Y-15392500D01*
X19726786Y-15463929D01*
X19712500Y-15521071D01*
X19698214Y-15549643D01*
X19683928Y-15563929D01*
X19655357Y-15578214D01*
X19626786Y-15578214D01*
X19598214Y-15563929D01*
X19583928Y-15549643D01*
X19569643Y-15521071D01*
X19555357Y-15463929D01*
X19555357Y-15392500D01*
X19569643Y-15335357D01*
X19583928Y-15306786D01*
X19598214Y-15292500D01*
X19626786Y-15278214D01*
X19826786Y-15278214D02*
X20026786Y-15278214D01*
X19898214Y-15578214D01*
X20183928Y-15406786D02*
X20155357Y-15392500D01*
X20141071Y-15378214D01*
X20126786Y-15349643D01*
X20126786Y-15335357D01*
X20141071Y-15306786D01*
X20155357Y-15292500D01*
X20183928Y-15278214D01*
X20241071Y-15278214D01*
X20269643Y-15292500D01*
X20283928Y-15306786D01*
X20298214Y-15335357D01*
X20298214Y-15349643D01*
X20283928Y-15378214D01*
X20269643Y-15392500D01*
X20241071Y-15406786D01*
X20183928Y-15406786D01*
X20155357Y-15421071D01*
X20141071Y-15435357D01*
X20126786Y-15463929D01*
X20126786Y-15521071D01*
X20141071Y-15549643D01*
X20155357Y-15563929D01*
X20183928Y-15578214D01*
X20241071Y-15578214D01*
X20269643Y-15563929D01*
X20283928Y-15549643D01*
X20298214Y-15521071D01*
X20298214Y-15463929D01*
X20283928Y-15435357D01*
X20269643Y-15421071D01*
X20241071Y-15406786D01*
X20398214Y-15278214D02*
X20598214Y-15278214D01*
X20469643Y-15578214D01*
X20698214Y-15278214D02*
X20698214Y-15335357D01*
X20812500Y-15278214D02*
X20812500Y-15335357D01*
X21255357Y-15692500D02*
X21241071Y-15678214D01*
X21212500Y-15635357D01*
X21198214Y-15606786D01*
X21183928Y-15563929D01*
X21169643Y-15492500D01*
X21169643Y-15435357D01*
X21183928Y-15363929D01*
X21198214Y-15321071D01*
X21212500Y-15292500D01*
X21241071Y-15249643D01*
X21255357Y-15235357D01*
X21426786Y-15278214D02*
X21455357Y-15278214D01*
X21483928Y-15292500D01*
X21498214Y-15306786D01*
X21512500Y-15335357D01*
X21526786Y-15392500D01*
X21526786Y-15463929D01*
X21512500Y-15521071D01*
X21498214Y-15549643D01*
X21483928Y-15563929D01*
X21455357Y-15578214D01*
X21426786Y-15578214D01*
X21398214Y-15563929D01*
X21383928Y-15549643D01*
X21369643Y-15521071D01*
X21355357Y-15463929D01*
X21355357Y-15392500D01*
X21369643Y-15335357D01*
X21383928Y-15306786D01*
X21398214Y-15292500D01*
X21426786Y-15278214D01*
X21883928Y-15578214D02*
X21883928Y-15278214D01*
X22012500Y-15578214D02*
X22012500Y-15421071D01*
X21998214Y-15392500D01*
X21969643Y-15378214D01*
X21926786Y-15378214D01*
X21898214Y-15392500D01*
X21883928Y-15406786D01*
X22198214Y-15578214D02*
X22169643Y-15563929D01*
X22155357Y-15549643D01*
X22141071Y-15521071D01*
X22141071Y-15435357D01*
X22155357Y-15406786D01*
X22169643Y-15392500D01*
X22198214Y-15378214D01*
X22241071Y-15378214D01*
X22269643Y-15392500D01*
X22283928Y-15406786D01*
X22298214Y-15435357D01*
X22298214Y-15521071D01*
X22283928Y-15549643D01*
X22269643Y-15563929D01*
X22241071Y-15578214D01*
X22198214Y-15578214D01*
X22469643Y-15578214D02*
X22441071Y-15563929D01*
X22426786Y-15535357D01*
X22426786Y-15278214D01*
X22698214Y-15563929D02*
X22669643Y-15578214D01*
X22612500Y-15578214D01*
X22583928Y-15563929D01*
X22569643Y-15535357D01*
X22569643Y-15421071D01*
X22583928Y-15392500D01*
X22612500Y-15378214D01*
X22669643Y-15378214D01*
X22698214Y-15392500D01*
X22712500Y-15421071D01*
X22712500Y-15449643D01*
X22569643Y-15478214D01*
X22826786Y-15563929D02*
X22855357Y-15578214D01*
X22912500Y-15578214D01*
X22941071Y-15563929D01*
X22955357Y-15535357D01*
X22955357Y-15521071D01*
X22941071Y-15492500D01*
X22912500Y-15478214D01*
X22869643Y-15478214D01*
X22841071Y-15463929D01*
X22826786Y-15435357D01*
X22826786Y-15421071D01*
X22841071Y-15392500D01*
X22869643Y-15378214D01*
X22912500Y-15378214D01*
X22941071Y-15392500D01*
X23312500Y-15463929D02*
X23541071Y-15463929D01*
X23426786Y-15578214D02*
X23426786Y-15349643D01*
X24041071Y-15378214D02*
X24041071Y-15578214D01*
X23969643Y-15263929D02*
X23898214Y-15478214D01*
X24083928Y-15478214D01*
X24412500Y-15563929D02*
X24441071Y-15578214D01*
X24498214Y-15578214D01*
X24526786Y-15563929D01*
X24541071Y-15535357D01*
X24541071Y-15521071D01*
X24526786Y-15492500D01*
X24498214Y-15478214D01*
X24455357Y-15478214D01*
X24426786Y-15463929D01*
X24412500Y-15435357D01*
X24412500Y-15421071D01*
X24426786Y-15392500D01*
X24455357Y-15378214D01*
X24498214Y-15378214D01*
X24526786Y-15392500D01*
X24712500Y-15578214D02*
X24683928Y-15563929D01*
X24669643Y-15535357D01*
X24669643Y-15278214D01*
X24869643Y-15578214D02*
X24841071Y-15563929D01*
X24826786Y-15549643D01*
X24812500Y-15521071D01*
X24812500Y-15435357D01*
X24826786Y-15406786D01*
X24841071Y-15392500D01*
X24869643Y-15378214D01*
X24912500Y-15378214D01*
X24941071Y-15392500D01*
X24955357Y-15406786D01*
X24969643Y-15435357D01*
X24969643Y-15521071D01*
X24955357Y-15549643D01*
X24941071Y-15563929D01*
X24912500Y-15578214D01*
X24869643Y-15578214D01*
X25055357Y-15378214D02*
X25169643Y-15378214D01*
X25098214Y-15278214D02*
X25098214Y-15535357D01*
X25112500Y-15563929D01*
X25141071Y-15578214D01*
X25169643Y-15578214D01*
X25255357Y-15563929D02*
X25283928Y-15578214D01*
X25341071Y-15578214D01*
X25369643Y-15563929D01*
X25383928Y-15535357D01*
X25383928Y-15521071D01*
X25369643Y-15492500D01*
X25341071Y-15478214D01*
X25298214Y-15478214D01*
X25269643Y-15463929D01*
X25255357Y-15435357D01*
X25255357Y-15421071D01*
X25269643Y-15392500D01*
X25298214Y-15378214D01*
X25341071Y-15378214D01*
X25369643Y-15392500D01*
X25483928Y-15692500D02*
X25498214Y-15678214D01*
X25526786Y-15635357D01*
X25541071Y-15606786D01*
X25555357Y-15563929D01*
X25569643Y-15492500D01*
X25569643Y-15435357D01*
X25555357Y-15363929D01*
X25541071Y-15321071D01*
X25526786Y-15292500D01*
X25498214Y-15249643D01*
X25483928Y-15235357D01*
X15777500Y-15728500D02*
X15997500Y-15948500D01*
X15997500Y-15728500D02*
X15777500Y-15948500D01*
X15887500Y-15728500D02*
X15887500Y-15948500D01*
X15777500Y-15838500D02*
X15997500Y-15838500D01*
X16269643Y-15702786D02*
X16283928Y-15688500D01*
X16312500Y-15674214D01*
X16383928Y-15674214D01*
X16412500Y-15688500D01*
X16426786Y-15702786D01*
X16441071Y-15731357D01*
X16441071Y-15759929D01*
X16426786Y-15802786D01*
X16255357Y-15974214D01*
X16441071Y-15974214D01*
X16569643Y-15945643D02*
X16583928Y-15959929D01*
X16569643Y-15974214D01*
X16555357Y-15959929D01*
X16569643Y-15945643D01*
X16569643Y-15974214D01*
X16698214Y-15702786D02*
X16712500Y-15688500D01*
X16741071Y-15674214D01*
X16812500Y-15674214D01*
X16841071Y-15688500D01*
X16855357Y-15702786D01*
X16869643Y-15731357D01*
X16869643Y-15759929D01*
X16855357Y-15802786D01*
X16683928Y-15974214D01*
X16869643Y-15974214D01*
X17055357Y-15674214D02*
X17083928Y-15674214D01*
X17112500Y-15688500D01*
X17126786Y-15702786D01*
X17141071Y-15731357D01*
X17155357Y-15788500D01*
X17155357Y-15859929D01*
X17141071Y-15917071D01*
X17126786Y-15945643D01*
X17112500Y-15959929D01*
X17083928Y-15974214D01*
X17055357Y-15974214D01*
X17026786Y-15959929D01*
X17012500Y-15945643D01*
X16998214Y-15917071D01*
X16983928Y-15859929D01*
X16983928Y-15788500D01*
X16998214Y-15731357D01*
X17012500Y-15702786D01*
X17026786Y-15688500D01*
X17055357Y-15674214D01*
X17341071Y-15674214D02*
X17369643Y-15674214D01*
X17398214Y-15688500D01*
X17412500Y-15702786D01*
X17426786Y-15731357D01*
X17441071Y-15788500D01*
X17441071Y-15859929D01*
X17426786Y-15917071D01*
X17412500Y-15945643D01*
X17398214Y-15959929D01*
X17369643Y-15974214D01*
X17341071Y-15974214D01*
X17312500Y-15959929D01*
X17298214Y-15945643D01*
X17283928Y-15917071D01*
X17269643Y-15859929D01*
X17269643Y-15788500D01*
X17283928Y-15731357D01*
X17298214Y-15702786D01*
X17312500Y-15688500D01*
X17341071Y-15674214D01*
X17569643Y-15974214D02*
X17569643Y-15774214D01*
X17569643Y-15802786D02*
X17583928Y-15788500D01*
X17612500Y-15774214D01*
X17655357Y-15774214D01*
X17683928Y-15788500D01*
X17698214Y-15817071D01*
X17698214Y-15974214D01*
X17698214Y-15817071D02*
X17712500Y-15788500D01*
X17741071Y-15774214D01*
X17783928Y-15774214D01*
X17812500Y-15788500D01*
X17826786Y-15817071D01*
X17826786Y-15974214D01*
X17969643Y-15974214D02*
X17969643Y-15774214D01*
X17969643Y-15802786D02*
X17983928Y-15788500D01*
X18012500Y-15774214D01*
X18055357Y-15774214D01*
X18083928Y-15788500D01*
X18098214Y-15817071D01*
X18098214Y-15974214D01*
X18098214Y-15817071D02*
X18112500Y-15788500D01*
X18141071Y-15774214D01*
X18183928Y-15774214D01*
X18212500Y-15788500D01*
X18226786Y-15817071D01*
X18226786Y-15974214D01*
X18812500Y-15659929D02*
X18555357Y-16045643D01*
X19198214Y-15674214D02*
X19226786Y-15674214D01*
X19255357Y-15688500D01*
X19269643Y-15702786D01*
X19283928Y-15731357D01*
X19298214Y-15788500D01*
X19298214Y-15859929D01*
X19283928Y-15917071D01*
X19269643Y-15945643D01*
X19255357Y-15959929D01*
X19226786Y-15974214D01*
X19198214Y-15974214D01*
X19169643Y-15959929D01*
X19155357Y-15945643D01*
X19141071Y-15917071D01*
X19126786Y-15859929D01*
X19126786Y-15788500D01*
X19141071Y-15731357D01*
X19155357Y-15702786D01*
X19169643Y-15688500D01*
X19198214Y-15674214D01*
X19426786Y-15945643D02*
X19441071Y-15959929D01*
X19426786Y-15974214D01*
X19412500Y-15959929D01*
X19426786Y-15945643D01*
X19426786Y-15974214D01*
X19626786Y-15674214D02*
X19655357Y-15674214D01*
X19683928Y-15688500D01*
X19698214Y-15702786D01*
X19712500Y-15731357D01*
X19726786Y-15788500D01*
X19726786Y-15859929D01*
X19712500Y-15917071D01*
X19698214Y-15945643D01*
X19683928Y-15959929D01*
X19655357Y-15974214D01*
X19626786Y-15974214D01*
X19598214Y-15959929D01*
X19583928Y-15945643D01*
X19569643Y-15917071D01*
X19555357Y-15859929D01*
X19555357Y-15788500D01*
X19569643Y-15731357D01*
X19583928Y-15702786D01*
X19598214Y-15688500D01*
X19626786Y-15674214D01*
X19898214Y-15802786D02*
X19869643Y-15788500D01*
X19855357Y-15774214D01*
X19841071Y-15745643D01*
X19841071Y-15731357D01*
X19855357Y-15702786D01*
X19869643Y-15688500D01*
X19898214Y-15674214D01*
X19955357Y-15674214D01*
X19983928Y-15688500D01*
X19998214Y-15702786D01*
X20012500Y-15731357D01*
X20012500Y-15745643D01*
X19998214Y-15774214D01*
X19983928Y-15788500D01*
X19955357Y-15802786D01*
X19898214Y-15802786D01*
X19869643Y-15817071D01*
X19855357Y-15831357D01*
X19841071Y-15859929D01*
X19841071Y-15917071D01*
X19855357Y-15945643D01*
X19869643Y-15959929D01*
X19898214Y-15974214D01*
X19955357Y-15974214D01*
X19983928Y-15959929D01*
X19998214Y-15945643D01*
X20012500Y-15917071D01*
X20012500Y-15859929D01*
X19998214Y-15831357D01*
X19983928Y-15817071D01*
X19955357Y-15802786D01*
X20269643Y-15674214D02*
X20212500Y-15674214D01*
X20183928Y-15688500D01*
X20169643Y-15702786D01*
X20141071Y-15745643D01*
X20126786Y-15802786D01*
X20126786Y-15917071D01*
X20141071Y-15945643D01*
X20155357Y-15959929D01*
X20183928Y-15974214D01*
X20241071Y-15974214D01*
X20269643Y-15959929D01*
X20283928Y-15945643D01*
X20298214Y-15917071D01*
X20298214Y-15845643D01*
X20283928Y-15817071D01*
X20269643Y-15802786D01*
X20241071Y-15788500D01*
X20183928Y-15788500D01*
X20155357Y-15802786D01*
X20141071Y-15817071D01*
X20126786Y-15845643D01*
X20555357Y-15674214D02*
X20498214Y-15674214D01*
X20469643Y-15688500D01*
X20455357Y-15702786D01*
X20426786Y-15745643D01*
X20412500Y-15802786D01*
X20412500Y-15917071D01*
X20426786Y-15945643D01*
X20441071Y-15959929D01*
X20469643Y-15974214D01*
X20526786Y-15974214D01*
X20555357Y-15959929D01*
X20569643Y-15945643D01*
X20583928Y-15917071D01*
X20583928Y-15845643D01*
X20569643Y-15817071D01*
X20555357Y-15802786D01*
X20526786Y-15788500D01*
X20469643Y-15788500D01*
X20441071Y-15802786D01*
X20426786Y-15817071D01*
X20412500Y-15845643D01*
X20698214Y-15674214D02*
X20698214Y-15731357D01*
X20812500Y-15674214D02*
X20812500Y-15731357D01*
X21255357Y-16088500D02*
X21241071Y-16074214D01*
X21212500Y-16031357D01*
X21198214Y-16002786D01*
X21183928Y-15959929D01*
X21169643Y-15888500D01*
X21169643Y-15831357D01*
X21183928Y-15759929D01*
X21198214Y-15717071D01*
X21212500Y-15688500D01*
X21241071Y-15645643D01*
X21255357Y-15631357D01*
X21498214Y-15774214D02*
X21498214Y-15974214D01*
X21426786Y-15659929D02*
X21355357Y-15874214D01*
X21541071Y-15874214D01*
X21883928Y-15974214D02*
X21883928Y-15674214D01*
X22012500Y-15974214D02*
X22012500Y-15817071D01*
X21998214Y-15788500D01*
X21969643Y-15774214D01*
X21926786Y-15774214D01*
X21898214Y-15788500D01*
X21883928Y-15802786D01*
X22198214Y-15974214D02*
X22169643Y-15959929D01*
X22155357Y-15945643D01*
X22141071Y-15917071D01*
X22141071Y-15831357D01*
X22155357Y-15802786D01*
X22169643Y-15788500D01*
X22198214Y-15774214D01*
X22241071Y-15774214D01*
X22269643Y-15788500D01*
X22283928Y-15802786D01*
X22298214Y-15831357D01*
X22298214Y-15917071D01*
X22283928Y-15945643D01*
X22269643Y-15959929D01*
X22241071Y-15974214D01*
X22198214Y-15974214D01*
X22469643Y-15974214D02*
X22441071Y-15959929D01*
X22426786Y-15931357D01*
X22426786Y-15674214D01*
X22698214Y-15959929D02*
X22669643Y-15974214D01*
X22612500Y-15974214D01*
X22583928Y-15959929D01*
X22569643Y-15931357D01*
X22569643Y-15817071D01*
X22583928Y-15788500D01*
X22612500Y-15774214D01*
X22669643Y-15774214D01*
X22698214Y-15788500D01*
X22712500Y-15817071D01*
X22712500Y-15845643D01*
X22569643Y-15874214D01*
X22826786Y-15959929D02*
X22855357Y-15974214D01*
X22912500Y-15974214D01*
X22941071Y-15959929D01*
X22955357Y-15931357D01*
X22955357Y-15917071D01*
X22941071Y-15888500D01*
X22912500Y-15874214D01*
X22869643Y-15874214D01*
X22841071Y-15859929D01*
X22826786Y-15831357D01*
X22826786Y-15817071D01*
X22841071Y-15788500D01*
X22869643Y-15774214D01*
X22912500Y-15774214D01*
X22941071Y-15788500D01*
X23055357Y-16088500D02*
X23069643Y-16074214D01*
X23098214Y-16031357D01*
X23112500Y-16002786D01*
X23126786Y-15959929D01*
X23141071Y-15888500D01*
X23141071Y-15831357D01*
X23126786Y-15759929D01*
X23112500Y-15717071D01*
X23098214Y-15688500D01*
X23069643Y-15645643D01*
X23055357Y-15631357D01*
X15697500Y-16084500D02*
X15997500Y-16384500D01*
X15997500Y-16084500D02*
X15697500Y-16384500D01*
X15953567Y-16340567D02*
X15953567Y-16128433D01*
X15741433Y-16128433D01*
X15741433Y-16340567D01*
X15953567Y-16340567D01*
X16255357Y-16070214D02*
X16441071Y-16070214D01*
X16341071Y-16184500D01*
X16383928Y-16184500D01*
X16412500Y-16198786D01*
X16426786Y-16213071D01*
X16441071Y-16241643D01*
X16441071Y-16313071D01*
X16426786Y-16341643D01*
X16412500Y-16355929D01*
X16383928Y-16370214D01*
X16298214Y-16370214D01*
X16269643Y-16355929D01*
X16255357Y-16341643D01*
X16569643Y-16341643D02*
X16583928Y-16355929D01*
X16569643Y-16370214D01*
X16555357Y-16355929D01*
X16569643Y-16341643D01*
X16569643Y-16370214D01*
X16769643Y-16070214D02*
X16798214Y-16070214D01*
X16826786Y-16084500D01*
X16841071Y-16098786D01*
X16855357Y-16127357D01*
X16869643Y-16184500D01*
X16869643Y-16255929D01*
X16855357Y-16313071D01*
X16841071Y-16341643D01*
X16826786Y-16355929D01*
X16798214Y-16370214D01*
X16769643Y-16370214D01*
X16741071Y-16355929D01*
X16726786Y-16341643D01*
X16712500Y-16313071D01*
X16698214Y-16255929D01*
X16698214Y-16184500D01*
X16712500Y-16127357D01*
X16726786Y-16098786D01*
X16741071Y-16084500D01*
X16769643Y-16070214D01*
X17055357Y-16070214D02*
X17083928Y-16070214D01*
X17112500Y-16084500D01*
X17126786Y-16098786D01*
X17141071Y-16127357D01*
X17155357Y-16184500D01*
X17155357Y-16255929D01*
X17141071Y-16313071D01*
X17126786Y-16341643D01*
X17112500Y-16355929D01*
X17083928Y-16370214D01*
X17055357Y-16370214D01*
X17026786Y-16355929D01*
X17012500Y-16341643D01*
X16998214Y-16313071D01*
X16983928Y-16255929D01*
X16983928Y-16184500D01*
X16998214Y-16127357D01*
X17012500Y-16098786D01*
X17026786Y-16084500D01*
X17055357Y-16070214D01*
X17341071Y-16070214D02*
X17369643Y-16070214D01*
X17398214Y-16084500D01*
X17412500Y-16098786D01*
X17426786Y-16127357D01*
X17441071Y-16184500D01*
X17441071Y-16255929D01*
X17426786Y-16313071D01*
X17412500Y-16341643D01*
X17398214Y-16355929D01*
X17369643Y-16370214D01*
X17341071Y-16370214D01*
X17312500Y-16355929D01*
X17298214Y-16341643D01*
X17283928Y-16313071D01*
X17269643Y-16255929D01*
X17269643Y-16184500D01*
X17283928Y-16127357D01*
X17298214Y-16098786D01*
X17312500Y-16084500D01*
X17341071Y-16070214D01*
X17569643Y-16370214D02*
X17569643Y-16170214D01*
X17569643Y-16198786D02*
X17583928Y-16184500D01*
X17612500Y-16170214D01*
X17655357Y-16170214D01*
X17683928Y-16184500D01*
X17698214Y-16213071D01*
X17698214Y-16370214D01*
X17698214Y-16213071D02*
X17712500Y-16184500D01*
X17741071Y-16170214D01*
X17783928Y-16170214D01*
X17812500Y-16184500D01*
X17826786Y-16213071D01*
X17826786Y-16370214D01*
X17969643Y-16370214D02*
X17969643Y-16170214D01*
X17969643Y-16198786D02*
X17983928Y-16184500D01*
X18012500Y-16170214D01*
X18055357Y-16170214D01*
X18083928Y-16184500D01*
X18098214Y-16213071D01*
X18098214Y-16370214D01*
X18098214Y-16213071D02*
X18112500Y-16184500D01*
X18141071Y-16170214D01*
X18183928Y-16170214D01*
X18212500Y-16184500D01*
X18226786Y-16213071D01*
X18226786Y-16370214D01*
X18812500Y-16055929D02*
X18555357Y-16441643D01*
X19198214Y-16070214D02*
X19226786Y-16070214D01*
X19255357Y-16084500D01*
X19269643Y-16098786D01*
X19283928Y-16127357D01*
X19298214Y-16184500D01*
X19298214Y-16255929D01*
X19283928Y-16313071D01*
X19269643Y-16341643D01*
X19255357Y-16355929D01*
X19226786Y-16370214D01*
X19198214Y-16370214D01*
X19169643Y-16355929D01*
X19155357Y-16341643D01*
X19141071Y-16313071D01*
X19126786Y-16255929D01*
X19126786Y-16184500D01*
X19141071Y-16127357D01*
X19155357Y-16098786D01*
X19169643Y-16084500D01*
X19198214Y-16070214D01*
X19426786Y-16341643D02*
X19441071Y-16355929D01*
X19426786Y-16370214D01*
X19412500Y-16355929D01*
X19426786Y-16341643D01*
X19426786Y-16370214D01*
X19726786Y-16370214D02*
X19555357Y-16370214D01*
X19641071Y-16370214D02*
X19641071Y-16070214D01*
X19612500Y-16113071D01*
X19583928Y-16141643D01*
X19555357Y-16155929D01*
X20012500Y-16370214D02*
X19841071Y-16370214D01*
X19926786Y-16370214D02*
X19926786Y-16070214D01*
X19898214Y-16113071D01*
X19869643Y-16141643D01*
X19841071Y-16155929D01*
X20183928Y-16198786D02*
X20155357Y-16184500D01*
X20141071Y-16170214D01*
X20126786Y-16141643D01*
X20126786Y-16127357D01*
X20141071Y-16098786D01*
X20155357Y-16084500D01*
X20183928Y-16070214D01*
X20241071Y-16070214D01*
X20269643Y-16084500D01*
X20283928Y-16098786D01*
X20298214Y-16127357D01*
X20298214Y-16141643D01*
X20283928Y-16170214D01*
X20269643Y-16184500D01*
X20241071Y-16198786D01*
X20183928Y-16198786D01*
X20155357Y-16213071D01*
X20141071Y-16227357D01*
X20126786Y-16255929D01*
X20126786Y-16313071D01*
X20141071Y-16341643D01*
X20155357Y-16355929D01*
X20183928Y-16370214D01*
X20241071Y-16370214D01*
X20269643Y-16355929D01*
X20283928Y-16341643D01*
X20298214Y-16313071D01*
X20298214Y-16255929D01*
X20283928Y-16227357D01*
X20269643Y-16213071D01*
X20241071Y-16198786D01*
X20583928Y-16370214D02*
X20412500Y-16370214D01*
X20498214Y-16370214D02*
X20498214Y-16070214D01*
X20469643Y-16113071D01*
X20441071Y-16141643D01*
X20412500Y-16155929D01*
X20698214Y-16070214D02*
X20698214Y-16127357D01*
X20812500Y-16070214D02*
X20812500Y-16127357D01*
X21255357Y-16484500D02*
X21241071Y-16470214D01*
X21212500Y-16427357D01*
X21198214Y-16398786D01*
X21183928Y-16355929D01*
X21169643Y-16284500D01*
X21169643Y-16227357D01*
X21183928Y-16155929D01*
X21198214Y-16113071D01*
X21212500Y-16084500D01*
X21241071Y-16041643D01*
X21255357Y-16027357D01*
X21498214Y-16170214D02*
X21498214Y-16370214D01*
X21426786Y-16055929D02*
X21355357Y-16270214D01*
X21541071Y-16270214D01*
X21883928Y-16370214D02*
X21883928Y-16070214D01*
X22012500Y-16370214D02*
X22012500Y-16213071D01*
X21998214Y-16184500D01*
X21969643Y-16170214D01*
X21926786Y-16170214D01*
X21898214Y-16184500D01*
X21883928Y-16198786D01*
X22198214Y-16370214D02*
X22169643Y-16355929D01*
X22155357Y-16341643D01*
X22141071Y-16313071D01*
X22141071Y-16227357D01*
X22155357Y-16198786D01*
X22169643Y-16184500D01*
X22198214Y-16170214D01*
X22241071Y-16170214D01*
X22269643Y-16184500D01*
X22283928Y-16198786D01*
X22298214Y-16227357D01*
X22298214Y-16313071D01*
X22283928Y-16341643D01*
X22269643Y-16355929D01*
X22241071Y-16370214D01*
X22198214Y-16370214D01*
X22469643Y-16370214D02*
X22441071Y-16355929D01*
X22426786Y-16327357D01*
X22426786Y-16070214D01*
X22698214Y-16355929D02*
X22669643Y-16370214D01*
X22612500Y-16370214D01*
X22583928Y-16355929D01*
X22569643Y-16327357D01*
X22569643Y-16213071D01*
X22583928Y-16184500D01*
X22612500Y-16170214D01*
X22669643Y-16170214D01*
X22698214Y-16184500D01*
X22712500Y-16213071D01*
X22712500Y-16241643D01*
X22569643Y-16270214D01*
X22826786Y-16355929D02*
X22855357Y-16370214D01*
X22912500Y-16370214D01*
X22941071Y-16355929D01*
X22955357Y-16327357D01*
X22955357Y-16313071D01*
X22941071Y-16284500D01*
X22912500Y-16270214D01*
X22869643Y-16270214D01*
X22841071Y-16255929D01*
X22826786Y-16227357D01*
X22826786Y-16213071D01*
X22841071Y-16184500D01*
X22869643Y-16170214D01*
X22912500Y-16170214D01*
X22941071Y-16184500D01*
X23055357Y-16484500D02*
X23069643Y-16470214D01*
X23098214Y-16427357D01*
X23112500Y-16398786D01*
X23126786Y-16355929D01*
X23141071Y-16284500D01*
X23141071Y-16227357D01*
X23126786Y-16155929D01*
X23112500Y-16113071D01*
X23098214Y-16084500D01*
X23069643Y-16041643D01*
X23055357Y-16027357D01*
M02*
